<svg id="Layer_6" data-name="Layer 6" xmlns="http://www.w3.org/2000/svg" viewBox="0 0 82.44 82.56"><defs><style>.cls-1{fill:#333;}</style></defs><title>QSenS-logo-short</title><path class="cls-1" d="M485.36,452.21l13.08,13.08H457.52a40.75,40.75,0,0,1-23.64-7.56,41.24,41.24,0,0,1-6.72-61.56,41.91,41.91,0,0,1,7.8-6.72,41.27,41.27,0,0,1,57.12,57.12L491,448.25l-14.88-14.88.48-1.08a20.81,20.81,0,0,0-27.48-27.48,21.79,21.79,0,0,0-6.12,4.32,12.75,12.75,0,0,0-1.08,1.32A21.06,21.06,0,0,0,437,423.89a20.52,20.52,0,0,0,6.12,14.64,21,21,0,0,0,14.4,6.12h20.64l.48.48Z" transform="translate(-416.36 -382.73)"/></svg>