<svg id="Layer_5" data-name="Layer 5" xmlns="http://www.w3.org/2000/svg" viewBox="0 0 386.08 83.8"><defs><style>.cls-1{fill:#333;}.cls-2{fill:#2877ff;}.cls-3{fill:#3fa9f5;opacity:0.82;}</style></defs><title>QSenS-logo</title><path class="cls-1" d="M485.36,452.21l13.08,13.08H457.52a40.75,40.75,0,0,1-23.64-7.56,41.24,41.24,0,0,1-6.72-61.56,41.91,41.91,0,0,1,7.8-6.72,41.27,41.27,0,0,1,57.12,57.12L491,448.25l-14.88-14.88.48-1.08a20.81,20.81,0,0,0-27.48-27.48,21.79,21.79,0,0,0-6.12,4.32,12.75,12.75,0,0,0-1.08,1.32A21.06,21.06,0,0,0,437,423.89a20.52,20.52,0,0,0,6.12,14.64,21,21,0,0,0,14.4,6.12h20.64l.48.48Z" transform="translate(-416.36 -382.73)"/><polygon class="cls-2" points="200.15 61.21 183.21 44.27 183.21 26.18 230.08 26.18 230.08 40.1 198.64 40.1 205.95 47.41 230.19 47.41 230.19 61.33 200.15 61.21"/><polygon class="cls-3" points="230.19 68.52 230.19 82.44 183.33 82.44 183.33 50.65 197.25 64.57 197.25 68.52 230.19 68.52"/><polygon class="cls-3" points="293.53 24.67 293.53 82.44 280.42 82.44 279.84 81.86 264.53 66.54 255.6 57.61 241.68 43.69 241.68 26.18 243.88 26.18 244.23 26.53 279.61 61.91 279.61 38.59 279.96 38.24 293.53 24.67"/><polygon class="cls-2" points="241.79 50.19 255.71 64.11 255.71 82.44 241.79 82.44 241.79 50.19"/><polygon class="cls-3" points="174.84 4.33 174.84 24.01 143.86 24.01 124.21 4.33 174.84 4.33"/><path class="cls-2" d="M565,416.94H534.93a5.08,5.08,0,0,1,0-10.15H549.8L534.93,392l-4.54-4.51a24.79,24.79,0,0,0,4.45,49.17H565a5.08,5.08,0,0,1,0,10.15H510.13v19.72H565a24.8,24.8,0,0,0,0-49.6Z" transform="translate(-416.36 -382.73)"/><polygon class="cls-3" points="386.08 4.02 386.08 23.7 355.11 23.7 335.46 4.02 386.08 4.02"/><path class="cls-2" d="M776.24,416.62H746.18a5.08,5.08,0,0,1,0-10.15h14.87l-14.87-14.79-4.54-4.52a24.79,24.79,0,0,0,4.45,49.17h30.15a5.08,5.08,0,0,1,0,10.15H721.38v19.72h54.86a24.8,24.8,0,0,0,0-49.6Z" transform="translate(-416.36 -382.73)"/></svg>