<?xml version="1.0" encoding="utf-8"?>
<!-- Generator: Adobe Illustrator 24.0.2, SVG Export Plug-In . SVG Version: 6.00 Build 0)  -->
<svg version="1.1" id="Layer_1" xmlns="http://www.w3.org/2000/svg" xmlns:xlink="http://www.w3.org/1999/xlink" x="0px" y="0px"
	 viewBox="0 0 100 100" style="enable-background:new 0 0 100 100;" xml:space="preserve">
<style type="text/css">
	.st0{fill-rule:evenodd;clip-rule:evenodd;fill:#2E2E2C;}
	.st1{fill:none;stroke:#CBCCCB;stroke-width:0.25;}
</style>
<g id="Group">
	<path id="Fill-1" class="st0" d="M49.6,28.4c5.3,0,10.2,1.5,14.3,4.2C57.8,26.8,56.2,0,49.6,0c-6.7,0-8.2,27-14.4,32.6
		C39.3,29.9,44.3,28.4,49.6,28.4"/>
	<path id="Stroke-2" class="st1" d="M49.6,28.4c5.3,0,10.2,1.5,14.3,4.2C57.8,26.8,56.2,0,49.6,0c-6.7,0-8.2,27-14.4,32.6
		C39.3,29.9,44.3,28.4,49.6,28.4L49.6,28.4z"/>
	<path id="Fill-4" class="st0" d="M27.9,50c0-5.3,1.5-10.2,4.2-14.3C26.3,41.8-0.5,43.4-0.5,50c0,6.7,27,8.2,32.6,14.4
		C29.4,60.3,27.9,55.3,27.9,50"/>
	<path id="Stroke-5" class="st1" d="M27.9,50c0-5.3,1.5-10.2,4.2-14.3C26.3,41.8-0.5,43.4-0.5,50c0,6.7,27,8.2,32.6,14.4
		C29.4,60.3,27.9,55.3,27.9,50L27.9,50z"/>
	<path id="Fill-6" class="st0" d="M49.5,71.7c-5.3,0-10.2-1.5-14.3-4.2c6.2,5.7,7.7,32.5,14.4,32.5c6.7,0,8.2-27,14.4-32.6
		C59.8,70.2,54.8,71.7,49.5,71.7"/>
	<path id="Stroke-7" class="st1" d="M49.5,71.7c-5.3,0-10.2-1.5-14.3-4.2c6.2,5.7,7.7,32.5,14.4,32.5c6.7,0,8.2-27,14.4-32.6
		C59.8,70.2,54.8,71.7,49.5,71.7L49.5,71.7z"/>
	<path id="Fill-8" class="st0" d="M71.2,50.1c0,5.3-1.5,10.2-4.2,14.3c5.7-6.2,32.5-7.7,32.5-14.4c0-6.7-27-8.2-32.6-14.4
		C69.7,39.8,71.2,44.8,71.2,50.1"/>
	<path id="Stroke-9" class="st1" d="M71.2,50.1c0,5.3-1.5,10.2-4.2,14.3c5.7-6.2,32.5-7.7,32.5-14.4c0-6.7-27-8.2-32.6-14.4
		C69.7,39.8,71.2,44.8,71.2,50.1L71.2,50.1z"/>
	<path id="Fill-10" class="st0" d="M66.3,50.1c0,9.2-7.5,16.7-16.7,16.7c-9.2,0-16.7-7.5-16.7-16.7c0-9.2,7.5-16.7,16.7-16.7
		C58.8,33.4,66.3,40.9,66.3,50.1"/>
	<path id="Stroke-11" class="st1" d="M66.3,50.1c0,9.2-7.5,16.7-16.7,16.7c-9.2,0-16.7-7.5-16.7-16.7c0-9.2,7.5-16.7,16.7-16.7
		C58.8,33.4,66.3,40.9,66.3,50.1L66.3,50.1z"/>
</g>
</svg>
