<?xml version="1.0" encoding="utf-8"?>
<!-- Generator: Adobe Illustrator 19.0.0, SVG Export Plug-In . SVG Version: 6.00 Build 0)  -->
<svg version="1.1" id="Layer_1" xmlns="http://www.w3.org/2000/svg" xmlns:xlink="http://www.w3.org/1999/xlink" x="0px" y="0px"
	 width="100px" height="100px" viewBox="0 0 100 100" style="enable-background:new 0 0 100 100;" xml:space="preserve">
<style type="text/css">
	.st0{fill:#FFFFFF;}
	.st1{fill:#009FFF;}
</style>
<circle id="XMLID_7_" class="st0" cx="50" cy="50" r="50"/>
<g id="XMLID_3_">
	<path id="XMLID_2_" class="st1" d="M71,28.8H42.6c-1.2,0-2.2-1-2.2-2.2c0-1.2,1-2.2,2.2-2.2h30.6c1.2,0,2.2,1,2.2,2.2v30.6
		c0,1.2-1,2.2-2.2,2.2s-2.2-1-2.2-2.2V28.8z"/>
	<path id="XMLID_1_" class="st1" d="M29,71.2h28.4c1.2,0,2.2,1,2.2,2.2s-1,2.2-2.2,2.2H26.8c-1.2,0-2.2-1-2.2-2.2V42.8
		c0-1.2,1-2.2,2.2-2.2c1.2,0,2.2,1,2.2,2.2V71.2z"/>
</g>
</svg>
