<?xml version="1.0" encoding="utf-8"?>
<!-- Generator: Adobe Illustrator 19.0.0, SVG Export Plug-In . SVG Version: 6.00 Build 0)  -->
<svg version="1.1" id="Layer_1" xmlns="http://www.w3.org/2000/svg" xmlns:xlink="http://www.w3.org/1999/xlink" x="0px" y="0px"
	 width="265px" height="318px" viewBox="83 -109 265 318" style="enable-background:new 83 -109 265 318;" xml:space="preserve">
<style type="text/css">
	.st0{display:none;}
	.st1{display:inline;fill:url(#SVGID_1_);}
	.st2{display:inline;fill:url(#SVGID_2_);}
	.st3{display:inline;fill:url(#SVGID_3_);}
	.st4{display:inline;fill:url(#SVGID_4_);}
	.st5{display:inline;fill:url(#SVGID_5_);}
	.st6{display:inline;fill:url(#SVGID_6_);}
	.st7{display:inline;fill:url(#SVGID_7_);}
	.st8{display:inline;fill:url(#SVGID_8_);}
	.st9{display:inline;fill:url(#SVGID_9_);}
	.st10{display:inline;fill:url(#SVGID_10_);}
	.st11{display:inline;fill:url(#SVGID_11_);}
	.st12{display:inline;fill:url(#SVGID_12_);}
	.st13{fill:#969696;}
	.st14{fill:#707070;stroke:#0075FF;stroke-width:2;stroke-linecap:round;stroke-miterlimit:10;}
	.st15{fill:#0075FF;}
	.st16{font-family:'Muli-Light';}
	.st17{font-size:20px;}
	.st18{fill:#969696;stroke:#969696;stroke-width:2;stroke-miterlimit:10;}
</style>
<g id="Layer_2" class="st0">
	
		<linearGradient id="SVGID_1_" gradientUnits="userSpaceOnUse" x1="169.8" y1="593.15" x2="277.9" y2="593.15" gradientTransform="matrix(1 0 0 1 0 4)">
		<stop  offset="0" style="stop-color:#FFFFFF"/>
		<stop  offset="4.970000e-02" style="stop-color:#E3F0FF"/>
		<stop  offset="0.153" style="stop-color:#AED3FF"/>
		<stop  offset="0.2606" style="stop-color:#80BAFF"/>
		<stop  offset="0.3703" style="stop-color:#58A5FF"/>
		<stop  offset="0.4827" style="stop-color:#3893FF"/>
		<stop  offset="0.5986" style="stop-color:#1F86FF"/>
		<stop  offset="0.7195" style="stop-color:#0E7CFF"/>
		<stop  offset="0.8485" style="stop-color:#0377FF"/>
		<stop  offset="1" style="stop-color:#0075FF"/>
	</linearGradient>
	<polygon class="st1" points="277.9,716.7 240.4,682.2 169.8,499.9 187.1,477.6 251.5,597.9 	"/>
	
		<linearGradient id="SVGID_2_" gradientUnits="userSpaceOnUse" x1="-83" y1="647.95" x2="229.2" y2="647.95" gradientTransform="matrix(1 0 0 1 0 4)">
		<stop  offset="0" style="stop-color:#FFFFFF"/>
		<stop  offset="4.970000e-02" style="stop-color:#E3F0FF"/>
		<stop  offset="0.153" style="stop-color:#AED3FF"/>
		<stop  offset="0.2606" style="stop-color:#80BAFF"/>
		<stop  offset="0.3703" style="stop-color:#58A5FF"/>
		<stop  offset="0.4827" style="stop-color:#3893FF"/>
		<stop  offset="0.5986" style="stop-color:#1F86FF"/>
		<stop  offset="0.7195" style="stop-color:#0E7CFF"/>
		<stop  offset="0.8485" style="stop-color:#0377FF"/>
		<stop  offset="1" style="stop-color:#0075FF"/>
	</linearGradient>
	<polygon class="st2" points="79.4,799.4 -83,688.3 -28.7,504.5 160.2,504.5 229.2,683.2 	"/>
	
		<linearGradient id="SVGID_3_" gradientUnits="userSpaceOnUse" x1="-79" y1="469.5" x2="177.9" y2="469.5" gradientTransform="matrix(1 0 0 1 0 4)">
		<stop  offset="0" style="stop-color:#FFFFFF"/>
		<stop  offset="4.970000e-02" style="stop-color:#E3F0FF"/>
		<stop  offset="0.153" style="stop-color:#AED3FF"/>
		<stop  offset="0.2606" style="stop-color:#80BAFF"/>
		<stop  offset="0.3703" style="stop-color:#58A5FF"/>
		<stop  offset="0.4827" style="stop-color:#3893FF"/>
		<stop  offset="0.5986" style="stop-color:#1F86FF"/>
		<stop  offset="0.7195" style="stop-color:#0E7CFF"/>
		<stop  offset="0.8485" style="stop-color:#0377FF"/>
		<stop  offset="1" style="stop-color:#0075FF"/>
	</linearGradient>
	<polygon class="st3" points="177.9,472 161.2,493.8 -31.2,493.8 -79,467.9 44.4,453.2 	"/>
	
		<linearGradient id="SVGID_4_" gradientUnits="userSpaceOnUse" x1="-177.5" y1="597.95" x2="-38.9" y2="597.95" gradientTransform="matrix(1 0 0 1 0 4)">
		<stop  offset="0" style="stop-color:#FFFFFF"/>
		<stop  offset="4.970000e-02" style="stop-color:#E3F0FF"/>
		<stop  offset="0.153" style="stop-color:#AED3FF"/>
		<stop  offset="0.2606" style="stop-color:#80BAFF"/>
		<stop  offset="0.3703" style="stop-color:#58A5FF"/>
		<stop  offset="0.4827" style="stop-color:#3893FF"/>
		<stop  offset="0.5986" style="stop-color:#1F86FF"/>
		<stop  offset="0.7195" style="stop-color:#0E7CFF"/>
		<stop  offset="0.8485" style="stop-color:#0377FF"/>
		<stop  offset="1" style="stop-color:#0075FF"/>
	</linearGradient>
	<polygon class="st4" points="-94.2,471.5 -38.9,501.9 -93.2,686.7 -177.5,732.4 -177.5,608.5 	"/>
	
		<linearGradient id="SVGID_5_" gradientUnits="userSpaceOnUse" x1="-174.9" y1="796.95" x2="74.4" y2="796.95" gradientTransform="matrix(1 0 0 1 0 4)">
		<stop  offset="0" style="stop-color:#FFFFFF"/>
		<stop  offset="4.970000e-02" style="stop-color:#E3F0FF"/>
		<stop  offset="0.153" style="stop-color:#AED3FF"/>
		<stop  offset="0.2606" style="stop-color:#80BAFF"/>
		<stop  offset="0.3703" style="stop-color:#58A5FF"/>
		<stop  offset="0.4827" style="stop-color:#3893FF"/>
		<stop  offset="0.5986" style="stop-color:#1F86FF"/>
		<stop  offset="0.7195" style="stop-color:#0E7CFF"/>
		<stop  offset="0.8485" style="stop-color:#0377FF"/>
		<stop  offset="1" style="stop-color:#0075FF"/>
	</linearGradient>
	<polygon class="st5" points="-174.9,743.1 -89.1,696.9 74.4,808.1 60.1,905 -87.6,864.9 	"/>
	
		<linearGradient id="SVGID_6_" gradientUnits="userSpaceOnUse" x1="71.3" y1="793.4" x2="279.5" y2="793.4" gradientTransform="matrix(1 0 0 1 0 4)">
		<stop  offset="0" style="stop-color:#FFFFFF"/>
		<stop  offset="4.970000e-02" style="stop-color:#E3F0FF"/>
		<stop  offset="0.153" style="stop-color:#AED3FF"/>
		<stop  offset="0.2606" style="stop-color:#80BAFF"/>
		<stop  offset="0.3703" style="stop-color:#58A5FF"/>
		<stop  offset="0.4827" style="stop-color:#3893FF"/>
		<stop  offset="0.5986" style="stop-color:#1F86FF"/>
		<stop  offset="0.7195" style="stop-color:#0E7CFF"/>
		<stop  offset="0.8485" style="stop-color:#0377FF"/>
		<stop  offset="1" style="stop-color:#0075FF"/>
	</linearGradient>
	<polygon class="st6" points="185.5,854.3 71.3,903 85,808.6 235.3,691.8 279.5,732.4 	"/>
	
		<linearGradient id="SVGID_7_" gradientUnits="userSpaceOnUse" x1="289.0237" y1="706.2778" x2="162.7903" y2="487.6352" gradientTransform="matrix(1 0 0 1 0 4)">
		<stop  offset="0" style="stop-color:#FFFFFF"/>
		<stop  offset="7.400000e-03" style="stop-color:#F6FAFF"/>
		<stop  offset="4.770000e-02" style="stop-color:#C8E1FF"/>
		<stop  offset="9.310000e-02" style="stop-color:#9DCAFF"/>
		<stop  offset="0.1419" style="stop-color:#77B5FF"/>
		<stop  offset="0.195" style="stop-color:#57A4FF"/>
		<stop  offset="0.2537" style="stop-color:#3B95FF"/>
		<stop  offset="0.32" style="stop-color:#2589FF"/>
		<stop  offset="0.3974" style="stop-color:#1480FF"/>
		<stop  offset="0.4931" style="stop-color:#097AFF"/>
		<stop  offset="0.6274" style="stop-color:#0276FF"/>
		<stop  offset="1" style="stop-color:#0075FF"/>
	</linearGradient>
	<polygon class="st7" points="277.9,716.7 240.4,682.2 169.8,499.9 187.1,477.6 251.5,597.9 	"/>
	
		<linearGradient id="SVGID_8_" gradientUnits="userSpaceOnUse" x1="-83" y1="647.95" x2="229.2" y2="647.95" gradientTransform="matrix(1 0 0 1 0 4)">
		<stop  offset="0" style="stop-color:#FFFFFF"/>
		<stop  offset="4.970000e-02" style="stop-color:#E3F0FF"/>
		<stop  offset="0.153" style="stop-color:#AED3FF"/>
		<stop  offset="0.2606" style="stop-color:#80BAFF"/>
		<stop  offset="0.3703" style="stop-color:#58A5FF"/>
		<stop  offset="0.4827" style="stop-color:#3893FF"/>
		<stop  offset="0.5986" style="stop-color:#1F86FF"/>
		<stop  offset="0.7195" style="stop-color:#0E7CFF"/>
		<stop  offset="0.8485" style="stop-color:#0377FF"/>
		<stop  offset="1" style="stop-color:#0075FF"/>
	</linearGradient>
	<polygon class="st8" points="79.4,799.4 -83,688.3 -28.7,504.5 160.2,504.5 229.2,683.2 	"/>
	
		<linearGradient id="SVGID_9_" gradientUnits="userSpaceOnUse" x1="28.559" y1="515.1662" x2="68.3232" y2="421.4874" gradientTransform="matrix(1 0 0 1 0 4)">
		<stop  offset="0" style="stop-color:#FFFFFF"/>
		<stop  offset="2.840000e-02" style="stop-color:#E8F3FF"/>
		<stop  offset="9.620000e-02" style="stop-color:#B8D9FF"/>
		<stop  offset="0.1697" style="stop-color:#8CC1FF"/>
		<stop  offset="0.2471" style="stop-color:#66ACFF"/>
		<stop  offset="0.3295" style="stop-color:#479BFF"/>
		<stop  offset="0.4183" style="stop-color:#2D8DFF"/>
		<stop  offset="0.516" style="stop-color:#1982FF"/>
		<stop  offset="0.6274" style="stop-color:#0B7BFF"/>
		<stop  offset="0.7641" style="stop-color:#0276FF"/>
		<stop  offset="1" style="stop-color:#0075FF"/>
	</linearGradient>
	<polygon class="st9" points="177.9,472 161.2,493.8 -31.2,493.8 -79,467.9 44.4,453.2 	"/>
	
		<linearGradient id="SVGID_10_" gradientUnits="userSpaceOnUse" x1="-70.951" y1="621.5712" x2="-170.5228" y2="585.3302" gradientTransform="matrix(1 0 0 1 0 4)">
		<stop  offset="0" style="stop-color:#FFFFFF"/>
		<stop  offset="4.970000e-02" style="stop-color:#E3F0FF"/>
		<stop  offset="0.153" style="stop-color:#AED3FF"/>
		<stop  offset="0.2606" style="stop-color:#80BAFF"/>
		<stop  offset="0.3703" style="stop-color:#58A5FF"/>
		<stop  offset="0.4827" style="stop-color:#3893FF"/>
		<stop  offset="0.5986" style="stop-color:#1F86FF"/>
		<stop  offset="0.7195" style="stop-color:#0E7CFF"/>
		<stop  offset="0.8485" style="stop-color:#0377FF"/>
		<stop  offset="1" style="stop-color:#0075FF"/>
	</linearGradient>
	<polygon class="st10" points="-94.2,471.5 -38.9,501.9 -93.2,686.7 -177.5,732.4 -177.5,608.5 	"/>
	
		<linearGradient id="SVGID_11_" gradientUnits="userSpaceOnUse" x1="-67.9344" y1="688.4011" x2="-19.164" y2="917.8481" gradientTransform="matrix(1 0 0 1 0 4)">
		<stop  offset="0" style="stop-color:#FFFFFF"/>
		<stop  offset="4.970000e-02" style="stop-color:#E3F0FF"/>
		<stop  offset="0.153" style="stop-color:#AED3FF"/>
		<stop  offset="0.2606" style="stop-color:#80BAFF"/>
		<stop  offset="0.3703" style="stop-color:#58A5FF"/>
		<stop  offset="0.4827" style="stop-color:#3893FF"/>
		<stop  offset="0.5986" style="stop-color:#1F86FF"/>
		<stop  offset="0.7195" style="stop-color:#0E7CFF"/>
		<stop  offset="0.8485" style="stop-color:#0377FF"/>
		<stop  offset="1" style="stop-color:#0075FF"/>
	</linearGradient>
	<polygon class="st11" points="-174.9,743.1 -89.1,696.9 74.4,808.1 60.1,905 -87.6,864.9 	"/>
	
		<linearGradient id="SVGID_12_" gradientUnits="userSpaceOnUse" x1="198.75" y1="837.05" x2="125.65" y2="763.95" gradientTransform="matrix(1 0 0 1 0 4)">
		<stop  offset="0" style="stop-color:#FFFFFF"/>
		<stop  offset="4.970000e-02" style="stop-color:#E3F0FF"/>
		<stop  offset="0.153" style="stop-color:#AED3FF"/>
		<stop  offset="0.2606" style="stop-color:#80BAFF"/>
		<stop  offset="0.3703" style="stop-color:#58A5FF"/>
		<stop  offset="0.4827" style="stop-color:#3893FF"/>
		<stop  offset="0.5986" style="stop-color:#1F86FF"/>
		<stop  offset="0.7195" style="stop-color:#0E7CFF"/>
		<stop  offset="0.8485" style="stop-color:#0377FF"/>
		<stop  offset="1" style="stop-color:#0075FF"/>
	</linearGradient>
	<polygon class="st12" points="185.5,854.3 71.3,903 85,808.6 235.3,691.8 279.5,732.4 	"/>
</g>
<g>
	<path class="st13" d="M160.4,52.2l-0.9-2.1H155l-0.9,2.1h-1.3l4-8.8h1.1l4,8.8H160.4z M155.4,49h3.6l-1.8-4.2L155.4,49z"/>
	<path class="st13" d="M163.5,52.2v-8.8h1.3v8.8H163.5z"/>
	<path class="st13" d="M182.6,52.2h-1.3l-1.1-2.9c-0.1-0.3-0.3-0.5-0.5-0.7c-0.3-0.1-0.5-0.2-0.9-0.2h-1.9v3.8h-1.3v-8.8h3.6
		c0.9,0,1.7,0.2,2.2,0.7c0.5,0.4,0.7,1,0.7,1.9c0,0.6-0.1,1.1-0.5,1.5c-0.3,0.4-0.7,0.7-1.3,0.9c0.5,0.1,0.9,0.5,1.1,1.1L182.6,52.2
		z M179,47.4c0.7,0,1.1-0.1,1.5-0.4c0.3-0.3,0.5-0.6,0.5-1.1s-0.1-0.9-0.5-1.1c-0.3-0.3-0.8-0.4-1.5-0.4h-2.2v3L179,47.4L179,47.4z"
		/>
	<path class="st13" d="M184.9,52.2v-8.8h5.7v1h-4.5v2.8h4.2v1h-4.2v2.9h4.6v1L184.9,52.2L184.9,52.2z"/>
	<path class="st13" d="M194.5,51.7c-0.6-0.4-1.1-0.9-1.5-1.6c-0.4-0.7-0.5-1.5-0.5-2.4c0-0.9,0.2-1.7,0.5-2.4
		c0.3-0.7,0.8-1.2,1.5-1.5c0.6-0.4,1.4-0.5,2.2-0.5c0.6,0,1.1,0.1,1.7,0.3c0.5,0.2,0.9,0.5,1.3,0.8l-0.5,0.9
		c-0.4-0.3-0.8-0.6-1.2-0.7c-0.4-0.1-0.8-0.3-1.3-0.3c-0.9,0-1.6,0.3-2.1,0.9c-0.5,0.5-0.7,1.5-0.7,2.5s0.3,1.9,0.7,2.5
		c0.5,0.6,1.2,0.9,2.1,0.9c0.5,0,0.9-0.1,1.3-0.3c0.4-0.2,0.8-0.4,1.2-0.7l0.5,0.9c-0.3,0.3-0.8,0.6-1.3,0.8
		c-0.5,0.2-1.1,0.3-1.7,0.3C195.9,52.3,195.2,52.1,194.5,51.7z"/>
	<path class="st13" d="M203.5,51.7c-0.6-0.4-1.1-0.9-1.4-1.6c-0.3-0.7-0.5-1.5-0.5-2.4c0-0.9,0.2-1.7,0.5-2.4
		c0.3-0.7,0.8-1.2,1.4-1.5c0.6-0.4,1.3-0.5,2.1-0.5c0.8,0,1.6,0.2,2.2,0.5c0.6,0.4,1.1,0.9,1.4,1.5c0.3,0.7,0.5,1.5,0.5,2.4
		c0,0.9-0.2,1.7-0.5,2.4c-0.3,0.7-0.8,1.2-1.4,1.6c-0.6,0.4-1.3,0.5-2.1,0.5C204.9,52.3,204.1,52.1,203.5,51.7z M207.8,50.4
		c0.5-0.6,0.7-1.5,0.7-2.6c0-1.1-0.3-1.9-0.7-2.5c-0.5-0.6-1.1-0.9-2.1-0.9c-0.9,0-1.6,0.3-2.1,0.9c-0.5,0.6-0.7,1.5-0.7,2.5
		s0.3,1.9,0.7,2.6c0.5,0.6,1.1,0.9,2.1,0.9C206.6,51.3,207.3,51,207.8,50.4z"/>
	<path class="st13" d="M219.7,43.3h1v8.8h-1.1v-6.1l-2.6,6.1h-0.9l-2.7-6v6h-1.1v-8.8h1l3.2,7.3L219.7,43.3z"/>
	<path class="st13" d="M230.9,43.3h1v8.8h-1.1v-6.1l-2.5,6.1h-0.9l-2.7-6v6h-1.1v-8.8h1l3.2,7.3L230.9,43.3z"/>
	<path class="st13" d="M234.7,52.2v-8.8h5.7v1h-4.5v2.8h4.2v1h-4.2v2.9h4.5v1L234.7,52.2L234.7,52.2z"/>
	<path class="st13" d="M248.8,43.3h1.2v8.8h-0.9l-5.1-6.7v6.7h-1.2v-8.8h0.9l5.1,6.7L248.8,43.3L248.8,43.3z"/>
	<path class="st13" d="M252.7,43.3h3.1c1.5,0,2.5,0.4,3.3,1.1c0.8,0.7,1.1,1.9,1.1,3.2c0,1.4-0.4,2.5-1.1,3.3
		c-0.8,0.7-1.9,1.1-3.3,1.1h-3.1V43.3z M255.8,51.1c2.1,0,3.3-1.1,3.3-3.4s-1.1-3.4-3.3-3.4H254v6.7H255.8L255.8,51.1z"/>
	<path class="st13" d="M262.7,52.2v-8.8h5.7v1h-4.5v2.8h4.2v1h-4.2v2.9h4.5v1L262.7,52.2L262.7,52.2z"/>
	<path class="st13" d="M270.8,43.3h3.1c1.5,0,2.5,0.4,3.3,1.1c0.8,0.7,1.1,1.9,1.1,3.2c0,1.4-0.4,2.5-1.1,3.3
		c-0.8,0.7-1.9,1.1-3.3,1.1h-3.1V43.3z M273.8,51.1c2.1,0,3.3-1.1,3.3-3.4s-1.1-3.4-3.3-3.4H272v6.7H273.8L273.8,51.1z"/>
	<path class="st13" d="M184.4,58.3h3.7c0.9,0,1.7,0.3,2.1,0.7c0.5,0.5,0.7,1.1,0.7,1.8c0,0.8-0.3,1.4-0.8,1.8
		c-0.5,0.4-1.3,0.7-2.1,0.7h-2.4v3.8h-1.3L184.4,58.3L184.4,58.3z M187.9,62.3c0.6,0,1.1-0.1,1.4-0.4c0.3-0.3,0.5-0.6,0.5-1.1
		c0-0.5-0.2-0.9-0.5-1.1c-0.3-0.2-0.7-0.4-1.4-0.4h-2.2v3L187.9,62.3L187.9,62.3z"/>
	<path class="st13" d="M200.3,67.1H199l-1.1-2.9c-0.1-0.3-0.3-0.5-0.5-0.7s-0.5-0.2-0.9-0.2h-1.9V67h-1.3v-8.8h3.6
		c0.9,0,1.7,0.2,2.2,0.7c0.5,0.4,0.7,1,0.7,1.9c0,0.6-0.1,1.1-0.5,1.5c-0.3,0.4-0.7,0.7-1.3,0.9c0.5,0.1,0.9,0.5,1.1,1.1L200.3,67.1
		z M196.8,62.3c0.7,0,1.1-0.1,1.5-0.4c0.3-0.3,0.5-0.6,0.5-1.1c0-0.5-0.1-0.9-0.5-1.1c-0.3-0.3-0.8-0.4-1.5-0.4h-2.2v3L196.8,62.3
		L196.8,62.3z"/>
	<path class="st13" d="M204.2,66.7c-0.6-0.4-1.1-0.9-1.4-1.6c-0.3-0.7-0.5-1.5-0.5-2.4c0-0.9,0.2-1.7,0.5-2.4
		c0.3-0.7,0.8-1.2,1.4-1.5c0.6-0.4,1.3-0.5,2.1-0.5s1.6,0.2,2.2,0.5c0.6,0.4,1.1,0.9,1.4,1.5c0.3,0.7,0.5,1.5,0.5,2.4
		c0,0.9-0.2,1.7-0.5,2.4c-0.3,0.7-0.8,1.2-1.4,1.6c-0.6,0.4-1.3,0.5-2.1,0.5C205.5,67.2,204.7,67,204.2,66.7z M208.4,65.3
		c0.5-0.6,0.7-1.5,0.7-2.6c0-1.1-0.3-1.9-0.7-2.5c-0.5-0.6-1.1-0.9-2.1-0.9s-1.6,0.3-2.1,0.9c-0.5,0.6-0.7,1.5-0.7,2.5
		s0.3,1.9,0.7,2.6c0.5,0.6,1.1,0.9,2.1,0.9C207.2,66.1,207.9,65.9,208.4,65.3z"/>
	<path class="st13" d="M212.9,58.3h3.1c1.5,0,2.5,0.4,3.3,1.1c0.8,0.7,1.1,1.9,1.1,3.2c0,1.4-0.4,2.5-1.1,3.3
		c-0.8,0.7-1.9,1.1-3.3,1.1h-3.1V58.3z M215.9,66c2.1,0,3.3-1.1,3.3-3.4c0-2.2-1.1-3.4-3.3-3.4h-1.7V66H215.9L215.9,66z"/>
	<path class="st13" d="M223.8,66.3c-0.6-0.6-0.9-1.5-0.9-2.7v-5.3h1.3v5.4c0,0.8,0.2,1.5,0.6,1.9c0.4,0.4,0.9,0.6,1.7,0.6
		c0.7,0,1.3-0.2,1.7-0.6c0.4-0.4,0.6-1,0.6-1.9v-5.4h1.3v5.3c0,1.1-0.3,2.1-0.9,2.7c-0.6,0.6-1.5,0.9-2.7,0.9
		C225.3,67.2,224.4,66.9,223.8,66.3z"/>
	<path class="st13" d="M234.4,66.7c-0.6-0.4-1.1-0.9-1.5-1.6c-0.4-0.7-0.5-1.5-0.5-2.4s0.2-1.7,0.5-2.4c0.3-0.7,0.8-1.2,1.5-1.5
		c0.6-0.4,1.4-0.5,2.2-0.5c0.6,0,1.1,0.1,1.7,0.3c0.5,0.2,0.9,0.5,1.3,0.8l-0.5,0.9c-0.4-0.3-0.8-0.6-1.2-0.7
		c-0.4-0.1-0.8-0.3-1.3-0.3c-0.9,0-1.6,0.3-2.1,0.9c-0.5,0.6-0.7,1.5-0.7,2.5c0,1.1,0.3,1.9,0.7,2.5c0.5,0.6,1.2,0.9,2.1,0.9
		c0.5,0,0.9-0.1,1.3-0.3c0.4-0.2,0.8-0.4,1.2-0.7l0.5,0.9c-0.3,0.3-0.8,0.6-1.3,0.8c-0.5,0.2-1.1,0.3-1.7,0.3
		C235.8,67.2,235,67,234.4,66.7z"/>
	<path class="st13" d="M243.9,67.1v-7.8h-2.9v-1.1h7.3v1.1h-3v7.8H243.9z"/>
</g>
<g>
	<g>
		<line class="st14" x1="88.4" y1="-101.7" x2="88.4" y2="-86.8"/>
		<line class="st14" x1="103.3" y1="-101.7" x2="88.4" y2="-101.7"/>
	</g>
	<g>
		<line class="st14" x1="88.4" y1="198.3" x2="103.3" y2="198.3"/>
		<line class="st14" x1="88.4" y1="183.4" x2="88.4" y2="198.3"/>
	</g>
	<g>
		<line class="st14" x1="338.2" y1="197.8" x2="338.2" y2="182.9"/>
		<line class="st14" x1="323.4" y1="197.8" x2="338.2" y2="197.8"/>
	</g>
	<g>
		<line class="st14" x1="338.2" y1="-101.7" x2="323.4" y2="-101.7"/>
		<line class="st14" x1="338.2" y1="-86.8" x2="338.2" y2="-101.7"/>
	</g>
</g>
<g>
	<path class="st15" d="M244.3-36.6c0-0.8-0.6-1.3-1.2-1.5l-28.7-7.5c-0.7-0.2-1.4-0.4-2.1-0.4c-0.7,0-1.3,0.1-1.9,0.4l-0.7,0.4
		l-27.5,16c-0.1,0.1-0.2,0.1-0.3,0.2c-4.3,2.8-5.1,5.8-5.1,9.2v31.6c0,1.6,0.9,3,2.1,3.8l0,0l27.7,16c0.3,0.2,0.7,0.3,1,0.3
		c1.1,0,2-0.9,2-2V-2c0-1.5-0.8-2.9-2-3.7L207.2-6l-22.4-12.6c-1.7-1-1.9-3-1.4-4.2c0.7-1.7,2.6-2,3.8-1.7l23.3,6
		c0.8,0.2,1.3,0.3,2.1,0.3c0.7,0,1.4-0.2,2-0.5L215-19l28.1-15.8C243.6-35.2,244.3-35.8,244.3-36.6z"/>
	<path class="st13" d="M245.8-25l-6.9-3.8l-5.5,3.2c0,0,6.3,3.5,7.4,4.2c1.3,0.9,0.8,2.2-0.1,2.6L218.3-6l-0.6,0.3c0,0,0,0,0,0
		c-1.2,0.8-2,2.2-2,3.7v32c0,1.1,0.9,2,2,2c0.3,0,0.7-0.1,0.9-0.2c0,0,0.1,0,0.1,0l27.7-16l0,0c1.3-0.8,2.1-2.2,2.1-3.8v-31.6
		C248.6-22.5,247.9-23.8,245.8-25z"/>
</g>
<text transform="matrix(1 0 0 1 105.9724 163.4477)" class="st15 st16 st17">[  Name of the product  ]</text>
<line class="st18" x1="109.7" y1="114.2" x2="323.7" y2="114.2"/>
</svg>
