<?xml version="1.0" encoding="utf-8"?>
<!-- Generator: Adobe Illustrator 19.0.0, SVG Export Plug-In . SVG Version: 6.00 Build 0)  -->
<svg version="1.1" id="Layer_1" xmlns="http://www.w3.org/2000/svg" xmlns:xlink="http://www.w3.org/1999/xlink" x="0px" y="0px"
	 width="200px" height="100px" viewBox="50 0 200 100" enable-background="new 50 0 200 100" xml:space="preserve">
<circle fill="#0075FF" cx="200" cy="50" r="49"/>
<title>Send Mail</title>
<circle fill="#FFFFFF" cx="100" cy="50" r="49"/>
<g>
	<path fill="#FFFFFF" d="M211.551,58.309v0.995c0,1.105-0.897,2.002-1.99,2.002h-0.97v1.24c0,0.233-0.197,0.442-0.442,0.442h-0.454
		v0.712c0,0.135-0.098,0.233-0.221,0.233h-1.535c-0.123,0-0.221-0.098-0.221-0.233v-0.712h-0.454c-0.246,0-0.442-0.209-0.442-0.442
		v-1.24h-0.97c-1.093,0-1.99-0.897-1.99-2.002v-0.995l0,0H211.551L211.551,58.309z"/>
	<path fill="#FFFFFF" d="M205.349,25h2.714c1.019,0,1.855,0.835,1.855,1.855v5.846h1.634c0.749,0,1.363,0.614,1.363,1.363v21.395
		c0,0.737-0.614,1.351-1.363,1.351h-9.69c-0.749,0-1.363-0.614-1.363-1.351v-5.994c2.604,0,4.716-2.113,4.716-4.704
		c0-2.604-2.113-4.716-4.716-4.716v-5.981c0-0.749,0.614-1.363,1.363-1.363h1.633v-5.846C203.494,25.835,204.329,25,205.349,25z"/>
	<path fill="#FFFFFF" d="M200.497,42.121c1.462,0,2.641,1.179,2.641,2.641c0,1.449-1.179,2.641-2.641,2.641
		c-1.449,0-2.641-1.191-2.641-2.641C197.857,43.3,199.048,42.121,200.497,42.121z"/>
	<path fill="#FFFFFF" d="M218.012,71.5h-20.72v-3.353h3.5h2.776h11.127c0.823,0,1.498-0.663,1.498-1.498
		c0-0.823-0.676-1.486-1.498-1.486h-13.903c-0.786,0-1.425,0.59-1.498,1.351h-2.002v-1.29c0-3.685-3.021-6.706-6.706-6.706
		c-0.847,0-1.658,0.16-2.395,0.454c-0.233-0.798-0.356-1.646-0.356-2.518c0-4.901,3.844-8.917,8.683-9.187
		c-0.454-0.725-0.725-1.584-0.725-2.506c0-1.167,0.418-2.235,1.118-3.046c-8.082,0.061-14.616,6.632-14.616,14.738
		c0,2.567,0.651,4.974,1.805,7.074c-0.147,0.54-0.221,1.118-0.221,1.695V71.5h-1.891c-0.958,0-1.744,0.786-1.744,1.756v1.167
		c0,0.319,0.258,0.577,0.565,0.577h38.381c0.307,0,0.565-0.258,0.565-0.577v-1.167C219.756,72.286,218.97,71.5,218.012,71.5z
		 M190.586,67.189c-1.081,0-1.965-0.872-1.965-1.965c0-1.081,0.884-1.953,1.965-1.953c1.081,0,1.965,0.872,1.965,1.953
		C192.551,66.317,191.667,67.189,190.586,67.189z"/>
</g>
<g>
	<path fill="#0075FF" d="M111.551,58.309v0.995c0,1.105-0.897,2.002-1.99,2.002h-0.97v1.24c0,0.233-0.197,0.442-0.442,0.442h-0.454
		v0.712c0,0.135-0.098,0.233-0.221,0.233h-1.535c-0.123,0-0.221-0.098-0.221-0.233v-0.712h-0.454c-0.246,0-0.442-0.209-0.442-0.442
		v-1.24h-0.97c-1.093,0-1.99-0.897-1.99-2.002v-0.995l0,0H111.551L111.551,58.309z"/>
	<path fill="#0075FF" d="M105.349,25h2.714c1.019,0,1.855,0.835,1.855,1.855v5.846h1.634c0.749,0,1.363,0.614,1.363,1.363v21.395
		c0,0.737-0.614,1.351-1.363,1.351h-9.69c-0.749,0-1.363-0.614-1.363-1.351v-5.994c2.604,0,4.716-2.113,4.716-4.704
		c0-2.604-2.113-4.716-4.716-4.716v-5.981c0-0.749,0.614-1.363,1.363-1.363h1.634v-5.846C103.494,25.835,104.329,25,105.349,25z"/>
	<path fill="#0075FF" d="M100.497,42.121c1.462,0,2.641,1.179,2.641,2.641c0,1.449-1.179,2.641-2.641,2.641
		c-1.449,0-2.641-1.191-2.641-2.641C97.857,43.3,99.048,42.121,100.497,42.121z"/>
	<path fill="#0075FF" d="M118.012,71.5h-20.72v-3.353h3.5h2.776h11.127c0.823,0,1.498-0.663,1.498-1.498
		c0-0.823-0.676-1.486-1.498-1.486h-13.903c-0.786,0-1.425,0.59-1.498,1.351h-2.002v-1.29c0-3.685-3.021-6.706-6.706-6.706
		c-0.847,0-1.658,0.16-2.395,0.454c-0.233-0.798-0.356-1.646-0.356-2.518c0-4.901,3.844-8.917,8.683-9.187
		c-0.454-0.725-0.725-1.584-0.725-2.506c0-1.167,0.418-2.235,1.118-3.046c-8.082,0.061-14.616,6.632-14.616,14.738
		c0,2.567,0.651,4.974,1.805,7.074c-0.147,0.54-0.221,1.118-0.221,1.695V71.5h-1.891c-0.958,0-1.744,0.786-1.744,1.756v1.167
		c0,0.319,0.258,0.577,0.565,0.577h38.381c0.307,0,0.565-0.258,0.565-0.577v-1.167C119.756,72.286,118.97,71.5,118.012,71.5z
		 M90.586,67.189c-1.081,0-1.965-0.872-1.965-1.965c0-1.081,0.884-1.953,1.965-1.953c1.081,0,1.965,0.872,1.965,1.953
		C92.551,66.317,91.667,67.189,90.586,67.189z"/>
</g>
</svg>
