<?xml version="1.0" encoding="utf-8"?>
<!-- Generator: Adobe Illustrator 19.0.0, SVG Export Plug-In . SVG Version: 6.00 Build 0)  -->
<svg version="1.1" id="Layer_1" xmlns="http://www.w3.org/2000/svg" xmlns:xlink="http://www.w3.org/1999/xlink" x="0px" y="0px"
	 width="100px" height="100px" viewBox="0 0 100 100" enable-background="new 0 0 100 100" xml:space="preserve">
<circle id="XMLID_6_" cx="49.706" cy="49.889" r="50"/>
<g id="XMLID_5_">
	<path id="XMLID_4_" fill="#FFFFFF" d="M58.42,71.939c-0.87,4.874-5.664,6.445-8.421,6.445c-2.754,0-7.551-1.571-8.42-6.445
		c-0.109-0.62,0.12-1.265,0.514-1.439c0.089-0.04,0.178-0.051,0.266-0.04c2.545,0.145,5.091,0.193,7.639,0.193
		c2.562,0,5.122-0.05,7.681-0.194c0.41-0.023,0.75,0.48,0.765,1.124c0.003,0.124-0.007,0.244-0.026,0.356H58.42z"/>
	<path id="XMLID_3_" fill="#FFFFFF" d="M36.244,38.113c0.671-7.666,3.026-11.119,9.742-11.988c-0.021-0.166-0.033-0.335-0.033-0.507
		c0-2.209,1.813-4.001,4.046-4.001c2.236,0,4.047,1.793,4.047,4.001c0,0.172-0.012,0.342-0.033,0.509
		c6.714,0.868,9.068,4.321,9.739,11.987c0.587,6.71,1.348,15.383,5.736,18.387c3.249,2.224,4.773,3.905,5.286,5.53
		c0.47,1.488-0.219,5.039-1.666,5.755c-1.667,0.823-12.428,1.235-23.111,1.235c-10.404,0-20.882-0.391-22.96-1.172
		c-1.631-0.554-2.273-4.38-1.817-5.819c0.513-1.627,2.037-3.306,5.286-5.53C34.895,53.496,35.656,44.823,36.244,38.113z"/>
</g>
</svg>
