<?xml version="1.0" encoding="utf-8"?>
<!-- Generator: Adobe Illustrator 19.0.0, SVG Export Plug-In . SVG Version: 6.00 Build 0)  -->
<svg version="1.1" id="Layer_1" xmlns="http://www.w3.org/2000/svg" xmlns:xlink="http://www.w3.org/1999/xlink" x="0px" y="0px"
	 width="100px" height="100px" viewBox="0 0 100 100" enable-background="new 0 0 100 100" xml:space="preserve">
<g id="XMLID_6_">
	

	<g id="XMLID_16_">
		<circle id="XMLID_22_" fill="#FFFFFF" cx="50" cy="50" r="45"/>
	</g>
</g>
<g id="XMLID_5_">
	<path id="XMLID_4_" fill="#FFFFFF" stroke="#000000" stroke-width="3" stroke-miterlimit="10" d="M57.417,70.607
		C56.651,74.9,52.429,76.284,50,76.284c-2.426,0-6.651-1.384-7.416-5.677c-0.096-0.546,0.106-1.114,0.453-1.267
		c0.078-0.035,0.157-0.045,0.234-0.035c2.242,0.128,4.484,0.17,6.728,0.17c2.257,0,4.511-0.044,6.765-0.171
		c0.361-0.02,0.661,0.423,0.674,0.99c0.003,0.109-0.006,0.215-0.023,0.314H57.417z"/>
	<path id="XMLID_3_" fill="#FFFFFF" stroke="#000000" stroke-width="3" stroke-miterlimit="10" d="M37.885,40.814
		c0.591-6.752,2.665-9.794,8.581-10.559c-0.018-0.146-0.029-0.295-0.029-0.447c0-1.946,1.597-3.524,3.564-3.524
		c1.969,0,3.565,1.579,3.565,3.524c0,0.151-0.011,0.301-0.029,0.448c5.914,0.765,7.987,3.806,8.578,10.558
		c0.517,5.91,1.187,13.549,5.052,16.195c2.862,1.959,4.204,3.439,4.656,4.871c0.414,1.311-0.193,4.438-1.467,5.069
		c-1.468,0.725-10.946,1.088-20.356,1.088c-9.164,0-18.393-0.344-20.223-1.032c-1.437-0.488-2.002-3.858-1.6-5.125
		c0.452-1.433,1.794-2.912,4.656-4.871C36.697,54.363,37.367,46.724,37.885,40.814z"/>
</g>
</svg>
