<?xml version="1.0" encoding="utf-8"?>
<!-- Generator: Adobe Illustrator 19.0.0, SVG Export Plug-In . SVG Version: 6.00 Build 0)  -->
<svg version="1.1" id="Layer_1" xmlns="http://www.w3.org/2000/svg" xmlns:xlink="http://www.w3.org/1999/xlink" x="0px" y="0px"
	 width="100px" height="100px" viewBox="0 0 100 100" enable-background="new 0 0 100 100" xml:space="preserve">
<circle id="XMLID_14_" fill="#0075FF" cx="50" cy="50" r="50"/>
<g>
	<path fill="#FFFFFF" stroke="#FCFCFC" stroke-width="2" stroke-miterlimit="10" d="M59.62,26.901
		c-6.205-2.535-12.974-2.535-19.179,0s-11,7.324-13.538,13.521s-2.538,12.958,0,19.155s7.333,10.986,13.538,13.521
		C43.544,74.366,46.787,75,50.031,75c0.141,0,0.282,0,0.494,0c0.071,0,0.141,0,0.141,0c0.212,0,0.353,0,0.494,0
		c2.82-0.141,5.711-0.775,8.391-1.901c12.763-5.282,18.827-19.93,13.538-32.606C70.62,34.296,65.755,29.507,59.62,26.901z
		 M70.268,39.718h-6.205c-0.705-2.394-1.622-4.718-2.679-6.69c-0.846-1.549-1.833-2.887-2.82-4.014c0.071,0,0.141,0.07,0.212,0.07
		C63.781,31.197,67.8,34.93,70.268,39.718z M63.075,50c0,2.535-0.353,5.282-1.058,7.958H51.864V42.113h10.365
		C62.723,44.577,63.075,47.254,63.075,50z M38.255,50c0-2.746,0.353-5.423,0.917-7.958h10.365v15.845H39.384
		C38.608,55.282,38.255,52.535,38.255,50z M49.467,27.465v12.254h-9.731C41.71,33.169,45.448,28.31,49.467,27.465z M49.467,60.282
		v12.254c-3.949-0.916-7.474-6.127-9.519-12.254C39.948,60.282,49.467,60.282,49.467,60.282z M51.864,72.535V60.282h9.519
		C59.338,66.409,55.742,71.62,51.864,72.535z M51.864,39.718V27.465c4.09,0.775,7.756,5.704,9.731,12.254h-9.731V39.718z
		 M41.358,29.084c0.705-0.282,1.41-0.563,2.115-0.775c-1.269,1.268-2.397,2.817-3.455,4.718c-1.128,2.042-2.045,4.296-2.679,6.69
		h-7.474C32.262,34.93,36.352,31.197,41.358,29.084z M28.877,41.972v0.141h7.897c-0.564,2.606-0.846,5.282-0.846,7.958
		c0,2.535,0.353,5.282,0.987,7.958h-8.038v0.141C26.832,52.817,26.832,47.183,28.877,41.972z M29.864,60.282h7.686
		c0.635,2.113,1.481,4.155,2.468,6.056c1.199,2.254,2.468,4.085,3.878,5.493c-0.846-0.211-1.692-0.563-2.538-0.845
		C36.281,68.803,32.262,65.07,29.864,60.282z M58.704,70.916c-0.212,0.07-0.494,0.211-0.705,0.282
		c1.199-1.338,2.327-2.958,3.314-4.859s1.833-3.944,2.468-6.056h6.417C67.8,65.07,63.781,68.803,58.704,70.916z M71.255,57.958
		h-6.84c0.635-2.676,0.987-5.352,0.987-7.958c0-2.676-0.282-5.352-0.846-7.958h6.699C73.229,47.183,73.229,52.817,71.255,57.958z"/>
</g>
</svg>
