<?xml version="1.0" encoding="utf-8"?>
<!-- Generator: Adobe Illustrator 19.0.0, SVG Export Plug-In . SVG Version: 6.00 Build 0)  -->
<svg version="1.1" id="Layer_1" xmlns="http://www.w3.org/2000/svg" xmlns:xlink="http://www.w3.org/1999/xlink" x="0px" y="0px"
	 width="100px" height="100px" viewBox="0 0 100 100" enable-background="new 0 0 100 100" xml:space="preserve">
<circle id="XMLID_3_" fill="#0075FF" cx="50" cy="50" r="50"/>
<g id="XMLID_4_">
	<path id="XMLID_2_" fill="#FFFFFF" stroke="#FFFFFF" stroke-width="2" stroke-miterlimit="10" d="M74.107,73.221h-47.33v-47.33
		C26.778,25.4,26.379,25,25.89,25S25,25.4,25,25.891V74.11C25,74.6,25.4,75,25.89,75h48.218C74.599,75,75,74.6,75,74.11
		C75,73.621,74.599,73.221,74.107,73.221z"/>
	<path id="XMLID_1_" fill="#FFFFFF" stroke="#FFFFFF" stroke-width="2" stroke-miterlimit="10" d="M31.595,53.418h5.566l7.41,8.92
		c0.349,0.433,1.051,0.421,1.389-0.003l21.272-25.62l6.143,7.394c0.157,0.177,0.392,0.284,0.649,0.284c0.49,0,0.89-0.4,0.89-0.89
		c0-0.266-0.114-0.459-0.209-0.575l-6.805-8.194c-0.327-0.381-1.001-0.388-1.341,0.006l-21.294,25.65l-7.004-8.433
		c-0.168-0.201-0.417-0.319-0.684-0.319h-5.981c-0.49,0-0.888,0.4-0.888,0.891C30.707,53.02,31.105,53.418,31.595,53.418z"/>
</g>
</svg>
