<?xml version="1.0" encoding="utf-8"?>
<!-- Generator: Adobe Illustrator 19.0.0, SVG Export Plug-In . SVG Version: 6.00 Build 0)  -->
<svg version="1.1" id="Layer_1" xmlns="http://www.w3.org/2000/svg" xmlns:xlink="http://www.w3.org/1999/xlink" x="0px" y="0px"
	 width="100px" height="100px" viewBox="0 0 100 100" enable-background="new 0 0 100 100" xml:space="preserve">
<circle id="XMLID_2_" fill="#0075FF" cx="50" cy="50" r="50"/>
<g id="XMLID_6_">
	<g id="XMLID_13_">
		<g id="XMLID_14_">
			<path id="XMLID_4_" fill="#FFFFFF" stroke="#FFFFFF" stroke-width="3" stroke-miterlimit="10" d="M43.41,50
				c-0.038,4.456-2.839,8.62-7.092,10.122c-4.265,1.516-9.052,0.216-11.967-3.246c-2.928-3.463-3.259-8.593-0.917-12.451
				c2.317-3.82,6.926-5.882,11.318-4.978C39.756,40.465,43.372,44.907,43.41,50c0.013,1.223,1.922,1.235,1.909,0
				c-0.038-5.297-3.361-10.058-8.327-11.904c-4.927-1.834-10.758-0.254-14.094,3.806c-3.374,4.124-3.883,10.058-1.108,14.641
				c2.762,4.558,8.173,6.9,13.393,5.882c5.869-1.158,10.096-6.493,10.147-12.413C45.332,48.765,43.423,48.765,43.41,50z"/>
		</g>
	</g>
	<g id="XMLID_10_">
		<g id="XMLID_11_">
			<path id="XMLID_3_" fill="#FFFFFF" stroke="#FFFFFF" stroke-width="3" stroke-miterlimit="10" d="M78.078,50
				c-0.038,4.456-2.839,8.62-7.092,10.122c-4.265,1.516-9.052,0.216-11.967-3.246c-2.928-3.463-3.259-8.593-0.917-12.451
				c2.317-3.82,6.926-5.882,11.318-4.978C74.424,40.465,78.039,44.907,78.078,50c0.013,1.223,1.922,1.235,1.909,0
				c-0.038-5.297-3.361-10.058-8.327-11.904c-4.927-1.834-10.758-0.254-14.094,3.806c-3.374,4.124-3.883,10.058-1.108,14.641
				c2.762,4.558,8.173,6.9,13.393,5.882c5.869-1.158,10.096-6.493,10.147-12.413C79.987,48.765,78.078,48.765,78.078,50z"/>
		</g>
	</g>
	<g id="XMLID_7_">
		<g id="XMLID_8_">
			<path id="XMLID_1_" fill="#FFFFFF" stroke="#FFFFFF" stroke-width="3" stroke-miterlimit="10" d="M45.039,50.674
				c0.509-0.472,0.994-0.967,1.528-1.4c0.967-0.776,2.19-1.184,3.425-1.184s2.458,0.42,3.425,1.196
				c0.535,0.42,1.006,0.929,1.502,1.387c0.904,0.84,2.254-0.509,1.35-1.35c-0.649-0.599-1.273-1.248-1.999-1.77
				c-1.235-0.892-2.762-1.375-4.278-1.375s-3.055,0.472-4.29,1.362c-0.726,0.522-1.362,1.171-2.011,1.77
				C42.786,50.166,44.149,51.516,45.039,50.674L45.039,50.674z"/>
		</g>
	</g>
</g>
</svg>
