<?xml version="1.0" encoding="utf-8"?>
<!-- Generator: Adobe Illustrator 19.0.0, SVG Export Plug-In . SVG Version: 6.00 Build 0)  -->
<svg version="1.1" id="Layer_1" xmlns="http://www.w3.org/2000/svg" xmlns:xlink="http://www.w3.org/1999/xlink" x="0px" y="0px"
	 width="100px" height="100px" viewBox="-24 76 100 100" enable-background="new -24 76 100 100" xml:space="preserve">
<g>
	<polygon id="XMLID_2_" fill="#FFFFFF" points="-5.095,143.953 -5.095,108.047 26,90.094 57.095,108.047 57.095,143.953 26,161.906 
			"/>
	<path d="M26,175.949c-2.424,0-4.849-0.627-7.021-1.881l-31.095-17.953c-4.345-2.51-7.021-7.145-7.021-12.162v-35.906
		c0-5.017,2.676-9.652,7.021-12.162l31.095-17.953c4.346-2.508,9.7-2.508,14.043,0l31.095,17.953
		c4.345,2.51,7.021,7.145,7.021,12.162v35.906c0,5.017-2.676,9.652-7.021,12.162l-31.095,17.953
		C30.849,175.322,28.425,175.949,26,175.949z M8.948,135.846L26,145.691l17.052-9.844v-19.693L26,106.309l-17.052,9.844V135.846z"/>
</g>
</svg>
