<?xml version="1.0" encoding="utf-8"?>
<!-- Generator: Adobe Illustrator 19.0.0, SVG Export Plug-In . SVG Version: 6.00 Build 0)  -->
<svg version="1.1" id="Layer_1" xmlns="http://www.w3.org/2000/svg" xmlns:xlink="http://www.w3.org/1999/xlink" x="0px" y="0px"
	 width="100px" height="100px" viewBox="0 0 100 100" enable-background="new 0 0 100 100" xml:space="preserve">
<circle id="XMLID_2_" cx="50" cy="50" r="50"/>
<path id="XMLID_1_" fill="#FFFFFF" d="M73.704,67.025c1.795,1.893,1.716,4.883-0.177,6.678c-1.823,1.728-4.679,1.728-6.501,0
	L50,56.678L32.975,73.704c-1.893,1.795-4.883,1.716-6.678-0.177c-1.728-1.823-1.728-4.679,0-6.501L43.322,50L26.296,32.975
	c-1.795-1.893-1.716-4.883,0.177-6.678c1.823-1.728,4.679-1.728,6.501,0L50,43.322l17.025-17.025
	c1.893-1.795,4.883-1.716,6.678,0.177c1.728,1.823,1.728,4.679,0,6.501L56.678,50L73.704,67.025z"/>
</svg>
