<?xml version="1.0" encoding="utf-8"?>
<!-- Generator: Adobe Illustrator 19.0.0, SVG Export Plug-In . SVG Version: 6.00 Build 0)  -->
<svg version="1.1" id="Layer_1" xmlns="http://www.w3.org/2000/svg" xmlns:xlink="http://www.w3.org/1999/xlink" x="0px" y="0px"
	 width="200px" height="100px" viewBox="0 0 200 100" enable-background="new 0 0 200 100" xml:space="preserve">
<circle id="XMLID_37_" fill="#FFFFFF" cx="50" cy="50" r="49"/>
<circle id="XMLID_27_" fill="#0075FF" cx="150" cy="50" r="49"/>
<g id="XMLID_56_">
	<rect id="XMLID_76_" x="132.675" y="44.793" fill="#FFFFFF" width="4" height="23"/>
	<rect id="XMLID_75_" x="147.675" y="47.793" fill="#FFFFFF" width="4" height="20"/>
	<rect id="XMLID_74_" x="152.675" y="51.793" fill="#FFFFFF" width="4" height="16"/>
	<rect id="XMLID_73_" x="157.675" y="43.793" fill="#FFFFFF" width="4" height="24"/>
	<rect id="XMLID_72_" x="162.675" y="39.793" fill="#FFFFFF" width="4" height="28"/>
	<rect id="XMLID_71_" x="167.675" y="35.793" fill="#FFFFFF" width="4" height="32"/>
	<rect id="XMLID_60_" x="172.675" y="30.793" fill="#FFFFFF" width="4" height="37"/>
	<rect id="XMLID_59_" x="142.675" y="43.793" fill="#FFFFFF" width="4" height="24"/>
	<rect id="XMLID_58_" x="127.675" y="52.793" fill="#FFFFFF" width="4" height="15"/>
	<rect id="XMLID_57_" x="137.675" y="39.793" fill="#FFFFFF" width="4" height="28"/>
	<path id="XMLID_79_" fill="#FFFFFF" d="M124.559,72.383c-0.7,0-1.5-0.568-1.5-1.267V28.883c0-0.699,0.8-1.267,1.5-1.267
		s1.5,0.568,1.5,1.267v42.233C126.059,71.816,125.258,72.383,124.559,72.383z"/>
	<path id="XMLID_55_" fill="#FFFFFF" d="M123.059,70.884c0-0.7,0.734-1.5,1.638-1.5h54.607c0.904,0,1.638,0.8,1.638,1.5
		s-0.734,1.5-1.638,1.5h-54.607C123.792,72.384,123.059,71.583,123.059,70.884z"/>
</g>
<g id="XMLID_77_">
	<rect id="XMLID_90_" x="31.831" y="45.878" fill="#0075FF" width="4" height="23"/>
	<rect id="XMLID_89_" x="46.831" y="48.878" fill="#0075FF" width="4" height="20"/>
	<rect id="XMLID_88_" x="51.831" y="52.878" fill="#0075FF" width="4" height="16"/>
	<rect id="XMLID_87_" x="56.831" y="44.878" fill="#0075FF" width="4" height="24"/>
	<rect id="XMLID_86_" x="61.831" y="40.878" fill="#0075FF" width="4" height="28"/>
	<rect id="XMLID_85_" x="66.831" y="36.878" fill="#0075FF" width="4" height="32"/>
	<rect id="XMLID_84_" x="71.831" y="31.878" fill="#0075FF" width="4" height="37"/>
	<rect id="XMLID_83_" x="41.831" y="44.878" fill="#0075FF" width="4" height="24"/>
	<rect id="XMLID_82_" x="26.831" y="53.878" fill="#0075FF" width="4" height="15"/>
	<rect id="XMLID_81_" x="36.831" y="40.878" fill="#0075FF" width="4" height="28"/>
	<path id="XMLID_80_" fill="#0075FF" d="M23.715,73.469c-0.7,0-1.5-0.568-1.5-1.267V29.969c0-0.699,0.8-1.267,1.5-1.267
		c0.7,0,1.5,0.568,1.5,1.267v42.233C25.215,72.901,24.415,73.469,23.715,73.469z"/>
	<path id="XMLID_78_" fill="#0075FF" d="M22.215,71.969c0-0.7,0.734-1.5,1.638-1.5H78.46c0.904,0,1.638,0.8,1.638,1.5
		s-0.734,1.5-1.638,1.5H23.853C22.949,73.469,22.215,72.669,22.215,71.969z"/>
</g>
</svg>
