<?xml version="1.0" encoding="utf-8"?>
<!-- Generator: Adobe Illustrator 19.0.0, SVG Export Plug-In . SVG Version: 6.00 Build 0)  -->
<svg version="1.1" id="Layer_1" xmlns="http://www.w3.org/2000/svg" xmlns:xlink="http://www.w3.org/1999/xlink" x="0px" y="0px"
	 width="100px" height="100px" viewBox="0 0 100 100" enable-background="new 0 0 100 100" xml:space="preserve">
<polygon id="XMLID_1_" points="6.699,75 6.699,25 50,0 93.301,25 93.301,75 50,100 "/>
<g enable-background="new    ">
	<path fill="#FFFFFF" d="M68.06,60.5v10.98H34.4v-8.7l15.18-14.04c1.32-1.239,2.2-2.3,2.641-3.18c0.439-0.88,0.66-1.74,0.66-2.58
		c0-1.04-0.351-1.85-1.051-2.43s-1.71-0.87-3.03-0.87c-1.281,0-2.48,0.34-3.6,1.02c-1.12,0.681-1.98,1.641-2.58,2.88l-10.68-5.34
		c1.599-3,3.939-5.37,7.02-7.109c3.08-1.74,6.799-2.61,11.16-2.61c3.32,0,6.26,0.54,8.82,1.62c2.56,1.08,4.56,2.62,6,4.62
		c1.44,2,2.16,4.3,2.16,6.899c0,2.32-0.49,4.491-1.47,6.511c-0.981,2.02-2.891,4.311-5.73,6.869l-6,5.46
		C53.9,60.5,68.06,60.5,68.06,60.5z"/>
</g>
</svg>
