<?xml version="1.0" encoding="utf-8"?>
<!-- Generator: Adobe Illustrator 19.0.0, SVG Export Plug-In . SVG Version: 6.00 Build 0)  -->
<svg version="1.1" id="Layer_1" xmlns="http://www.w3.org/2000/svg" xmlns:xlink="http://www.w3.org/1999/xlink" x="0px" y="0px"
	 width="100px" height="100px" viewBox="0 0 100 100" enable-background="new 0 0 100 100" xml:space="preserve">
<polygon id="XMLID_1_" points="6.699,75 6.699,25 50,0 93.301,25 93.301,75 50,100 "/>
<g id="XMLID_2_">
	<g id="XMLID_29_">
		<path id="XMLID_30_" fill="#FFFFFF" d="M65.27,49.49c1.74,2.1,2.61,4.63,2.61,7.59c0,2.52-0.69,4.87-2.07,7.05
			c-1.38,2.181-3.51,3.95-6.39,5.31c-2.881,1.359-6.461,2.04-10.74,2.04c-2.961,0-5.91-0.32-8.851-0.96
			c-2.939-0.639-5.51-1.579-7.71-2.819l4.801-10.44c1.719,1,3.569,1.761,5.55,2.28c1.979,0.521,3.89,0.779,5.729,0.779
			c1.64,0,2.96-0.279,3.96-0.84c1-0.56,1.5-1.359,1.5-2.399c0-1.92-1.66-2.88-4.979-2.88H43.1v-8.7l6.18-6.3h-15V28.52H65.6v8.7
			l-7.8,7.92C61.04,45.941,63.53,47.39,65.27,49.49z"/>
	</g>
</g>
</svg>
