<?xml version="1.0" encoding="utf-8"?>
<!-- Generator: Adobe Illustrator 19.0.0, SVG Export Plug-In . SVG Version: 6.00 Build 0)  -->
<svg version="1.1" id="Layer_1" xmlns="http://www.w3.org/2000/svg" xmlns:xlink="http://www.w3.org/1999/xlink" x="0px" y="0px"
	 width="100px" height="100px" viewBox="0 0 100 100" enable-background="new 0 0 100 100" xml:space="preserve">
<g>
	<path id="XMLID_2_" d="M39.474,60.526H12.105c-1.163,0-2.105-0.943-2.105-2.105c0-1.163,0.943-2.105,2.105-2.105h29.474
		c1.163,0,2.105,0.943,2.105,2.105v29.474c0,1.163-0.943,2.105-2.105,2.105c-1.163,0-2.105-0.943-2.105-2.105V60.526z"/>
	<path id="XMLID_1_" d="M60.526,39.474h27.368c1.163,0,2.105,0.943,2.105,2.105c0,1.163-0.943,2.105-2.105,2.105H58.421
		c-1.163,0-2.105-0.943-2.105-2.105V12.105c0-1.163,0.943-2.105,2.105-2.105c1.163,0,2.105,0.943,2.105,2.105V39.474z"/>
</g>
</svg>
