<?xml version="1.0" encoding="utf-8"?>
<!-- Generator: Adobe Illustrator 19.0.0, SVG Export Plug-In . SVG Version: 6.00 Build 0)  -->
<svg version="1.1" id="Layer_1" xmlns="http://www.w3.org/2000/svg" xmlns:xlink="http://www.w3.org/1999/xlink" x="0px" y="0px"
	 width="200px" height="100px" viewBox="50 0 200 100" enable-background="new 50 0 200 100" xml:space="preserve">
<circle fill="#0075FF" cx="200" cy="50" r="49"/>
<title>Send Mail</title>
<g>
	<path fill="#FFFFFF" d="M186.915,62.015c8.918,8.94,24.527,7.339,27.619,4.255c2.997-2.99-1.2-11.931-9.582-20.62
		c0.916-1.201,1.587-2.065,1.722-2.2c0.52-0.519,1.371-0.052,2.039-0.114c0.668-0.063,1.336-0.331,1.848-0.84
		c1.17-1.166,1.191-3.035,0.039-4.19c-1.152-1.156-3.021-1.139-4.19,0.028c-0.512,0.51-0.781,1.176-0.846,1.844
		c-0.064,0.668,0.399,1.519-0.119,2.038c-0.135,0.135-1.003,0.805-2.207,1.718c-8.64-8.348-17.522-12.53-20.509-9.549
		C179.636,37.47,177.997,53.075,186.915,62.015z M183.514,35.173c2.196-2.19,10.168,1.112,18.824,9.441
		c-3.498,2.641-8.684,6.495-8.684,6.495s0.474,1.399,1.588,2.516c1.114,1.116,2.509,1.591,2.509,1.591s3.869-5.178,6.518-8.67
		c8.371,8.712,11.682,16.737,9.479,18.936c-2.282,2.275-10.801-1.376-19.843-10.44C184.863,45.976,181.232,37.45,183.514,35.173z"/>
	<path fill="#FFFFFF" d="M193.434,67.846c-2.604-1.056-4.974-2.544-7.059-4.43L182.405,74h16.722l-1.638-4.914
		C196.108,68.793,194.753,68.38,193.434,67.846z"/>
	<g>
		<path fill="#FFFFFF" d="M210.009,35.532c1.02,0.281,1.945,0.839,2.683,1.632c0.74,0.793,1.231,1.754,1.441,2.791
			c0.023,0.161,0.094,0.317,0.214,0.445c0.311,0.334,0.834,0.352,1.169,0.041c0.216-0.2,0.3-0.489,0.248-0.758
			c-0.257-1.321-0.875-2.589-1.861-3.646c-0.986-1.058-2.208-1.763-3.508-2.112c-0.266-0.069-0.559-0.006-0.774,0.195
			c-0.335,0.311-0.353,0.835-0.041,1.169C209.7,35.416,209.85,35.497,210.009,35.532z"/>
		<path fill="#FFFFFF" d="M220.737,39.334c-0.347-2.419-1.412-4.76-3.205-6.683c-1.793-1.923-4.053-3.148-6.443-3.664l0,0.001
			c-0.267-0.071-0.561-0.009-0.778,0.193c-0.333,0.311-0.352,0.835-0.041,1.169c0.119,0.127,0.269,0.209,0.427,0.243
			c0.738,0.156,1.458,0.39,2.154,0.701c1.313,0.587,2.481,1.423,3.47,2.485c0.991,1.062,1.744,2.286,2.237,3.637
			c0.261,0.715,0.444,1.45,0.549,2.197c0.023,0.16,0.094,0.315,0.213,0.443c0.312,0.334,0.836,0.352,1.17,0.041
			C220.706,39.895,220.788,39.604,220.737,39.334L220.737,39.334z"/>
		<path fill="#FFFFFF" d="M225.725,39.227l0.001-0.001c-0.391-3.6-1.905-7.108-4.565-9.961c-2.659-2.852-6.054-4.608-9.618-5.249
			l0,0.002c-0.255-0.056-0.534,0.01-0.739,0.203c-0.335,0.311-0.353,0.835-0.041,1.169c0.131,0.14,0.299,0.225,0.474,0.252
			c0.006,0.001,0.012,0.001,0.017,0.002c1.246,0.224,2.459,0.596,3.624,1.116c1.92,0.858,3.626,2.08,5.074,3.632
			c1.448,1.552,2.547,3.341,3.269,5.315c0.438,1.199,0.725,2.434,0.862,3.693c0.001,0.005,0.001,0.01,0.001,0.016
			c0.016,0.178,0.087,0.351,0.218,0.491c0.313,0.334,0.836,0.352,1.17,0.041C225.677,39.758,225.764,39.486,225.725,39.227z"/>
	</g>
</g>
<circle fill="#FFFFFF" cx="100" cy="50" r="49"/>
<g>
	<path fill="#0075FF" d="M86.915,62.015c8.918,8.94,24.527,7.339,27.619,4.255c2.997-2.99-1.2-11.931-9.582-20.62
		c0.916-1.201,1.587-2.065,1.722-2.2c0.52-0.519,1.371-0.052,2.039-0.114c0.668-0.063,1.336-0.331,1.848-0.84
		c1.17-1.166,1.191-3.035,0.039-4.19c-1.152-1.156-3.021-1.139-4.19,0.028c-0.512,0.51-0.781,1.176-0.846,1.844
		c-0.064,0.668,0.399,1.519-0.119,2.038c-0.135,0.135-1.003,0.805-2.207,1.718c-8.64-8.348-17.522-12.53-20.509-9.549
		C79.636,37.47,77.997,53.075,86.915,62.015z M83.514,35.173c2.196-2.19,10.168,1.112,18.824,9.441
		c-3.498,2.641-8.684,6.495-8.684,6.495s0.474,1.399,1.588,2.516c1.114,1.116,2.509,1.591,2.509,1.591s3.869-5.178,6.518-8.67
		c8.371,8.712,11.682,16.737,9.479,18.936c-2.282,2.275-10.801-1.376-19.843-10.44C84.863,45.976,81.232,37.45,83.514,35.173z"/>
	<path fill="#0075FF" d="M93.433,67.846c-2.604-1.056-4.974-2.544-7.059-4.43L82.405,74h16.722l-1.638-4.914
		C96.108,68.793,94.753,68.38,93.433,67.846z"/>
	<g>
		<path fill="#0075FF" d="M110.009,35.532c1.02,0.281,1.945,0.839,2.683,1.632c0.74,0.793,1.231,1.754,1.441,2.791
			c0.023,0.161,0.094,0.317,0.214,0.445c0.311,0.334,0.834,0.352,1.169,0.041c0.216-0.2,0.3-0.489,0.248-0.758
			c-0.257-1.321-0.875-2.589-1.861-3.646c-0.986-1.058-2.208-1.763-3.508-2.112c-0.266-0.069-0.559-0.006-0.774,0.195
			c-0.335,0.311-0.353,0.835-0.041,1.169C109.7,35.416,109.85,35.497,110.009,35.532z"/>
		<path fill="#0075FF" d="M120.737,39.334c-0.347-2.419-1.412-4.76-3.205-6.683c-1.793-1.923-4.053-3.148-6.443-3.664l0,0.001
			c-0.267-0.071-0.561-0.009-0.778,0.193c-0.333,0.311-0.352,0.835-0.041,1.169c0.119,0.127,0.269,0.209,0.427,0.243
			c0.738,0.156,1.458,0.39,2.154,0.701c1.313,0.587,2.481,1.423,3.47,2.485c0.991,1.062,1.744,2.286,2.237,3.637
			c0.261,0.715,0.444,1.45,0.549,2.197c0.023,0.16,0.094,0.315,0.213,0.443c0.312,0.334,0.836,0.352,1.17,0.041
			C120.706,39.895,120.788,39.604,120.737,39.334L120.737,39.334z"/>
		<path fill="#0075FF" d="M125.725,39.227l0.001-0.001c-0.391-3.6-1.905-7.108-4.565-9.961c-2.659-2.852-6.054-4.608-9.618-5.249
			l0,0.002c-0.255-0.056-0.534,0.01-0.739,0.203c-0.335,0.311-0.353,0.835-0.041,1.169c0.131,0.14,0.299,0.225,0.474,0.252
			c0.006,0.001,0.012,0.001,0.017,0.002c1.246,0.224,2.459,0.596,3.624,1.116c1.92,0.858,3.626,2.08,5.074,3.632
			c1.448,1.552,2.547,3.341,3.269,5.315c0.438,1.199,0.725,2.434,0.862,3.693c0.001,0.005,0.001,0.01,0.001,0.016
			c0.016,0.178,0.087,0.351,0.218,0.491c0.313,0.334,0.836,0.352,1.17,0.041C125.677,39.758,125.764,39.486,125.725,39.227z"/>
	</g>
</g>
</svg>
