<?xml version="1.0" encoding="utf-8"?>
<!-- Generator: Adobe Illustrator 19.0.0, SVG Export Plug-In . SVG Version: 6.00 Build 0)  -->
<svg version="1.1" id="Layer_1" xmlns="http://www.w3.org/2000/svg" xmlns:xlink="http://www.w3.org/1999/xlink" x="0px" y="0px"
	 width="200px" height="100px" viewBox="-255 347 200 100" enable-background="new -255 347 200 100" xml:space="preserve">
<circle fill="#FFFFFF" cx="-205" cy="397" r="50"/>
<g>
	<path fill="#0075FF" d="M-189.048,396.582c0,0.837-0.68,1.517-1.517,1.517h-18.044c-0.837,0-1.517-0.68-1.517-1.517
		c0-0.837,0.68-1.517,1.517-1.517h18.044C-189.728,395.013-189.048,395.692-189.048,396.582z M-190.565,406.571h-8.264
		c-0.837,0-1.517,0.68-1.517,1.517l0,0c0,0.837,0.68,1.517,1.517,1.517h8.264c0.837,0,1.517-0.68,1.517-1.517l0,0
		C-189.048,407.251-189.728,406.571-190.565,406.571z M-180,402.336c0,3.661-1.308,7.218-3.661,10.146
		c0.418,0.837,1.046,1.464,1.778,1.935c0.785,0.523,1.151,1.412,0.941,2.301c-0.209,0.889-0.889,1.517-1.831,1.674
		c-0.628,0.105-1.255,0.157-1.883,0.157c-1.883,0-3.609-0.366-5.178-1.151c-2.929,1.517-6.276,2.301-9.728,2.301
		c-10.774,0-19.561-7.793-19.561-17.364c0-9.571,8.734-17.364,19.508-17.364C-188.839,384.971-180,392.764-180,402.336z
		 M-183.4,402.336c0-7.741-7.27-14.017-16.213-14.017s-16.213,6.276-16.213,14.017s7.27,14.017,16.213,14.017
		c3.19,0,6.224-0.784,8.891-2.301l0.837-0.471l0.837,0.523c0.889,0.523,1.883,0.889,2.981,1.046
		c-0.523-0.68-0.889-1.464-1.203-2.301l-0.366-0.941l0.68-0.732C-184.603,408.56-183.4,405.526-183.4,402.336z M-190.565,400.818
		h-18.044c-0.837,0-1.517,0.68-1.517,1.517c0,0.837,0.68,1.517,1.517,1.517h18.044c0.837,0,1.517-0.68,1.517-1.517
		S-189.728,400.818-190.565,400.818z M-199.456,381.623L-199.456,381.623c-2.772-4.341-8.107-7.322-14.226-7.322
		c-8.996,0-16.318,6.381-16.318,14.278c0,3.4,1.36,6.538,3.609,8.996c-0.418,1.151-1.203,2.406-2.563,3.347
		c-0.366,0.209-0.262,0.784,0.157,0.837c1.464,0.209,3.923,0.262,6.224-1.151l0,0C-221.527,389.992-211.59,381.623-199.456,381.623z
		"/>
</g>
<circle fill="#0075FF" cx="-105" cy="397" r="50"/>
<g>
	<path fill="#FFFFFF" d="M-89.048,397.682c0,0.837-0.68,1.517-1.517,1.517h-18.044c-0.837,0-1.517-0.68-1.517-1.517
		s0.68-1.517,1.517-1.517h18.044C-89.728,396.113-89.048,396.792-89.048,397.682z M-90.565,407.671h-8.264
		c-0.837,0-1.517,0.68-1.517,1.517l0,0c0,0.837,0.68,1.517,1.517,1.517h8.264c0.837,0,1.517-0.68,1.517-1.517l0,0
		C-89.048,408.351-89.728,407.671-90.565,407.671z M-80,403.435c0,3.661-1.308,7.218-3.661,10.146
		c0.418,0.837,1.046,1.464,1.778,1.935c0.785,0.523,1.151,1.412,0.941,2.301c-0.209,0.889-0.889,1.517-1.831,1.674
		c-0.628,0.105-1.255,0.157-1.883,0.157c-1.883,0-3.609-0.366-5.178-1.151c-2.929,1.517-6.276,2.301-9.728,2.301
		c-10.774,0-19.561-7.793-19.561-17.364c0-9.571,8.734-17.364,19.508-17.364C-88.839,386.071-80,393.864-80,403.435z M-83.4,403.435
		c0-7.741-7.27-14.017-16.213-14.017s-16.213,6.276-16.213,14.017c0,7.741,7.27,14.017,16.213,14.017
		c3.19,0,6.224-0.784,8.891-2.301l0.837-0.471l0.837,0.523c0.889,0.523,1.883,0.889,2.981,1.046
		c-0.523-0.68-0.889-1.464-1.203-2.301l-0.366-0.941l0.68-0.732C-84.603,409.659-83.4,406.625-83.4,403.435z M-90.565,401.918
		h-18.044c-0.837,0-1.517,0.68-1.517,1.517c0,0.837,0.68,1.517,1.517,1.517h18.044c0.837,0,1.517-0.68,1.517-1.517
		S-89.728,401.918-90.565,401.918z M-99.456,382.723L-99.456,382.723c-2.772-4.341-8.107-7.322-14.226-7.322
		c-8.996,0-16.318,6.381-16.318,14.278c0,3.4,1.36,6.538,3.609,8.996c-0.418,1.151-1.203,2.406-2.563,3.347
		c-0.366,0.209-0.262,0.784,0.157,0.837c1.464,0.209,3.923,0.262,6.224-1.151l0,0C-121.527,391.092-111.59,382.723-99.456,382.723z"
		/>
</g>
</svg>
