<?xml version="1.0" encoding="utf-8"?>
<!-- Generator: Adobe Illustrator 19.0.0, SVG Export Plug-In . SVG Version: 6.00 Build 0)  -->
<svg version="1.1" id="Layer_1" xmlns="http://www.w3.org/2000/svg" xmlns:xlink="http://www.w3.org/1999/xlink" x="0px" y="0px"
	 width="100px" height="100px" viewBox="0 0 100 100" enable-background="new 0 0 100 100" xml:space="preserve">
<circle id="XMLID_7_" cx="50" cy="50.272" r="50"/>
<g id="XMLID_2_">
	<path id="XMLID_3_" fill="#FFFFFF" d="M31.88,29h19.079c4.561,0,8.59,0.87,12.092,2.61c3.498,1.74,6.219,4.191,8.158,7.35
		c1.941,3.16,2.91,6.84,2.91,11.041c0,4.2-0.969,7.881-2.91,11.04c-1.939,3.16-4.66,5.609-8.158,7.35
		C59.549,70.13,55.52,71,50.959,71H31.88V29z M50.481,63.02c4.199,0,7.549-1.17,10.049-3.51S64.28,54,64.28,50s-1.25-7.17-3.75-9.51
		c-2.5-2.34-5.85-3.51-10.049-3.51h-8.88v26.04H50.481z"/>
</g>
</svg>
