<?xml version="1.0" encoding="utf-8"?>
<!-- Generator: Adobe Illustrator 19.0.0, SVG Export Plug-In . SVG Version: 6.00 Build 0)  -->
<svg version="1.1" id="Layer_1" xmlns="http://www.w3.org/2000/svg" xmlns:xlink="http://www.w3.org/1999/xlink" x="0px" y="0px"
	 width="200px" height="100px" viewBox="0 100 200 100" style="enable-background:new 0 100 200 100;" xml:space="preserve">
<style type="text/css">
	.st0{fill:#FF2600;}
	.st1{fill:#FFFFFF;stroke:#FFFFFF;stroke-width:2;stroke-miterlimit:10;}
	.st2{fill:#FFFFFF;}
	.st3{fill:#009FFF;stroke:#FF2600;stroke-width:2;stroke-miterlimit:10;}
	.st4{fill:#FFFFFF;stroke:#FF2600;stroke-width:2;stroke-miterlimit:10;}
</style>
<circle id="XMLID_5_" class="st0" cx="150" cy="150" r="50"/>
<g>
	<path class="st1" d="M136.2,171.2l-2.6-33l2.4-0.2l2.6,33.1v0.1c0,0.8,0.7,1.4,1.4,1.4h19.6c0.8,0,1.4-0.7,1.4-1.4v-0.1l2.6-33.1
		l2.4,0.2l-2.6,33c0,2-1.5,3.6-3.4,3.7l0,0h-0.4H140h-0.4l0,0C137.8,174.8,136.2,173.2,136.2,171.2z"/>
	<path class="st1" d="M170.1,134.8h-40.3v-2.4h12.8v-3.5c0-2.1,1.8-3.9,3.9-3.9h7c2.1,0,3.9,1.8,3.9,3.9v3.5h12.8v2.4H170.1z"/>
	<path class="st0" d="M145,132.4h9.8v-3.5c0-0.8-0.7-1.4-1.4-1.4h-7c-0.8,0-1.4,0.7-1.4,1.4C145,128.9,145,132.4,145,132.4z"/>
	<rect id="XMLID_4_" x="153.3" y="142.9" class="st1" width="2.9" height="18.3"/>
	<rect id="XMLID_1_" x="144.5" y="142.9" class="st1" width="2.9" height="18.3"/>
</g>
<circle id="XMLID_7_" class="st2" cx="50" cy="150" r="50"/>
<g>
	<path class="st3" d="M36.2,171.2l-2.6-33L36,138l2.6,33.1v0.1c0,0.8,0.7,1.4,1.4,1.4h19.6c0.8,0,1.4-0.7,1.4-1.4v-0.1l2.6-33.1
		l2.4,0.2l-2.6,33c0,2-1.5,3.6-3.4,3.7l0,0h-0.4H40h-0.4l0,0C37.8,174.8,36.2,173.2,36.2,171.2z"/>
	<path class="st3" d="M70.1,134.8H29.8v-2.4h12.8v-3.5c0-2.1,1.8-3.9,3.9-3.9h7c2.1,0,3.9,1.8,3.9,3.9v3.5h12.8v2.4H70.1z"/>
	<path class="st4" d="M45,132.4h9.8v-3.5c0-0.8-0.7-1.4-1.4-1.4h-7c-0.8,0-1.4,0.7-1.4,1.4C45,128.9,45,132.4,45,132.4z"/>
	<rect id="XMLID_8_" x="53.3" y="142.9" class="st3" width="2.9" height="18.3"/>
	<rect id="XMLID_2_" x="44.5" y="142.9" class="st3" width="2.9" height="18.3"/>
</g>
</svg>
