<?xml version="1.0" encoding="utf-8"?>
<!-- Generator: Adobe Illustrator 19.0.0, SVG Export Plug-In . SVG Version: 6.00 Build 0)  -->
<svg version="1.1" id="Layer_1" xmlns="http://www.w3.org/2000/svg" xmlns:xlink="http://www.w3.org/1999/xlink" x="0px" y="0px"
	 width="200px" height="100px" viewBox="-295 357 200 100" enable-background="new -295 357 200 100" xml:space="preserve">
<circle id="XMLID_2_" fill="#FFFFFF" cx="-245" cy="407" r="50"/>
<title>edit</title>
<g>
	<path fill="#0075FF" d="M-246.354,403.728c-0.445,0.445-0.831,0.998-1.053,1.554l-3.78,8.379c-0.61,1.557,0.672,2.836,2.162,2.169
		l8.389-3.719c0.553-0.281,1.117-0.615,1.554-1.058l20.536-20.15c2.061-2.056,2.061-5.337,0-7.326c-2.059-2.056-5.337-2.056-7.337,0
		l-20.474,20.15h0.003V403.728z"/>
	<path fill="#0075FF" d="M-223.374,410.056c-1.716,0-3.109,1.384-3.109,3.101v9.54c0,1.716-1.384,3.109-3.109,3.109h-28.142
		c-1.724,0-3.109-1.39-3.109-3.109v-28.204c0-1.722,1.384-3.103,3.109-3.103h9.151c1.711,0,3.109-1.402,3.109-3.114
		c0-1.716-1.395-3.109-3.109-3.109h-9.151c-5.111,0.059-9.267,4.225-9.267,9.328v28.202c0,5.111,4.153,9.267,9.267,9.267h28.202
		c5.106,0,9.269-4.153,9.269-9.267v-9.54c0-1.714-1.39-3.101-3.114-3.101L-223.374,410.056L-223.374,410.056z"/>
</g>
<circle id="XMLID_1_" fill="#0075FF" cx="-145" cy="407" r="50"/>
<g>
	<path fill="#FFFFFF" d="M-146.354,401.898c-0.445,0.445-0.831,0.998-1.053,1.554l-3.78,8.379c-0.61,1.557,0.672,2.836,2.162,2.169
		l8.389-3.719c0.553-0.28,1.117-0.615,1.554-1.058l20.536-20.15c2.061-2.056,2.061-5.337,0-7.326c-2.059-2.056-5.337-2.056-7.337,0
		l-20.474,20.15h0.003V401.898z"/>
	<path fill="#FFFFFF" d="M-123.374,408.226c-1.716,0-3.109,1.384-3.109,3.101v9.539c0,1.716-1.384,3.109-3.109,3.109h-28.142
		c-1.724,0-3.109-1.39-3.109-3.109v-28.204c0-1.722,1.384-3.103,3.109-3.103h9.151c1.711,0,3.109-1.402,3.109-3.114
		c0-1.716-1.395-3.109-3.109-3.109h-9.151c-5.111,0.059-9.267,4.225-9.267,9.328v28.202c0,5.111,4.153,9.267,9.267,9.267h28.202
		c5.106,0,9.269-4.153,9.269-9.267v-9.539c0-1.714-1.39-3.101-3.114-3.101L-123.374,408.226L-123.374,408.226z"/>
</g>
</svg>
