<?xml version="1.0" encoding="utf-8"?>
<!-- Generator: Adobe Illustrator 19.0.0, SVG Export Plug-In . SVG Version: 6.00 Build 0)  -->
<svg version="1.1" id="Layer_1" xmlns="http://www.w3.org/2000/svg" xmlns:xlink="http://www.w3.org/1999/xlink" x="0px" y="0px"
	 width="200px" height="100px" viewBox="-255 459 200 100" enable-background="new -255 459 200 100" xml:space="preserve">
<circle fill="#0075FF" cx="-105" cy="509" r="50"/>
<title>Send Mail</title>
<path fill="#FFFFFF" d="M-84.5,494h-33c-1.381,0-2.5,1.12-2.5,2.5v27c0,1.381,1.119,2.5,2.5,2.5h33c1.381,0,2.5-1.119,2.5-2.5v-27
	C-82,495.12-83.119,494-84.5,494z M-117.5,496h33c0.277,0,0.5,0.224,0.5,0.5l0,0l-17,16l-17-15.94l0,0
	c-0.035-0.274,0.159-0.525,0.433-0.559c0.003-0.001,0.005-0.001,0.007-0.001H-117.5z M-84.5,524h-33c-0.276,0-0.5-0.224-0.5-0.5
	v-24.18l16.32,15.399c0.386,0.369,0.993,0.369,1.38,0L-84,499.32v24.18C-84,523.776-84.223,524-84.5,524z M-122,506h-10v-2h10V506z
	 M-122,512h-8v-2h8V512z M-122,518h-6v-2h6V518z"/>
<circle fill="#FFFFFF" cx="-205" cy="509" r="50"/>
<path fill="#0075FF" d="M-185.5,495h-33c-1.38,0-2.5,1.12-2.5,2.5v27c0,1.381,1.12,2.5,2.5,2.5h33c1.381,0,2.5-1.119,2.5-2.5v-27
	C-183,496.12-184.119,495-185.5,495z M-218.5,497h33c0.277,0,0.5,0.224,0.5,0.5l0,0l-17,16l-17-15.94l0,0
	c-0.035-0.274,0.159-0.525,0.433-0.559c0.003-0.001,0.005-0.001,0.007-0.001H-218.5z M-185.5,525h-33c-0.276,0-0.5-0.224-0.5-0.5
	v-24.18l16.32,15.399c0.385,0.369,0.993,0.369,1.38,0L-185,500.32v24.18C-185,524.776-185.223,525-185.5,525z M-223,507h-10v-2h10
	V507z M-223,513h-8v-2h8V513z M-223,519h-6v-2h6V519z"/>
</svg>
