<?xml version="1.0" encoding="utf-8"?>
<!-- Generator: Adobe Illustrator 19.0.0, SVG Export Plug-In . SVG Version: 6.00 Build 0)  -->
<svg version="1.1" id="Layer_1" xmlns="http://www.w3.org/2000/svg" xmlns:xlink="http://www.w3.org/1999/xlink" x="0px" y="0px"
	 width="100px" height="100px" viewBox="50 100 100 100" enable-background="new 50 100 100 100" xml:space="preserve">
<path fill="#0075FF" d="M140.5,121.2H81.1c-2.484,0-4.5,2.016-4.5,4.5v48.6c0,2.486,2.016,4.5,4.5,4.5h59.4
	c2.486,0,4.5-2.014,4.5-4.5v-48.6C145,123.216,142.986,121.2,140.5,121.2z M81.1,124.8h59.4c0.499,0,0.9,0.403,0.9,0.9l0,0
	l-30.6,28.8l-30.6-28.692l0,0c-0.063-0.493,0.286-0.945,0.779-1.006c0.005-0.002,0.009-0.002,0.013-0.002H81.1z M140.5,175.2H81.1
	c-0.497,0-0.9-0.403-0.9-0.9v-43.524l29.376,27.718c0.693,0.664,1.787,0.664,2.484,0l29.34-27.718V174.3
	C141.4,174.797,140.999,175.2,140.5,175.2z M73,142.8H55v-3.6h18V142.8z M73,153.6H58.6V150H73V153.6z M73,164.4H62.2v-3.6H73V164.4
	z"/>
</svg>
