<?xml version="1.0" encoding="utf-8"?>
<!-- Generator: Adobe Illustrator 19.0.0, SVG Export Plug-In . SVG Version: 6.00 Build 0)  -->
<svg version="1.1" id="Layer_1" xmlns="http://www.w3.org/2000/svg" xmlns:xlink="http://www.w3.org/1999/xlink" x="0px" y="0px"
	 width="100px" height="100px" viewBox="0 0 100 100" enable-background="new 0 0 100 100" xml:space="preserve">
<g id="XMLID_1_">
	<path id="XMLID_22_" fill="#55BA9F" d="M25,10h38.273L83,30.281V82c0,4.418-3.582,8-8,8H25c-4.418,0-8-3.582-8-8V18
		C17,13.582,20.582,10,25,10z"/>
	<path id="XMLID_21_" fill="#55BA9F" d="M63.273,10l19.453,20H71c-4.418,0-8-3.582-8-8V10H63.273z"/>
	<path fill="#FFFFFF" fill-opacity="0.75" d="M38,61V48v-1v-5h24v5v1v13H38z M46,44h-6v3h6V44z M46,48h-6v3h6V48z M46,52h-6v3h6V52z
		 M46,56h-6v3h6V56z M53,44h-6v3h6V44z M53,48h-6v3h6V48z M53,52h-6v3h6V52z M53,56h-6v3h6V56z M60,44h-6v3h6V44z M60,48h-6v3h6V48z
		 M60,52h-6v3h6V52z M60,56h-6v3h6V56z M59,46h-4v-1h4V46z M52,46h-4v-1h4V46z M45,58h-4v-1h4V58z M45,54h-4v-1h4V54z M45,50h-4v-1
		h4V50z M45,46h-4v-1h4V46z"/>
</g>
</svg>
