<?xml version="1.0" encoding="utf-8"?>
<!-- Generator: Adobe Illustrator 19.0.0, SVG Export Plug-In . SVG Version: 6.00 Build 0)  -->
<svg version="1.1" id="Layer_1" xmlns="http://www.w3.org/2000/svg" xmlns:xlink="http://www.w3.org/1999/xlink" x="0px" y="0px"
	 width="200px" height="100px" viewBox="0 100 200 100" style="enable-background:new 0 100 200 100;" xml:space="preserve">
<style type="text/css">
	.st0{fill:#FFFFFF;}
	.st1{fill:#0075FF;}
</style>
<circle class="st0" cx="50" cy="150" r="49"/>
<g id="XMLID_14_">
	<g id="XMLID_7_">
		
			<rect id="XMLID_4_" x="38.8" y="152.5" transform="matrix(-0.7071 0.7071 -0.7071 -0.7071 188.0861 257.0487)" class="st1" width="4" height="30"/>
		
			<rect id="XMLID_8_" x="57.2" y="152.5" transform="matrix(-0.7071 -0.7071 0.7071 -0.7071 -17.3775 327.7591)" class="st1" width="4" height="30"/>
	</g>
	<g id="XMLID_9_">
		
			<rect id="XMLID_11_" x="57.2" y="117.5" transform="matrix(0.7071 -0.7071 0.7071 0.7071 -76.3689 80.6696)" class="st1" width="4" height="30"/>
		
			<rect id="XMLID_10_" x="38.8" y="117.5" transform="matrix(0.7071 0.7071 -0.7071 0.7071 105.6594 9.9591)" class="st1" width="4" height="30"/>
	</g>
</g>
<circle class="st1" cx="150" cy="150" r="49"/>
<g id="XMLID_1_">
	<g id="XMLID_6_">
		
			<rect id="XMLID_13_" x="138.8" y="152.5" transform="matrix(-0.7071 0.7071 -0.7071 -0.7071 358.7982 186.3386)" class="st0" width="4" height="30"/>
		
			<rect id="XMLID_12_" x="157.2" y="152.5" transform="matrix(-0.7071 -0.7071 0.7071 -0.7071 153.3337 398.4712)" class="st0" width="4" height="30"/>
	</g>
	<g id="XMLID_2_">
		
			<rect id="XMLID_5_" x="157.2" y="117.5" transform="matrix(0.7071 -0.7071 0.7071 0.7071 -47.0799 151.3808)" class="st0" width="4" height="30"/>
		
			<rect id="XMLID_3_" x="138.8" y="117.5" transform="matrix(0.7071 0.7071 -0.7071 0.7071 134.9493 -60.7518)" class="st0" width="4" height="30"/>
	</g>
</g>
</svg>
