<?xml version="1.0" encoding="utf-8"?>
<!-- Generator: Adobe Illustrator 19.0.0, SVG Export Plug-In . SVG Version: 6.00 Build 0)  -->
<svg version="1.1" id="Layer_1" xmlns="http://www.w3.org/2000/svg" xmlns:xlink="http://www.w3.org/1999/xlink" x="0px" y="0px"
	 width="100px" height="100px" viewBox="0 0 100 100" enable-background="new 0 0 100 100" xml:space="preserve">
<circle id="XMLID_14_" cx="50" cy="50" r="50"/>
<g id="XMLID_3_">
	<path id="XMLID_2_" fill="#FFFFFF" d="M71.046,28.795H42.609c-1.208,0-2.188-0.979-2.188-2.188c0-1.208,0.979-2.188,2.188-2.188
		h30.625c1.208,0,2.188,0.979,2.188,2.188v30.625c0,1.208-0.979,2.188-2.188,2.188s-2.188-0.979-2.188-2.188V28.795z"/>
	<path id="XMLID_1_" fill="#FFFFFF" d="M28.954,71.205h28.438c1.208,0,2.188,0.979,2.188,2.188s-0.979,2.188-2.188,2.188H26.766
		c-1.208,0-2.188-0.979-2.188-2.188V42.767c0-1.208,0.979-2.188,2.188-2.188c1.208,0,2.188,0.979,2.188,2.188V71.205z"/>
</g>
</svg>
