<?xml version="1.0" encoding="utf-8"?>
<!-- Generator: Adobe Illustrator 19.0.0, SVG Export Plug-In . SVG Version: 6.00 Build 0)  -->
<svg version="1.1" id="Layer_1" xmlns="http://www.w3.org/2000/svg" xmlns:xlink="http://www.w3.org/1999/xlink" x="0px" y="0px"
	 width="100px" height="100px" viewBox="0 0 100 100" enable-background="new 0 0 100 100" xml:space="preserve">
<circle id="XMLID_1_" fill="#FFFFFF" cx="50" cy="50" r="50"/>
<g id="XMLID_11_">
	<path id="XMLID_19_" fill="#009FFF" d="M62.125,75H28.053V32.068h34.072V75z M30.163,72.89h29.852V34.177H30.163V72.89z"/>
	<path id="XMLID_8_" fill="#009FFF" d="M70.986,67.932h-5.169v-2.11h3.059V27.11H39.023v2.321h-2.11V25h34.072V67.932z"/>
	<path id="XMLID_12_" fill="#009FFF" d="M33.644,38.502H56.64v2.11H33.644V38.502z M33.644,45.359H56.64v2.11H33.644V45.359z
		 M33.644,52.426H56.64v2.11H33.644V52.426z M33.644,59.494H56.64v2.11H33.644V59.494z M33.644,66.561h16.034v2.11H33.644V66.561z"
		/>
</g>
</svg>
