<?xml version="1.0" encoding="utf-8"?>
<!-- Generator: Adobe Illustrator 19.0.0, SVG Export Plug-In . SVG Version: 6.00 Build 0)  -->
<svg version="1.1" id="Layer_1" xmlns="http://www.w3.org/2000/svg" xmlns:xlink="http://www.w3.org/1999/xlink" x="0px" y="0px"
	 width="100px" height="100px" viewBox="0 0 100 100" style="enable-background:new 0 0 100 100;" xml:space="preserve">
<style type="text/css">
	.st0{fill:#009FFF;}
</style>
<path id="XMLID_8_" class="st0" d="M100,95.8V17.9c0-2.6-1.6-4.2-4.2-4.2h-8.4v74.7c0,2.6-1.6,4.2-4.2,4.2l-54.7,0v3.2
	c0,2.6,1.6,4.2,4.2,4.2l63.2,0C98.4,100,100,98.4,100,95.8z"/>
<path id="XMLID_3_" class="st0" d="M81.1,82.1V4.2c0-2.6-1.6-4.2-4.2-4.2H13.7c-2.6,0-4.2,1.6-4.2,4.2v77.9c0,2.6,1.6,4.2,4.2,4.2
	l63.2,0C79.5,86.3,81.1,84.7,81.1,82.1z M64.2,20.9v6.3H26.3v-6.3H64.2L64.2,20.9z M64.2,39.9v6.3H26.3v-6.3H64.2L64.2,39.9z
	 M64.2,58.8v6.3H26.3v-6.3L64.2,58.8L64.2,58.8z"/>
</svg>
