<?xml version="1.0" encoding="utf-8"?>
<!-- Generator: Adobe Illustrator 19.0.0, SVG Export Plug-In . SVG Version: 6.00 Build 0)  -->
<svg version="1.1" xmlns="http://www.w3.org/2000/svg" xmlns:xlink="http://www.w3.org/1999/xlink" x="0px" y="0px"
	 width="161.904px" height="100px" viewBox="0 0 161.904 100" enable-background="new 0 0 161.904 100" xml:space="preserve">
<g id="Layer_1" display="none">
	<g id="g4477_1_" transform="translate(-413.65178,54.937522)" display="inline">
		<rect id="rect4204_1_" x="501.788" y="-99.033" fill="none" stroke="#000000" stroke-width="0.25" width="9.524" height="9.524"/>
		
			<rect id="rect4206_1_" x="487.502" y="-99.033" fill="none" stroke="#000000" stroke-width="0.25" width="14.286" height="14.286"/>
		
			<rect id="rect4208_1_" x="487.502" y="-84.747" fill="none" stroke="#000000" stroke-width="0.25" width="23.809" height="23.809"/>
		
			<rect id="rect4210_1_" x="511.312" y="-99.033" fill="none" stroke="#000000" stroke-width="0.25" width="38.095" height="38.095"/>
		
			<rect id="rect4212_1_" x="487.502" y="-160.937" fill="none" stroke="#000000" stroke-width="0.25" width="61.905" height="61.905"/>
		<rect id="rect4214_1_" x="387.503" y="-160.938" fill="none" stroke="#000000" stroke-width="0.25" width="100" height="100"/>
		<rect id="rect4216_1_" x="506.55" y="-89.509" fill="none" stroke="#000000" stroke-width="0.25" width="4.762" height="4.762"/>
	</g>
	<circle id="XMLID_16_" display="inline" fill="none" stroke="#000000" stroke-width="0.25" cx="23.715" cy="-56" r="50"/>
	<circle id="XMLID_15_" display="inline" fill="none" stroke="#000000" stroke-width="0.25" cx="104.667" cy="-75.048" r="30.952"/>
	<circle id="XMLID_14_" display="inline" fill="none" stroke="#000000" stroke-width="0.25" cx="116.572" cy="-25.048" r="19.048"/>
	<circle id="XMLID_13_" display="inline" fill="none" stroke="#000000" stroke-width="0.25" cx="92.763" cy="-39.333" r="4.762"/>
	<circle id="XMLID_12_" display="inline" fill="none" stroke="#000000" stroke-width="0.25" cx="80.858" cy="-36.953" r="7.143"/>
	<circle id="XMLID_11_" display="inline" fill="none" stroke="#000000" stroke-width="0.25" cx="85.62" cy="-17.905" r="11.905"/>
	<circle id="XMLID_10_" display="inline" fill="none" stroke="#000000" stroke-width="0.25" cx="90.382" cy="-32.191" r="2.381"/>
	<circle id="XMLID_9_" display="inline" fill="none" stroke="#000000" stroke-width="0.25" cx="95.143" cy="-32.191" r="2.381"/>
	
		<circle id="XMLID_1_" display="inline" opacity="0.08" fill="none" stroke="#000000" stroke-width="0.25" cx="30.952" cy="50" r="30.952"/>
	
		<circle id="XMLID_2_" display="inline" opacity="0.08" fill="none" stroke="#000000" stroke-width="0.25" cx="30.952" cy="30.952" r="30.952"/>
	
		<circle id="XMLID_3_" display="inline" opacity="0.08" fill="none" stroke="#000000" stroke-width="0.25" cx="30.952" cy="69.048" r="30.952"/>
	
		<ellipse id="XMLID_28_" display="inline" fill="none" stroke="#000000" stroke-width="0.25" cx="208.186" cy="-59.994" rx="50" ry="30.952"/>
	
		<ellipse id="XMLID_29_" display="inline" fill="none" stroke="#000000" stroke-width="0.25" cx="231.902" cy="32.891" rx="30.952" ry="50"/>
	<path id="XMLID_32_" display="inline" fill="none" stroke="#000000" stroke-width="0.25" d="M-31.733,80.177
		c1.23-8.005,7.096-13.548,12.438-13.612c6.597-0.079,14.233,8.171,12.438,19.01"/>
	<path id="XMLID_33_" display="inline" fill="none" stroke="#000000" stroke-width="0.25" d="M21.072,20.566"/>
	<path id="XMLID_35_" display="inline" fill="none" stroke="#000000" stroke-width="0.25" d="M-31.029,44.504
		c1.949-6.778,6.339-11.492,10.561-11.5c6.144-0.011,11.144,9.947,9.857,16.663c-1.606,8.376-13.688,15.342-30.04,14.316"/>
	
		<ellipse id="XMLID_26_" display="inline" opacity="0.36" fill="none" stroke="#000000" stroke-width="0.25" cx="202.126" cy="-106.922" rx="30.952" ry="20.512"/>
	
		<ellipse id="XMLID_27_" display="inline" opacity="0.36" fill="none" stroke="#000000" stroke-width="0.25" cx="206.048" cy="5.905" rx="20.512" ry="30.952"/>
	
		<ellipse id="XMLID_30_" display="inline" opacity="0.36" fill="none" stroke="#000000" stroke-width="0.25" cx="206.048" cy="5.905" rx="20.512" ry="30.952"/>
	<circle id="XMLID_24_" display="inline" fill="none" stroke="#000000" stroke-width="0.25" cx="186.052" cy="30.156" r="7.143"/>
	<path id="XMLID_37_" display="inline" fill="#009FFF" d="M44.184,80.638"/>
	<path id="XMLID_39_" display="inline" fill="none" stroke="#000000" stroke-width="0.25" d="M6.011,49.519"/>
	
		<circle id="XMLID_4_" display="inline" opacity="0.08" fill="none" stroke="#000000" stroke-width="0.25" cx="80.952" cy="50" r="50"/>
	
		<circle id="XMLID_5_" display="inline" opacity="0.08" fill="none" stroke="#000000" stroke-width="0.25" cx="111.904" cy="50" r="50"/>
	<circle id="XMLID_6_" display="inline" opacity="0.08" fill="none" stroke="#000000" stroke-width="0.25" cx="50" cy="50" r="50"/>
	<g id="XMLID_45_" display="inline">
		<circle id="XMLID_19_" opacity="0.08" fill="none" stroke="#000000" stroke-width="0.25" cx="80.952" cy="50" r="30.952"/>
		<circle id="XMLID_18_" opacity="0.08" fill="none" stroke="#000000" stroke-width="0.25" cx="80.952" cy="30.952" r="30.952"/>
		<circle id="XMLID_17_" opacity="0.08" fill="none" stroke="#000000" stroke-width="0.25" cx="80.952" cy="69.048" r="30.952"/>
		<path id="XMLID_8_" fill="none" stroke="#000000" stroke-width="0.25" d="M71.071,20.566"/>
		<path id="XMLID_7_" fill="#009FFF" d="M75.184,49.638"/>
	</g>
	<g id="XMLID_46_" display="inline">
		<circle id="XMLID_51_" opacity="0.08" fill="none" stroke="#000000" stroke-width="0.25" cx="130.952" cy="50" r="30.952"/>
		<circle id="XMLID_50_" opacity="0.08" fill="none" stroke="#000000" stroke-width="0.25" cx="130.952" cy="30.952" r="30.952"/>
		<circle id="XMLID_49_" opacity="0.08" fill="none" stroke="#000000" stroke-width="0.25" cx="130.952" cy="69.048" r="30.952"/>
		<path id="XMLID_48_" fill="none" stroke="#000000" stroke-width="0.25" d="M121.071,20.566"/>
		<path id="XMLID_47_" fill="#009FFF" d="M125.184,49.638"/>
	</g>
</g>
<g id="Layer_3" display="none">
	<circle id="XMLID_54_" display="inline" fill="#009FFF" cx="181.29" cy="53.985" r="11.905"/>
</g>
<g id="Layer_2" display="none">
	<circle id="XMLID_55_" display="inline" fill="#009FFF" cx="56.147" cy="50" r="11.905"/>
	<circle id="XMLID_57_" display="inline" fill="none" stroke="#009FFF" cx="42.857" cy="50" r="11.905"/>
	<path id="XMLID_59_" display="inline" fill="none" stroke="#009FFF" d="M101.584,54.063c-5.471,4.878-12.684,7.842-20.591,7.842
		c-5.734,0-11.104-1.559-15.709-4.277"/>
	<path id="XMLID_60_" display="inline" fill="none" stroke="#009FFF" d="M65.038,42.494c4.65-2.793,10.094-4.399,15.914-4.399
		c7.75,0,14.835,2.848,20.265,7.555"/>
	<circle id="XMLID_52_" display="inline" fill="#009FFF" cx="99.999" cy="25.328" r="4.762"/>
	<circle id="XMLID_53_" display="inline" fill="#009FFF" cx="71.685" cy="79.5" r="7.143"/>
	<circle id="XMLID_38_" display="inline" fill="#009FFF" cx="30.952" cy="50" r="4.762"/>
	<circle id="XMLID_56_" display="inline" fill="#009FFF" cx="107.142" cy="49.638" r="7.143"/>
	<path id="XMLID_63_" display="inline" fill="none" stroke="#009FFF" d="M100.619,26.092C98.735,41.382,85.7,53.22,69.9,53.22
		c-4.958,0-9.644-1.166-13.798-3.238"/>
	<path id="XMLID_64_" display="inline" fill="none" stroke="#009FFF" d="M56.002,49.97c1.82-15.36,14.887-27.272,30.736-27.272
		c5.008,0,9.739,1.189,13.924,3.301"/>
	<path id="XMLID_61_" display="inline" fill="none" stroke="#009FFF" d="M71.958,79.523c-10.52,0-19.048-8.528-19.048-19.048
		c0-3.886,1.164-7.5,3.162-10.513"/>
	<path id="XMLID_66_" display="inline" fill="none" stroke="#009FFF" d="M56.136,50c10.52,0,19.048,8.528,19.048,19.048
		c0,3.887-1.165,7.503-3.164,10.516"/>
</g>
<g id="Layer_5">
	<circle id="XMLID_89_" fill="#35ED84" cx="130.595" cy="42.866" r="11.905"/>
	<circle id="XMLID_88_" fill="#35ED84" cx="56.119" cy="49.98" r="19.048"/>
	<circle id="XMLID_87_" fill="#35ED84" cx="7.348" cy="54.638" r="7.143"/>
	<circle id="XMLID_86_" fill="#35ED84" cx="93.015" cy="76.099" r="11.905"/>
	<circle id="XMLID_85_" fill="#35ED84" cx="117.961" cy="14.505" r="7.143"/>
	<path id="XMLID_84_" fill="none" stroke="#35ED84" d="M130.683,42.929c-8.13,11.254-20.881,19.085-35.788,20.509
		c-14.939,1.427-28.97-3.874-39.089-13.425"/>
	<path id="XMLID_83_" fill="none" stroke="#35ED84" d="M55.9,49.999c8.131-11.243,20.875-19.065,35.772-20.488
		c14.879-1.421,28.856,3.832,38.966,13.309"/>
	<path id="XMLID_82_" fill="none" stroke="#35ED84" d="M55.454,50.214C50.49,57.87,42.204,63.268,32.415,64.203
		c-9.958,0.951-19.265-2.927-25.598-9.719"/>
	<path id="XMLID_81_" fill="none" stroke="#35ED84" d="M7.015,54.303c4.979-7.545,13.203-12.853,22.902-13.779
		c9.971-0.952,19.288,2.937,25.621,9.744"/>
	<path id="XMLID_79_" fill="none" stroke="#35ED84" d="M93.151,75.845c-1.215,0.266-2.459,0.463-3.728,0.584
		c-16.53,1.579-31.264-10.15-33.583-26.42"/>
	<path id="XMLID_78_" fill="none" stroke="#35ED84" d="M56.14,50.266c1.068-0.217,2.159-0.381,3.268-0.487
		c16.424-1.569,31.075,10,33.537,26.108"/>
	<path id="XMLID_74_" fill="none" stroke="#35ED84" d="M117.928,14.497c-4.954,20.032-22.089,35.692-43.796,37.765
		c-6.439,0.615-12.71-0.02-18.571-1.706"/>
	<path id="XMLID_71_" fill="none" stroke="#35ED84" d="M55.914,50.172c5.067-19.863,22.128-35.351,43.708-37.412
		c6.366-0.608,12.566,0.006,18.37,1.649"/>
</g>
<g id="Layer_4">
	<circle id="XMLID_58_" fill="#009FFF" cx="130.952" cy="50" r="11.905"/>
	<circle id="XMLID_62_" fill="#009FFF" cx="56.136" cy="50" r="19.048"/>
	<circle id="XMLID_65_" fill="#009FFF" cx="7.143" cy="50" r="7.143"/>
	<circle id="XMLID_67_" fill="#009FFF" cx="90.382" cy="79.509" r="11.905"/>
	<circle id="XMLID_68_" fill="#009FFF" cx="121.071" cy="20.566" r="7.143"/>
	<path id="XMLID_73_" fill="none" stroke="#009FFF" d="M131.033,50.071c-9.164,10.43-22.601,17.013-37.576,17.013
		c-15.007,0-28.47-6.612-37.635-17.081"/>
	<path id="XMLID_69_" fill="none" stroke="#009FFF" d="M55.916,49.998c9.163-10.419,22.593-16.994,37.559-16.994
		c14.946,0,28.361,6.558,37.524,16.954"/>
	<path id="XMLID_75_" fill="none" stroke="#009FFF" d="M55.452,50.17c-5.67,7.149-14.432,11.734-24.265,11.734
		c-10.004,0-18.899-4.746-24.557-12.109"/>
	<path id="XMLID_70_" fill="none" stroke="#009FFF" d="M6.844,49.634c5.674-7.037,14.365-11.539,24.109-11.539
		c10.016,0,18.921,4.758,24.579,12.137"/>
	<path id="XMLID_76_" fill="none" stroke="#009FFF" d="M90.541,79.27c-1.235,0.15-2.492,0.227-3.767,0.227
		c-16.606,0-30.157-13.077-30.919-29.494"/>
	<path id="XMLID_77_" fill="none" stroke="#009FFF" d="M56.13,50.287c1.084-0.115,2.185-0.174,3.3-0.174
		c16.499,0,29.983,12.91,30.902,29.179"/>
	<path id="XMLID_80_" fill="none" stroke="#009FFF" d="M121.039,20.555c-6.837,19.47-25.383,33.429-47.189,33.429
		c-6.469,0-12.65-1.228-18.325-3.465"/>
	<path id="XMLID_72_" fill="none" stroke="#009FFF" d="M55.914,50.172c6.933-19.291,25.389-33.087,47.067-33.087
		c6.395,0,12.509,1.2,18.129,3.388"/>
</g>
</svg>
