<?xml version="1.0" encoding="utf-8"?>
<!-- Generator: Adobe Illustrator 19.0.0, SVG Export Plug-In . SVG Version: 6.00 Build 0)  -->
<svg version="1.1" id="Layer_1" xmlns="http://www.w3.org/2000/svg" xmlns:xlink="http://www.w3.org/1999/xlink" x="0px" y="0px"
	 width="200px" height="100px" viewBox="0 100 200 100" enable-background="new 0 100 200 100" xml:space="preserve">
<circle fill="#FFFFFF" cx="50" cy="150" r="49"/>
<g id="Layer_1_1_" display="none">
	<g id="g4477_1_" transform="translate(-413.65178,54.937522)" display="inline">
		<rect id="rect4204_1_" x="532.788" y="-99.033" fill="none" stroke="#000000" stroke-width="0.25" width="9.524" height="9.524"/>
		
			<rect id="rect4206_1_" x="518.502" y="-99.033" fill="none" stroke="#000000" stroke-width="0.25" width="14.286" height="14.286"/>
		
			<rect id="rect4208_1_" x="518.502" y="-84.747" fill="none" stroke="#000000" stroke-width="0.25" width="23.809" height="23.809"/>
		
			<rect id="rect4210_1_" x="542.312" y="-99.033" fill="none" stroke="#000000" stroke-width="0.25" width="38.095" height="38.095"/>
		
			<rect id="rect4212_1_" x="518.502" y="-160.937" fill="none" stroke="#000000" stroke-width="0.25" width="61.905" height="61.905"/>
		<rect id="rect4214_1_" x="418.503" y="-160.938" fill="none" stroke="#000000" stroke-width="0.25" width="100" height="100"/>
		<rect id="rect4216_1_" x="537.55" y="-89.509" fill="none" stroke="#000000" stroke-width="0.25" width="4.762" height="4.762"/>
	</g>
	<circle id="XMLID_16_" display="inline" fill="none" stroke="#000000" stroke-width="0.25" cx="54.715" cy="-56" r="50"/>
	<circle id="XMLID_15_" display="inline" fill="none" stroke="#000000" stroke-width="0.25" cx="135.667" cy="-75.048" r="30.952"/>
	<circle id="XMLID_14_" display="inline" fill="none" stroke="#000000" stroke-width="0.25" cx="147.572" cy="-25.048" r="19.048"/>
	<circle id="XMLID_13_" display="inline" fill="none" stroke="#000000" stroke-width="0.25" cx="123.763" cy="-39.333" r="4.762"/>
	<circle id="XMLID_12_" display="inline" fill="none" stroke="#000000" stroke-width="0.25" cx="111.858" cy="-36.953" r="7.143"/>
	<circle id="XMLID_11_" display="inline" fill="none" stroke="#000000" stroke-width="0.25" cx="116.62" cy="-17.905" r="11.905"/>
	<circle id="XMLID_10_" display="inline" fill="none" stroke="#000000" stroke-width="0.25" cx="121.382" cy="-32.191" r="2.381"/>
	<circle id="XMLID_9_" display="inline" fill="none" stroke="#000000" stroke-width="0.25" cx="126.143" cy="-32.191" r="2.381"/>
	
		<circle id="XMLID_1_" display="inline" opacity="0.08" fill="none" stroke="#000000" stroke-width="0.25" enable-background="new    " cx="61.952" cy="50" r="30.952"/>
	
		<circle id="XMLID_2_" display="inline" opacity="0.08" fill="none" stroke="#000000" stroke-width="0.25" enable-background="new    " cx="61.952" cy="30.952" r="30.952"/>
	
		<circle id="XMLID_3_" display="inline" opacity="0.08" fill="none" stroke="#000000" stroke-width="0.25" enable-background="new    " cx="61.952" cy="69.048" r="30.952"/>
	
		<ellipse id="XMLID_28_" display="inline" fill="none" stroke="#000000" stroke-width="0.25" cx="239.186" cy="-59.994" rx="50" ry="30.952"/>
	
		<ellipse id="XMLID_29_" display="inline" fill="none" stroke="#000000" stroke-width="0.25" cx="262.902" cy="32.891" rx="30.952" ry="50"/>
	<path id="XMLID_32_" display="inline" fill="none" stroke="#000000" stroke-width="0.25" d="M-0.733,80.177
		c1.23-8.005,7.096-13.548,12.438-13.612c6.597-0.079,14.233,8.171,12.438,19.01"/>
	<path id="XMLID_33_" display="inline" fill="none" stroke="#000000" stroke-width="0.25" d="M52.072,20.566"/>
	<path id="XMLID_35_" display="inline" fill="none" stroke="#000000" stroke-width="0.25" d="M-0.029,44.504
		c1.949-6.778,6.339-11.492,10.561-11.5c6.144-0.011,11.144,9.947,9.857,16.663c-1.606,8.376-13.688,15.342-30.04,14.316"/>
	
		<ellipse id="XMLID_26_" display="inline" opacity="0.36" fill="none" stroke="#000000" stroke-width="0.25" enable-background="new    " cx="233.126" cy="-106.922" rx="30.952" ry="20.512"/>
	
		<ellipse id="XMLID_27_" display="inline" opacity="0.36" fill="none" stroke="#000000" stroke-width="0.25" enable-background="new    " cx="237.048" cy="5.905" rx="20.512" ry="30.952"/>
	
		<ellipse id="XMLID_30_" display="inline" opacity="0.36" fill="none" stroke="#000000" stroke-width="0.25" enable-background="new    " cx="237.048" cy="5.905" rx="20.512" ry="30.952"/>
	<circle id="XMLID_24_" display="inline" fill="none" stroke="#000000" stroke-width="0.25" cx="217.052" cy="30.156" r="7.143"/>
	<path id="XMLID_37_" display="inline" fill="#009FFF" d="M75.184,80.638"/>
	<path id="XMLID_39_" display="inline" fill="none" stroke="#000000" stroke-width="0.25" d="M37.011,49.519"/>
	
		<circle id="XMLID_4_" display="inline" opacity="0.08" fill="none" stroke="#000000" stroke-width="0.25" enable-background="new    " cx="111.952" cy="50" r="50"/>
	
		<circle id="XMLID_5_" display="inline" opacity="0.08" fill="none" stroke="#000000" stroke-width="0.25" enable-background="new    " cx="142.904" cy="50" r="50"/>
	
		<circle id="XMLID_6_" display="inline" opacity="0.08" fill="none" stroke="#000000" stroke-width="0.25" enable-background="new    " cx="81" cy="50" r="50"/>
	<g id="XMLID_45_" display="inline">
		
			<circle id="XMLID_19_" opacity="0.08" fill="none" stroke="#000000" stroke-width="0.25" enable-background="new    " cx="111.952" cy="50" r="30.952"/>
		
			<circle id="XMLID_18_" opacity="0.08" fill="none" stroke="#000000" stroke-width="0.25" enable-background="new    " cx="111.952" cy="30.952" r="30.952"/>
		
			<circle id="XMLID_17_" opacity="0.08" fill="none" stroke="#000000" stroke-width="0.25" enable-background="new    " cx="111.952" cy="69.048" r="30.952"/>
		<path id="XMLID_8_" fill="none" stroke="#000000" stroke-width="0.25" d="M102.071,20.566"/>
		<path id="XMLID_7_" fill="#009FFF" d="M106.184,49.638"/>
	</g>
	<g id="XMLID_46_" display="inline">
		
			<circle id="XMLID_51_" opacity="0.08" fill="none" stroke="#000000" stroke-width="0.25" enable-background="new    " cx="161.952" cy="50" r="30.952"/>
		
			<circle id="XMLID_50_" opacity="0.08" fill="none" stroke="#000000" stroke-width="0.25" enable-background="new    " cx="161.952" cy="30.952" r="30.952"/>
		
			<circle id="XMLID_49_" opacity="0.08" fill="none" stroke="#000000" stroke-width="0.25" enable-background="new    " cx="161.952" cy="69.048" r="30.952"/>
		<path id="XMLID_48_" fill="none" stroke="#000000" stroke-width="0.25" d="M152.071,20.566"/>
		<path id="XMLID_47_" fill="#009FFF" d="M156.184,49.638"/>
	</g>
</g>
<g id="Layer_3" display="none">
	<circle id="XMLID_54_" display="inline" fill="#009FFF" cx="212.29" cy="53.985" r="11.905"/>
</g>
<g id="Layer_2" display="none">
	<circle id="XMLID_55_" display="inline" fill="#009FFF" cx="87.147" cy="50" r="11.905"/>
	<circle id="XMLID_57_" display="inline" fill="none" stroke="#009FFF" cx="73.857" cy="50" r="11.905"/>
	<path id="XMLID_59_" display="inline" fill="none" stroke="#009FFF" d="M132.584,54.063c-5.471,4.878-12.684,7.842-20.591,7.842
		c-5.734,0-11.104-1.559-15.709-4.277"/>
	<path id="XMLID_60_" display="inline" fill="none" stroke="#009FFF" d="M96.038,42.494c4.65-2.793,10.094-4.399,15.914-4.399
		c7.75,0,14.835,2.848,20.265,7.555"/>
	<circle id="XMLID_52_" display="inline" fill="#009FFF" cx="130.999" cy="25.328" r="4.762"/>
	<circle id="XMLID_53_" display="inline" fill="#009FFF" cx="102.685" cy="79.5" r="7.143"/>
	<circle id="XMLID_38_" display="inline" fill="#009FFF" cx="61.952" cy="50" r="4.762"/>
	<circle id="XMLID_56_" display="inline" fill="#009FFF" cx="138.142" cy="49.638" r="7.143"/>
	<path id="XMLID_63_" display="inline" fill="none" stroke="#009FFF" d="M131.619,26.092C129.735,41.382,116.7,53.22,100.9,53.22
		c-4.958,0-9.644-1.166-13.798-3.238"/>
	<path id="XMLID_64_" display="inline" fill="none" stroke="#009FFF" d="M87.002,49.97c1.82-15.36,14.887-27.272,30.736-27.272
		c5.008,0,9.739,1.189,13.924,3.301"/>
	<path id="XMLID_61_" display="inline" fill="none" stroke="#009FFF" d="M102.958,79.523c-10.52,0-19.048-8.528-19.048-19.048
		c0-3.886,1.164-7.5,3.162-10.513"/>
	<path id="XMLID_66_" display="inline" fill="none" stroke="#009FFF" d="M87.136,50c10.52,0,19.048,8.528,19.048,19.048
		c0,3.887-1.165,7.503-3.164,10.516"/>
</g>
<g id="Layer_5">
	<circle id="XMLID_89_" fill="#35ED84" cx="74.85" cy="147.261" r="5"/>
	<circle id="XMLID_88_" fill="#35ED84" cx="43.57" cy="150.249" r="8"/>
	<circle id="XMLID_87_" fill="#35ED84" cx="23.086" cy="152.205" r="3"/>
	<circle id="XMLID_86_" fill="#35ED84" cx="59.066" cy="161.219" r="5"/>
	<circle id="XMLID_85_" fill="#35ED84" cx="69.544" cy="135.349" r="3"/>
	<path id="XMLID_84_" fill="none" stroke="#35ED84" stroke-width="0.42" d="M74.887,147.287c-3.415,4.727-8.77,8.016-15.031,8.614
		c-6.274,0.599-12.168-1.627-16.418-5.639"/>
	<path id="XMLID_83_" fill="none" stroke="#35ED84" stroke-width="0.42" d="M43.478,150.257c3.415-4.722,8.768-8.007,15.024-8.605
		c6.249-0.597,12.12,1.609,16.366,5.59"/>
	<path id="XMLID_82_" fill="none" stroke="#35ED84" stroke-width="0.42" d="M43.291,150.347c-2.085,3.216-5.565,5.483-9.677,5.875
		c-4.182,0.399-8.091-1.229-10.751-4.082"/>
	<path id="XMLID_81_" fill="none" stroke="#35ED84" stroke-width="0.42" d="M22.946,152.064c2.091-3.169,5.545-5.398,9.619-5.787
		c4.188-0.4,8.101,1.234,10.761,4.093"/>
	<path id="XMLID_79_" fill="none" stroke="#35ED84" stroke-width="0.42" d="M59.124,161.112c-0.51,0.112-1.033,0.194-1.566,0.245
		c-6.943,0.663-13.131-4.263-14.105-11.097"/>
	<path id="XMLID_78_" fill="none" stroke="#35ED84" stroke-width="0.42" d="M43.579,150.369c0.449-0.091,0.907-0.16,1.373-0.205
		c6.898-0.659,13.052,4.2,14.086,10.966"/>
	<path id="XMLID_74_" fill="none" stroke="#35ED84" stroke-width="0.42" d="M69.53,135.346c-2.081,8.414-9.278,14.991-18.395,15.862
		c-2.704,0.258-5.338-0.008-7.8-0.717"/>
	<path id="XMLID_71_" fill="none" stroke="#35ED84" stroke-width="0.42" d="M43.484,150.329c2.128-8.343,9.294-14.848,18.358-15.713
		c2.674-0.255,5.278,0.003,7.716,0.693"/>
</g>
<g>
	<circle id="XMLID_58_" fill="#0075FF" cx="75" cy="150.257" r="5"/>
	<circle id="XMLID_62_" fill="#0075FF" cx="43.577" cy="150.257" r="8"/>
	<circle id="XMLID_65_" fill="#0075FF" cx="23" cy="150.257" r="3"/>
	<circle id="XMLID_67_" fill="#0075FF" cx="57.961" cy="162.651" r="5"/>
	<circle id="XMLID_68_" fill="#0075FF" cx="70.85" cy="137.895" r="3"/>
</g>
<g>
	<path id="XMLID_73_" fill="none" stroke="#0075FF" stroke-width="0.42" d="M75.034,150.287c-3.849,4.381-9.493,7.146-15.782,7.146
		c-6.303,0-11.958-2.777-15.807-7.174"/>
	<path id="XMLID_69_" fill="none" stroke="#0075FF" stroke-width="0.42" d="M43.485,150.256c3.849-4.376,9.489-7.138,15.775-7.138
		c6.277,0,11.912,2.754,15.76,7.121"/>
	<path id="XMLID_75_" fill="none" stroke="#0075FF" stroke-width="0.42" d="M43.29,150.328c-2.381,3.003-6.062,4.928-10.191,4.928
		c-4.202,0-7.938-1.993-10.314-5.086"/>
	<path id="XMLID_70_" fill="none" stroke="#0075FF" stroke-width="0.42" d="M22.874,150.103c2.383-2.956,6.033-4.846,10.126-4.846
		c4.207,0,7.947,1.998,10.323,5.098"/>
	<path id="XMLID_76_" fill="none" stroke="#0075FF" stroke-width="0.42" d="M58.027,162.551c-0.519,0.063-1.047,0.095-1.582,0.095
		c-6.975,0-12.666-5.492-12.986-12.388"/>
	<path id="XMLID_77_" fill="none" stroke="#0075FF" stroke-width="0.42" d="M43.575,150.378c0.455-0.048,0.918-0.073,1.386-0.073
		c6.93,0,12.593,5.422,12.979,12.255"/>
	<path id="XMLID_80_" fill="none" stroke="#0075FF" stroke-width="0.42" d="M70.837,137.89c-2.872,8.178-10.661,14.04-19.82,14.04
		c-2.717,0-5.313-0.516-7.697-1.455"/>
	<path id="XMLID_72_" fill="none" stroke="#0075FF" stroke-width="0.42" d="M43.484,150.329
		c2.912-8.102,10.664-13.897,19.768-13.897c2.686,0,5.254,0.504,7.614,1.423"/>
</g>
<circle fill="#0075FF" cx="150" cy="150" r="49"/>
<g>
	<g id="Layer_5_1_">
		<circle id="XMLID_102_" fill="#35ED84" cx="174.85" cy="147.261" r="5"/>
		<circle id="XMLID_101_" fill="#35ED84" cx="143.57" cy="150.249" r="8"/>
		<circle id="XMLID_100_" fill="#35ED84" cx="123.086" cy="152.205" r="3"/>
		<circle id="XMLID_99_" fill="#35ED84" cx="159.066" cy="161.219" r="5"/>
		<circle id="XMLID_98_" fill="#35ED84" cx="169.544" cy="135.349" r="3"/>
		<path id="XMLID_97_" fill="none" stroke="#35ED84" stroke-width="0.42" d="M174.887,147.287c-3.415,4.727-8.77,8.016-15.031,8.614
			c-6.274,0.599-12.168-1.627-16.418-5.639"/>
		<path id="XMLID_96_" fill="none" stroke="#35ED84" stroke-width="0.42" d="M143.478,150.257c3.415-4.722,8.768-8.007,15.024-8.605
			c6.249-0.597,12.12,1.609,16.366,5.59"/>
		<path id="XMLID_95_" fill="none" stroke="#35ED84" stroke-width="0.42" d="M143.291,150.347c-2.085,3.216-5.565,5.483-9.677,5.875
			c-4.182,0.399-8.091-1.229-10.751-4.082"/>
		<path id="XMLID_94_" fill="none" stroke="#35ED84" stroke-width="0.42" d="M122.946,152.064c2.091-3.169,5.545-5.398,9.619-5.787
			c4.188-0.4,8.101,1.234,10.761,4.093"/>
		<path id="XMLID_93_" fill="none" stroke="#35ED84" stroke-width="0.42" d="M159.124,161.112c-0.51,0.112-1.033,0.194-1.566,0.245
			c-6.943,0.663-13.131-4.263-14.105-11.097"/>
		<path id="XMLID_92_" fill="none" stroke="#35ED84" stroke-width="0.42" d="M143.579,150.369c0.449-0.091,0.907-0.16,1.373-0.205
			c6.898-0.659,13.052,4.2,14.086,10.966"/>
		<path id="XMLID_91_" fill="none" stroke="#35ED84" stroke-width="0.42" d="M169.53,135.346
			c-2.081,8.414-9.278,14.991-18.395,15.862c-2.704,0.258-5.338-0.008-7.8-0.717"/>
		<path id="XMLID_90_" fill="none" stroke="#35ED84" stroke-width="0.42" d="M143.484,150.329
			c2.128-8.343,9.294-14.848,18.358-15.713c2.674-0.255,5.278,0.003,7.716,0.693"/>
	</g>
	<g>
		<g>
			<path id="XMLID_36_" fill="none" stroke="#FFFFFF" stroke-width="0.42" d="M175.034,150.287
				c-3.849,4.381-9.493,7.146-15.782,7.146c-6.303,0-11.958-2.777-15.807-7.174"/>
			<path id="XMLID_34_" fill="none" stroke="#FFFFFF" stroke-width="0.42" d="M143.485,150.256
				c3.849-4.376,9.489-7.138,15.775-7.138c6.277,0,11.912,2.754,15.76,7.121"/>
			<path id="XMLID_31_" fill="none" stroke="#FFFFFF" stroke-width="0.42" d="M143.29,150.328
				c-2.381,3.003-6.062,4.928-10.191,4.928c-4.202,0-7.938-1.993-10.314-5.086"/>
			<path id="XMLID_25_" fill="none" stroke="#FFFFFF" stroke-width="0.42" d="M122.874,150.103
				c2.383-2.956,6.033-4.846,10.126-4.846c4.207,0,7.947,1.998,10.323,5.098"/>
			<path id="XMLID_23_" fill="none" stroke="#FFFFFF" stroke-width="0.42" d="M158.027,162.551
				c-0.519,0.063-1.047,0.095-1.582,0.095c-6.975,0-12.666-5.492-12.986-12.388"/>
			<path id="XMLID_22_" fill="none" stroke="#FFFFFF" stroke-width="0.42" d="M143.575,150.378c0.455-0.048,0.918-0.073,1.386-0.073
				c6.93,0,12.593,5.422,12.979,12.255"/>
			<path id="XMLID_21_" fill="none" stroke="#FFFFFF" stroke-width="0.42" d="M170.837,137.89
				c-2.872,8.178-10.661,14.04-19.82,14.04c-2.717,0-5.313-0.516-7.697-1.455"/>
			<path id="XMLID_20_" fill="none" stroke="#FFFFFF" stroke-width="0.42" d="M143.484,150.329
				c2.912-8.102,10.664-13.897,19.768-13.897c2.686,0,5.254,0.504,7.614,1.423"/>
		</g>
		<g>
			<circle id="XMLID_44_" fill="#FFFFFF" cx="175" cy="150.257" r="5"/>
			<circle id="XMLID_43_" fill="#FFFFFF" cx="143.577" cy="150.257" r="8"/>
			<circle id="XMLID_42_" fill="#FFFFFF" cx="123" cy="150.257" r="3"/>
			<circle id="XMLID_41_" fill="#FFFFFF" cx="157.961" cy="162.651" r="5"/>
			<circle id="XMLID_40_" fill="#FFFFFF" cx="170.85" cy="137.895" r="3"/>
		</g>
	</g>
</g>
</svg>
