<?xml version="1.0" encoding="utf-8"?>
<!-- Generator: Adobe Illustrator 19.0.0, SVG Export Plug-In . SVG Version: 6.00 Build 0)  -->
<svg version="1.1" id="Layer_1" xmlns="http://www.w3.org/2000/svg" xmlns:xlink="http://www.w3.org/1999/xlink" x="0px" y="0px"
	 width="100px" height="100px" viewBox="0 0 100 100" enable-background="new 0 0 100 100" xml:space="preserve">
<circle id="XMLID_2_" fill="#4DF2FF" cx="50" cy="50" r="38.043"/>
<path id="XMLID_11_" fill="#4DF2FF" d="M0.642,50C0.642,28.055,16,9.485,35,3.289V2.167C15,8.415-0.445,27.491-0.445,50
	C-0.445,72.509,15,91.585,35,97.833v-1.122C16,90.515,0.642,71.945,0.642,50z"/>
<path id="XMLID_12_" fill="#4DF2FF" d="M99.555,50C99.555,27.82,85,8.977,65,2.453v1.138C85,10.059,98.468,28.386,98.468,50
	S85,89.941,65,96.409v1.138C85,91.023,99.555,72.18,99.555,50z"/>
<path id="XMLID_13_" fill="#4DF2FF" d="M1.728,50C1.728,28.702,16,10.619,35,4.446V3.289C16,9.485,0.642,28.055,0.642,50
	S16,90.515,35,96.711v-1.157C16,89.381,1.728,71.298,1.728,50z"/>
<path id="XMLID_14_" fill="#4DF2FF" d="M97.381,50C97.381,70.967,84,88.813,65,95.252v1.157C85,89.941,98.468,71.614,98.468,50
	S85,10.059,65,3.591v1.157C84,11.187,97.381,29.033,97.381,50z"/>
</svg>
