<?xml version="1.0" encoding="utf-8"?>
<!-- Generator: Adobe Illustrator 19.0.0, SVG Export Plug-In . SVG Version: 6.00 Build 0)  -->
<svg version="1.1" id="Layer_1" xmlns="http://www.w3.org/2000/svg" xmlns:xlink="http://www.w3.org/1999/xlink" x="0px" y="0px"
	 width="100px" height="100px" viewBox="0 0 100 100" enable-background="new 0 0 100 100" xml:space="preserve">
<circle id="XMLID_2_" fill="#FFFFFF" cx="50.111" cy="50" r="46"/>
<path id="XMLID_3_" d="M92.948,65C86.734,82.739,69.834,95.5,50,95.5C24.911,95.5,4.5,75.089,4.5,50S24.911,4.5,50,4.5
	c19.834,0,36.734,12.761,42.948,30.5h4.223C90.801,15.017,72.066,0.5,50,0.5C22.706,0.5,0.5,22.706,0.5,50
	c0,27.294,22.206,49.5,49.5,49.5c22.066,0,40.801-14.517,47.17-34.5H92.948z"/>
<circle id="XMLID_1_" cx="95.275" cy="50" r="4"/>
</svg>
