<?xml version="1.0" encoding="utf-8"?>
<!-- Generator: Adobe Illustrator 19.0.0, SVG Export Plug-In . SVG Version: 6.00 Build 0)  -->
<svg version="1.1" id="Layer_1" xmlns="http://www.w3.org/2000/svg" xmlns:xlink="http://www.w3.org/1999/xlink" x="0px" y="0px"
	 width="100px" height="100px" viewBox="-249 351 100 100" style="enable-background:new -249 351 100 100;" xml:space="preserve">
<style type="text/css">
	.st0{stroke:#000000;stroke-miterlimit:10;}
</style>
<g>
	<g>
		<path id="XMLID_1_" class="st0" d="M-203.5,390.3h-6c-0.6,0-1-0.4-1-1v-6c0-0.6,0.4-1,1-1h6c0.6,0,1,0.4,1,1v6
			C-202.5,389.9-203,390.3-203.5,390.3z"/>
		<path id="XMLID_4_" class="st0" d="M-188.4,390.3h-6c-0.6,0-1-0.4-1-1v-6c0-0.6,0.4-1,1-1h6c0.6,0,1,0.4,1,1v6
			C-187.4,389.9-187.9,390.3-188.4,390.3z"/>
		<path id="XMLID_6_" class="st0" d="M-203.5,404.9h-6c-0.6,0-1-0.4-1-1v-6c0-0.6,0.4-1,1-1h6c0.6,0,1,0.4,1,1v6
			C-202.5,404.4-203,404.9-203.5,404.9z"/>
		<path id="XMLID_5_" class="st0" d="M-188.4,404.9h-6c-0.6,0-1-0.4-1-1v-6c0-0.6,0.4-1,1-1h6c0.6,0,1,0.4,1,1v6
			C-187.4,404.4-187.9,404.9-188.4,404.9z"/>
	</g>
	<g>
		<path id="XMLID_9_" class="st0" d="M-203.6,361h-6c-0.6,0-1-0.4-1-1v-6c0-0.6,0.4-1,1-1h6c0.6,0,1,0.4,1,1v6
			C-202.6,360.6-203,361-203.6,361z"/>
		<path id="XMLID_8_" class="st0" d="M-188.5,361h-6c-0.6,0-1-0.4-1-1v-6c0-0.6,0.4-1,1-1h6c0.6,0,1,0.4,1,1v6
			C-187.5,360.6-187.9,361-188.5,361z"/>
		<path id="XMLID_7_" class="st0" d="M-203.6,375.6h-6c-0.6,0-1-0.4-1-1v-6c0-0.6,0.4-1,1-1h6c0.6,0,1,0.4,1,1v6
			C-202.6,375.1-203,375.6-203.6,375.6z"/>
		<path id="XMLID_3_" class="st0" d="M-188.5,375.6h-6c-0.6,0-1-0.4-1-1v-6c0-0.6,0.4-1,1-1h6c0.6,0,1,0.4,1,1v6
			C-187.5,375.1-187.9,375.6-188.5,375.6z"/>
	</g>
</g>
<g>
	<path id="XMLID_12_" class="st0" d="M-203.6,418.1h-6c-0.6,0-1-0.4-1-1v-6c0-0.6,0.4-1,1-1h6c0.6,0,1,0.4,1,1v6
		C-202.6,417.7-203,418.1-203.6,418.1z"/>
	<path id="XMLID_11_" class="st0" d="M-188.5,418.1h-6c-0.6,0-1-0.4-1-1v-6c0-0.6,0.4-1,1-1h6c0.6,0,1,0.4,1,1v6
		C-187.5,417.7-187.9,418.1-188.5,418.1z"/>
	<path id="XMLID_10_" class="st0" d="M-203.6,432.7h-6c-0.6,0-1-0.4-1-1v-6c0-0.6,0.4-1,1-1h6c0.6,0,1,0.4,1,1v6
		C-202.6,432.2-203,432.7-203.6,432.7z"/>
	<path id="XMLID_2_" class="st0" d="M-188.5,432.7h-6c-0.6,0-1-0.4-1-1v-6c0-0.6,0.4-1,1-1h6c0.6,0,1,0.4,1,1v6
		C-187.5,432.2-187.9,432.7-188.5,432.7z"/>
</g>
<path id="XMLID_14_" class="st0" d="M-203.6,447.4h-6c-0.6,0-1-0.4-1-1v-6c0-0.6,0.4-1,1-1h6c0.6,0,1,0.4,1,1v6
	C-202.6,447-203,447.4-203.6,447.4z"/>
<path id="XMLID_13_" class="st0" d="M-188.4,447.4h-6c-0.6,0-1-0.4-1-1v-6c0-0.6,0.4-1,1-1h6c0.6,0,1,0.4,1,1v6
	C-187.4,447-187.9,447.4-188.4,447.4z"/>
</svg>
