<?xml version="1.0" encoding="utf-8"?>
<!-- Generator: Adobe Illustrator 19.0.0, SVG Export Plug-In . SVG Version: 6.00 Build 0)  -->
<svg version="1.1" id="Layer_1" xmlns="http://www.w3.org/2000/svg" xmlns:xlink="http://www.w3.org/1999/xlink" x="0px" y="0px"
	 width="200px" height="100px" viewBox="50 100 200 100" enable-background="new 50 100 200 100" xml:space="preserve">
<circle id="XMLID_6_" fill="#FFFFFF" cx="100" cy="150" r="49"/>
<circle id="XMLID_1_" fill="#0075FF" cx="200" cy="150" r="49"/>
<g>
	<g>
		<path fill="#0075FF" d="M83.65,154.037l12.767-5.523c-0.475-2.078-0.534-3.563-0.297-5.166c0.534-3.207,0.772-6.532,0.416-9.798
			c-0.356-3.266-1.603-6.591-4.157-8.61c-1.366-1.069-3.088-1.722-4.81-1.663c-2.91,0.119-5.285,2.316-6.71,4.869
			c-2.197,3.86-2.257,9.739-1.722,12.945c0.594,3.207,1.603,6.948,3.207,10.154C82.76,152.137,83.175,153.087,83.65,154.037z"/>
		<path fill="#0075FF" d="M85.254,156.947c0.356,0.653,0.772,1.306,1.188,1.9c1.544,2.316,2.969,4.216,4.81,5.107
			s4.988,0.416,6.235-1.009c1.722-1.9,1.366-4.394,0.95-6.651c-0.356-1.722-0.713-3.028-1.128-4.513L85.254,156.947z"/>
	</g>
	<g>
		<path fill="#0075FF" d="M117.201,165.795l-13.005-4.751c0.356-2.078,0.356-3.563,0-5.166c-0.713-3.207-1.128-6.473-1.009-9.798
			c0.178-3.266,1.247-6.651,3.682-8.848c1.306-1.128,2.969-1.96,4.691-1.96c2.91,0,5.404,2.019,7.007,4.454
			c2.435,3.741,2.85,9.561,2.435,12.827c-0.416,3.207-1.188,7.007-2.613,10.332C118.033,163.894,117.617,164.845,117.201,165.795z"
			/>
		<path fill="#0075FF" d="M115.835,168.764c-0.356,0.653-0.713,1.306-1.069,1.96c-1.425,2.375-2.672,4.394-4.513,5.404
			c-1.781,1.009-4.929,0.713-6.294-0.653c-1.841-1.781-1.663-4.275-1.366-6.591c0.238-1.722,0.534-3.088,0.891-4.572
			L115.835,168.764z"/>
	</g>
</g>
<g>
	<g>
		<path fill="#FFFFFF" d="M182.43,154.037l12.767-5.523c-0.475-2.078-0.534-3.563-0.297-5.166c0.534-3.207,0.772-6.532,0.416-9.798
			s-1.603-6.591-4.157-8.61c-1.366-1.069-3.088-1.722-4.81-1.663c-2.91,0.119-5.285,2.316-6.71,4.869
			c-2.197,3.86-2.257,9.739-1.722,12.945c0.594,3.207,1.603,6.948,3.207,10.154C181.539,152.137,181.955,153.087,182.43,154.037z"/>
		<path fill="#FFFFFF" d="M184.033,156.947c0.356,0.653,0.772,1.306,1.188,1.9c1.544,2.316,2.969,4.216,4.81,5.107
			s4.988,0.416,6.235-1.009c1.722-1.9,1.366-4.394,0.95-6.651c-0.356-1.722-0.713-3.028-1.128-4.513L184.033,156.947z"/>
	</g>
	<g>
		<path fill="#FFFFFF" d="M215.981,165.795l-13.005-4.751c0.356-2.078,0.356-3.563,0-5.166c-0.713-3.207-1.128-6.473-1.009-9.798
			c0.178-3.266,1.247-6.651,3.682-8.848c1.306-1.128,2.969-1.96,4.691-1.96c2.91,0,5.404,2.019,7.007,4.454
			c2.435,3.741,2.85,9.561,2.435,12.827c-0.416,3.207-1.188,7.007-2.613,10.332C216.812,163.894,216.396,164.845,215.981,165.795z"
			/>
		<path fill="#FFFFFF" d="M214.615,168.764c-0.356,0.653-0.713,1.306-1.069,1.96c-1.425,2.375-2.672,4.394-4.513,5.404
			c-1.781,1.009-4.929,0.713-6.294-0.653c-1.841-1.781-1.663-4.275-1.366-6.591c0.238-1.722,0.534-3.088,0.891-4.572
			L214.615,168.764z"/>
	</g>
</g>
</svg>
