<?xml version="1.0" encoding="utf-8"?>
<!-- Generator: Adobe Illustrator 19.0.0, SVG Export Plug-In . SVG Version: 6.00 Build 0)  -->
<svg version="1.1" id="Layer_1" xmlns="http://www.w3.org/2000/svg" xmlns:xlink="http://www.w3.org/1999/xlink" x="0px" y="0px"
	 width="400px" height="100px" viewBox="0 0 400 100" enable-background="new 0 0 400 100" xml:space="preserve">
<path id="XMLID_2_" fill="#00BAE5" d="M98.085,39.26c-1.588,0.336-3.323,0.188-5.059,0.188c-5.099-0.002-10.605,0.085-15.551-0.126
	c-4.314-8.835-10.499-15.616-21.234-18.175c-3.509-0.836-7.911-1.204-11.93-0.312c-7.169,1.594-12.437,4.749-16.675,9.555
	c-3.828,4.344-7.308,10.773-7.308,18.924c0,8.732,2.722,14.403,6.745,19.424c3.904,4.868,9.322,8.342,16.177,10.055
	c8.106,2.025,16.067-0.177,21.296-3.31c4.106-2.46,7.274-5.779,9.93-9.743c0.861-1.285,2.036-2.621,2.061-4.371
	c-0.693-0.446-1.828-0.251-2.873-0.251c-15.345,0-31.257-0.002-46.091-0.312c-0.285-2.749-0.123-5.815-0.123-8.932
	c0-3.119-0.103-6.351,0.123-9.369c23.606-0.11,47.342-0.018,70.949,0.188c0.588,1.265,0.543,2.774,0.623,4.184
	c0.087,1.523,0.126,3.056,0.063,4.559c-0.128,3.003-0.195,6.061-0.812,8.743c-1.164,5.052-3.117,9.835-5.308,13.739
	c-4.601,8.192-10.961,14.771-18.861,19.298c-7.77,4.453-18.552,7.925-30.854,6.182c-11.046-1.563-19.343-6.097-26.23-11.928
	c-6.7-6.041-12.062-13.358-14.988-23.171C0.664,59.3-0.13,53.284,0.22,47.254c0.345-5.958,1.567-11.022,3.433-15.614
	c3.653-8.983,9.207-15.977,16.489-21.671c7.187-5.622,16.46-9.38,28.102-10.055c6.77-0.392,14.13,1.46,19.112,3.31
	C78.344,7.303,85.91,14.29,91.777,23.397c2.175,3.379,3.974,7.198,5.308,11.43C97.528,36.235,98.096,37.706,98.085,39.26"/>
<text id="XMLID_28_" transform="matrix(1 0 0 1 115.9929 78.2268)" font-family="'Montserrat-SemiBold'" font-size="80px">GAB</text>
<text id="XMLID_70_" transform="matrix(1 0 0 1 315.4175 78.2273)" fill="#00BAE5" font-family="'Montserrat-Light'" font-size="80px">AI</text>
</svg>
