<?xml version="1.0" encoding="utf-8"?>
<!-- Generator: Adobe Illustrator 19.0.0, SVG Export Plug-In . SVG Version: 6.00 Build 0)  -->
<svg version="1.1" id="Layer_1" xmlns="http://www.w3.org/2000/svg" xmlns:xlink="http://www.w3.org/1999/xlink" x="0px" y="0px"
	 width="100px" height="100px" viewBox="0 0 100 100" enable-background="new 0 0 100 100" xml:space="preserve">
<path id="XMLID_6_" d="M50,0C22.333,0,0,22.333,0,50s22.333,50,50,50s50-22.333,50-50S77.667,0,50,0z"/>
<g id="XMLID_2_">
	<polygon id="XMLID_3_" fill="#FFFFFF" points="-310.375,98.599 -337.508,83.094 -364.641,98.599 -337.508,114.103 	"/>
	<polygon id="XMLID_1_" fill="#FFFFFF" points="-337.508,118.569 -358.373,106.646 -364.641,110.227 -337.508,125.732 
		-310.375,110.227 -316.643,106.646 	"/>
</g>
<polygon id="XMLID_5_" fill="#FFFFFF" points="42.071,34.143 42.071,13 57.929,13 57.929,34.143 68.5,34.143 50,50 31.5,34.143 "/>
<g id="XMLID_4_">
	<polygon id="XMLID_8_" fill="#FFFFFF" points="50,54.829 49,55.4 26.571,66.543 50,78.257 73.429,66.543 	"/>
	<polygon id="XMLID_7_" fill="#FFFFFF" points="36.286,75.686 26.571,80.114 50,91.829 73.429,80.114 63.857,75.686 50,82.543 
		45.429,80.257 41.286,78.257 	"/>
</g>
</svg>
