<?xml version="1.0" encoding="utf-8"?>
<!-- Generator: Adobe Illustrator 19.0.0, SVG Export Plug-In . SVG Version: 6.00 Build 0)  -->
<svg version="1.1" id="Layer_1" xmlns="http://www.w3.org/2000/svg" xmlns:xlink="http://www.w3.org/1999/xlink" x="0px" y="0px"
	 width="100px" height="100px" viewBox="0 0 100 100" enable-background="new 0 0 100 100" xml:space="preserve">
<path d="M49.999,0.001C22.461,0.001,0,22.461,0,50c0,27.54,22.461,49.999,49.999,49.999C77.539,99.999,100,77.539,100,50
	C99.999,22.461,77.539,0.001,49.999,0.001z M68.063,81.396c1.169,1.169,1.169,3.065-0.002,4.236
	c-0.584,0.585-1.351,0.877-2.117,0.877c-0.766,0-1.532-0.292-2.117-0.878L30.385,52.19c-1.17-1.169-1.17-3.066,0-4.236
	l33.584-33.584c1.17-1.17,3.065-1.17,4.236,0c1.169,1.17,1.169,3.066,0,4.236L36.739,50.07L68.063,81.396z"/>
</svg>
