<?xml version="1.0" encoding="utf-8"?>
<!-- Generator: Adobe Illustrator 19.0.0, SVG Export Plug-In . SVG Version: 6.00 Build 0)  -->
<svg version="1.1" id="Layer_1" xmlns="http://www.w3.org/2000/svg" xmlns:xlink="http://www.w3.org/1999/xlink" x="0px" y="0px"
	 width="100px" height="100px" viewBox="-119 56 100 100" enable-background="new -119 56 100 100" xml:space="preserve">
<circle id="XMLID_2_" fill="#FFFFFF" cx="-69" cy="106" r="50"/>
<g>
	<path id="XMLID_1_" stroke="#000000" stroke-miterlimit="10" d="M-65.99,117.393h-6c-0.552,0-1-0.448-1-1v-6c0-0.552,0.448-1,1-1h6
		c0.552,0,1,0.448,1,1v6C-64.99,116.945-65.438,117.393-65.99,117.393z"/>
	<path id="XMLID_6_" stroke="#000000" stroke-miterlimit="10" d="M-65.99,131.945h-6c-0.552,0-1-0.448-1-1v-6c0-0.552,0.448-1,1-1h6
		c0.552,0,1,0.448,1,1v6C-64.99,131.497-65.438,131.945-65.99,131.945z"/>
	<path id="XMLID_9_" stroke="#000000" stroke-miterlimit="10" d="M-66.01,88.055h-6c-0.552,0-1-0.448-1-1v-6c0-0.552,0.448-1,1-1h6
		c0.552,0,1,0.448,1,1v6C-65.01,87.607-65.458,88.055-66.01,88.055z"/>
	<path id="XMLID_7_" stroke="#000000" stroke-miterlimit="10" d="M-66.01,102.607h-6c-0.552,0-1-0.448-1-1v-6c0-0.552,0.448-1,1-1h6
		c0.552,0,1,0.448,1,1v6C-65.01,102.159-65.458,102.607-66.01,102.607z"/>
</g>
</svg>
