<?xml version="1.0" encoding="utf-8"?>
<!-- Generator: Adobe Illustrator 19.0.0, SVG Export Plug-In . SVG Version: 6.00 Build 0)  -->
<svg version="1.1" id="Layer_1" xmlns="http://www.w3.org/2000/svg" xmlns:xlink="http://www.w3.org/1999/xlink" x="0px" y="0px"
	 width="100px" height="100px" viewBox="-119 56 100 100" enable-background="new -119 56 100 100" xml:space="preserve">
<circle id="XMLID_2_" fill="#FFFFFF" cx="-69" cy="106" r="50"/>
<g>
	<g>
		<path id="XMLID_1_" stroke="#000000" stroke-miterlimit="10" d="M-73.548,117.393h-6c-0.552,0-1-0.448-1-1v-6c0-0.552,0.448-1,1-1
			h6c0.552,0,1,0.448,1,1v6C-72.548,116.945-72.996,117.393-73.548,117.393z"/>
		<path id="XMLID_4_" stroke="#000000" stroke-miterlimit="10" d="M-58.432,117.393h-6c-0.552,0-1-0.448-1-1v-6c0-0.552,0.448-1,1-1
			h6c0.552,0,1,0.448,1,1v6C-57.432,116.945-57.88,117.393-58.432,117.393z"/>
		<path id="XMLID_6_" stroke="#000000" stroke-miterlimit="10" d="M-73.548,131.945h-6c-0.552,0-1-0.448-1-1v-6c0-0.552,0.448-1,1-1
			h6c0.552,0,1,0.448,1,1v6C-72.548,131.497-72.996,131.945-73.548,131.945z"/>
		<path id="XMLID_5_" stroke="#000000" stroke-miterlimit="10" d="M-58.432,131.945h-6c-0.552,0-1-0.448-1-1v-6c0-0.552,0.448-1,1-1
			h6c0.552,0,1,0.448,1,1v6C-57.432,131.497-57.88,131.945-58.432,131.945z"/>
	</g>
	<g>
		<path id="XMLID_9_" stroke="#000000" stroke-miterlimit="10" d="M-73.568,88.055h-6c-0.552,0-1-0.448-1-1v-6c0-0.552,0.448-1,1-1
			h6c0.552,0,1,0.448,1,1v6C-72.568,87.607-73.016,88.055-73.568,88.055z"/>
		<path id="XMLID_8_" stroke="#000000" stroke-miterlimit="10" d="M-58.452,88.055h-6c-0.552,0-1-0.448-1-1v-6c0-0.552,0.448-1,1-1
			h6c0.552,0,1,0.448,1,1v6C-57.452,87.607-57.9,88.055-58.452,88.055z"/>
		<path id="XMLID_7_" stroke="#000000" stroke-miterlimit="10" d="M-73.568,102.607h-6c-0.552,0-1-0.448-1-1v-6c0-0.552,0.448-1,1-1
			h6c0.552,0,1,0.448,1,1v6C-72.568,102.159-73.016,102.607-73.568,102.607z"/>
		<path id="XMLID_3_" stroke="#000000" stroke-miterlimit="10" d="M-58.452,102.607h-6c-0.552,0-1-0.448-1-1v-6c0-0.552,0.448-1,1-1
			h6c0.552,0,1,0.448,1,1v6C-57.452,102.159-57.9,102.607-58.452,102.607z"/>
	</g>
</g>
</svg>
