<?xml version="1.0" encoding="utf-8"?>
<!-- Generator: Adobe Illustrator 19.0.0, SVG Export Plug-In . SVG Version: 6.00 Build 0)  -->
<svg version="1.1" id="Layer_1" xmlns="http://www.w3.org/2000/svg" xmlns:xlink="http://www.w3.org/1999/xlink" x="0px" y="0px"
	 width="200px" height="100px" viewBox="50 0 200 100" enable-background="new 50 0 200 100" xml:space="preserve">
<circle fill="#0075FF" cx="200" cy="50" r="49"/>
<title>Send Mail</title>
<circle fill="#FFFFFF" cx="100" cy="50" r="49"/>
<g transform="translate(0,-952.36218)">
	<path fill="#0075FF" stroke="#0075FF" stroke-width="2" stroke-miterlimit="10" d="M99.45,977.625l-22.7,17
		c-0.3,0.2-0.5,0.6-0.5,0.9v30.7c0,0.6,0.5,1.1,1.1,1.1h15.3c0.6,0,1.1-0.5,1.1-1.1v-18.2h12.5v18.2c0,0.6,0.5,1.1,1.1,1.1h15.3
		c0.6,0,1.1-0.5,1.1-1.1v-30.7c0-0.4-0.2-0.7-0.5-0.9l-22.7-17C100.35,977.325,99.95,977.325,99.45,977.625z M100.15,979.925
		l21.6,16.2v29h-13.1v-18.2c0-0.6-0.5-1.1-1.1-1.1h-14.8c-0.6,0-1.1,0.5-1.1,1.1v18.2h-13.1v-29L100.15,979.925z"/>
</g>
<g transform="translate(0,-952.36218)">
	<path fill="#FFFFFF" stroke="#FFFFFF" stroke-width="2" stroke-miterlimit="10" d="M199.45,977.625l-22.7,17
		c-0.3,0.2-0.5,0.6-0.5,0.9v30.7c0,0.6,0.5,1.1,1.1,1.1h15.3c0.6,0,1.1-0.5,1.1-1.1v-18.2h12.5v18.2c0,0.6,0.5,1.1,1.1,1.1h15.3
		c0.6,0,1.1-0.5,1.1-1.1v-30.7c0-0.4-0.2-0.7-0.5-0.9l-22.7-17C200.35,977.325,199.95,977.325,199.45,977.625z M200.15,979.925
		l21.6,16.2v29h-13.1v-18.2c0-0.6-0.5-1.1-1.1-1.1h-14.8c-0.6,0-1.1,0.5-1.1,1.1v18.2h-13.1v-29L200.15,979.925z"/>
</g>
</svg>
