<?xml version="1.0" encoding="utf-8"?>
<!-- Generator: Adobe Illustrator 19.0.0, SVG Export Plug-In . SVG Version: 6.00 Build 0)  -->
<svg version="1.1" id="Layer_1" xmlns="http://www.w3.org/2000/svg" xmlns:xlink="http://www.w3.org/1999/xlink" x="0px" y="0px"
	 width="300px" height="100px" viewBox="-345 357 300 100" enable-background="new -345 357 300 100" xml:space="preserve">
<g>
	<g>
		<path id="XMLID_1_" stroke="#000000" stroke-miterlimit="10" d="M-264.839,402.452v-6c0-0.552,0.448-1,1-1h6c0.552,0,1,0.448,1,1
			v6c0,0.552-0.448,1-1,1h-6C-264.391,403.452-264.839,403.004-264.839,402.452z"/>
		<path id="XMLID_4_" stroke="#000000" stroke-miterlimit="10" d="M-264.839,417.568v-6c0-0.552,0.448-1,1-1h6c0.552,0,1,0.448,1,1
			v6c0,0.552-0.448,1-1,1h-6C-264.391,418.568-264.839,418.12-264.839,417.568z"/>
		<path id="XMLID_6_" stroke="#000000" stroke-miterlimit="10" d="M-279.391,402.452v-6c0-0.552,0.448-1,1-1h6c0.552,0,1,0.448,1,1
			v6c0,0.552-0.448,1-1,1h-6C-278.943,403.452-279.391,403.004-279.391,402.452z"/>
		<path id="XMLID_5_" stroke="#000000" stroke-miterlimit="10" d="M-279.391,417.568v-6c0-0.552,0.448-1,1-1h6c0.552,0,1,0.448,1,1
			v6c0,0.552-0.448,1-1,1h-6C-278.943,418.568-279.391,418.12-279.391,417.568z"/>
	</g>
	<g>
		<path id="XMLID_9_" stroke="#000000" stroke-miterlimit="10" d="M-235.501,402.432v-6c0-0.552,0.448-1,1-1h6c0.552,0,1,0.448,1,1
			v6c0,0.552-0.448,1-1,1h-6C-235.053,403.432-235.501,402.984-235.501,402.432z"/>
		<path id="XMLID_8_" stroke="#000000" stroke-miterlimit="10" d="M-235.501,417.548v-6c0-0.552,0.448-1,1-1h6c0.552,0,1,0.448,1,1
			v6c0,0.552-0.448,1-1,1h-6C-235.053,418.548-235.501,418.1-235.501,417.548z"/>
		<path id="XMLID_7_" stroke="#000000" stroke-miterlimit="10" d="M-250.053,402.432v-6c0-0.552,0.448-1,1-1h6c0.552,0,1,0.448,1,1
			v6c0,0.552-0.448,1-1,1h-6C-249.605,403.432-250.053,402.984-250.053,402.432z"/>
		<path id="XMLID_3_" stroke="#000000" stroke-miterlimit="10" d="M-250.053,417.548v-6c0-0.552,0.448-1,1-1h6c0.552,0,1,0.448,1,1
			v6c0,0.552-0.448,1-1,1h-6C-249.605,418.548-250.053,418.1-250.053,417.548z"/>
	</g>
</g>
<g>
	<g>
		<path id="XMLID_16_" stroke="#000000" stroke-miterlimit="10" d="M-206.393,402.452v-6c0-0.552,0.448-1,1-1h6c0.552,0,1,0.448,1,1
			v6c0,0.552-0.448,1-1,1h-6C-205.945,403.452-206.393,403.004-206.393,402.452z"/>
		<path id="XMLID_15_" stroke="#000000" stroke-miterlimit="10" d="M-206.393,417.568v-6c0-0.552,0.448-1,1-1h6c0.552,0,1,0.448,1,1
			v6c0,0.552-0.448,1-1,1h-6C-205.945,418.568-206.393,418.12-206.393,417.568z"/>
		<path id="XMLID_14_" stroke="#000000" stroke-miterlimit="10" d="M-220.945,402.452v-6c0-0.552,0.448-1,1-1h6c0.552,0,1,0.448,1,1
			v6c0,0.552-0.448,1-1,1h-6C-220.497,403.452-220.945,403.004-220.945,402.452z"/>
		<path id="XMLID_13_" stroke="#000000" stroke-miterlimit="10" d="M-220.945,417.568v-6c0-0.552,0.448-1,1-1h6c0.552,0,1,0.448,1,1
			v6c0,0.552-0.448,1-1,1h-6C-220.497,418.568-220.945,418.12-220.945,417.568z"/>
	</g>
	<g>
		<path id="XMLID_12_" stroke="#000000" stroke-miterlimit="10" d="M-177.055,402.432v-6c0-0.552,0.448-1,1-1h6c0.552,0,1,0.448,1,1
			v6c0,0.552-0.448,1-1,1h-6C-176.607,403.432-177.055,402.984-177.055,402.432z"/>
		<path id="XMLID_11_" stroke="#000000" stroke-miterlimit="10" d="M-177.055,417.548v-6c0-0.552,0.448-1,1-1h6c0.552,0,1,0.448,1,1
			v6c0,0.552-0.448,1-1,1h-6C-176.607,418.548-177.055,418.1-177.055,417.548z"/>
		<path id="XMLID_10_" stroke="#000000" stroke-miterlimit="10" d="M-191.607,402.432v-6c0-0.552,0.448-1,1-1h6c0.552,0,1,0.448,1,1
			v6c0,0.552-0.448,1-1,1h-6C-191.159,403.432-191.607,402.984-191.607,402.432z"/>
		<path id="XMLID_2_" stroke="#000000" stroke-miterlimit="10" d="M-191.607,417.548v-6c0-0.552,0.448-1,1-1h6c0.552,0,1,0.448,1,1
			v6c0,0.552-0.448,1-1,1h-6C-191.159,418.548-191.607,418.1-191.607,417.548z"/>
	</g>
</g>
<g>
	<g>
		<path id="XMLID_24_" stroke="#000000" stroke-miterlimit="10" d="M-148.885,402.452v-6c0-0.552,0.448-1,1-1h6c0.552,0,1,0.448,1,1
			v6c0,0.552-0.448,1-1,1h-6C-148.437,403.452-148.885,403.004-148.885,402.452z"/>
		<path id="XMLID_23_" stroke="#000000" stroke-miterlimit="10" d="M-148.885,417.568v-6c0-0.552,0.448-1,1-1h6c0.552,0,1,0.448,1,1
			v6c0,0.552-0.448,1-1,1h-6C-148.437,418.568-148.885,418.12-148.885,417.568z"/>
		<path id="XMLID_22_" stroke="#000000" stroke-miterlimit="10" d="M-163.437,402.452v-6c0-0.552,0.448-1,1-1h6c0.552,0,1,0.448,1,1
			v6c0,0.552-0.448,1-1,1h-6C-162.989,403.452-163.437,403.004-163.437,402.452z"/>
		<path id="XMLID_21_" stroke="#000000" stroke-miterlimit="10" d="M-163.437,417.568v-6c0-0.552,0.448-1,1-1h6c0.552,0,1,0.448,1,1
			v6c0,0.552-0.448,1-1,1h-6C-162.989,418.568-163.437,418.12-163.437,417.568z"/>
	</g>
	<g>
		<path id="XMLID_20_" stroke="#000000" stroke-miterlimit="10" d="M-119.547,402.432v-6c0-0.552,0.448-1,1-1h6c0.552,0,1,0.448,1,1
			v6c0,0.552-0.448,1-1,1h-6C-119.099,403.432-119.547,402.984-119.547,402.432z"/>
		<path id="XMLID_19_" stroke="#000000" stroke-miterlimit="10" d="M-119.547,417.548v-6c0-0.552,0.448-1,1-1h6c0.552,0,1,0.448,1,1
			v6c0,0.552-0.448,1-1,1h-6C-119.099,418.548-119.547,418.1-119.547,417.548z"/>
		<path id="XMLID_18_" stroke="#000000" stroke-miterlimit="10" d="M-134.099,402.432v-6c0-0.552,0.448-1,1-1h6c0.552,0,1,0.448,1,1
			v6c0,0.552-0.448,1-1,1h-6C-133.651,403.432-134.099,402.984-134.099,402.432z"/>
		<path id="XMLID_17_" stroke="#000000" stroke-miterlimit="10" d="M-134.099,417.548v-6c0-0.552,0.448-1,1-1h6c0.552,0,1,0.448,1,1
			v6c0,0.552-0.448,1-1,1h-6C-133.651,418.548-134.099,418.1-134.099,417.548z"/>
	</g>
</g>
</svg>
