<?xml version="1.0" encoding="utf-8"?>
<!-- Generator: Adobe Illustrator 19.0.0, SVG Export Plug-In . SVG Version: 6.00 Build 0)  -->
<svg version="1.1" id="Layer_1" xmlns="http://www.w3.org/2000/svg" xmlns:xlink="http://www.w3.org/1999/xlink" x="0px" y="0px"
	 width="100px" height="30px" viewBox="0 41 100 30" enable-background="new 0 41 100 30" xml:space="preserve">
<g>
	<circle id="XMLID_1_" cx="14.9" cy="56" r="14"/>
	<g>
		<circle id="XMLID_3_" fill="#FFFFFF" cx="85.1" cy="56" r="13.1"/>
		<path d="M85.1,70c-7.7,0-14-6.3-14-14s6.3-14,14-14s14,6.3,14,14S92.8,70,85.1,70z M85.1,43.9c-6.7,0-12.2,5.4-12.2,12.1
			S78.3,68.1,85,68.1S97.1,62.7,97.1,56S91.8,43.9,85.1,43.9z"/>
	</g>
	<g>
		<g>
			
				<line fill="none" stroke="#000000" stroke-width="2" stroke-linecap="round" stroke-linejoin="round" x1="35.9" y1="56" x2="61.7" y2="56"/>
			<g>
				<polygon points="55.1,64.2 53.7,62.7 61,56 53.7,49.3 55.1,47.8 63.9,56 				"/>
			</g>
		</g>
	</g>
</g>
</svg>
