<?xml version="1.0" encoding="utf-8"?>
<!-- Generator: Adobe Illustrator 19.0.0, SVG Export Plug-In . SVG Version: 6.00 Build 0)  -->
<svg version="1.1" id="Layer_1" xmlns="http://www.w3.org/2000/svg" xmlns:xlink="http://www.w3.org/1999/xlink" x="0px" y="0px"
	 width="100px" height="100px" viewBox="-4 106 100 100" enable-background="new -4 106 100 100" xml:space="preserve">
<g>
	<path d="M46,106c-27.6,0-50,22.4-50,50c0,27.6,22.4,50,50,50c27.6,0,50-22.4,50-50C96,128.4,73.6,106,46,106z M46,188.2
		c-3.8,0-6.8-3-6.8-6.8c0-3.8,3-6.8,6.8-6.8c3.8,0,6.8,3,6.8,6.8C52.8,185.1,49.8,188.2,46,188.2z M52.8,168.4H39.2v-44.6h13.6
		V168.4z"/>
</g>
</svg>
