<?xml version="1.0" encoding="utf-8"?>
<!-- Generator: Adobe Illustrator 19.0.0, SVG Export Plug-In . SVG Version: 6.00 Build 0)  -->
<svg version="1.1" id="Layer_1" xmlns="http://www.w3.org/2000/svg" xmlns:xlink="http://www.w3.org/1999/xlink" x="0px" y="0px"
	 width="600px" height="100px" viewBox="250 0 600 100" enable-background="new 250 0 600 100" xml:space="preserve">
<g>
	<g id="XMLID_16_">
		
			<radialGradient id="XMLID_2_" cx="274.2781" cy="80.8432" r="52.3819" gradientTransform="matrix(0.9371 0 0 -0.9371 40.8935 125.1023)" gradientUnits="userSpaceOnUse">
			<stop  offset="0" style="stop-color:#FFFFFF"/>
			<stop  offset="0.032" style="stop-color:#E5FDFF"/>
			<stop  offset="0.0814" style="stop-color:#C3FBFF"/>
			<stop  offset="0.1342" style="stop-color:#A7F9FF"/>
			<stop  offset="0.1908" style="stop-color:#91F7FF"/>
			<stop  offset="0.2531" style="stop-color:#82F6FF"/>
			<stop  offset="0.3254" style="stop-color:#79F5FF"/>
			<stop  offset="0.431" style="stop-color:#76F5FF"/>
			<stop  offset="1" style="stop-color:#009FFF"/>
		</radialGradient>
		<path id="XMLID_62_" fill="url(#XMLID_2_)" d="M269.104,51.96h11.071c0.669,1.149,1.9,1.93,3.324,1.93
			c2.132,0,3.859-1.729,3.859-3.859c0-2.132-1.729-3.859-3.859-3.859c-1.413,0-2.636,0.767-3.308,1.901h-11.093
			c-0.905-4.39-4.792-7.69-9.449-7.69c-5.329,0-9.649,4.32-9.649,9.649c0,5.329,4.32,9.649,9.649,9.649
			C264.317,59.679,268.209,56.364,269.104,51.96z"/>
		
			<radialGradient id="XMLID_3_" cx="274.2781" cy="80.8432" r="52.3819" gradientTransform="matrix(0.9371 0 0 -0.9371 40.8935 125.1023)" gradientUnits="userSpaceOnUse">
			<stop  offset="0" style="stop-color:#FFFFFF"/>
			<stop  offset="0.032" style="stop-color:#E5FDFF"/>
			<stop  offset="0.0814" style="stop-color:#C3FBFF"/>
			<stop  offset="0.1342" style="stop-color:#A7F9FF"/>
			<stop  offset="0.1908" style="stop-color:#91F7FF"/>
			<stop  offset="0.2531" style="stop-color:#82F6FF"/>
			<stop  offset="0.3254" style="stop-color:#79F5FF"/>
			<stop  offset="0.431" style="stop-color:#76F5FF"/>
			<stop  offset="1" style="stop-color:#009FFF"/>
		</radialGradient>
		<path id="XMLID_61_" fill="url(#XMLID_3_)" d="M274.08,66.614l9.588-5.536c1.153,0.661,2.609,0.721,3.844,0.009
			c1.846-1.066,2.478-3.427,1.412-5.273c-1.066-1.846-3.427-2.478-5.273-1.412c-1.223,0.707-1.899,1.983-1.914,3.3l-9.607,5.547
			c-2.979-3.348-7.995-4.264-12.028-1.935c-4.615,2.664-6.197,8.566-3.531,13.181c2.664,4.615,8.566,6.197,13.181,3.531
			C273.794,75.693,275.508,70.876,274.08,66.614z"/>
		
			<radialGradient id="XMLID_4_" cx="274.2781" cy="80.8432" r="52.3819" gradientTransform="matrix(0.9371 0 0 -0.9371 40.8935 125.1023)" gradientUnits="userSpaceOnUse">
			<stop  offset="0" style="stop-color:#FFFFFF"/>
			<stop  offset="0.032" style="stop-color:#E5FDFF"/>
			<stop  offset="0.0814" style="stop-color:#C3FBFF"/>
			<stop  offset="0.1342" style="stop-color:#A7F9FF"/>
			<stop  offset="0.1908" style="stop-color:#91F7FF"/>
			<stop  offset="0.2531" style="stop-color:#82F6FF"/>
			<stop  offset="0.3254" style="stop-color:#79F5FF"/>
			<stop  offset="0.431" style="stop-color:#76F5FF"/>
			<stop  offset="1" style="stop-color:#009FFF"/>
		</radialGradient>
		<path id="XMLID_60_" fill="url(#XMLID_4_)" d="M285.718,76.817l5.536-9.588c1.329-0.005,2.621-0.68,3.334-1.914
			c1.066-1.846,0.434-4.207-1.412-5.273c-1.846-1.066-4.207-0.434-5.273,1.412c-0.707,1.223-0.653,2.666-0.009,3.815l-5.547,9.607
			c-4.255-1.41-9.056,0.304-11.384,4.339c-2.664,4.615-1.084,10.517,3.531,13.181c4.615,2.664,10.517,1.084,13.181-3.531
			C290.009,84.823,289.085,79.794,285.718,76.817z"/>
		
			<radialGradient id="XMLID_5_" cx="274.2781" cy="80.8432" r="52.3819" gradientTransform="matrix(0.9371 0 0 -0.9371 40.8935 125.1023)" gradientUnits="userSpaceOnUse">
			<stop  offset="0" style="stop-color:#FFFFFF"/>
			<stop  offset="0.032" style="stop-color:#E5FDFF"/>
			<stop  offset="0.0814" style="stop-color:#C3FBFF"/>
			<stop  offset="0.1342" style="stop-color:#A7F9FF"/>
			<stop  offset="0.1908" style="stop-color:#91F7FF"/>
			<stop  offset="0.2531" style="stop-color:#82F6FF"/>
			<stop  offset="0.3254" style="stop-color:#79F5FF"/>
			<stop  offset="0.431" style="stop-color:#76F5FF"/>
			<stop  offset="1" style="stop-color:#009FFF"/>
		</radialGradient>
		<path id="XMLID_59_" fill="url(#XMLID_5_)" d="M300.897,79.835V68.764c1.149-0.669,1.93-1.9,1.93-3.324
			c0-2.132-1.729-3.859-3.859-3.859c-2.132,0-3.859,1.729-3.859,3.859c0,1.413,0.767,2.636,1.901,3.308v11.093
			c-4.39,0.905-7.69,4.792-7.69,9.449c0,5.329,4.32,9.649,9.649,9.649c5.329,0,9.649-4.32,9.649-9.649
			C308.616,84.622,305.301,80.729,300.897,79.835z"/>
		
			<radialGradient id="XMLID_6_" cx="274.2781" cy="80.8432" r="52.3819" gradientTransform="matrix(0.9371 0 0 -0.9371 40.8935 125.1023)" gradientUnits="userSpaceOnUse">
			<stop  offset="0" style="stop-color:#FFFFFF"/>
			<stop  offset="0.032" style="stop-color:#E5FDFF"/>
			<stop  offset="0.0814" style="stop-color:#C3FBFF"/>
			<stop  offset="0.1342" style="stop-color:#A7F9FF"/>
			<stop  offset="0.1908" style="stop-color:#91F7FF"/>
			<stop  offset="0.2531" style="stop-color:#82F6FF"/>
			<stop  offset="0.3254" style="stop-color:#79F5FF"/>
			<stop  offset="0.431" style="stop-color:#76F5FF"/>
			<stop  offset="1" style="stop-color:#009FFF"/>
		</radialGradient>
		<path id="XMLID_58_" fill="url(#XMLID_6_)" d="M315.552,74.859l-5.536-9.588c0.661-1.153,0.721-2.609,0.009-3.844
			c-1.066-1.846-3.427-2.478-5.273-1.412c-1.846,1.066-2.478,3.427-1.412,5.273c0.707,1.223,1.983,1.899,3.3,1.914l5.547,9.607
			c-3.348,2.979-4.264,7.995-1.935,12.028c2.664,4.615,8.566,6.197,13.181,3.531c4.615-2.664,6.197-8.566,3.531-13.181
			C324.631,75.144,319.814,73.431,315.552,74.859z"/>
		
			<radialGradient id="XMLID_7_" cx="274.2781" cy="80.8432" r="52.3819" gradientTransform="matrix(0.9371 0 0 -0.9371 40.8935 125.1023)" gradientUnits="userSpaceOnUse">
			<stop  offset="0" style="stop-color:#FFFFFF"/>
			<stop  offset="0.032" style="stop-color:#E5FDFF"/>
			<stop  offset="0.0814" style="stop-color:#C3FBFF"/>
			<stop  offset="0.1342" style="stop-color:#A7F9FF"/>
			<stop  offset="0.1908" style="stop-color:#91F7FF"/>
			<stop  offset="0.2531" style="stop-color:#82F6FF"/>
			<stop  offset="0.3254" style="stop-color:#79F5FF"/>
			<stop  offset="0.431" style="stop-color:#76F5FF"/>
			<stop  offset="1" style="stop-color:#009FFF"/>
		</radialGradient>
		<path id="XMLID_57_" fill="url(#XMLID_7_)" d="M337.803,61.263c-4.042-2.334-9.072-1.409-12.049,1.958l-9.588-5.536
			c-0.005-1.329-0.68-2.621-1.914-3.334c-1.846-1.066-4.207-0.434-5.273,1.412c-1.066,1.846-0.434,4.207,1.412,5.273
			c1.223,0.707,2.666,0.653,3.815,0.009l9.607,5.547c-1.41,4.255,0.304,9.056,4.339,11.384c4.615,2.664,10.517,1.084,13.181-3.531
			C343.999,69.83,342.418,63.928,337.803,61.263z"/>
		
			<radialGradient id="XMLID_8_" cx="274.2781" cy="80.8432" r="52.3819" gradientTransform="matrix(0.9371 0 0 -0.9371 40.8935 125.1023)" gradientUnits="userSpaceOnUse">
			<stop  offset="0" style="stop-color:#FFFFFF"/>
			<stop  offset="0.032" style="stop-color:#E5FDFF"/>
			<stop  offset="0.0814" style="stop-color:#C3FBFF"/>
			<stop  offset="0.1342" style="stop-color:#A7F9FF"/>
			<stop  offset="0.1908" style="stop-color:#91F7FF"/>
			<stop  offset="0.2531" style="stop-color:#82F6FF"/>
			<stop  offset="0.3254" style="stop-color:#79F5FF"/>
			<stop  offset="0.431" style="stop-color:#76F5FF"/>
			<stop  offset="1" style="stop-color:#009FFF"/>
		</radialGradient>
		<path id="XMLID_56_" fill="url(#XMLID_8_)" d="M338.227,40.322c-4.668,0-8.561,3.315-9.455,7.72h-11.071
			c-0.668-1.149-1.9-1.93-3.324-1.93c-2.132,0-3.859,1.729-3.859,3.859c0,2.132,1.729,3.859,3.859,3.859
			c1.413,0,2.636-0.767,3.308-1.901h11.093c0.905,4.39,4.792,7.69,9.449,7.69c5.329,0,9.649-4.32,9.649-9.649
			C347.877,44.642,343.557,40.322,338.227,40.322z"/>
		
			<radialGradient id="XMLID_9_" cx="274.2781" cy="80.8432" r="52.3819" gradientTransform="matrix(0.9371 0 0 -0.9371 40.8935 125.1023)" gradientUnits="userSpaceOnUse">
			<stop  offset="0" style="stop-color:#FFFFFF"/>
			<stop  offset="0.032" style="stop-color:#E5FDFF"/>
			<stop  offset="0.0814" style="stop-color:#C3FBFF"/>
			<stop  offset="0.1342" style="stop-color:#A7F9FF"/>
			<stop  offset="0.1908" style="stop-color:#91F7FF"/>
			<stop  offset="0.2531" style="stop-color:#82F6FF"/>
			<stop  offset="0.3254" style="stop-color:#79F5FF"/>
			<stop  offset="0.431" style="stop-color:#76F5FF"/>
			<stop  offset="1" style="stop-color:#009FFF"/>
		</radialGradient>
		<path id="XMLID_55_" fill="url(#XMLID_9_)" d="M323.795,33.387l-9.588,5.536c-1.153-0.661-2.609-0.721-3.844-0.009
			c-1.846,1.066-2.478,3.427-1.412,5.273c1.066,1.846,3.427,2.478,5.273,1.412c1.223-0.707,1.899-1.983,1.914-3.3l9.607-5.547
			c2.979,3.348,7.995,4.264,12.028,1.935c4.615-2.664,6.197-8.566,3.531-13.181c-2.664-4.615-8.566-6.197-13.181-3.531
			C324.082,24.307,322.368,29.125,323.795,33.387z"/>
		
			<radialGradient id="XMLID_10_" cx="274.2781" cy="80.8432" r="52.3819" gradientTransform="matrix(0.9371 0 0 -0.9371 40.8935 125.1023)" gradientUnits="userSpaceOnUse">
			<stop  offset="0" style="stop-color:#FFFFFF"/>
			<stop  offset="0.032" style="stop-color:#E5FDFF"/>
			<stop  offset="0.0814" style="stop-color:#C3FBFF"/>
			<stop  offset="0.1342" style="stop-color:#A7F9FF"/>
			<stop  offset="0.1908" style="stop-color:#91F7FF"/>
			<stop  offset="0.2531" style="stop-color:#82F6FF"/>
			<stop  offset="0.3254" style="stop-color:#79F5FF"/>
			<stop  offset="0.431" style="stop-color:#76F5FF"/>
			<stop  offset="1" style="stop-color:#009FFF"/>
		</radialGradient>
		<path id="XMLID_54_" fill="url(#XMLID_10_)" d="M312.158,23.184l-5.536,9.588c-1.329,0.005-2.621,0.68-3.334,1.914
			c-1.066,1.846-0.434,4.207,1.412,5.273c1.846,1.066,4.207,0.434,5.273-1.412c0.707-1.223,0.653-2.666,0.008-3.815l5.547-9.607
			c4.255,1.41,9.056-0.304,11.384-4.339c2.664-4.615,1.083-10.517-3.531-13.181c-4.615-2.664-10.517-1.084-13.181,3.531
			C307.867,15.178,308.791,20.207,312.158,23.184z"/>
		
			<radialGradient id="XMLID_11_" cx="274.2781" cy="80.8432" r="52.3819" gradientTransform="matrix(0.9371 0 0 -0.9371 40.8935 125.1023)" gradientUnits="userSpaceOnUse">
			<stop  offset="0" style="stop-color:#FFFFFF"/>
			<stop  offset="0.032" style="stop-color:#E5FDFF"/>
			<stop  offset="0.0814" style="stop-color:#C3FBFF"/>
			<stop  offset="0.1342" style="stop-color:#A7F9FF"/>
			<stop  offset="0.1908" style="stop-color:#91F7FF"/>
			<stop  offset="0.2531" style="stop-color:#82F6FF"/>
			<stop  offset="0.3254" style="stop-color:#79F5FF"/>
			<stop  offset="0.431" style="stop-color:#76F5FF"/>
			<stop  offset="1" style="stop-color:#009FFF"/>
		</radialGradient>
		<path id="XMLID_53_" fill="url(#XMLID_11_)" d="M296.979,20.166v11.071c-1.149,0.669-1.93,1.9-1.93,3.324
			c0,2.132,1.729,3.859,3.859,3.859c2.132,0,3.859-1.729,3.859-3.859c0-1.413-0.767-2.636-1.901-3.308V20.16
			c4.39-0.905,7.69-4.792,7.69-9.449c0.001-5.329-4.318-9.65-9.648-9.65c-5.329,0-9.649,4.32-9.649,9.649
			C289.259,15.379,292.574,19.272,296.979,20.166z"/>
		
			<radialGradient id="XMLID_12_" cx="274.2781" cy="80.8432" r="52.3819" gradientTransform="matrix(0.9371 0 0 -0.9371 40.8935 125.1023)" gradientUnits="userSpaceOnUse">
			<stop  offset="0" style="stop-color:#FFFFFF"/>
			<stop  offset="0.032" style="stop-color:#E5FDFF"/>
			<stop  offset="0.0814" style="stop-color:#C3FBFF"/>
			<stop  offset="0.1342" style="stop-color:#A7F9FF"/>
			<stop  offset="0.1908" style="stop-color:#91F7FF"/>
			<stop  offset="0.2531" style="stop-color:#82F6FF"/>
			<stop  offset="0.3254" style="stop-color:#79F5FF"/>
			<stop  offset="0.431" style="stop-color:#76F5FF"/>
			<stop  offset="1" style="stop-color:#009FFF"/>
		</radialGradient>
		<path id="XMLID_52_" fill="url(#XMLID_12_)" d="M282.324,25.142l5.536,9.588c-0.661,1.153-0.721,2.609-0.009,3.844
			c1.066,1.846,3.427,2.478,5.273,1.412c1.846-1.066,2.478-3.427,1.412-5.273c-0.707-1.223-1.983-1.899-3.3-1.914l-5.547-9.607
			c3.348-2.979,4.264-7.995,1.935-12.028c-2.664-4.615-8.566-6.197-13.181-3.531c-4.615,2.664-6.197,8.566-3.531,13.181
			C273.245,24.857,278.063,26.57,282.324,25.142z"/>
		
			<radialGradient id="XMLID_13_" cx="274.2781" cy="80.8432" r="52.3819" gradientTransform="matrix(0.9371 0 0 -0.9371 40.8935 125.1023)" gradientUnits="userSpaceOnUse">
			<stop  offset="0" style="stop-color:#FFFFFF"/>
			<stop  offset="0.032" style="stop-color:#E5FDFF"/>
			<stop  offset="0.0814" style="stop-color:#C3FBFF"/>
			<stop  offset="0.1342" style="stop-color:#A7F9FF"/>
			<stop  offset="0.1908" style="stop-color:#91F7FF"/>
			<stop  offset="0.2531" style="stop-color:#82F6FF"/>
			<stop  offset="0.3254" style="stop-color:#79F5FF"/>
			<stop  offset="0.431" style="stop-color:#76F5FF"/>
			<stop  offset="1" style="stop-color:#009FFF"/>
		</radialGradient>
		<path id="XMLID_51_" fill="url(#XMLID_13_)" d="M260.073,38.738c4.042,2.334,9.072,1.409,12.049-1.958l9.588,5.536
			c0.005,1.329,0.68,2.621,1.914,3.334c1.846,1.066,4.207,0.434,5.273-1.412s0.434-4.207-1.412-5.273
			c-1.223-0.707-2.666-0.653-3.815-0.009l-9.607-5.547c1.41-4.255-0.304-9.056-4.339-11.384c-4.615-2.664-10.517-1.084-13.181,3.531
			C253.876,30.171,255.458,36.073,260.073,38.738z"/>
	</g>
	<g>
		<path d="M372.793,21.388h5.215v49.331h-5.215V21.388z"/>
		<path d="M430.051,37.421c2.748,2.702,4.123,6.636,4.123,11.804v21.494h-5.004V49.718c0-3.852-0.964-6.788-2.889-8.809
			c-1.927-2.019-4.675-3.03-8.246-3.03c-3.993,0-7.153,1.187-9.478,3.559c-2.326,2.373-3.488,5.65-3.488,9.831v19.45h-5.004V33.65
			h4.792v6.836c1.362-2.255,3.253-4.004,5.673-5.25c2.419-1.245,5.226-1.868,8.421-1.868
			C423.602,33.368,427.302,34.719,430.051,37.421z"/>
		<path d="M456.125,69.768c-2.749-0.87-4.898-1.961-6.448-3.278l2.255-3.947c1.55,1.223,3.5,2.22,5.849,2.996
			c2.349,0.775,4.792,1.162,7.329,1.162c3.383,0,5.884-0.529,7.505-1.586c1.621-1.057,2.431-2.547,2.431-4.474
			c0-1.362-0.447-2.432-1.339-3.207c-0.893-0.775-2.02-1.362-3.383-1.762c-1.363-0.399-3.171-0.787-5.426-1.163
			c-3.007-0.564-5.426-1.138-7.259-1.726c-1.832-0.587-3.395-1.586-4.686-2.995c-1.293-1.41-1.938-3.359-1.938-5.849
			c0-3.101,1.291-5.638,3.876-7.611c2.583-1.973,6.177-2.96,10.782-2.96c2.396,0,4.792,0.317,7.188,0.952
			c2.396,0.634,4.369,1.469,5.92,2.502l-2.185,4.017c-3.054-2.114-6.695-3.171-10.923-3.171c-3.195,0-5.602,0.564-7.223,1.691
			c-1.621,1.127-2.431,2.608-2.431,4.44c0,1.409,0.458,2.537,1.374,3.383c0.916,0.845,2.055,1.469,3.418,1.867
			c1.362,0.4,3.242,0.811,5.638,1.234c2.96,0.563,5.332,1.127,7.118,1.691c1.785,0.564,3.312,1.527,4.581,2.89
			c1.268,1.363,1.903,3.241,1.903,5.638c0,3.242-1.351,5.814-4.052,7.717c-2.702,1.903-6.449,2.855-11.241,2.855
			C461.75,71.072,458.873,70.638,456.125,69.768z"/>
		<path d="M496.258,24.489c-0.705-0.705-1.057-1.55-1.057-2.537c0-0.939,0.352-1.762,1.057-2.467
			c0.704-0.704,1.573-1.057,2.608-1.057c1.033,0,1.903,0.341,2.607,1.022c0.705,0.682,1.057,1.492,1.057,2.431
			c0,1.034-0.352,1.903-1.057,2.608c-0.704,0.704-1.574,1.057-2.607,1.057C497.832,25.546,496.963,25.194,496.258,24.489z
			 M496.329,33.65h5.004v37.069h-5.004V33.65z"/>
		<path d="M556.654,33.65v32.558c0,6.295-1.541,10.959-4.617,13.989c-3.078,3.031-7.717,4.546-13.919,4.546
			c-3.43,0-6.683-0.506-9.759-1.515c-3.078-1.011-5.58-2.409-7.505-4.193l2.537-3.805c1.784,1.596,3.957,2.842,6.519,3.734
			c2.56,0.892,5.25,1.339,8.069,1.339c4.697,0,8.15-1.093,10.359-3.277c2.206-2.185,3.311-5.58,3.311-10.184v-4.722
			c-1.55,2.349-3.583,4.135-6.096,5.356c-2.514,1.223-5.297,1.832-8.35,1.832c-3.477,0-6.635-0.763-9.478-2.29
			c-2.843-1.526-5.074-3.665-6.695-6.413c-1.621-2.749-2.432-5.86-2.432-9.338c0-3.477,0.811-6.578,2.432-9.303
			c1.621-2.724,3.841-4.838,6.658-6.342c2.82-1.503,5.991-2.255,9.514-2.255c3.147,0,5.991,0.634,8.528,1.903
			c2.537,1.268,4.58,3.101,6.131,5.497V33.65H556.654z M544.954,63.143c2.16-1.151,3.841-2.76,5.039-4.827
			c1.199-2.067,1.797-4.416,1.797-7.047c0-2.631-0.598-4.969-1.797-7.013c-1.199-2.044-2.866-3.64-5.003-4.792
			c-2.139-1.15-4.571-1.726-7.295-1.726c-2.678,0-5.085,0.563-7.222,1.691c-2.139,1.127-3.806,2.725-5.005,4.792
			c-1.197,2.067-1.797,4.416-1.797,7.047c0,2.631,0.6,4.98,1.797,7.047c1.199,2.067,2.866,3.676,5.005,4.827
			c2.137,1.152,4.544,1.726,7.222,1.726C540.374,64.87,542.792,64.295,544.954,63.143z"/>
		<path d="M607.709,37.421c2.749,2.702,4.122,6.636,4.122,11.804v21.494h-5.003V49.718c0-3.852-0.963-6.788-2.889-8.809
			c-1.927-2.019-4.676-3.03-8.245-3.03c-3.994,0-7.154,1.187-9.479,3.559c-2.326,2.373-3.488,5.65-3.488,9.831v19.45h-5.004V18.429
			h5.004v21.705c1.362-2.16,3.241-3.829,5.638-5.003c2.396-1.174,5.144-1.762,8.245-1.762
			C601.261,33.368,604.961,34.719,607.709,37.421z"/>
		<path d="M652.001,68.464c-0.941,0.846-2.104,1.493-3.489,1.938c-1.386,0.446-2.831,0.67-4.334,0.67
			c-3.477,0-6.156-0.94-8.034-2.82c-1.88-1.878-2.819-4.534-2.819-7.963v-22.41h-6.625V33.65h6.625v-8.104h5.003v8.104h11.276v4.229
			h-11.276v22.128c0,2.209,0.552,3.888,1.656,5.039c1.103,1.152,2.689,1.726,4.757,1.726c1.032,0,2.031-0.164,2.995-0.493
			c0.963-0.328,1.797-0.798,2.502-1.41L652.001,68.464z"/>
	</g>
	<g>
		<path d="M707.411,36.012c3.569,3.03,5.356,7.694,5.356,13.989v20.719h-14.799v-5.074c-1.831,3.853-5.473,5.779-10.923,5.779
			c-3.054,0-5.649-0.529-7.786-1.586c-2.139-1.057-3.76-2.49-4.863-4.299c-1.104-1.807-1.656-3.841-1.656-6.095
			c0-3.806,1.455-6.695,4.369-8.669c2.912-1.973,7.328-2.96,13.249-2.96h6.413c-0.517-3.006-2.937-4.51-7.259-4.51
			c-1.739,0-3.5,0.271-5.285,0.81c-1.786,0.541-3.313,1.281-4.581,2.22l-5.075-10.5c2.208-1.362,4.875-2.431,7.999-3.206
			c3.124-0.775,6.237-1.163,9.338-1.163C698.673,31.466,703.84,32.981,707.411,36.012z M694.866,60.924
			c0.893-0.61,1.55-1.526,1.973-2.748v-2.678h-3.946c-3.242,0-4.863,1.081-4.863,3.241c0,0.894,0.34,1.634,1.023,2.22
			c0.681,0.588,1.609,0.881,2.783,0.881C692.964,61.84,693.974,61.535,694.866,60.924z"/>
		<path d="M727.742,26.78c-1.762-1.526-2.643-3.464-2.643-5.814c0-2.349,0.881-4.286,2.643-5.814c1.762-1.526,4.076-2.29,6.941-2.29
			c2.912,0,5.238,0.729,6.977,2.185c1.738,1.457,2.608,3.336,2.608,5.638c0,2.444-0.87,4.452-2.608,6.026
			c-1.739,1.574-4.064,2.361-6.977,2.361C731.817,29.07,729.503,28.307,727.742,26.78z M726.72,32.171h15.927v38.548H726.72V32.171z
			"/>
	</g>
</g>
</svg>
