<?xml version="1.0" encoding="utf-8"?>
<!-- Generator: Adobe Illustrator 19.0.0, SVG Export Plug-In . SVG Version: 6.00 Build 0)  -->
<svg version="1.1" id="Layer_1" xmlns="http://www.w3.org/2000/svg" xmlns:xlink="http://www.w3.org/1999/xlink" x="0px" y="0px"
	 width="100px" height="100px" viewBox="50 100 100 100" enable-background="new 50 100 100 100" xml:space="preserve">
<title>Send Mail</title>
<g>
	<path fill="#0075FF" d="M120.286,131.026c0-0.513-0.385-0.833-0.769-0.962l-18.397-4.808c-0.45-0.128-0.899-0.256-1.347-0.256
		c-0.449,0-0.833,0.064-1.218,0.256l-0.449,0.256l-17.628,10.257c-0.064,0.064-0.128,0.064-0.192,0.128
		c-2.756,1.795-3.269,3.718-3.269,5.897v20.256c0,1.026,0.577,1.923,1.346,2.436l0,0l17.756,10.256
		c0.192,0.128,0.449,0.192,0.641,0.192c0.705,0,1.282-0.577,1.282-1.282v-20.447c0-0.962-0.513-1.859-1.282-2.372l-0.256-0.192
		l-14.359-8.077c-1.09-0.641-1.218-1.923-0.897-2.692c0.449-1.09,1.667-1.282,2.436-1.09l14.936,3.846
		c0.513,0.128,0.833,0.192,1.346,0.192c0.449,0,0.897-0.128,1.282-0.321l0.256-0.192l18.013-10.128
		C119.837,131.923,120.286,131.538,120.286,131.026z"/>
	<path fill="#969696" d="M121.247,138.462l-4.423-2.436l-3.526,2.051c0,0,4.038,2.244,4.744,2.692
		c0.833,0.577,0.513,1.41-0.064,1.667l-14.359,8.205l-0.385,0.192l0,0c-0.769,0.513-1.282,1.41-1.282,2.372v20.513
		c0,0.705,0.577,1.282,1.282,1.282c0.192,0,0.449-0.064,0.577-0.128h0.064l17.756-10.256l0,0c0.833-0.513,1.346-1.41,1.346-2.436
		v-20.257C123.042,140.064,122.593,139.231,121.247,138.462z"/>
</g>
</svg>
