<?xml version="1.0" encoding="utf-8"?>
<!-- Generator: Adobe Illustrator 19.0.0, SVG Export Plug-In . SVG Version: 6.00 Build 0)  -->
<svg version="1.1" id="Layer_1" xmlns="http://www.w3.org/2000/svg" xmlns:xlink="http://www.w3.org/1999/xlink" x="0px" y="0px"
	 width="200px" height="100px" viewBox="50 0 200 100" enable-background="new 50 0 200 100" xml:space="preserve">
<circle fill="#FFFFFF" cx="100" cy="50" r="49"/>
<title>overview</title>
<desc>Created with Sketch.</desc>
<g>
	<path fill="#0075FF" d="M125.4,73.4H74.6c-3.4,0-6.1-2.7-6.1-6.1V32.7c0-3.4,2.7-6.1,6.1-6.1h50.8c3.4,0,6.1,2.7,6.1,6.1v34.6
		C131.5,70.7,128.8,73.4,125.4,73.4z M74.6,29.6c-1.7,0-3.1,1.4-3.1,3.1v34.6c0,1.7,1.4,3.1,3.1,3.1h50.8c1.7,0,3.1-1.4,3.1-3.1
		V32.7c0-1.7-1.4-3.1-3.1-3.1H74.6z"/>
	<path fill="#0075FF" d="M81.5,41.9c0-1.3,1.1-2.3,2.3-2.3h18.5c1.3,0,2.3,1,2.3,2.3v6.9c0,1.3-1.1,2.3-2.3,2.3H83.8
		c-1.3,0-2.3-1-2.3-2.3V41.9z"/>
	<path fill="#0075FF" d="M81.5,54.6c0-0.6,0.5-1.2,1.2-1.2h20.7c0.6,0,1.2,0.5,1.2,1.2c0,0.6-0.5,1.2-1.2,1.2H82.7
		C82.1,55.8,81.5,55.2,81.5,54.6z"/>
	<path fill="#0075FF" d="M81.5,59.2c0-0.6,0.5-1.2,1.2-1.2h20.7c0.6,0,1.2,0.5,1.2,1.2c0,0.6-0.5,1.2-1.2,1.2H82.7
		C82.1,60.4,81.5,59.9,81.5,59.2z"/>
	<path fill="#0075FF" d="M111.5,51.2c0-1.3,1-2.3,2.3-2.3h2.3c1.3,0,2.3,1,2.3,2.3v6.9c0,1.3-1,2.3-2.3,2.3h-2.3
		c-1.3,0-2.3-1-2.3-2.3V51.2z"/>
	<path fill="#0075FF" d="M111.5,43.1c0-1.9,1.5-3.5,3.5-3.5c1.9,0,3.5,1.5,3.5,3.5c0,1.9-1.5,3.5-3.5,3.5
		C113.1,46.6,111.5,45,111.5,43.1z"/>
</g>
<circle fill="#0075FF" cx="200" cy="50" r="49"/>
<g>
	<path fill="#FFFFFF" d="M225.4,73.4h-50.8c-3.4,0-6.1-2.7-6.1-6.1V32.7c0-3.4,2.7-6.1,6.1-6.1h50.8c3.4,0,6.1,2.7,6.1,6.1v34.6
		C231.5,70.7,228.8,73.4,225.4,73.4z M174.6,29.6c-1.7,0-3.1,1.4-3.1,3.1v34.6c0,1.7,1.4,3.1,3.1,3.1h50.8c1.7,0,3.1-1.4,3.1-3.1
		V32.7c0-1.7-1.4-3.1-3.1-3.1H174.6z"/>
	<path fill="#FFFFFF" d="M181.5,41.9c0-1.3,1.1-2.3,2.3-2.3h18.5c1.3,0,2.3,1,2.3,2.3v6.9c0,1.3-1.1,2.3-2.3,2.3h-18.5
		c-1.3,0-2.3-1-2.3-2.3V41.9z"/>
	<path fill="#FFFFFF" d="M181.5,54.6c0-0.6,0.5-1.2,1.2-1.2h20.7c0.6,0,1.2,0.5,1.2,1.2c0,0.6-0.5,1.2-1.2,1.2h-20.7
		C182.1,55.8,181.5,55.2,181.5,54.6z"/>
	<path fill="#FFFFFF" d="M181.5,59.2c0-0.6,0.5-1.2,1.2-1.2h20.7c0.6,0,1.2,0.5,1.2,1.2c0,0.6-0.5,1.2-1.2,1.2h-20.7
		C182.1,60.4,181.5,59.9,181.5,59.2z"/>
	<path fill="#FFFFFF" d="M211.5,51.2c0-1.3,1-2.3,2.3-2.3h2.3c1.3,0,2.3,1,2.3,2.3v6.9c0,1.3-1,2.3-2.3,2.3h-2.3
		c-1.3,0-2.3-1-2.3-2.3V51.2z"/>
	<path fill="#FFFFFF" d="M211.5,43.1c0-1.9,1.5-3.5,3.5-3.5c1.9,0,3.5,1.5,3.5,3.5c0,1.9-1.5,3.5-3.5,3.5
		C213.1,46.6,211.5,45,211.5,43.1z"/>
</g>
</svg>
