<?xml version="1.0" encoding="utf-8"?>
<!-- Generator: Adobe Illustrator 19.0.0, SVG Export Plug-In . SVG Version: 6.00 Build 0)  -->
<svg version="1.1" id="Layer_1" xmlns="http://www.w3.org/2000/svg" xmlns:xlink="http://www.w3.org/1999/xlink" x="0px" y="0px"
	 width="100px" height="100px" viewBox="0 0 100 100" enable-background="new 0 0 100 100" xml:space="preserve">
<g id="XMLID_13_">
	<g id="XMLID_14_">
		<path id="XMLID_8_" fill="#009FFF" d="M50.973,56.107v-2.215c0-0.537-0.435-0.973-0.973-0.973c-0.537,0-0.972,0.435-0.972,0.973
			v2.215c-0.58,0.338-0.973,0.958-0.973,1.676c0,1.074,0.872,1.946,1.945,1.946c1.075,0,1.946-0.872,1.946-1.946
			C51.946,57.064,51.553,56.445,50.973,56.107 M58.756,62.648c0,0.537-0.437,0.972-0.973,0.972H42.218
			c-0.536,0-0.973-0.435-0.973-0.972V50.973c0-0.537,0.437-0.973,0.973-0.973h15.565c0.536,0,0.973,0.436,0.973,0.973V62.648z
			 M44.163,42.217c0-3.219,2.618-5.837,5.837-5.837c3.219,0,5.838,2.618,5.838,5.837v5.837H44.163V42.217z M57.783,48.055v-5.837
			c0-4.291-3.492-7.783-7.783-7.783c-4.291,0-7.782,3.492-7.782,7.783v5.837c-1.61,0-2.919,1.309-2.919,2.919v11.674
			c0,1.609,1.309,2.918,2.919,2.918h15.565c1.61,0,2.918-1.31,2.918-2.918V50.973C60.701,49.364,59.393,48.055,57.783,48.055"/>
		<path id="XMLID_16_" fill="#009FFF" d="M57.783,66.5H42.218c-2.125,0-3.853-1.728-3.853-3.853V50.974
			c0-1.803,1.244-3.32,2.919-3.739v-5.018c0-4.807,3.91-8.717,8.716-8.717c4.807,0,8.717,3.911,8.717,8.717v5.018
			c1.674,0.419,2.918,1.936,2.918,3.739v11.674C61.635,64.772,59.907,66.5,57.783,66.5z M42.218,48.988
			c-1.094,0-1.985,0.89-1.985,1.985v11.674c0,1.094,0.89,1.985,1.985,1.985h15.565c1.094,0,1.984-0.89,1.984-1.985V50.974
			c0-1.095-0.89-1.985-1.984-1.985h-0.934v-6.771c0-3.777-3.072-6.849-6.849-6.849c-3.776,0-6.848,3.072-6.848,6.849v6.771H42.218z
			 M57.783,64.554H42.218c-1.052,0-1.907-0.855-1.907-1.906V50.974c0-1.052,0.856-1.907,1.907-1.907h15.565
			c1.051,0,1.907,0.856,1.907,1.907v11.674C59.69,63.699,58.834,64.554,57.783,64.554z M42.218,50.935l-0.039,11.713l15.605,0.038
			l0.039-0.038V50.974L42.218,50.935z M50,60.663c-1.588,0-2.879-1.292-2.879-2.88c0-0.824,0.363-1.606,0.973-2.148v-1.744
			c0-1.051,0.855-1.907,1.906-1.907c1.052,0,1.907,0.856,1.907,1.907v1.744c0.61,0.541,0.973,1.323,0.973,2.147
			C52.88,59.371,51.588,60.663,50,60.663z M49.962,53.892v2.751l-0.464,0.271c-0.319,0.186-0.51,0.511-0.51,0.87
			c0,0.558,0.454,1.012,1.011,1.012c0.558,0,1.012-0.454,1.012-1.012c0-0.358-0.191-0.683-0.51-0.87l-0.464-0.27v-2.752H49.962z
			 M56.772,48.988H43.229v-6.771c0-3.734,3.037-6.771,6.771-6.771c3.734,0,6.772,3.037,6.772,6.771V48.988z M45.097,47.12h9.807
			v-4.903c0-2.704-2.2-4.903-4.904-4.903c-2.703,0-4.903,2.2-4.903,4.903V47.12z"/>
	</g>
</g>
</svg>
