<?xml version="1.0" encoding="utf-8"?>
<!-- Generator: Adobe Illustrator 19.0.0, SVG Export Plug-In . SVG Version: 6.00 Build 0)  -->
<svg version="1.1" id="Layer_1" xmlns="http://www.w3.org/2000/svg" xmlns:xlink="http://www.w3.org/1999/xlink" x="0px" y="0px"
	 width="100px" height="100px" viewBox="0 0 100 100" enable-background="new 0 0 100 100" xml:space="preserve">
<circle id="XMLID_2_" fill="#FFFFFF" cx="50" cy="50" r="50"/>
<g id="XMLID_3_" transform="translate(0,-270.54165)">
	<g id="XMLID_4_" transform="matrix(0.33086845,0,0,-0.33086845,-22.109586,487.50717)">
		<g id="XMLID_12_" transform="matrix(1.0662176,0,0,1.0662176,-521.86252,-40.774361)">
			<g id="XMLID_13_">
				<path id="XMLID_14_" fill="#009FFF" d="M698.286,483.73v10.085c0,2.447-1.981,4.428-4.43,4.428
					c-2.444,0-4.425-1.981-4.425-4.428V483.73c-2.64-1.54-4.43-4.361-4.43-7.632c0-4.889,3.969-8.858,8.856-8.858
					c4.892,0,8.861,3.969,8.861,8.858C702.717,479.37,700.927,482.19,698.286,483.73 M733.72,453.951
					c0-2.444-1.991-4.425-4.43-4.425h-70.863c-2.439,0-4.43,1.981-4.43,4.425v53.148c0,2.447,1.991,4.43,4.43,4.43h70.863
					c2.439,0,4.43-1.983,4.43-4.43V453.951z M667.283,546.963c0,14.654,11.921,26.575,26.573,26.575
					c14.657,0,26.578-11.921,26.578-26.575v-26.575h-53.151V546.963z M729.29,520.388v26.575c0,19.535-15.896,35.434-35.434,35.434
					c-19.535,0-35.429-15.898-35.429-35.434v-26.575c-7.328,0-13.289-5.961-13.289-13.289v-53.148
					c0-7.323,5.961-13.286,13.289-13.286h70.863c7.328,0,13.286,5.963,13.286,13.286v53.148
					C742.576,514.427,736.618,520.388,729.29,520.388"/>
			</g>
		</g>
	</g>
</g>
</svg>
