<?xml version="1.0" encoding="utf-8"?>
<!-- Generator: Adobe Illustrator 19.0.0, SVG Export Plug-In . SVG Version: 6.00 Build 0)  -->
<svg version="1.1" id="Layer_1" xmlns="http://www.w3.org/2000/svg" xmlns:xlink="http://www.w3.org/1999/xlink" x="0px" y="0px"
	 width="200px" height="100px" viewBox="0 100 200 100" enable-background="new 0 100 200 100" xml:space="preserve">
<circle fill="#FF2600" cx="150" cy="150" r="49"/>
<circle fill="#FFFFFF" cx="50" cy="150" r="49"/>
<g id="XMLID_1_" transform="translate(0,-270.54165)">
	<g id="XMLID_5_" transform="matrix(0.33086845,0,0,-0.33086845,-22.109586,487.50717)">
		<g id="XMLID_6_" transform="matrix(1.0662176,0,0,1.0662176,-521.86252,-40.774361)">
			<g id="XMLID_7_">
				<path id="XMLID_8_" fill="#37DD00" d="M685.148,197.592c4.887,0,8.859,3.97,8.859,8.859c0,3.272-1.79,6.095-4.431,7.633v10.085
					c0,2.45-1.981,4.431-4.428,4.431c-2.45,0-4.431-1.981-4.431-4.431v-10.085c-2.64-1.538-4.428-4.361-4.428-7.633
					C676.289,201.561,680.259,197.592,685.148,197.592 M720.581,241.883c2.44,0,4.431-1.986,4.431-4.428v-53.15
					c0-2.44-1.991-4.428-4.431-4.428h-70.867c-2.44,0-4.428,1.989-4.428,4.428v53.15c0,2.442,1.989,4.428,4.428,4.428H720.581z
					 M742.729,312.753c-19.539,0-35.435-15.896-35.435-35.435v-26.576h-57.581c-7.326,0-13.287-5.958-13.287-13.287v-53.15
					c0-7.326,5.961-13.287,13.287-13.287h70.867c7.326,0,13.289,5.961,13.289,13.287v53.15c0,7.329-5.963,13.287-13.289,13.287
					h-4.428v26.576c0,14.655,11.922,26.576,26.576,26.576c14.652,0,26.571-11.922,26.571-26.576v-26.576
					c0-2.447,1.984-4.428,4.431-4.428c2.45,0,4.428,1.981,4.428,4.428v26.576C778.159,296.857,762.265,312.753,742.729,312.753"/>
			</g>
		</g>
	</g>
</g>
<g id="XMLID_3_" transform="translate(0,-270.54165)">
	<g id="XMLID_4_" transform="matrix(0.33086845,0,0,-0.33086845,-22.109586,487.50717)">
		<g id="XMLID_12_" transform="matrix(1.0662176,0,0,1.0662176,-521.86252,-40.774361)">
			<g id="XMLID_13_">
				<path id="XMLID_2_" fill="#FFFFFF" d="M981.751,214.084v10.085c0,2.447-1.981,4.428-4.43,4.428
					c-2.444,0-4.425-1.981-4.425-4.428v-10.085c-2.64-1.54-4.43-4.361-4.43-7.632c0-4.889,3.969-8.858,8.856-8.858
					c4.892,0,8.861,3.969,8.861,8.858C986.182,209.724,984.392,212.544,981.751,214.084 M1017.185,184.305
					c0-2.444-1.991-4.425-4.43-4.425h-70.863c-2.439,0-4.43,1.981-4.43,4.425v53.148c0,2.447,1.991,4.43,4.43,4.43h70.863
					c2.439,0,4.43-1.983,4.43-4.43V184.305z M950.748,277.317c0,14.654,11.921,26.575,26.573,26.575
					c14.657,0,26.578-11.921,26.578-26.575v-26.575h-53.151V277.317z M1012.755,250.742v26.575
					c0,19.535-15.896,35.434-35.434,35.434c-19.535,0-35.429-15.898-35.429-35.434v-26.575c-7.328,0-13.289-5.961-13.289-13.289
					v-53.148c0-7.323,5.961-13.286,13.289-13.286h70.863c7.328,0,13.286,5.963,13.286,13.286v53.148
					C1026.041,244.781,1020.083,250.742,1012.755,250.742"/>
			</g>
		</g>
	</g>
</g>
</svg>
