<?xml version="1.0" encoding="utf-8"?>
<!-- Generator: Adobe Illustrator 19.0.0, SVG Export Plug-In . SVG Version: 6.00 Build 0)  -->
<svg version="1.1" id="Layer_1" xmlns="http://www.w3.org/2000/svg" xmlns:xlink="http://www.w3.org/1999/xlink" x="0px" y="0px"
	 width="100px" height="100px" viewBox="0 0 100 100" enable-background="new 0 0 100 100" xml:space="preserve">
<g id="XMLID_1_">
	<path id="XMLID_6_" fill="#C94C4C" d="M25,10h38.273L83,30.281V82c0,4.418-3.582,8-8,8H25c-4.418,0-8-3.582-8-8V18
		C17,13.582,20.582,10,25,10z"/>
	<path id="XMLID_5_" fill="#C94C4C" d="M63.273,10l19.453,20H71c-4.418,0-8-3.582-8-8V10H63.273z"/>
	<path fill="#FFFFFF" fill-opacity="0.75" d="M58,63H42c-1.105,0-2-0.895-2-2V50c0-1.105,0.895-2,2-2h1v-1.822
		C43,42.22,45.939,39,50,39s7,3.22,7,7.178V48h1c1.105,0,2,0.895,2,2v11C60,62.105,59.105,63,58,63z M48,59h4l-1.258-3.146
		C51.478,55.559,52,54.842,52,54c0-1.105-0.895-2-2-2s-2,0.895-2,2c0,0.842,0.522,1.559,1.258,1.854L48,59z M55,46
		c0-2.761-2.238-5-5-5c-2.761,0-5,2.239-5,5v2h10V46z"/>
</g>
</svg>
