<?xml version="1.0" encoding="utf-8"?>
<!-- Generator: Adobe Illustrator 19.0.0, SVG Export Plug-In . SVG Version: 6.00 Build 0)  -->
<svg version="1.1" id="Layer_1" xmlns="http://www.w3.org/2000/svg" xmlns:xlink="http://www.w3.org/1999/xlink" x="0px" y="0px"
	 width="100px" height="100px" viewBox="0 0 100 100" style="enable-background:new 0 0 100 100;" xml:space="preserve">
<style type="text/css">
	.st0{fill:#FFFFFF;}
	.st1{fill:#009FFF;stroke:#009FFF;stroke-width:2;stroke-miterlimit:10;}
</style>
<circle class="st0" cx="50" cy="50" r="50"/>
<g>
	<g>
		<path class="st1" d="M65.8,31.3c5.6,4.5,9.2,11.4,9.2,19.1C75,64,63.8,75,50,75S25,64,25,50.4c0-7.7,3.6-14.6,9.2-19.1l1.7,2.2
			c-5.1,4.1-7.9,9.9-7.9,16.9C28.1,62.8,37.4,72,50,72s21.9-9.2,21.9-21.6c0-7-2.8-12.9-7.9-17.1L65.8,31.3z"/>
	</g>
	<g>
		<path class="st1" d="M48.4,50h3.1V25l-3.1,0V50z"/>
	</g>
</g>
</svg>
