<?xml version="1.0" encoding="utf-8"?>
<!-- Generator: Adobe Illustrator 19.0.0, SVG Export Plug-In . SVG Version: 6.00 Build 0)  -->
<svg version="1.1" id="Layer_1" xmlns="http://www.w3.org/2000/svg" xmlns:xlink="http://www.w3.org/1999/xlink" x="0px" y="0px"
	 width="100px" height="100px" viewBox="0 0 100 100" enable-background="new 0 0 100 100" xml:space="preserve">
<circle cx="50" cy="50" r="50"/>
<g>
	<path id="XMLID_2_" fill="#FFFFFF" d="M67.642,33.555c-2.331-2.357-6.355-1.324-7.277,1.858c-0.504,1.729-0.009,3.214,1.23,4.516
		c3.561,3.736,5.074,8.2,4.473,13.316c-1.108,9.42-10.181,15.831-19.488,13.837c-8.389-1.79-13.936-9.863-12.604-18.321
		c0.553-3.506,2.114-6.479,4.57-9.03c1.759-1.827,1.66-4.573-0.135-6.265c-1.776-1.673-4.483-1.596-6.22,0.235
		c-5.923,6.23-8.248,13.633-6.749,22.082c2.418,13.602,15.627,22.598,29.145,20.013C66.47,73.524,74.928,63.334,75,51.241
		c-0.043-0.685-0.075-1.37-0.132-2.05C74.355,43.1,71.927,37.889,67.642,33.555z"/>
	<path id="XMLID_1_" fill="#FFFFFF" d="M45.611,40.159c0,4.1-0.019,8.122,0.007,12.18c0.015,2.337,2.016,4.249,4.366,4.246
		c2.351-0.003,4.366-1.895,4.373-4.236c0.023-8.117,0.023-16.234,0-24.35c0-1.11-0.436-2.068-1.194-2.87
		c-1.662-1.756-4.433-1.833-6.189-0.171c-0.867,0.821-1.361,1.96-1.369,3.154c-0.012,4.017,0,8.048,0,12.046l0,0L45.611,40.159z"/>
</g>
</svg>
