<?xml version="1.0" encoding="utf-8"?>
<!-- Generator: Adobe Illustrator 19.0.0, SVG Export Plug-In . SVG Version: 6.00 Build 0)  -->
<svg version="1.1" id="Layer_1" xmlns="http://www.w3.org/2000/svg" xmlns:xlink="http://www.w3.org/1999/xlink" x="0px" y="0px"
	 width="100px" height="100px" viewBox="0 0 100 100" enable-background="new 0 0 100 100" xml:space="preserve">
<circle fill="#FFFFFF" cx="50" cy="50" r="50"/>
<g>
	<path id="XMLID_2_" d="M81.901,20.858c-4.13-4.178-11.262-2.346-12.896,3.293c-0.894,3.064-0.017,5.696,2.18,8.004
		c6.31,6.621,8.991,14.531,7.927,23.597c-1.963,16.693-18.041,28.054-34.535,24.521C29.71,77.102,19.88,62.796,22.241,47.806
		c0.979-6.212,3.747-11.482,8.099-16.002c3.117-3.237,2.943-8.103-0.24-11.102c-3.148-2.965-7.945-2.828-11.022,0.416
		C8.582,32.158,4.463,45.277,7.119,60.249c4.285,24.104,27.693,40.047,51.647,35.465c21.058-4.029,36.047-22.086,36.174-43.516
		c-0.076-1.214-0.133-2.428-0.234-3.633C93.796,37.773,89.495,28.538,81.901,20.858z"/>
	<path id="XMLID_1_" d="M42.86,32.562c0,7.266-0.034,14.394,0.013,21.584c0.027,4.141,3.573,7.529,7.738,7.524
		c4.165-0.006,7.738-3.358,7.749-7.507c0.04-14.383,0.04-28.768,0-43.151c0-1.967-0.772-3.665-2.116-5.086
		c-2.945-3.112-7.856-3.248-10.967-0.302c-1.536,1.455-2.412,3.473-2.425,5.588c-0.021,7.118,0,14.262,0,21.346l0,0L42.86,32.562z"
		/>
</g>
</svg>
