<?xml version="1.0" encoding="utf-8"?>
<!-- Generator: Adobe Illustrator 19.0.0, SVG Export Plug-In . SVG Version: 6.00 Build 0)  -->
<svg version="1.1" id="Layer_1" xmlns="http://www.w3.org/2000/svg" xmlns:xlink="http://www.w3.org/1999/xlink" x="0px" y="0px"
	 width="200px" height="100px" viewBox="50 100 200 100" enable-background="new 50 100 200 100" xml:space="preserve">
<circle id="XMLID_6_" fill="#FFFFFF" cx="100" cy="150" r="49"/>
<circle id="XMLID_1_" fill="#0075FF" cx="200" cy="150" r="49"/>
<g>
	<path fill="#FFFFFF" d="M222.937,130.617c-0.528-0.638-1.101-1.254-1.694-1.848c-3.235-3.235-6.843-5.589-10.825-7.04
		c2.618,3.718,4.642,7.678,6.072,11.881C218.712,132.795,220.869,131.783,222.937,130.617z"/>
	<path fill="#FFFFFF" d="M187.095,134.775c3.63,1.012,7.459,1.562,11.463,1.65v-16.436c-1.122,0.045-2.222,0.154-3.322,0.309
		C191.563,124.72,188.834,129.56,187.095,134.775z"/>
	<path fill="#FFFFFF" d="M184.742,148.57h13.817v-9.284c-4.291-0.111-8.383-0.704-12.277-1.761
		C185.336,141.024,184.829,144.72,184.742,148.57z"/>
	<path fill="#FFFFFF" d="M190.858,121.287c-4.488,1.409-8.536,3.895-12.101,7.481c-0.616,0.593-1.167,1.21-1.716,1.848
		c2.354,1.32,4.774,2.419,7.327,3.301C185.864,129.428,188.02,125.226,190.858,121.287z"/>
	<path fill="#FFFFFF" d="M205.885,120.496c-1.43-0.265-2.926-0.441-4.466-0.507v16.436c4.334-0.111,8.449-0.748,12.364-1.914
		C212.045,129.472,209.428,124.807,205.885,120.496z"/>
	<path fill="#FFFFFF" d="M214.62,137.261c-4.18,1.232-8.559,1.914-13.201,2.025v9.285h14.807
		C216.138,144.61,215.589,140.848,214.62,137.261z"/>
	<path fill="#FFFFFF" d="M216.226,151.431h-14.807v10.781c4.489,0.111,8.757,0.748,12.805,1.936
		C215.456,160.121,216.116,155.897,216.226,151.431z"/>
	<path fill="#FFFFFF" d="M186.655,163.884c3.785-1.012,7.767-1.584,11.903-1.673v-10.78h-13.817
		C184.852,155.809,185.489,159.946,186.655,163.884z"/>
	<path fill="#FFFFFF" d="M193.322,177.217c0.594,0.837,1.255,1.673,1.936,2.487c1.078,0.154,2.178,0.264,3.301,0.307v-14.939
		c-3.827,0.111-7.48,0.616-10.979,1.518C188.987,170.331,190.879,173.873,193.322,177.217z"/>
	<path fill="#FFFFFF" d="M177.921,170.397c0.263,0.286,0.55,0.572,0.836,0.858c3.586,3.586,7.613,6.072,12.123,7.459
		c-2.574-3.542-4.576-7.327-6.05-11.309C182.454,168.197,180.143,169.187,177.921,170.397z"/>
	<path fill="#FFFFFF" d="M201.419,165.072v14.939c1.541-0.066,3.014-0.22,4.444-0.484c0.638-0.77,1.231-1.541,1.805-2.311
		c2.353-3.256,4.246-6.71,5.633-10.384C209.538,165.776,205.578,165.182,201.419,165.072z"/>
	<path fill="#FFFFFF" d="M210.418,178.274c3.982-1.453,7.569-3.784,10.802-7.019c0.022,0,0.022,0,0.022,0
		c0.264-0.286,0.55-0.572,0.814-0.858c-1.936-1.056-3.961-1.936-6.029-2.684C214.62,171.431,212.772,174.951,210.418,178.274z"/>
	<path fill="#FFFFFF" d="M181.882,151.431H170c0.241,6.315,2.266,11.882,6.051,16.744c2.508-1.409,5.127-2.575,7.877-3.476
		C182.673,160.495,181.991,156.095,181.882,151.431z"/>
	<path fill="#FFFFFF" d="M217.326,136.359c1.078,3.873,1.65,7.943,1.76,12.211H230c-0.242-5.852-2.002-11.089-5.28-15.687
		C222.342,134.247,219.878,135.413,217.326,136.359z"/>
	<path fill="#FFFFFF" d="M216.952,165.005c2.42,0.859,4.752,1.914,6.997,3.169c3.784-4.863,5.787-10.429,6.051-16.744h-10.914
		C218.977,156.205,218.25,160.716,216.952,165.005z"/>
	<path fill="#FFFFFF" d="M183.531,136.667c-2.86-0.989-5.633-2.244-8.272-3.784c-3.278,4.598-5.039,9.834-5.259,15.687h11.882
		C181.969,144.412,182.52,140.451,183.531,136.667z"/>
</g>
<g>
	<path fill="#0075FF" d="M122.937,132.047c-0.528-0.638-1.101-1.254-1.694-1.848c-3.235-3.235-6.843-5.589-10.825-7.04
		c2.618,3.718,4.642,7.678,6.072,11.881C118.712,134.226,120.869,133.213,122.937,132.047z"/>
	<path fill="#0075FF" d="M87.095,136.206c3.63,1.012,7.459,1.562,11.463,1.65V121.42c-1.122,0.045-2.222,0.154-3.322,0.309
		C91.563,126.151,88.834,130.991,87.095,136.206z"/>
	<path fill="#0075FF" d="M84.742,150.001h13.817v-9.284c-4.291-0.111-8.383-0.704-12.277-1.761
		C85.336,142.455,84.829,146.151,84.742,150.001z"/>
	<path fill="#0075FF" d="M90.858,122.718c-4.488,1.409-8.536,3.895-12.101,7.481c-0.616,0.593-1.167,1.21-1.716,1.848
		c2.354,1.32,4.774,2.419,7.327,3.301C85.864,130.859,88.02,126.657,90.858,122.718z"/>
	<path fill="#0075FF" d="M105.885,121.927c-1.43-0.265-2.926-0.441-4.466-0.507v16.436c4.334-0.111,8.449-0.748,12.364-1.914
		C112.045,130.903,109.428,126.238,105.885,121.927z"/>
	<path fill="#0075FF" d="M114.62,138.692c-4.18,1.232-8.559,1.914-13.201,2.025v9.285h14.807
		C116.138,146.041,115.589,142.279,114.62,138.692z"/>
	<path fill="#0075FF" d="M116.226,152.862h-14.807v10.781c4.489,0.111,8.757,0.748,12.805,1.936
		C115.456,161.552,116.116,157.327,116.226,152.862z"/>
	<path fill="#0075FF" d="M86.655,165.314c3.785-1.012,7.767-1.584,11.903-1.673v-10.78H84.742
		C84.852,157.24,85.489,161.377,86.655,165.314z"/>
	<path fill="#0075FF" d="M93.322,178.648c0.594,0.837,1.255,1.673,1.936,2.487c1.078,0.154,2.178,0.264,3.301,0.307v-14.939
		c-3.827,0.111-7.48,0.616-10.979,1.518C88.987,171.761,90.879,175.304,93.322,178.648z"/>
	<path fill="#0075FF" d="M77.921,171.827c0.263,0.286,0.55,0.572,0.836,0.858c3.586,3.586,7.613,6.072,12.123,7.459
		c-2.574-3.542-4.576-7.327-6.05-11.309C82.453,169.627,80.143,170.618,77.921,171.827z"/>
	<path fill="#0075FF" d="M101.419,166.503v14.939c1.541-0.066,3.014-0.22,4.444-0.484c0.638-0.77,1.231-1.541,1.805-2.311
		c2.353-3.256,4.246-6.71,5.633-10.384C109.538,167.206,105.578,166.613,101.419,166.503z"/>
	<path fill="#0075FF" d="M110.418,179.704c3.982-1.453,7.569-3.784,10.802-7.019c0.022,0,0.022,0,0.022,0
		c0.264-0.286,0.55-0.572,0.814-0.858c-1.936-1.056-3.961-1.936-6.029-2.684C114.62,172.862,112.772,176.382,110.418,179.704z"/>
	<path fill="#0075FF" d="M81.882,152.862H70c0.241,6.315,2.266,11.882,6.051,16.744c2.508-1.409,5.127-2.575,7.877-3.476
		C82.673,161.926,81.991,157.526,81.882,152.862z"/>
	<path fill="#0075FF" d="M117.326,137.79c1.078,3.873,1.65,7.943,1.76,12.211H130c-0.242-5.852-2.002-11.089-5.28-15.687
		C122.342,135.678,119.878,136.844,117.326,137.79z"/>
	<path fill="#0075FF" d="M116.952,166.436c2.42,0.859,4.752,1.914,6.997,3.169c3.784-4.863,5.787-10.429,6.051-16.744h-10.914
		C118.977,157.636,118.25,162.147,116.952,166.436z"/>
	<path fill="#0075FF" d="M83.531,138.098c-2.86-0.989-5.633-2.244-8.272-3.784c-3.278,4.598-5.039,9.834-5.259,15.687h11.882
		C81.969,145.843,82.52,141.882,83.531,138.098z"/>
</g>
</svg>
