<?xml version="1.0" encoding="utf-8"?>
<!-- Generator: Adobe Illustrator 19.0.0, SVG Export Plug-In . SVG Version: 6.00 Build 0)  -->
<svg version="1.1" id="Layer_1" xmlns="http://www.w3.org/2000/svg" xmlns:xlink="http://www.w3.org/1999/xlink" x="0px" y="0px"
	 width="100px" height="100px" viewBox="0 0 100 100" enable-background="new 0 0 100 100" xml:space="preserve">
<circle id="XMLID_14_" cx="50" cy="50" r="50"/>
<g>
	<path fill="#FFFFFF" d="M49.999,85C69.298,85,85,69.299,85,50S69.299,15,49.999,15S15,30.701,15,50C15,69.298,30.701,85,49.999,85z
		 M49.999,80.739c-0.6,0-1.197-0.023-1.789-0.056c-2.428-3.562-4.38-7.804-5.786-12.487c2.337-0.247,4.716-0.386,7.131-0.386
		c2.324,0,4.618,0.115,6.863,0.342c-1.413,4.718-3.378,8.989-5.827,12.571C50.395,80.728,50.199,80.739,49.999,80.739z
		 M41.347,64.037c-0.837-3.791-1.342-7.797-1.47-11.907h19.08c-0.129,4.097-0.629,8.087-1.461,11.868
		c-2.596-0.288-5.246-0.447-7.938-0.447C46.774,63.55,44.034,63.726,41.347,64.037z M60.686,68.749
		c3.879,0.659,7.579,1.661,11.012,3.003c-4.223,4.212-9.661,7.203-15.738,8.402C57.901,76.734,59.494,72.89,60.686,68.749z
		 M61.719,64.608c0.861-3.992,1.371-8.187,1.497-12.479h17.44c-0.416,6.056-2.586,11.639-6.019,16.231
		C70.638,66.669,66.294,65.411,61.719,64.608z M63.216,47.87c-0.127-4.206-0.626-8.333-1.463-12.271
		c4.606-0.811,8.977-2.085,12.999-3.8c3.365,4.563,5.494,10.084,5.905,16.07H63.216z M58.956,47.87h-19.08
		c0.128-4.024,0.62-7.958,1.433-11.695c2.699,0.313,5.451,0.492,8.248,0.492c2.704,0,5.366-0.162,7.975-0.452
		C58.34,39.94,58.83,43.861,58.956,47.87z M35.616,47.87H19.343c0.403-5.863,2.457-11.277,5.701-15.782
		c3.751,1.536,7.799,2.696,12.049,3.463C36.248,39.502,35.743,43.647,35.616,47.87z M35.616,52.13
		c0.128,4.309,0.641,8.523,1.507,12.529c-4.216,0.758-8.234,1.906-11.963,3.42c-3.313-4.539-5.41-10.014-5.82-15.949H35.616z
		 M28.058,71.499c3.17-1.188,6.568-2.08,10.105-2.699c1.155,4.002,2.687,7.725,4.544,11.057
		C37.051,78.476,32.005,75.528,28.058,71.499z M71.85,28.406c-3.464,1.366-7.203,2.382-11.122,3.053
		c-1.197-4.217-2.801-8.141-4.767-11.613C62.11,21.059,67.606,24.111,71.85,28.406z M50.6,19.276
		c2.476,3.625,4.454,7.982,5.871,12.779c-2.261,0.232-4.571,0.351-6.913,0.351c-2.434,0-4.831-0.139-7.183-0.392
		c1.411-4.765,3.377-9.092,5.832-12.698c0.595-0.034,1.191-0.056,1.794-0.056C50.2,19.261,50.399,19.274,50.6,19.276z
		 M42.698,20.144c-1.881,3.381-3.418,7.189-4.578,11.264c-3.578-0.629-7.014-1.539-10.212-2.749
		C31.875,24.551,36.972,21.545,42.698,20.144z"/>
</g>
</svg>
