<?xml version="1.0" encoding="utf-8"?>
<!-- Generator: Adobe Illustrator 19.0.0, SVG Export Plug-In . SVG Version: 6.00 Build 0)  -->
<svg version="1.1" id="Layer_1" xmlns="http://www.w3.org/2000/svg" xmlns:xlink="http://www.w3.org/1999/xlink" x="0px" y="0px"
	 width="100px" height="100px" viewBox="0 0 100 100" enable-background="new 0 0 100 100" xml:space="preserve">
<path d="M73.913,25c-0.274,0.008-0.535,0.122-0.727,0.318l-9.658,9.658c-2.572-4.879-7.652-8.241-13.529-8.241
	c-8.448,0-15.334,6.895-15.334,15.351c0,5.791,2.807,10.33,5.779,14.814c0.153,0.231,0.309,0.465,0.463,0.698L25.325,73.179
	c-0.421,0.404-0.435,1.074-0.031,1.495c0.404,0.421,1.074,0.435,1.495,0.031c0.01-0.01,0.021-0.02,0.031-0.031l47.861-47.861
	c0.418-0.408,0.425-1.078,0.017-1.496C74.493,25.107,74.208,24.992,73.913,25z M49.999,28.85c5.318,0,9.855,3.17,11.951,7.704
	l-4.589,4.589c-0.212-3.889-3.421-7.006-7.361-7.006c-4.076,0-7.403,3.327-7.403,7.403c0,3.94,3.117,7.15,7.006,7.361l-7.171,7.171
	c-0.075-0.114-0.15-0.232-0.223-0.343c-2.946-4.443-5.428-8.537-5.428-13.645C36.78,34.775,42.699,28.85,49.999,28.85z
	 M49.999,36.253c2.933,0,5.288,2.355,5.288,5.288c0,0.755-0.16,1.471-0.442,2.119l-2.726,2.726
	c-0.648,0.282-1.364,0.442-2.119,0.442c-2.933,0-5.288-2.355-5.288-5.288C44.712,38.608,47.067,36.253,49.999,36.253z M65.077,39.38
	l-1.9,1.9c0.017,0.268,0.041,0.534,0.041,0.806c0,5.108-2.409,8.942-5.321,13.256c-2.806,4.159-6.01,8.837-7.902,15.367
	c-1.245-4.255-3.193-7.799-5.222-11.025l-1.524,1.524c2.013,3.188,3.879,6.589,4.978,10.695c0.223,0.836,1.029,1.363,1.772,1.363
	c0.743,0,1.549-0.527,1.772-1.363c1.75-6.54,4.945-11.034,7.878-15.379c2.933-4.346,5.684-8.661,5.684-14.438
	C65.333,41.161,65.235,40.261,65.077,39.38L65.077,39.38z"/>
<circle id="XMLID_1_" fill="none" stroke="#000000" stroke-width="5" stroke-miterlimit="10" cx="50" cy="50" r="47"/>
</svg>
