<?xml version="1.0" encoding="utf-8"?>
<!-- Generator: Adobe Illustrator 19.0.0, SVG Export Plug-In . SVG Version: 6.00 Build 0)  -->
<svg version="1.1" id="Layer_1" xmlns="http://www.w3.org/2000/svg" xmlns:xlink="http://www.w3.org/1999/xlink" x="0px" y="0px"
	 width="100px" height="30px" viewBox="0 41 100 30" enable-background="new 0 41 100 30" xml:space="preserve">
<g>
	<g>
		<g>
			
				<line fill="none" stroke="#000000" stroke-width="2" stroke-linecap="round" stroke-linejoin="round" x1="36" y1="56" x2="61.8" y2="56"/>
			<g>
				<polygon points="55.2,64.2 53.8,62.7 61.1,56 53.8,49.3 55.2,47.8 64,56 				"/>
			</g>
		</g>
	</g>
	<g>
		<circle id="XMLID_2_" fill="#FFFFFF" cx="15" cy="56" r="13.1"/>
		<path d="M15,70C7.3,70,1,63.7,1,56s6.3-14,14-14s14,6.3,14,14S22.7,70,15,70z M15,43.9C8.3,43.9,2.9,49.3,2.9,56S8.3,68.1,15,68.1
			S27.1,62.7,27.1,56S21.7,43.9,15,43.9z"/>
	</g>
	<circle id="XMLID_4_" cx="85" cy="56" r="14"/>
</g>
</svg>
