<?xml version="1.0" encoding="utf-8"?>
<!-- Generator: Adobe Illustrator 19.0.0, SVG Export Plug-In . SVG Version: 6.00 Build 0)  -->
<svg version="1.1" id="Layer_1" xmlns="http://www.w3.org/2000/svg" xmlns:xlink="http://www.w3.org/1999/xlink" x="0px" y="0px"
	 width="100px" height="100px" viewBox="0 0 100 100" enable-background="new 0 0 100 100" xml:space="preserve">
<circle id="XMLID_1_" fill="#FFFFFF" cx="50" cy="50" r="50"/>
<g transform="translate(0,-952.36218)">
	<path fill="#009FFF" stroke="#009FFF" stroke-width="1.8" stroke-miterlimit="10" d="M42.857,982.362
		c-8.662,0-15.714,7.052-15.714,15.714c0,0.397,0.061,0.789,0.089,1.183c-4.225,1.897-7.232,6.031-7.232,10.96
		c0,6.702,5.44,12.143,12.143,12.143h35.714c6.702,0,12.143-5.44,12.143-12.143c0-6.26-4.76-11.356-10.848-12.009
		c-0.654-5.681-5.443-10.134-11.295-10.134c-0.932,0-1.776,0.235-2.634,0.446C52.349,984.81,47.907,982.362,42.857,982.362z
		 M42.857,985.219c4.428,0,8.309,2.23,10.625,5.625c0.364,0.521,1.028,0.739,1.629,0.536c0.873-0.295,1.791-0.446,2.746-0.446
		c4.751,0,8.571,3.821,8.571,8.571c0,0.789,0.64,1.428,1.429,1.429c5.169,0,9.286,4.117,9.286,9.286
		c0,5.169-4.117,9.286-9.286,9.286H32.143c-5.169,0-9.286-4.117-9.286-9.286c0-4.118,2.623-7.557,6.295-8.795
		c0.647-0.218,1.049-0.863,0.96-1.54c-0.083-0.585-0.112-1.179-0.112-1.808C30,990.959,35.739,985.219,42.857,985.219z"/>
</g>
</svg>
