<?xml version="1.0" encoding="utf-8"?>
<!-- Generator: Adobe Illustrator 19.0.0, SVG Export Plug-In . SVG Version: 6.00 Build 0)  -->
<svg version="1.1" id="Layer_1" xmlns="http://www.w3.org/2000/svg" xmlns:xlink="http://www.w3.org/1999/xlink" x="0px" y="0px"
	 width="200px" height="100px" viewBox="0 0 200 100" enable-background="new 0 0 200 100" xml:space="preserve">
<circle id="XMLID_37_" fill="#FFFFFF" cx="50" cy="50" r="49"/>
<g id="XMLID_28_">
	<g id="XMLID_33_">
		<circle id="XMLID_36_" fill="none" stroke="#0075FF" stroke-width="3" stroke-miterlimit="10" cx="31.644" cy="42.672" r="4.5"/>
		<circle id="XMLID_35_" fill="#0075FF" cx="19.382" cy="50" r="6"/>
		<circle id="XMLID_34_" fill="none" stroke="#0075FF" stroke-width="3" stroke-miterlimit="10" cx="31.644" cy="57.328" r="4.5"/>
	</g>
	<circle id="XMLID_32_" fill="#0075FF" cx="75.812" cy="50" r="6"/>
	
		<line id="XMLID_31_" fill="none" stroke="#0075FF" stroke-width="3.6512" stroke-linecap="round" stroke-miterlimit="10" x1="42" y1="50" x2="58" y2="50"/>
	
		<line id="XMLID_30_" fill="none" stroke="#0075FF" stroke-width="4" stroke-linecap="round" stroke-miterlimit="10" x1="52.343" y1="55.657" x2="58" y2="50"/>
	
		<line id="XMLID_29_" fill="none" stroke="#0075FF" stroke-width="4" stroke-linecap="round" stroke-miterlimit="10" x1="52.343" y1="44.343" x2="58" y2="50"/>
</g>
<circle id="XMLID_27_" fill="#0075FF" cx="150" cy="50" r="49"/>
<g id="XMLID_15_">
	<path id="XMLID_24_" fill="#FFFFFF" d="M134.047,48.672c-3.309,0-6-2.691-6-6s2.691-6,6-6s6,2.691,6,6
		S137.356,48.672,134.047,48.672z M134.047,39.672c-1.654,0-3,1.346-3,3s1.346,3,3,3s3-1.346,3-3S135.701,39.672,134.047,39.672z"/>
	<circle id="XMLID_23_" fill="#FFFFFF" cx="121.785" cy="50" r="6"/>
	<path id="XMLID_20_" fill="#FFFFFF" d="M134.047,63.328c-3.309,0-6-2.691-6-6s2.691-6,6-6s6,2.691,6,6
		S137.356,63.328,134.047,63.328z M134.047,54.328c-1.654,0-3,1.346-3,3s1.346,3,3,3s3-1.346,3-3S135.701,54.328,134.047,54.328z"/>
	<circle id="XMLID_19_" fill="#FFFFFF" cx="178.215" cy="50" r="6"/>
	<path id="XMLID_18_" fill="#FFFFFF" d="M160.403,51.825h-16c-1.008,0-1.826-0.817-1.826-1.825s0.817-1.825,1.826-1.825h16
		c1.008,0,1.825,0.817,1.825,1.825S161.411,51.825,160.403,51.825z"/>
	<path id="XMLID_17_" fill="#FFFFFF" d="M154.746,57.657c-0.512,0-1.023-0.195-1.414-0.586c-0.781-0.781-0.781-2.047,0-2.828
		l5.657-5.657c0.781-0.781,2.047-0.781,2.828,0s0.781,2.047,0,2.828l-5.657,5.657C155.769,57.462,155.257,57.657,154.746,57.657z"/>
	<path id="XMLID_16_" fill="#FFFFFF" d="M160.403,52c-0.512,0-1.023-0.195-1.414-0.586l-5.657-5.657
		c-0.781-0.781-0.781-2.047,0-2.828s2.047-0.781,2.828,0l5.657,5.657c0.781,0.781,0.781,2.047,0,2.828
		C161.426,51.805,160.915,52,160.403,52z"/>
</g>
</svg>
