<?xml version="1.0" encoding="utf-8"?>
<!-- Generator: Adobe Illustrator 19.0.0, SVG Export Plug-In . SVG Version: 6.00 Build 0)  -->
<svg version="1.1" id="Layer_1" xmlns="http://www.w3.org/2000/svg" xmlns:xlink="http://www.w3.org/1999/xlink" x="0px" y="0px"
	 width="100px" height="100px" viewBox="0 0 100 100" enable-background="new 0 0 100 100" xml:space="preserve">
<g id="XMLID_1_">
	<path id="XMLID_10_" fill="#B49877" d="M25,10h38.273L83,30.281V82c0,4.418-3.582,8-8,8H25c-4.418,0-8-3.582-8-8V18
		C17,13.582,20.582,10,25,10z"/>
	<path id="XMLID_9_" fill="#B49877" d="M63.273,10l19.453,20H71c-4.418,0-8-3.582-8-8V10H63.273z"/>
	<path fill="#FFFFFF" fill-opacity="0.75" d="M60,60H40c-1.105,0-2-0.895-2-2v-8v-2h1h2v-6h21v16C62,59.105,61.105,60,60,60z M60,44
		H43v13h-2v-7h-1v7.2c0,0.994-0.186,0.8,0.818,0.8h18.364C60.186,58,60,58.194,60,57.2V44z M51,53h7v1h-7V53z M51,51h7v1h-7V51z
		 M51,49h7v1h-7V49z M44,46h14v2H44V46z M50,54h-6v-5h6V54z"/>
</g>
</svg>
