<?xml version="1.0" encoding="utf-8"?>
<!-- Generator: Adobe Illustrator 19.0.0, SVG Export Plug-In . SVG Version: 6.00 Build 0)  -->
<svg version="1.1" id="Layer_1" xmlns="http://www.w3.org/2000/svg" xmlns:xlink="http://www.w3.org/1999/xlink" x="0px" y="0px"
	 width="300px" height="300px" viewBox="-345 357 300 300" enable-background="new -345 357 300 300" xml:space="preserve">
<g>
	<polygon fill="none" stroke="#939393" stroke-miterlimit="10" points="-195.102,540.113 -195.102,490.113 -151.801,465.113 
		-108.499,490.113 -108.499,540.113 -151.801,565.113 	"/>
	<polygon fill="none" stroke="#939393" stroke-miterlimit="10" points="-281.704,540.113 -281.704,490.113 -238.403,465.113 
		-195.102,490.113 -195.102,540.113 -238.403,565.113 	"/>
	<polygon fill="none" stroke="#939393" stroke-miterlimit="10" points="-238.403,464.619 -238.403,414.619 -195.102,389.619 
		-151.801,414.619 -151.801,464.619 -195.102,489.619 	"/>
	<polyline fill="none" stroke="#939393" stroke-miterlimit="10" points="-108.499,490.113 -151.801,515.113 -195.102,490.113 
		-195.102,440.113 -151.801,415.113 	"/>
	<polyline fill="none" stroke="#939393" stroke-miterlimit="10" points="-281.704,490.113 -238.403,515.113 -195.102,490.113 
		-195.102,440.113 -238.403,415.113 	"/>
	<polyline fill="none" stroke="#939393" stroke-miterlimit="10" points="-238.403,564.619 -238.403,514.619 -195.102,489.619 
		-151.801,514.619 -151.801,564.619 	"/>
</g>
<path fill="#009FFF" d="M-151.801,465.113c-14.434,8.286-28.868,16.571-43.302,24.857c0-16.619,0.001-33.238,0.001-49.857
	c14.407-8.284,28.813-16.568,43.22-24.852C-151.855,431.878-151.828,448.496-151.801,465.113z"/>
<path fill="#009FFF" d="M-108.498,540.256c-14.434,8.286-28.868,16.571-43.302,24.857c0-16.619,0.001-33.238,0.001-49.857
	c14.407-8.284,28.813-16.568,43.22-24.852C-108.553,507.021-108.525,523.639-108.498,540.256z"/>
<path fill="#009FFF" d="M-195.101,539.616c-14.434,8.286-28.868,16.571-43.302,24.857c0-16.619,0.001-33.238,0.001-49.857
	c14.407-8.284,28.813-16.568,43.22-24.852C-195.155,506.382-195.128,522.999-195.101,539.616z"/>
<rect x="-342.4" y="360.208" fill="none" stroke="#939393" stroke-miterlimit="10" width="294.598" height="234.315"/>
<rect x="-342.298" y="598.123" fill="none" stroke="#939393" stroke-miterlimit="10" width="294.598" height="55.439"/>
<text transform="matrix(1 0 0 1 -272.7672 628.7458)" font-family="'MyriadPro-Regular'" font-size="18px">Name of the Product</text>
<g>
	<path fill="#939393" d="M-299.7,396.864c1.247,0.696,2.22,1.668,2.916,2.916c0.695,1.248,1.044,2.688,1.044,4.319
		c0,1.776-0.427,3.33-1.278,4.662c-0.853,1.332-2.064,2.358-3.636,3.078s-3.402,1.08-5.49,1.08c-1.656,0-3.3-0.252-4.932-0.756
		c-1.632-0.504-2.94-1.164-3.924-1.98l2.088-4.788c2.208,1.536,4.5,2.305,6.876,2.305c1.344,0,2.34-0.271,2.988-0.811
		c0.648-0.54,0.972-1.373,0.972-2.502c0-1.104-0.342-1.949-1.026-2.538c-0.684-0.588-1.638-0.882-2.862-0.882
		c-0.672,0-1.398,0.114-2.178,0.342c-0.78,0.229-1.506,0.522-2.178,0.882h-3.708V387h16.92v5.112h-10.368v4.392
		c0.984-0.456,2.16-0.684,3.528-0.684C-302.364,395.82-300.948,396.168-299.7,396.864z"/>
</g>
</svg>
