<?xml version="1.0" encoding="utf-8"?>
<!-- Generator: Adobe Illustrator 19.0.0, SVG Export Plug-In . SVG Version: 6.00 Build 0)  -->
<svg version="1.1" id="Layer_1" xmlns="http://www.w3.org/2000/svg" xmlns:xlink="http://www.w3.org/1999/xlink" x="0px" y="0px"
	 width="300px" height="300px" viewBox="-345 357 300 300" enable-background="new -345 357 300 300" xml:space="preserve">
<g>
	<polygon fill="none" stroke="#939393" stroke-miterlimit="10" points="-195.102,540.113 -195.102,490.113 -151.801,465.113 
		-108.499,490.113 -108.499,540.113 -151.801,565.113 	"/>
	<polygon fill="none" stroke="#939393" stroke-miterlimit="10" points="-281.704,540.113 -281.704,490.113 -238.403,465.113 
		-195.102,490.113 -195.102,540.113 -238.403,565.113 	"/>
	<polygon fill="none" stroke="#939393" stroke-miterlimit="10" points="-238.403,464.619 -238.403,414.619 -195.102,389.619 
		-151.801,414.619 -151.801,464.619 -195.102,489.619 	"/>
	<polyline fill="none" stroke="#939393" stroke-miterlimit="10" points="-108.499,490.113 -151.801,515.113 -195.102,490.113 
		-195.102,440.113 -151.801,415.113 	"/>
	<polyline fill="none" stroke="#939393" stroke-miterlimit="10" points="-281.704,490.113 -238.403,515.113 -195.102,490.113 
		-195.102,440.113 -238.403,415.113 	"/>
	<polyline fill="none" stroke="#939393" stroke-miterlimit="10" points="-238.403,564.619 -238.403,514.619 -195.102,489.619 
		-151.801,514.619 -151.801,564.619 	"/>
</g>
<path fill="#009FFF" d="M-151.801,465.113c-14.434,8.286-28.868,16.571-43.302,24.857c0-16.619,0.001-33.238,0.001-49.857
	c14.407-8.284,28.813-16.568,43.22-24.852C-151.855,431.878-151.828,448.496-151.801,465.113z"/>
<path fill="#009FFF" d="M-108.498,540.256c-14.434,8.286-28.868,16.571-43.302,24.857c0-16.619,0.001-33.238,0.001-49.857
	c14.407-8.284,28.813-16.568,43.22-24.852C-108.553,507.021-108.525,523.639-108.498,540.256z"/>
<path fill="#009FFF" d="M-195.101,539.616c-14.434,8.286-28.868,16.571-43.302,24.857c0-16.619,0.001-33.238,0.001-49.857
	c14.407-8.284,28.813-16.568,43.22-24.852C-195.155,506.382-195.128,522.999-195.101,539.616z"/>
<rect x="-342.4" y="360.208" fill="none" stroke="#939393" stroke-miterlimit="10" width="294.598" height="234.315"/>
<rect x="-342.298" y="598.123" fill="none" stroke="#939393" stroke-miterlimit="10" width="294.598" height="55.439"/>
<text transform="matrix(1 0 0 1 -272.7672 628.7458)" font-family="'MyriadPro-Regular'" font-size="18px">Name of the Product</text>
<g>
	<path fill="#939393" stroke="#939393" stroke-miterlimit="10" d="M-295.992,407.592v5.364h-18.072v-4.968l8.352-8.712
		c1.56-1.632,2.34-3.156,2.34-4.572c0-1.656-0.984-2.484-2.952-2.484c-1.008,0-2.07,0.198-3.186,0.595
		c-1.116,0.396-2.238,0.966-3.366,1.71l-2.124-4.788c1.031-0.84,2.37-1.506,4.014-1.998c1.644-0.492,3.318-0.738,5.022-0.738
		c1.848,0,3.462,0.294,4.842,0.882c1.38,0.589,2.448,1.429,3.204,2.521c0.756,1.092,1.134,2.37,1.134,3.834
		c0,1.488-0.294,2.838-0.882,4.05c-0.588,1.212-1.59,2.574-3.006,4.086l-5.112,5.22H-295.992z"/>
</g>
</svg>
