<?xml version="1.0" encoding="utf-8"?>
<!-- Generator: Adobe Illustrator 19.0.0, SVG Export Plug-In . SVG Version: 6.00 Build 0)  -->
<svg version="1.1" id="Layer_1" xmlns="http://www.w3.org/2000/svg" xmlns:xlink="http://www.w3.org/1999/xlink" x="0px" y="0px"
	 width="300px" height="300px" viewBox="-345 357 300 300" enable-background="new -345 357 300 300" xml:space="preserve">
<g>
	<polygon fill="none" stroke="#939393" stroke-miterlimit="10" points="-195.102,540.113 -195.102,490.113 -151.801,465.113 
		-108.499,490.113 -108.499,540.113 -151.801,565.113 	"/>
	<polygon fill="none" stroke="#939393" stroke-miterlimit="10" points="-281.704,540.113 -281.704,490.113 -238.403,465.113 
		-195.102,490.113 -195.102,540.113 -238.403,565.113 	"/>
	<polygon fill="none" stroke="#939393" stroke-miterlimit="10" points="-238.403,464.619 -238.403,414.619 -195.102,389.619 
		-151.801,414.619 -151.801,464.619 -195.102,489.619 	"/>
	<polyline fill="none" stroke="#939393" stroke-miterlimit="10" points="-108.499,490.113 -151.801,515.113 -195.102,490.113 
		-195.102,440.113 -151.801,415.113 	"/>
	<polyline fill="none" stroke="#939393" stroke-miterlimit="10" points="-281.704,490.113 -238.403,515.113 -195.102,490.113 
		-195.102,440.113 -238.403,415.113 	"/>
	<polyline fill="none" stroke="#939393" stroke-miterlimit="10" points="-238.403,564.619 -238.403,514.619 -195.102,489.619 
		-151.801,514.619 -151.801,564.619 	"/>
</g>
<path fill="#009FFF" d="M-151.801,465.113c-14.434,8.286-28.868,16.571-43.302,24.857c0-16.619,0.001-33.238,0.001-49.857
	c14.407-8.284,28.813-16.568,43.22-24.852C-151.855,431.878-151.828,448.496-151.801,465.113z"/>
<path fill="#009FFF" d="M-108.498,540.256c-14.434,8.286-28.868,16.571-43.302,24.857c0-16.619,0.001-33.238,0.001-49.857
	c14.407-8.284,28.813-16.568,43.22-24.852C-108.553,507.021-108.525,523.639-108.498,540.256z"/>
<path fill="#009FFF" d="M-195.101,539.616c-14.434,8.286-28.868,16.571-43.302,24.857c0-16.619,0.001-33.238,0.001-49.857
	c14.407-8.284,28.813-16.568,43.22-24.852C-195.155,506.382-195.128,522.999-195.101,539.616z"/>
<rect x="-342.4" y="360.208" fill="none" stroke="#939393" stroke-miterlimit="10" width="294.598" height="234.315"/>
<rect x="-342.298" y="598.123" fill="none" stroke="#939393" stroke-miterlimit="10" width="294.598" height="55.439"/>
<text transform="matrix(1 0 0 1 -272.7672 628.7458)" font-family="'MyriadPro-Regular'" font-size="18px">Name of the Product</text>
<g>
	<path fill="#939393" d="M-294.804,403.164v5.147h-3.312v4.32h-6.624v-4.32H-315v-4.968L-303.516,387h5.4v16.164H-294.804z
		 M-308.952,403.164h4.212v-6.048L-308.952,403.164z"/>
</g>
</svg>
