<?xml version="1.0" encoding="utf-8"?>
<!-- Generator: Adobe Illustrator 19.0.0, SVG Export Plug-In . SVG Version: 6.00 Build 0)  -->
<svg version="1.1" id="Layer_1" xmlns="http://www.w3.org/2000/svg" xmlns:xlink="http://www.w3.org/1999/xlink" x="0px" y="0px"
	 width="300px" height="300px" viewBox="-345 357 300 300" enable-background="new -345 357 300 300" xml:space="preserve">
<g>
	<polygon fill="none" stroke="#939393" stroke-miterlimit="10" points="-195.102,540.113 -195.102,490.113 -151.801,465.113 
		-108.499,490.113 -108.499,540.113 -151.801,565.113 	"/>
	<polygon fill="none" stroke="#939393" stroke-miterlimit="10" points="-281.704,540.113 -281.704,490.113 -238.403,465.113 
		-195.102,490.113 -195.102,540.113 -238.403,565.113 	"/>
	<polygon fill="none" stroke="#939393" stroke-miterlimit="10" points="-238.403,464.619 -238.403,414.619 -195.102,389.619 
		-151.801,414.619 -151.801,464.619 -195.102,489.619 	"/>
	<polyline fill="none" stroke="#939393" stroke-miterlimit="10" points="-108.499,490.113 -151.801,515.113 -195.102,490.113 
		-195.102,440.113 -151.801,415.113 	"/>
	<polyline fill="none" stroke="#939393" stroke-miterlimit="10" points="-281.704,490.113 -238.403,515.113 -195.102,490.113 
		-195.102,440.113 -238.403,415.113 	"/>
	<polyline fill="none" stroke="#939393" stroke-miterlimit="10" points="-238.403,564.619 -238.403,514.619 -195.102,489.619 
		-151.801,514.619 -151.801,564.619 	"/>
</g>
<path fill="#009FFF" d="M-151.801,465.113c-14.434,8.286-28.868,16.571-43.302,24.857c0-16.619,0.001-33.238,0.001-49.857
	c14.407-8.284,28.813-16.568,43.22-24.852C-151.855,431.878-151.828,448.496-151.801,465.113z"/>
<path fill="#009FFF" d="M-108.498,540.256c-14.434,8.286-28.868,16.571-43.302,24.857c0-16.619,0.001-33.238,0.001-49.857
	c14.407-8.284,28.813-16.568,43.22-24.852C-108.553,507.021-108.525,523.639-108.498,540.256z"/>
<path fill="#009FFF" d="M-195.101,539.616c-14.434,8.286-28.868,16.571-43.302,24.857c0-16.619,0.001-33.238,0.001-49.857
	c14.407-8.284,28.813-16.568,43.22-24.852C-195.155,506.382-195.128,522.999-195.101,539.616z"/>
<rect x="-342.4" y="360.208" fill="none" stroke="#939393" stroke-miterlimit="10" width="294.598" height="234.315"/>
<rect x="-342.298" y="598.123" fill="none" stroke="#939393" stroke-miterlimit="10" width="294.598" height="55.439"/>
<text transform="matrix(1 0 0 1 -272.7672 628.7458)" font-family="'MyriadPro-Regular'" font-size="18px">Name of the Product</text>
<g>
	<path fill="#939393" stroke="#939393" stroke-miterlimit="10" d="M-296.946,402.012c0.804,1.08,1.206,2.4,1.206,3.96
		c0,1.488-0.402,2.778-1.206,3.87c-0.804,1.093-1.962,1.933-3.474,2.521c-1.512,0.588-3.276,0.882-5.292,0.882
		c-1.8,0-3.546-0.246-5.238-0.738c-1.692-0.491-3.042-1.157-4.05-1.998l2.124-4.788c2.232,1.536,4.512,2.305,6.84,2.305
		c1.44,0,2.459-0.21,3.06-0.63c0.6-0.42,0.9-1.135,0.9-2.143c0-0.96-0.294-1.644-0.882-2.052c-0.588-0.408-1.566-0.612-2.934-0.612
		h-3.996v-5.184h3.312c1.344,0,2.31-0.186,2.898-0.559c0.588-0.371,0.882-0.978,0.882-1.817c0-0.912-0.282-1.607-0.846-2.088
		s-1.35-0.721-2.358-0.721c-1.032,0-2.118,0.198-3.258,0.595c-1.14,0.396-2.227,0.966-3.258,1.71l-2.124-4.788
		c1.031-0.815,2.381-1.477,4.05-1.98c1.668-0.504,3.354-0.756,5.058-0.756c1.824,0,3.42,0.288,4.788,0.864
		c1.368,0.576,2.43,1.398,3.186,2.466c0.756,1.068,1.134,2.311,1.134,3.726c0.023,1.345-0.312,2.509-1.008,3.492
		c-0.697,0.984-1.68,1.717-2.952,2.196C-298.896,400.176-297.75,400.932-296.946,402.012z"/>
</g>
</svg>
