<?xml version="1.0" encoding="utf-8"?>
<!-- Generator: Adobe Illustrator 19.0.0, SVG Export Plug-In . SVG Version: 6.00 Build 0)  -->
<svg version="1.1" id="Layer_1" xmlns="http://www.w3.org/2000/svg" xmlns:xlink="http://www.w3.org/1999/xlink" x="0px" y="0px"
	 width="100px" height="100px" viewBox="0 0 100 100" style="enable-background:new 0 0 100 100;" xml:space="preserve">
<style type="text/css">
	.st0{fill:#FFFFFF;}
	.st1{fill:none;stroke:#009FFF;stroke-width:4;stroke-miterlimit:10;}
	.st2{fill:none;stroke:#009FFF;stroke-width:2;stroke-miterlimit:10;}
</style>
<circle id="XMLID_6_" class="st0" cx="50" cy="50" r="50"/>
<path id="XMLID_7_" class="st1" d="M50.9,40.3L24.2,58.4c-0.4,0.2-0.5,0.7-0.4,1.1l0.7,2.1c0.1,0.4,0.5,0.6,1,0.6h7.3l0.2,3.3
	c0,0.6,0.5,1,1.1,1l8.4,0c0.1,0,0.2,0,0.3,0c0.4-0.1,0.7-0.5,0.7-0.9l0.2-3.4h14.2c0.1,0,0.2,0,0.3-0.1c0.2-0.1,0.4-0.2,0.5-0.4
	c0.2-0.3,0.2-0.6,0.1-0.9l-6.3-20.1c-0.1-0.3-0.3-0.5-0.6-0.6C51.5,40.1,51.2,40.1,50.9,40.3z"/>
<path id="XMLID_2_" class="st2" d="M57.5,36.6c-0.5,0.3-0.6,1.2-0.4,2l6.2,21.5c0.2,0.8,0.8,1.3,1.3,1c0.5-0.3,0.6-1.2,0.4-2
	l-6.2-21.5C58.5,36.8,57.9,36.3,57.5,36.6z"/>
<path id="XMLID_5_" class="st1" d="M74.4,43.6c-0.3-0.8-1.1-1.2-1.9-0.9l-4.2,1.4c-0.8,0.3-1.2,1.1-0.9,1.9c0.3,0.8,1.1,1.2,1.9,0.9
	l4.2-1.4C74.3,45.2,74.7,44.4,74.4,43.6z"/>
<path id="XMLID_4_" class="st1" d="M76.7,54.3c0.3-0.7-0.1-1.6-0.8-1.9l-4.2-1.6c-0.4-0.1-0.8-0.1-1.1,0c-0.4,0.2-0.6,0.5-0.8,0.8
	c-0.1,0.3-0.1,0.7,0,1l0,0c0.1,0.4,0.4,0.7,0.9,0.9l4.2,1.6C75.6,55.4,76.4,55,76.7,54.3z"/>
<path id="XMLID_3_" class="st1" d="M70.2,35.4c0.4-0.7,0.2-1.6-0.5-2c-0.7-0.4-1.6-0.2-2,0.5l-2.4,3.8c-0.2,0.4-0.3,0.8-0.1,1.2
	c0.1,0.3,0.3,0.6,0.6,0.8c0.3,0.2,0.7,0.3,1.1,0.2c0.4-0.1,0.7-0.3,0.9-0.7L70.2,35.4z"/>
</svg>
