<?xml version="1.0" encoding="utf-8"?>
<!-- Generator: Adobe Illustrator 19.0.0, SVG Export Plug-In . SVG Version: 6.00 Build 0)  -->
<svg version="1.1" id="Layer_1" xmlns="http://www.w3.org/2000/svg" xmlns:xlink="http://www.w3.org/1999/xlink" x="0px" y="0px"
	 width="100px" height="100px" viewBox="-4 106 100 100" enable-background="new -4 106 100 100" xml:space="preserve">
<g>
	<path fill="#0075FF" d="M75.66,149.088c-3.375-11.151-10.491-20.321-14.526-17.607l-45.778,30.372
		c-1.027,0.66-1.467,2.861-0.587,5.649c0.807,2.788,2.421,4.402,3.595,4.402h7.923v4.108c0,2.788,2.348,4.989,5.282,4.989h13.352
		c2.934,0,5.282-2.274,5.282-4.989v-4.108h23.036C78.227,171.83,79.034,160.239,75.66,149.088z M46.609,176.011
		c0,0.734-0.734,1.321-1.614,1.321H31.569c-0.88,0-1.614-0.587-1.614-1.321v-4.108h16.726v4.108H46.609z M72.285,168.308
		c-3.888-0.073-7.189-5.942-9.904-15.113c-2.788-9.17-3.228-15.993-0.147-18.12c3.081-2.127,8.657,5.502,11.444,14.672
		C76.467,158.918,76.027,168.382,72.285,168.308z"/>
	<g>
		<path fill="#0075FF" d="M67.89,162.485c-1.2-2.6-2.5-6-3.8-10.5c-1.2-4.1-2.1-7.7-2.5-10.8c2.7-0.3,7.8,2.1,9.8,8.6
			C73.29,156.385,70.29,161.285,67.89,162.485z"/>
	</g>
</g>
</svg>
