<?xml version="1.0" encoding="utf-8"?>
<!-- Generator: Adobe Illustrator 19.0.0, SVG Export Plug-In . SVG Version: 6.00 Build 0)  -->
<svg version="1.1" id="Layer_1" xmlns="http://www.w3.org/2000/svg" xmlns:xlink="http://www.w3.org/1999/xlink" x="0px" y="0px"
	 width="200px" height="100px" viewBox="0 100 200 100" enable-background="new 0 100 200 100" xml:space="preserve">
<circle id="XMLID_6_" fill="#FFFFFF" cx="50" cy="150" r="49"/>
<circle id="XMLID_1_" fill="#0075FF" cx="150" cy="150" r="49"/>
<g>
	<path fill="#0075FF" d="M79.66,143.087c-3.375-11.151-10.491-20.321-14.526-17.607l-45.778,30.372
		c-1.027,0.66-1.467,2.861-0.587,5.649c0.807,2.788,2.421,4.402,3.595,4.402h7.923v4.108c0,2.788,2.348,4.989,5.282,4.989h13.352
		c2.934,0,5.282-2.274,5.282-4.989v-4.108h23.036C82.227,165.829,83.034,154.238,79.66,143.087z M50.609,170.01
		c0,0.734-0.734,1.321-1.614,1.321H35.569c-0.88,0-1.614-0.587-1.614-1.321v-4.108h16.726v4.108H50.609z M76.285,162.307
		c-3.888-0.073-7.189-5.942-9.904-15.113c-2.788-9.17-3.228-15.993-0.147-18.12c3.081-2.127,8.657,5.502,11.444,14.672
		C80.467,152.917,80.027,162.381,76.285,162.307z"/>
	<g>
		<path fill="#0075FF" d="M71.89,156.484c-1.2-2.6-2.5-6-3.8-10.5c-1.2-4.1-2.1-7.7-2.5-10.8c2.7-0.3,7.8,2.1,9.8,8.6
			C77.29,150.384,74.29,155.284,71.89,156.484z"/>
	</g>
</g>
<g>
	<path fill="#FFFFFF" d="M179.66,143.087c-3.375-11.151-10.491-20.321-14.526-17.607l-45.778,30.372
		c-1.027,0.66-1.467,2.861-0.587,5.649c0.807,2.788,2.421,4.402,3.595,4.402h7.923v4.108c0,2.788,2.348,4.989,5.282,4.989h13.352
		c2.934,0,5.282-2.274,5.282-4.989v-4.108h23.036C182.227,165.829,183.034,154.238,179.66,143.087z M150.609,170.01
		c0,0.734-0.734,1.321-1.614,1.321h-13.426c-0.88,0-1.614-0.587-1.614-1.321v-4.108h16.726v4.108H150.609z M176.285,162.307
		c-3.888-0.073-7.189-5.942-9.904-15.113c-2.788-9.17-3.228-15.993-0.147-18.12c3.081-2.127,8.657,5.502,11.444,14.672
		C180.467,152.917,180.027,162.381,176.285,162.307z"/>
	<g>
		<path fill="#FFFFFF" d="M171.89,156.484c-1.2-2.6-2.5-6-3.8-10.5c-1.2-4.1-2.1-7.7-2.5-10.8c2.7-0.3,7.8,2.1,9.8,8.6
			C177.29,150.384,174.29,155.284,171.89,156.484z"/>
	</g>
</g>
</svg>
