<?xml version="1.0" encoding="utf-8"?>
<!-- Generator: Adobe Illustrator 19.0.0, SVG Export Plug-In . SVG Version: 6.00 Build 0)  -->
<svg version="1.1" id="Layer_1" xmlns="http://www.w3.org/2000/svg" xmlns:xlink="http://www.w3.org/1999/xlink" x="0px" y="0px"
	 width="100px" height="100px" viewBox="0 0 100 100" enable-background="new 0 0 100 100" xml:space="preserve">
<circle id="XMLID_1_" fill="#FFFFFF" cx="50" cy="50" r="50"/>
<path fill="#009FFF" d="M33.968,36.865v0.993v7.66v6.879v8.652c0,2.908,2.27,5.248,5.106,5.461c-0.638,0.851-0.993,1.915-0.993,3.05
	c0,2.979,2.411,5.39,5.39,5.39c2.979,0,5.39-2.411,5.39-5.39c0-1.135-0.355-2.199-0.922-3.05h13.262
	c-0.567,0.851-0.922,1.915-0.922,3.05c0,2.979,2.411,5.39,5.39,5.39c2.979,0,5.39-2.411,5.39-5.39s-2.411-5.39-5.39-5.39H39.358
	c-1.702,0-3.121-1.418-3.121-3.121v-4.184c0.922,0.638,1.986,0.993,3.121,0.993h27.66c3.05,0,5.461-2.482,5.461-5.461V39.702
	l-36.241-5.035V28.78l-8.794-3.83l-0.922,2.199l7.376,3.191v6.525H33.968z M46.663,69.56c0,1.702-1.348,3.05-3.05,3.05
	c-1.702,0-3.05-1.348-3.05-3.05c0-1.702,1.348-3.05,3.05-3.05C45.245,66.51,46.663,67.858,46.663,69.56z M68.862,69.56
	c0,1.702-1.348,3.05-3.05,3.05c-1.702,0-3.05-1.348-3.05-3.05c0-1.702,1.348-3.05,3.05-3.05
	C67.514,66.51,68.862,67.858,68.862,69.56z M70.28,41.759v10.638c0,1.702-1.418,3.121-3.121,3.121H39.5
	c-1.702,0-3.121-1.418-3.121-3.121v-6.879v-7.66v-0.78L70.28,41.759z"/>
</svg>
