<?xml version="1.0" encoding="utf-8"?>
<!-- Generator: Adobe Illustrator 19.0.0, SVG Export Plug-In . SVG Version: 6.00 Build 0)  -->
<svg version="1.1" id="Layer_1" xmlns="http://www.w3.org/2000/svg" xmlns:xlink="http://www.w3.org/1999/xlink" x="0px" y="0px"
	 width="200px" height="100px" viewBox="50 100 200 100" enable-background="new 50 100 200 100" xml:space="preserve">
<circle fill="#0075FF" cx="200" cy="150" r="49"/>
<title>Send Mail</title>
<circle fill="#FFFFFF" cx="100" cy="150" r="49"/>
<g>
	<path fill="#0075FF" stroke="#0075FF" stroke-width="2" stroke-miterlimit="10" d="M122,150c-0.014,12.145-9.855,21.986-22,22
		c-5.908,0.024-11.573-2.353-15.695-6.585h7.84v-3h-12.58V175h3v-7.09c4.651,4.567,10.916,7.115,17.435,7.09
		c13.8-0.017,24.983-11.2,25-25H122z"/>
	<path fill="#0075FF" stroke="#0075FF" stroke-width="2" stroke-miterlimit="10" d="M78,150c0.014-12.145,9.855-21.986,22-22
		c5.908-0.024,11.573,2.353,15.695,6.585h-7.84v3h12.585V125h-3v7.09c-4.654-4.566-10.92-7.114-17.44-7.09
		c-13.8,0.017-24.983,11.2-25,25H78z"/>
</g>
<g>
	<path fill="#FFFFFF" stroke="#FFFFFF" stroke-width="2" stroke-miterlimit="10" d="M222,150c-0.014,12.145-9.855,21.986-22,22
		c-5.908,0.024-11.573-2.353-15.695-6.585h7.84v-3h-12.58V175h3v-7.09c4.651,4.567,10.916,7.115,17.435,7.09
		c13.8-0.017,24.983-11.2,25-25H222z"/>
	<path fill="#FFFFFF" stroke="#FFFFFF" stroke-width="2" stroke-miterlimit="10" d="M178,150c0.014-12.145,9.855-21.986,22-22
		c5.908-0.024,11.573,2.353,15.695,6.585h-7.84v3h12.585V125h-3v7.09c-4.654-4.566-10.92-7.114-17.44-7.09
		c-13.8,0.017-24.983,11.2-25,25H178z"/>
</g>
</svg>
