<?xml version="1.0" encoding="utf-8"?>
<!-- Generator: Adobe Illustrator 19.0.0, SVG Export Plug-In . SVG Version: 6.00 Build 0)  -->
<svg version="1.1" id="Layer_1" xmlns="http://www.w3.org/2000/svg" xmlns:xlink="http://www.w3.org/1999/xlink" x="0px" y="0px"
	 width="100px" height="100px" viewBox="0 -25 100 100" enable-background="new 0 -25 100 100" xml:space="preserve">
<circle fill="#FFFFFF" cx="50" cy="25" r="50"/>
<path id="XMLID_11_" d="M74.559,47.391L61.843,34.675c3.201-3.675,5.146-8.466,5.146-13.705c0-11.541-9.418-20.931-20.995-20.931
	C34.418,0.039,25,9.429,25,20.97s9.418,20.931,20.994,20.931c5.239,0,10.033-1.928,13.715-5.103L72.431,49.52
	c0.294,0.294,0.679,0.441,1.064,0.441s0.77-0.147,1.064-0.441C75.147,48.932,75.147,47.979,74.559,47.391z M28.01,20.97
	c0-9.882,8.068-17.921,17.984-17.921c9.917,0,17.985,8.039,17.985,17.921s-8.068,17.921-17.985,17.921
	C36.078,38.892,28.01,30.852,28.01,20.97z"/>
</svg>
