<?xml version="1.0" encoding="utf-8"?>
<!-- Generator: Adobe Illustrator 19.0.0, SVG Export Plug-In . SVG Version: 6.00 Build 0)  -->
<svg version="1.1" id="Layer_1" xmlns="http://www.w3.org/2000/svg" xmlns:xlink="http://www.w3.org/1999/xlink" x="0px" y="0px"
	 width="100px" height="100px" viewBox="0 0 100 100" enable-background="new 0 0 100 100" xml:space="preserve">
<circle id="XMLID_2_" fill="#FFFFFF" cx="50" cy="50" r="50"/>
<path fill="#009FFF" d="M27.313,73.688C33.854,80.229,42.378,83.5,51,83.5c8.524,0,17.146-3.271,23.688-9.812
	C81.031,67.345,84.5,58.92,84.5,50s-3.469-17.345-9.812-23.688c-13.083-13.083-34.293-13.083-47.277,0
	C14.329,39.395,14.329,60.605,27.313,73.688z M81.131,48.315H77.86v3.271h3.271c-0.396,6.839-3.072,13.38-7.632,18.435l-2.28-2.28
	l-2.379,2.379l2.28,2.28c-5.253,4.757-11.794,7.235-18.435,7.632V76.76h-3.271v3.271c-6.641-0.396-13.182-2.874-18.435-7.632
	l2.28-2.28l-2.379-2.379l-2.28,2.28c-4.757-5.253-7.235-11.794-7.632-18.435h3.271v-3.271h-3.271
	c0.396-6.641,2.874-13.182,7.632-18.435l2.28,2.28l2.379-2.379l-2.28-2.28c5.253-4.757,11.794-7.235,18.435-7.632v3.271h3.271V19.87
	c6.641,0.396,13.182,2.874,18.435,7.632l-2.28,2.28l2.379,2.379l2.28-2.28C78.058,35.034,80.734,41.476,81.131,48.315z
	 M35.142,34.142l9.713,22.102l22.102,9.713l-9.713-22.102L35.142,34.142z M47.333,53.667l-5.749-13.182l13.182,5.749l5.749,13.182
	L47.333,53.667z"/>
<g id="XMLID_6_">
	<path id="XMLID_7_" fill="#009FFF" d="M167.394,45.585l-1.872,15.119h10.225v3.96h-10.729l-1.656,13.681h-3.888l1.656-13.681
		h-14.76l-1.728,13.681h-3.888l1.656-13.681h-10.224v-3.96h10.728l1.872-15.119H134.49v-3.96h10.8l1.656-13.68h3.96l-1.728,13.68
		h14.832l1.656-13.68h3.888l-1.656,13.68h10.152v3.96H167.394z M163.506,45.585h-14.76l-1.944,15.119h14.832L163.506,45.585z"/>
</g>
</svg>
