<?xml version="1.0" encoding="utf-8"?>
<!-- Generator: Adobe Illustrator 19.0.0, SVG Export Plug-In . SVG Version: 6.00 Build 0)  -->
<svg version="1.1" id="Layer_2" xmlns="http://www.w3.org/2000/svg" xmlns:xlink="http://www.w3.org/1999/xlink" x="0px" y="0px"
	 width="100px" height="100px" viewBox="0 0 100 100" enable-background="new 0 0 100 100" xml:space="preserve">
<path id="XMLID_11_" d="M98.827,94.585L73.482,69.24c6.381-7.325,10.257-16.875,10.257-27.316c0-23.004-18.771-41.719-41.846-41.719
	C18.82,0.205,0.048,18.92,0.048,41.924c0,23.004,18.771,41.719,41.845,41.719c10.443,0,19.997-3.842,27.336-10.172l25.356,25.356
	c0.586,0.586,1.354,0.879,2.121,0.879s1.535-0.293,2.121-0.879C99.999,97.656,99.999,95.756,98.827,94.585z M6.048,41.924
	c0-19.696,16.08-35.719,35.845-35.719c19.766,0,35.846,16.023,35.846,35.719s-16.08,35.719-35.846,35.719
	C22.128,77.644,6.048,61.62,6.048,41.924z"/>
</svg>
