<?xml version="1.0" encoding="utf-8"?>
<!-- Generator: Adobe Illustrator 19.0.0, SVG Export Plug-In . SVG Version: 6.00 Build 0)  -->
<svg version="1.1" id="Layer_1" xmlns="http://www.w3.org/2000/svg" xmlns:xlink="http://www.w3.org/1999/xlink" x="0px" y="0px"
	 width="100px" height="100px" viewBox="50 100 100 100" enable-background="new 50 100 100 100" xml:space="preserve">
<g>
	<path id="XMLID_11_" fill="#0075FF" d="M144.818,191.025l-23.004-23.004c5.751-6.65,9.345-15.276,9.345-24.621
		c0-20.667-16.893-37.741-37.741-37.741S55.678,122.553,55.678,143.4s16.893,37.741,37.741,37.741
		c9.525,0,17.972-3.415,24.801-9.166l23.004,23.004c0.539,0.539,1.258,0.719,1.977,0.719c0.719,0,1.438-0.359,1.977-0.719
		C145.896,193.721,145.896,192.103,144.818,191.025z M61.07,143.579c0-17.792,14.557-32.169,32.349-32.169
		s32.349,14.377,32.349,32.169s-14.557,32.169-32.349,32.169S61.07,161.192,61.07,143.579z"/>
</g>
</svg>
