<?xml version="1.0" encoding="utf-8"?>
<!-- Generator: Adobe Illustrator 19.0.0, SVG Export Plug-In . SVG Version: 6.00 Build 0)  -->
<svg version="1.1" id="Layer_1" xmlns="http://www.w3.org/2000/svg" xmlns:xlink="http://www.w3.org/1999/xlink" x="0px" y="0px"
	 width="200px" height="100px" viewBox="-255 447 200 100" style="enable-background:new -255 447 200 100;" xml:space="preserve">
<style type="text/css">
	.st0{fill:#FFFFFF;}
	.st1{fill:#0075FF;}
</style>
<circle class="st0" cx="-205" cy="497" r="50"/>
<g>
	<path id="XMLID_11_" class="st1" d="M-177.4,521.4l-12.8-12.8c3.2-3.7,5.2-8.5,5.2-13.7c0-11.5-9.4-21-21-21c-11.6,0-21,9.4-21,21
		s9.4,21,21,21c5.3,0,10-1.9,13.8-5.1l12.8,12.8c0.3,0.3,0.7,0.4,1.1,0.4c0.4,0,0.8-0.2,1.1-0.4C-176.8,522.9-176.8,522-177.4,521.4
		z M-224,495c0-9.9,8.1-17.9,18-17.9c9.9,0,18,8,18,17.9s-8.1,17.9-18,17.9S-224,504.8-224,495z"/>
</g>
<circle class="st1" cx="-105" cy="497" r="50"/>
<g>
	<path id="XMLID_1_" class="st0" d="M-77.4,521.4l-12.8-12.8C-87,505-85,500.1-85,495c0-11.5-9.4-21-21-21s-21,9.4-21,21
		c0,11.5,9.4,21,21,21c5.3,0,10-1.9,13.8-5.1l12.8,12.8c0.3,0.3,0.7,0.4,1.1,0.4c0.4,0,0.8-0.2,1.1-0.4
		C-76.8,522.9-76.8,522-77.4,521.4z M-124,495c0-9.9,8.1-17.9,18-17.9s18,8,18,17.9c0,9.9-8.1,17.9-18,17.9S-124,504.8-124,495z"/>
</g>
</svg>
