<?xml version="1.0" encoding="utf-8"?>
<!-- Generator: Adobe Illustrator 19.0.0, SVG Export Plug-In . SVG Version: 6.00 Build 0)  -->
<svg version="1.1" id="Layer_1" xmlns="http://www.w3.org/2000/svg" xmlns:xlink="http://www.w3.org/1999/xlink" x="0px" y="0px"
	 width="100px" height="100px" viewBox="0 0 100 100" enable-background="new 0 0 100 100" xml:space="preserve">
<path id="XMLID_1_" d="M11.192,48.421c-1.192,0-2.086,0.894-2.086,2.086c0,1.192,0.894,2.086,2.086,2.086
	c1.043,0,2.086-0.894,2.086-2.086C13.129,49.315,12.235,48.421,11.192,48.421z"/>
<path id="XMLID_3_" d="M1.49,49.017c-0.894,0-1.49,0.745-1.49,1.49c0,0.894,0.596,1.49,1.49,1.49s1.49-0.745,1.49-1.49
	S2.384,49.017,1.49,49.017z"/>
<path id="XMLID_4_" d="M20.894,47.974c-1.341,0-2.533,1.192-2.533,2.533c0,1.49,1.043,2.533,2.533,2.533
	c1.49,0,2.533-1.192,2.533-2.533C23.278,49.166,22.235,47.974,20.894,47.974z"/>
<path id="XMLID_8_" d="M40.298,45.963c-2.533,0-4.469,2.086-4.469,4.469c0,2.533,1.937,4.618,4.469,4.618s4.469-2.086,4.469-4.469
	C44.767,47.899,42.831,45.963,40.298,45.963z"/>
<path id="XMLID_2_" d="M50.074,45.292c-2.831,0-5.065,2.384-5.065,5.214s2.235,5.214,4.916,5.214c2.831,0,5.065-2.384,5.065-5.214
	C54.991,47.527,52.756,45.292,50.074,45.292z"/>
<path id="XMLID_6_" d="M30.596,46.931c-1.937,0-3.575,1.639-3.575,3.575c0,1.937,1.639,3.575,3.575,3.575
	c1.937,0,3.575-1.639,3.575-3.575C34.022,48.57,32.533,46.931,30.596,46.931z"/>
<path id="XMLID_12_" d="M88.808,52.592c1.192,0,2.086-0.894,2.086-2.086c0-1.192-0.894-2.086-2.086-2.086
	c-1.043,0-2.086,0.894-2.086,2.086C86.871,51.698,87.765,52.592,88.808,52.592z"/>
<path id="XMLID_11_" d="M98.51,51.996c0.894,0,1.49-0.745,1.49-1.49c0-0.894-0.596-1.49-1.49-1.49c-0.894,0-1.49,0.745-1.49,1.49
	S97.616,51.996,98.51,51.996z"/>
<path id="XMLID_10_" d="M79.106,53.039c1.341,0,2.533-1.192,2.533-2.533c0-1.49-1.043-2.533-2.533-2.533
	c-1.49,0-2.533,1.192-2.533,2.533C76.722,51.847,77.765,53.039,79.106,53.039z"/>
<path id="XMLID_9_" d="M59.702,55.05c2.533,0,4.469-2.086,4.469-4.469c0-2.533-1.937-4.618-4.469-4.618s-4.469,2.086-4.469,4.469
	C55.233,53.113,57.169,55.05,59.702,55.05z"/>
<path id="XMLID_5_" d="M69.404,54.082c1.937,0,3.575-1.639,3.575-3.575c0-1.937-1.639-3.575-3.575-3.575
	c-1.937,0-3.575,1.639-3.575,3.575C65.978,52.443,67.467,54.082,69.404,54.082z"/>
</svg>
