<?xml version="1.0" encoding="utf-8"?>
<!-- Generator: Adobe Illustrator 19.0.0, SVG Export Plug-In . SVG Version: 6.00 Build 0)  -->
<svg version="1.1" id="Layer_1" xmlns="http://www.w3.org/2000/svg" xmlns:xlink="http://www.w3.org/1999/xlink" x="0px" y="0px"
	 width="100px" height="100px" viewBox="0 0 100 100" enable-background="new 0 0 100 100" xml:space="preserve">
<g>
	<path fill="none" stroke="#009FFF" stroke-width="4" stroke-miterlimit="10" d="M26.852,55.556h5.494
		c0.325,1.032,0.741,2.033,1.245,2.997l-3.886,3.887c-0.723,0.723-0.723,1.895,0,2.619l5.237,5.238c0.723,0.723,1.895,0.723,2.619,0
		l3.887-3.886c0.963,0.504,1.965,0.92,2.997,1.245v5.493c0,1.022,0.83,1.852,1.852,1.852h7.407c1.022,0,1.852-0.83,1.852-1.852
		v-5.493c1.032-0.325,2.034-0.742,2.997-1.245l3.887,3.886c0.723,0.722,1.895,0.723,2.619,0l5.237-5.238
		c0.723-0.723,0.723-1.895,0-2.619l-3.886-3.887c0.505-0.964,0.92-1.966,1.245-2.997h5.494c1.022,0,1.852-0.83,1.852-1.852v-7.407
		c0-1.022-0.83-1.852-1.852-1.852h-5.494c-0.325-1.032-0.741-2.033-1.245-2.997l3.886-3.887c0.723-0.723,0.723-1.895,0-2.619
		l-5.237-5.238c-0.723-0.723-1.895-0.723-2.619,0l-3.887,3.886c-0.963-0.504-1.965-0.92-2.997-1.245v-5.493
		c0-1.022-0.83-1.852-1.852-1.852h-7.407c-1.022,0-1.852,0.83-1.852,1.852v5.493c-1.032,0.325-2.034,0.742-2.997,1.245l-3.887-3.886
		c-0.723-0.722-1.895-0.723-2.619,0l-5.237,5.238c-0.723,0.723-0.723,1.895,0,2.619l3.886,3.887
		c-0.505,0.964-0.92,1.966-1.245,2.997h-5.494c-1.022,0-1.852,0.83-1.852,1.852v7.407C25,54.726,25.83,55.556,26.852,55.556z
		 M50,37.963c6.637,0,12.037,5.4,12.037,12.037S56.637,62.037,50,62.037S37.963,56.637,37.963,50S43.363,37.963,50,37.963z"/>
</g>
</svg>
