<?xml version="1.0" encoding="utf-8"?>
<!-- Generator: Adobe Illustrator 19.0.0, SVG Export Plug-In . SVG Version: 6.00 Build 0)  -->
<svg version="1.1" id="Layer_1" xmlns="http://www.w3.org/2000/svg" xmlns:xlink="http://www.w3.org/1999/xlink" x="0px" y="0px"
	 width="200px" height="100px" viewBox="50 0 200 100" enable-background="new 50 0 200 100" xml:space="preserve">
<circle fill="#0075FF" cx="200" cy="50" r="49"/>
<title>Send Mail</title>
<circle fill="#FFFFFF" cx="100" cy="50" r="49"/>
<path fill="none" stroke="#0075FF" stroke-width="4" stroke-miterlimit="10" d="M123.483,45.498l-4.626-1.535
	c-0.329-1.043-0.745-2.056-1.245-3.029l2.178-4.356c0.394-0.797,0.235-1.757-0.394-2.386l-3.589-3.589
	c-0.629-0.629-1.588-0.788-2.386-0.394l-4.356,2.074c-0.973-0.5-1.986-0.916-3.029-1.245l-1.535-4.626
	c-0.297-0.882-1.145-1.459-2.074-1.411h-4.958c-0.892-0.002-1.685,0.566-1.971,1.411l-1.535,4.626
	c-1.043,0.329-2.056,0.745-3.029,1.245l-4.356-2.074c-0.797-0.394-1.757-0.235-2.386,0.394l-3.589,3.589
	c-0.629,0.629-0.788,1.588-0.394,2.386l2.074,4.356c-0.5,0.973-0.916,1.986-1.245,3.029l-4.626,1.535
	c-0.845,0.285-1.413,1.079-1.411,1.971v5.062c-0.049,0.93,0.528,1.778,1.411,2.074l4.626,1.535c0.329,1.043,0.745,2.056,1.245,3.029
	l-2.074,4.356c-0.394,0.797-0.235,1.757,0.394,2.386l3.589,3.589c0.629,0.629,1.588,0.788,2.386,0.394l4.356-2.178
	c0.973,0.5,1.986,0.916,3.029,1.245l1.535,4.626c0.285,0.845,1.079,1.413,1.971,1.411h5.062c0.93,0.049,1.778-0.528,2.074-1.411
	l1.535-4.626c1.043-0.329,2.056-0.745,3.029-1.245l4.356,2.178c0.797,0.394,1.757,0.235,2.386-0.394l3.589-3.589
	c0.629-0.629,0.788-1.588,0.394-2.386l-2.178-4.356c0.5-0.973,0.916-1.986,1.245-3.029l4.626-1.535
	c0.882-0.297,1.459-1.145,1.411-2.074v-5.062C124.985,46.549,124.369,45.747,123.483,45.498z M100,60.372
	c-5.728,0-10.372-4.644-10.372-10.372S94.272,39.628,100,39.628c5.728,0,10.372,4.644,10.372,10.372S105.728,60.372,100,60.372z"/>
<path fill="none" stroke="#FFFFFF" stroke-width="4" stroke-miterlimit="10" d="M223.483,45.498l-4.626-1.535
	c-0.329-1.043-0.745-2.056-1.245-3.029l2.178-4.356c0.394-0.797,0.235-1.757-0.394-2.386l-3.589-3.589
	c-0.629-0.629-1.588-0.788-2.386-0.394l-4.356,2.074c-0.973-0.5-1.986-0.916-3.029-1.245l-1.535-4.626
	c-0.297-0.882-1.145-1.459-2.074-1.411h-4.958c-0.892-0.002-1.685,0.566-1.971,1.411l-1.535,4.626
	c-1.043,0.329-2.056,0.745-3.029,1.245l-4.356-2.074c-0.797-0.394-1.757-0.235-2.386,0.394l-3.589,3.589
	c-0.629,0.629-0.788,1.588-0.394,2.386l2.074,4.356c-0.5,0.973-0.916,1.986-1.245,3.029l-4.626,1.535
	c-0.845,0.285-1.413,1.079-1.411,1.971v5.062c-0.049,0.93,0.528,1.778,1.411,2.074l4.626,1.535c0.329,1.043,0.745,2.056,1.245,3.029
	l-2.074,4.356c-0.394,0.797-0.235,1.757,0.394,2.386l3.589,3.589c0.629,0.629,1.588,0.788,2.386,0.394l4.356-2.178
	c0.973,0.5,1.986,0.916,3.029,1.245l1.535,4.626c0.285,0.845,1.079,1.413,1.971,1.411h5.062c0.93,0.049,1.778-0.528,2.074-1.411
	l1.535-4.626c1.043-0.329,2.056-0.745,3.029-1.245l4.356,2.178c0.797,0.394,1.757,0.235,2.386-0.394l3.589-3.589
	c0.629-0.629,0.788-1.588,0.394-2.386l-2.178-4.356c0.5-0.973,0.916-1.986,1.245-3.029l4.626-1.535
	c0.882-0.297,1.459-1.145,1.411-2.074v-5.062C224.985,46.549,224.369,45.747,223.483,45.498z M200,60.372
	c-5.728,0-10.372-4.644-10.372-10.372S194.272,39.628,200,39.628S210.372,44.272,210.372,50S205.728,60.372,200,60.372z"/>
</svg>
