<?xml version="1.0" encoding="utf-8"?>
<!-- Generator: Adobe Illustrator 19.0.0, SVG Export Plug-In . SVG Version: 6.00 Build 0)  -->
<svg version="1.1" id="Layer_1" xmlns="http://www.w3.org/2000/svg" xmlns:xlink="http://www.w3.org/1999/xlink" x="0px" y="0px"
	 width="200px" height="100px" viewBox="50 0 200 100" enable-background="new 50 0 200 100" xml:space="preserve">
<title>Send Mail</title>
<circle fill="#0075FF" cx="199" cy="49" r="49"/>
<circle fill="#FFFFFF" cx="99" cy="49" r="49"/>
<g>
	<path fill="#0075FF" d="M126.51,45.589c-5.128-4.269-15.92-11.972-28.963-12.014c-13.043,0.042-23.835,7.745-28.963,12.013
		c-1.365,1.142-2.06,2.794-2.055,4.411c-0.004,1.617,0.691,3.269,2.056,4.412c5.127,4.269,15.919,11.972,28.962,12.014
		c13.043-0.042,23.835-7.745,28.963-12.013c1.365-1.142,2.059-2.795,2.055-4.411C128.569,48.383,127.874,46.731,126.51,45.589z
		 M97.547,58.929c-5.205-0.009-9.416-4.22-9.425-9.425c0.009-5.204,4.22-9.415,9.425-9.425c5.205,0.01,9.416,4.221,9.425,9.425
		C106.963,54.708,102.752,58.919,97.547,58.929z M70.879,50l0.501-1.078c3.369-2.848,9.502-7.174,16.783-9.454
		c-2.687,2.514-4.391,6.064-4.392,10.035c0.001,4.888,2.562,9.155,6.399,11.6c-8.163-2.039-15.115-6.918-18.791-10.025L70.879,50z
		 M104.923,61.103c3.837-2.445,6.399-6.712,6.399-11.6c-0.001-3.971-1.705-7.521-4.392-10.035
		c7.281,2.279,13.415,6.606,16.783,9.453L124.215,50l-0.501,1.078C120.039,54.185,113.087,59.064,104.923,61.103z"/>
	<circle fill="#0075FF" cx="97.547" cy="49.503" r="6.013"/>
</g>
<g>
	
		<line fill="none" stroke="#FFFFFF" stroke-width="4" stroke-linecap="round" stroke-miterlimit="10" x1="183.581" y1="64.139" x2="216.35" y2="30.46"/>
	<path fill="none" d="M213.987,47.217c0,4.888-2.562,9.155-6.399,11.6c8.164-2.039,15.116-6.918,18.791-10.025l0.501-1.078
		l-0.502-1.079c-2.799-2.366-7.513-5.751-13.204-8.137l-1.365,1.365C213.174,41.99,213.986,44.5,213.987,47.217z"/>
	<path fill="none" d="M194.199,47.217c0-3.321,2.692-6.013,6.013-6.013c0.54,0,1.062,0.078,1.56,0.212l2.627-2.627
		c-1.262-0.629-2.68-0.993-4.187-0.996c-5.205,0.01-9.416,4.221-9.425,9.425c0.003,1.507,0.366,2.925,0.995,4.187l2.628-2.628
		C194.277,48.279,194.199,47.758,194.199,47.217z"/>
	<path fill="none" d="M206.225,47.217c0,3.321-2.692,6.013-6.013,6.013c-0.54,0-1.06-0.078-1.558-0.211l-2.629,2.629
		c1.262,0.629,2.68,0.993,4.187,0.995c5.205-0.01,9.416-4.221,9.425-9.425c-0.003-1.507-0.366-2.925-0.995-4.187l-2.628,2.628
		C206.147,46.157,206.225,46.678,206.225,47.217z"/>
	<path fill="none" d="M190.828,37.182c-7.281,2.28-13.414,6.606-16.783,9.454l-0.501,1.078l0.5,1.078
		c2.686,2.27,7.126,5.483,12.505,7.846l2.047-2.047c-1.365-2.128-2.16-4.655-2.16-7.374
		C186.437,43.246,188.141,39.696,190.828,37.182z"/>
	<path fill="#FCFCFC" d="M174.044,48.792l-0.5-1.078l0.501-1.078c3.369-2.848,9.502-7.174,16.783-9.454
		c-2.687,2.514-4.391,6.064-4.392,10.035c0.001,2.72,0.796,5.246,2.16,7.374l3.186-3.186c-0.629-1.262-0.993-2.68-0.995-4.187
		c0.009-5.204,4.22-9.415,9.425-9.425c1.507,0.003,2.924,0.367,4.187,0.996l5.954-5.954c-3.167-0.934-6.565-1.534-10.14-1.546
		c-13.043,0.042-23.835,7.745-28.963,12.013c-1.365,1.142-2.06,2.794-2.055,4.411c-0.004,1.617,0.691,3.269,2.056,4.412
		c2.644,2.202,6.804,5.312,11.994,7.818l3.305-3.305C181.17,54.276,176.73,51.063,174.044,48.792z"/>
	<path fill="#FCFCFC" d="M229.175,43.303c-2.758-2.296-7.166-5.579-12.67-8.135l-3.331,3.331c5.691,2.385,10.404,5.77,13.204,8.137
		l0.502,1.079l-0.501,1.078c-3.675,3.107-10.627,7.986-18.791,10.025c3.837-2.445,6.399-6.712,6.399-11.6
		c-0.001-2.717-0.813-5.228-2.178-7.354l-3.168,3.168c0.629,1.262,0.993,2.68,0.995,4.187c-0.009,5.204-4.22,9.415-9.425,9.425
		c-1.507-0.003-2.925-0.366-4.187-0.995l-6.715,6.715c3.38,1.069,7.039,1.763,10.903,1.776c13.043-0.042,23.835-7.745,28.963-12.013
		c1.365-1.142,2.059-2.795,2.055-4.411C231.234,46.097,230.539,44.445,229.175,43.303z"/>
	<g>
		<path fill="#FFFFFF" d="M194.199,47.217c0,0.54,0.078,1.062,0.212,1.56l7.361-7.361c-0.498-0.134-1.019-0.212-1.56-0.212
			C196.891,41.204,194.199,43.897,194.199,47.217z"/>
		<path fill="#FFFFFF" d="M200.212,53.23c3.321,0,6.013-2.692,6.013-6.013c0-0.54-0.078-1.06-0.211-1.558l-7.36,7.36
			C199.151,53.153,199.672,53.23,200.212,53.23z"/>
	</g>
</g>
</svg>
