<?xml version="1.0" encoding="utf-8"?>
<!-- Generator: Adobe Illustrator 19.0.0, SVG Export Plug-In . SVG Version: 6.00 Build 0)  -->
<svg version="1.1" id="Layer_1" xmlns="http://www.w3.org/2000/svg" xmlns:xlink="http://www.w3.org/1999/xlink" x="0px" y="0px"
	 width="100px" height="100px" viewBox="0 100 100 100" enable-background="new 0 100 100 100" xml:space="preserve">
<g>
	<path fill="#0075FF" d="M82.042,180.76H7.279C6.021,180.76,5,179.74,5,178.481c0-0.605,0.239-1.184,0.668-1.611l13.574-13.574
		v-31.099c0.007-7.153,5.805-12.951,12.958-12.958h49.842c7.153,0.007,12.951,5.805,12.958,12.958v35.6
		C94.993,174.955,89.195,180.751,82.042,180.76z M12.78,176.203h69.262c4.639-0.005,8.397-3.764,8.402-8.402v-35.6
		c-0.005-4.639-3.764-8.397-8.402-8.402H32.2c-4.639,0.005-8.397,3.764-8.402,8.402v32.042c0,0.605-0.239,1.184-0.668,1.611
		L12.78,176.203z M21.519,164.24L21.519,164.24z"/>
	<path fill="#0075FF" d="M78.481,138.037H35.76c-1.258,0-2.279-1.021-2.279-2.279s1.021-2.279,2.279-2.279h42.721
		c1.258,0,2.279,1.021,2.279,2.279C80.76,137.018,79.74,138.037,78.481,138.037z"/>
	<path fill="#0075FF" d="M78.481,152.279H35.76c-1.258,0-2.279-1.021-2.279-2.279s1.021-2.279,2.279-2.279h42.721
		c1.258,0,2.279,1.021,2.279,2.279S79.74,152.279,78.481,152.279z"/>
	<path fill="#0075FF" d="M78.481,166.519H35.76c-1.258,0-2.279-1.021-2.279-2.279s1.021-2.279,2.279-2.279h42.721
		c1.258,0,2.279,1.021,2.279,2.279S79.74,166.519,78.481,166.519z"/>
</g>
</svg>
