<?xml version="1.0" encoding="utf-8"?>
<!-- Generator: Adobe Illustrator 19.0.0, SVG Export Plug-In . SVG Version: 6.00 Build 0)  -->
<svg version="1.1" id="Layer_1" xmlns="http://www.w3.org/2000/svg" xmlns:xlink="http://www.w3.org/1999/xlink" x="0px" y="0px"
	 width="200px" height="100px" viewBox="-255 459 200 100" enable-background="new -255 459 200 100" xml:space="preserve">
<circle fill="#FFFFFF" cx="-205" cy="509" r="50"/>
<title>phone icons - cleanup</title>
<g>
	<path fill="#0075FF" d="M-191.199,526.089h-41.535c-0.699,0-1.266-0.567-1.266-1.266c0-0.336,0.133-0.658,0.371-0.895l7.541-7.541
		v-17.277c0.004-3.974,3.225-7.195,7.199-7.199h27.69c3.974,0.004,7.195,3.225,7.199,7.199v19.778
		C-184.004,522.864-187.225,526.084-191.199,526.089z M-229.678,523.557h38.479c2.577-0.003,4.665-2.091,4.668-4.668v-19.778
		c-0.003-2.577-2.091-4.665-4.668-4.668h-27.69c-2.577,0.003-4.665,2.091-4.668,4.668v17.801c0,0.336-0.133,0.658-0.371,0.895
		L-229.678,523.557z M-224.823,516.911L-224.823,516.911z"/>
	<path fill="#0075FF" d="M-193.177,502.354h-23.734c-0.699,0-1.266-0.567-1.266-1.266c0-0.699,0.567-1.266,1.266-1.266h23.734
		c0.699,0,1.266,0.567,1.266,1.266C-191.911,501.788-192.478,502.354-193.177,502.354z"/>
	<path fill="#0075FF" d="M-193.177,510.266h-23.734c-0.699,0-1.266-0.567-1.266-1.266s0.567-1.266,1.266-1.266h23.734
		c0.699,0,1.266,0.567,1.266,1.266S-192.478,510.266-193.177,510.266z"/>
	<path fill="#0075FF" d="M-193.177,518.177h-23.734c-0.699,0-1.266-0.567-1.266-1.266s0.567-1.266,1.266-1.266h23.734
		c0.699,0,1.266,0.567,1.266,1.266S-192.478,518.177-193.177,518.177z"/>
</g>
<circle fill="#0075FF" cx="-105" cy="509" r="50"/>
<g>
	<path fill="#FFFFFF" d="M-90.199,524.823h-41.535c-0.699,0-1.266-0.567-1.266-1.266c0-0.336,0.133-0.658,0.371-0.895l7.541-7.541
		v-17.277c0.004-3.974,3.225-7.195,7.199-7.199h27.69c3.974,0.004,7.195,3.225,7.199,7.199v19.778
		C-83.004,521.598-86.225,524.818-90.199,524.823z M-128.678,522.291h38.479c2.577-0.003,4.665-2.091,4.668-4.668v-19.778
		c-0.003-2.577-2.091-4.665-4.668-4.668h-27.69c-2.577,0.003-4.665,2.091-4.668,4.668v17.801c0,0.336-0.133,0.658-0.371,0.895
		L-128.678,522.291z M-123.823,515.646L-123.823,515.646z"/>
	<path fill="#FFFFFF" d="M-92.177,501.089h-23.734c-0.699,0-1.266-0.567-1.266-1.266s0.567-1.266,1.266-1.266h23.734
		c0.699,0,1.266,0.567,1.266,1.266S-91.478,501.089-92.177,501.089z"/>
	<path fill="#FFFFFF" d="M-92.177,509h-23.734c-0.699,0-1.266-0.567-1.266-1.266s0.567-1.266,1.266-1.266h23.734
		c0.699,0,1.266,0.567,1.266,1.266S-91.478,509-92.177,509z"/>
	<path fill="#FFFFFF" d="M-92.177,516.911h-23.734c-0.699,0-1.266-0.567-1.266-1.266s0.567-1.266,1.266-1.266h23.734
		c0.699,0,1.266,0.567,1.266,1.266S-91.478,516.911-92.177,516.911z"/>
</g>
</svg>
