<?xml version="1.0" encoding="utf-8"?>
<!-- Generator: Adobe Illustrator 19.0.0, SVG Export Plug-In . SVG Version: 6.00 Build 0)  -->
<svg version="1.1" id="Layer_1" xmlns="http://www.w3.org/2000/svg" xmlns:xlink="http://www.w3.org/1999/xlink" x="0px" y="0px"
	 width="200px" height="100px" viewBox="0 100 200 100" enable-background="new 0 100 200 100" xml:space="preserve">
<circle id="XMLID_6_" fill="#FFFFFF" cx="50" cy="150" r="49"/>
<circle id="XMLID_1_" fill="#0075FF" cx="150" cy="150" r="49"/>
<g>
	<path fill="#0075FF" d="M72.22,143.605c-1.615,0-2.845,1.307-2.845,2.845c0,0.538,0.154,1.076,0.461,1.538l-6.919,4.459v-9.841
		c1.845,0,3.383-1.461,3.383-3.383s-1.461-3.383-3.383-3.383c-1.845,0-3.383,1.461-3.383,3.383c0,0.923,0.384,1.768,0.999,2.383
		l-6.227,6.227l-5.228-15.376c1.538-0.538,2.614-1.922,2.614-3.613c0-2.153-1.691-3.844-3.844-3.844s-3.844,1.691-3.844,3.844
		c0,1.691,1.076,3.075,2.614,3.613l-5.228,15.376l-6.227-6.227c0.615-0.615,0.999-1.461,0.999-2.383
		c0-1.845-1.461-3.383-3.383-3.383c-1.845,0-3.383,1.461-3.383,3.383s1.461,3.383,3.383,3.383v9.918l-6.919-4.459
		c0.308-0.461,0.461-0.999,0.461-1.538c0-1.615-1.307-2.845-2.845-2.845c-1.615,0-2.845,1.307-2.845,2.845
		c0,1.615,1.307,2.845,2.845,2.845c0.308,0,0.615-0.077,0.923-0.154l6.304,18.144c0,0,7.304-3.152,17.068-3.152
		s17.068,3.152,17.068,3.152l6.304-18.144c0.308,0.077,0.615,0.154,0.923,0.154c1.615,0,2.845-1.307,2.845-2.845
		C75.065,144.912,73.758,143.605,72.22,143.605z"/>
	<path fill="#0075FF" d="M64.595,170.694c-3.47-2.447-9.541-4.07-16.456-4.07c-7.094,0-13.304,1.707-16.724,4.26
		c0.122,0.856,0.19,1.798,0.19,2.789c0,0.454-0.015,0.897-0.043,1.327c3.446-2.498,9.575-4.163,16.577-4.163
		c6.795,0,12.771,1.569,16.268,3.944c-0.019-0.362-0.032-0.73-0.032-1.108C64.375,172.607,64.455,171.6,64.595,170.694z"/>
</g>
<g>
	<path fill="#FFFFFF" d="M174.443,143.605c-1.615,0-2.845,1.307-2.845,2.845c0,0.538,0.154,1.076,0.461,1.538l-6.919,4.459v-9.841
		c1.845,0,3.383-1.461,3.383-3.383s-1.461-3.383-3.383-3.383c-1.845,0-3.383,1.461-3.383,3.383c0,0.923,0.384,1.768,0.999,2.383
		l-6.227,6.227l-5.228-15.376c1.538-0.538,2.614-1.922,2.614-3.613c0-2.153-1.691-3.844-3.844-3.844s-3.844,1.691-3.844,3.844
		c0,1.691,1.076,3.075,2.614,3.613l-5.228,15.376l-6.227-6.227c0.615-0.615,0.999-1.461,0.999-2.383
		c0-1.845-1.461-3.383-3.383-3.383c-1.845,0-3.383,1.461-3.383,3.383s1.461,3.383,3.383,3.383v9.918l-6.919-4.459
		c0.308-0.461,0.461-0.999,0.461-1.538c0-1.615-1.307-2.845-2.845-2.845c-1.615,0-2.845,1.307-2.845,2.845
		c0,1.615,1.307,2.845,2.845,2.845c0.308,0,0.615-0.077,0.923-0.154l6.304,18.144c0,0,7.304-3.152,17.068-3.152
		c9.764,0,17.068,3.152,17.068,3.152l6.304-18.144c0.308,0.077,0.615,0.154,0.923,0.154c1.615,0,2.845-1.307,2.845-2.845
		C177.288,144.912,175.981,143.605,174.443,143.605z"/>
	<path fill="#FFFFFF" d="M166.818,170.694c-3.47-2.447-9.541-4.07-16.456-4.07c-7.094,0-13.304,1.707-16.724,4.26
		c0.122,0.856,0.19,1.798,0.19,2.789c0,0.454-0.015,0.897-0.043,1.327c3.446-2.498,9.575-4.163,16.577-4.163
		c6.795,0,12.771,1.569,16.268,3.944c-0.019-0.362-0.032-0.73-0.032-1.108C166.598,172.607,166.678,171.6,166.818,170.694z"/>
</g>
</svg>
