<?xml version="1.0" encoding="utf-8"?>
<!-- Generator: Adobe Illustrator 19.0.0, SVG Export Plug-In . SVG Version: 6.00 Build 0)  -->
<svg version="1.1" id="Layer_1" xmlns="http://www.w3.org/2000/svg" xmlns:xlink="http://www.w3.org/1999/xlink" x="0px" y="0px"
	 width="100px" height="100px" viewBox="-4 206 100 100" enable-background="new -4 206 100 100" xml:space="preserve">
<g>
	<path fill="#0075FF" d="M70.442,249.605c-1.615,0-2.845,1.307-2.845,2.845c0,0.538,0.154,1.076,0.461,1.538l-6.919,4.459v-9.841
		c1.845,0,3.383-1.461,3.383-3.383s-1.461-3.383-3.383-3.383c-1.845,0-3.383,1.461-3.383,3.383c0,0.923,0.384,1.768,0.999,2.383
		l-6.227,6.227l-5.228-15.376c1.538-0.538,2.614-1.922,2.614-3.613c0-2.153-1.691-3.844-3.844-3.844s-3.844,1.691-3.844,3.844
		c0,1.691,1.076,3.075,2.614,3.613l-5.228,15.376l-6.227-6.227c0.615-0.615,0.999-1.461,0.999-2.383
		c0-1.845-1.461-3.383-3.383-3.383c-1.845,0-3.383,1.461-3.383,3.383s1.461,3.383,3.383,3.383v9.918l-6.919-4.459
		c0.308-0.461,0.461-0.999,0.461-1.538c0-1.615-1.307-2.845-2.845-2.845c-1.615,0-2.845,1.307-2.845,2.845
		c0,1.615,1.307,2.845,2.845,2.845c0.308,0,0.615-0.077,0.923-0.154l6.304,18.144c0,0,7.304-3.152,17.068-3.152
		s17.068,3.152,17.068,3.152l6.304-18.144c0.308,0.077,0.615,0.154,0.923,0.154c1.615,0,2.845-1.307,2.845-2.845
		C73.287,250.912,71.98,249.605,70.442,249.605z"/>
	<path fill="#0075FF" d="M62.817,276.694c-3.47-2.447-9.541-4.07-16.456-4.07c-7.094,0-13.304,1.707-16.724,4.26
		c0.122,0.856,0.19,1.798,0.19,2.789c0,0.454-0.015,0.897-0.043,1.327c3.446-2.498,9.575-4.163,16.577-4.163
		c6.795,0,12.771,1.569,16.268,3.944c-0.019-0.362-0.032-0.73-0.032-1.108C62.597,278.607,62.677,277.6,62.817,276.694z"/>
</g>
</svg>
