<?xml version="1.0" encoding="utf-8"?>
<!-- Generator: Adobe Illustrator 19.0.0, SVG Export Plug-In . SVG Version: 6.00 Build 0)  -->
<svg version="1.1" id="Layer_1" xmlns="http://www.w3.org/2000/svg" xmlns:xlink="http://www.w3.org/1999/xlink" x="0px" y="0px"
	 width="100px" height="100px" viewBox="0 0 100 100" enable-background="new 0 0 100 100" xml:space="preserve">
<g id="XMLID_1_">
	<path id="XMLID_10_" fill="#D667B0" d="M25,10h38.273L83,30.281V82c0,4.418-3.582,8-8,8H25c-4.418,0-8-3.582-8-8V18
		C17,13.582,20.582,10,25,10z"/>
	<path id="XMLID_9_" fill="#D667B0" d="M63.273,10l19.453,20H71c-4.418,0-8-3.582-8-8V10H63.273z"/>
	<path fill="#FFFFFF" fill-opacity="0.75" d="M39,60v-2h22v2H39z M39,54h22v2H39V54z M50,50h11v2H50V50z M50,46h11v2H50V46z M50,42
		h11v2H50V42z M39,42h9v10h-9V42z M41,50h5v-6h-5V50z"/>
</g>
</svg>
