<?xml version="1.0" encoding="utf-8"?>
<!-- Generator: Adobe Illustrator 19.0.0, SVG Export Plug-In . SVG Version: 6.00 Build 0)  -->
<svg version="1.1" id="Layer_1" xmlns="http://www.w3.org/2000/svg" xmlns:xlink="http://www.w3.org/1999/xlink" x="0px" y="0px"
	 width="100px" height="100px" viewBox="0 0 100 100" enable-background="new 0 0 100 100" xml:space="preserve">
<circle class="back_circle" fill="#FFFFFF" cx="50" cy="50" r="50"/>
<g class="symb_g"  >
	<path id="XMLID_3_" fill="#009FFF" d="M74,64.5H25.9c-0.5,0-0.9,0.8-0.9,2s0.4,2,0.9,2H74c0.5,0,0.9-0.8,0.9-2
		C74.9,65.4,74.6,64.5,74,64.5z"/>
	<g id="XMLID_8_">
		<path id="XMLID_4_" fill="#009FFF" d="M27.8,61.9c0.2,0,0.4-0.1,0.6-0.2l7.2-5.8c0.4,0.2,0.9,0.4,1.4,0.4c0.9,0,1.6-0.4,2.2-1.1
			l6.1,2c0.1,1.5,1.2,2.7,2.7,2.7s2.8-1.2,2.8-2.8c0-0.1,0-0.2-0.1-0.3l6.4-3.2c0.5,0.5,1.2,0.8,1.9,0.8c1.5,0,2.8-1.2,2.8-2.8
			c0-0.6-0.2-1.2-0.5-1.6l8.2-12.3c0.2,0.1,0.4,0.1,0.7,0.1c1.5,0,2.8-1.2,2.8-2.8c0-1.5-1.2-2.8-2.8-2.8c-1.5,0-2.8,1.2-2.8,2.8
			c0,0.6,0.2,1.2,0.5,1.6l-8,12.4c-0.2-0.1-0.4-0.1-0.7-0.1c-1.5,0-2.8,1.2-2.8,2.8c0,0.1,0,0.2,0.1,0.3L50,55.2
			c-0.5-0.5-1.2-0.8-1.9-0.8c-0.9,0-1.6,0.4-2.2,1.1l-6.1-2c-0.1-1.5-1.2-2.7-2.7-2.7s-2.8,1.2-2.8,2.8c0,0.3,0.1,0.6,0.1,0.9
			l-7.2,5.8c-0.4,0.3-0.4,0.9-0.1,1.3C27.2,61.7,27.5,61.9,27.8,61.9z"/>
		<path id="XMLID_5_" fill="#009FFF" d="M27.8,62.6c-0.5,0-0.9-0.2-1.2-0.6l-0.1-0.1c-0.5-0.7-0.4-1.8,0.3-2.3l6.8-5.5
			c0-0.2-0.1-0.4-0.1-0.6c0-1.9,1.6-3.5,3.5-3.5c1.7,0,3.1,1.3,3.4,2.9l5.3,1.8c0.7-0.6,1.5-1,2.4-1c0.7,0,1.4,0.2,2,0.7l5.6-2.8
			c0-1.9,1.6-3.4,3.5-3.4c0.1,0,0.2,0,0.4,0l7.7-11.6c-0.3-0.5-0.4-1.1-0.4-1.6c0-1.9,1.6-3.5,3.5-3.5s3.5,1.6,3.5,3.5
			s-1.6,3.5-3.5,3.5c-0.1,0-0.2,0-0.4,0L62.3,50c0.3,0.5,0.4,1.1,0.4,1.6c0,1.9-1.6,3.5-3.5,3.5c-0.7,0-1.4-0.2-2-0.7l-5.6,2.8
			c0,1.9-1.6,3.4-3.5,3.4c-1.7,0-3.1-1.3-3.4-2.9L39.4,56c-1,1-2.5,1.3-3.8,0.7l-6.8,5.5C28.5,62.5,28.2,62.6,27.8,62.6z M27.6,61.1
			c0.2,0.1,0.3,0.1,0.4,0l7.6-6.1l0.4,0.3c0.2,0.2,0.6,0.3,1.1,0.3c0.8,0,1.3-0.5,1.7-0.8l0.3-0.4l7.1,2.4v0.5c0,1.1,1,2.1,2,2.1
			c1.2,0,2.1-0.9,2.1-2.1c0-0.1,0-0.1,0-0.1L50,56.5l7.4-3.7l0.4,0.4c0.4,0.4,0.9,0.6,1.4,0.6c1.2,0,2.1-0.9,2.1-2.1
			c0-0.4-0.1-0.9-0.4-1.2l-0.3-0.4l8.7-13.2l0.5,0.1c0.2,0.1,0.4,0.1,0.5,0.1c1.2,0,2.1-0.9,2.1-2.1c0-1.2-0.9-2.1-2.1-2.1
			s-2.1,0.9-2.1,2.1c0,0.4,0.1,0.9,0.4,1.2l0.3,0.4l-8.7,13.2l-0.5-0.1c-0.2-0.1-0.4-0.1-0.5-0.1c-1.2,0-2.1,0.9-2.1,2.1v0.1
			l0.3,0.6l-7.5,3.7l-0.4-0.4c-0.4-0.4-0.9-0.6-1.4-0.6c-0.8,0-1.3,0.5-1.7,0.8l-0.3,0.4l-7-2.3v-0.5c0-1.1-1-2.1-2-2.1
			c-1.2,0-2.1,0.9-2.1,2.1c0,0.2,0,0.4,0.1,0.7l0.2,0.5l-7.6,6.1C27.6,60.8,27.5,61,27.6,61.1z"/>
	</g>
</g>
</svg>
