<?xml version="1.0" encoding="utf-8"?>
<!-- Generator: Adobe Illustrator 19.0.0, SVG Export Plug-In . SVG Version: 6.00 Build 0)  -->
<svg version="1.1" id="Layer_1" xmlns="http://www.w3.org/2000/svg" xmlns:xlink="http://www.w3.org/1999/xlink" x="0px" y="0px"
	 width="100px" height="100px" viewBox="0 0 100 100" style="enable-background:new 0 0 100 100;" xml:space="preserve">
<style type="text/css">
	.st0{fill:#009FFF;}
</style>
<g>
	<g>
		<path id="XMLID_2_" class="st0" d="M98.1,81.5H1.9c-1,0-1.9,0.8-1.9,1.9s0.8,1.9,1.9,1.9h96.3c1,0,1.9-0.8,1.9-1.9
			C100,82.3,99.2,81.5,98.1,81.5z"/>
		<path id="XMLID_1_" class="st0" d="M5.6,74.1c0.4,0,0.8-0.1,1.2-0.4l14.4-11.6C22,62.6,23,63,24.1,63c1.8,0,3.3-0.9,4.4-2.2
			l12.3,4.1c0.1,3,2.5,5.5,5.5,5.5c3.1,0,5.6-2.5,5.6-5.6c0-0.2,0-0.4-0.1-0.7l12.9-6.4c1,1,2.4,1.6,3.8,1.6c3.1,0,5.6-2.5,5.6-5.6
			c0-1.2-0.4-2.4-1.1-3.3l16.4-24.7c0.4,0.1,0.9,0.2,1.4,0.2c3.1,0,5.6-2.5,5.6-5.6s-2.5-5.6-5.6-5.6c-3.1,0-5.6,2.5-5.6,5.6
			c0,1.2,0.4,2.4,1.1,3.3L69.9,48.3c-0.4-0.1-0.9-0.2-1.4-0.2c-3.1,0-5.6,2.5-5.6,5.6c0,0.2,0,0.5,0.1,0.7l-12.9,6.4
			c-1-1-2.4-1.6-3.8-1.6c-1.8,0-3.3,0.9-4.4,2.2l-12.3-4.1c-0.1-3-2.5-5.5-5.5-5.5c-3.1,0-5.6,2.5-5.6,5.6c0,0.6,0.1,1.2,0.3,1.8
			L4.4,70.8c-0.8,0.6-0.9,1.8-0.3,2.6C4.5,73.8,5,74.1,5.6,74.1z"/>
	</g>
</g>
</svg>
