<?xml version="1.0" encoding="utf-8"?>
<!-- Generator: Adobe Illustrator 19.0.0, SVG Export Plug-In . SVG Version: 6.00 Build 0)  -->
<svg version="1.1" id="Layer_1" xmlns="http://www.w3.org/2000/svg" xmlns:xlink="http://www.w3.org/1999/xlink" x="0px" y="0px"
	 width="100px" height="100px" viewBox="0 0 100 100" enable-background="new 0 0 100 100" xml:space="preserve">
<path id="XMLID_2_" d="M50,0C22.333,0,0,22.333,0,50s22.333,50,50,50s50-22.333,50-50S77.667,0,50,0z"/>
<path id="XMLID_1_" fill="#FFFFFF" d="M54.044,50.791c0,2.167-1.833,4-4,4l0,0l0,0H16.211c-2,0-3.5-1.667-3.5-3.5
	c0-2,1.667-3.5,3.5-3.5h29.833v-30c0-2.167,1.833-4,4-4s4,1.833,4,4C54.044,17.791,54.044,50.791,54.044,50.791z"/>
</svg>
