<?xml version="1.0" encoding="utf-8"?>
<!-- Generator: Adobe Illustrator 19.0.0, SVG Export Plug-In . SVG Version: 6.00 Build 0)  -->
<svg version="1.1" id="Layer_1" xmlns="http://www.w3.org/2000/svg" xmlns:xlink="http://www.w3.org/1999/xlink" x="0px" y="0px"
	 width="100px" height="100px" viewBox="-119 56 100 100" enable-background="new -119 56 100 100" xml:space="preserve">
<circle id="XMLID_2_" fill="#FFFFFF" cx="-69" cy="106" r="50"/>
<path id="XMLID_1_" stroke="#000000" stroke-miterlimit="10" d="M-73.538,102.785h-6c-0.552,0-1-0.448-1-1v-6c0-0.552,0.448-1,1-1h6
	c0.552,0,1,0.448,1,1v6C-72.538,102.337-72.986,102.785-73.538,102.785z"/>
<path id="XMLID_4_" stroke="#000000" stroke-miterlimit="10" d="M-58.422,102.785h-6c-0.552,0-1-0.448-1-1v-6c0-0.552,0.448-1,1-1h6
	c0.552,0,1,0.448,1,1v6C-57.422,102.337-57.87,102.785-58.422,102.785z"/>
<path id="XMLID_6_" stroke="#000000" stroke-miterlimit="10" d="M-73.538,117.337h-6c-0.552,0-1-0.448-1-1v-6c0-0.552,0.448-1,1-1h6
	c0.552,0,1,0.448,1,1v6C-72.538,116.889-72.986,117.337-73.538,117.337z"/>
<path id="XMLID_5_" stroke="#000000" stroke-miterlimit="10" d="M-58.422,117.337h-6c-0.552,0-1-0.448-1-1v-6c0-0.552,0.448-1,1-1h6
	c0.552,0,1,0.448,1,1v6C-57.422,116.889-57.87,117.337-58.422,117.337z"/>
</svg>
