<?xml version="1.0" encoding="utf-8"?>
<!-- Generator: Adobe Illustrator 19.0.0, SVG Export Plug-In . SVG Version: 6.00 Build 0)  -->
<svg version="1.1" id="Layer_1" xmlns="http://www.w3.org/2000/svg" xmlns:xlink="http://www.w3.org/1999/xlink" x="0px" y="0px"
	 width="200px" height="100px" viewBox="50 100 200 100" enable-background="new 50 100 200 100" xml:space="preserve">
<circle id="XMLID_586_" cx="63.378" cy="212.172" r="0.042"/>
<circle id="XMLID_1629_" cx="252.371" cy="212.042" r="0.084"/>
<circle id="XMLID_1628_" cx="236.617" cy="212.042" r="0.042"/>
<circle id="XMLID_1605_" cx="260.25" cy="196.512" r="0.042"/>
<path id="XMLID_1_" d="M172.4,137.4c-2.8,2.8-7,2.8-9.8,0s-2.8-7,0-9.8l10.85-10.85c-2.45-1.05-4.9-1.75-7.7-1.75
	c-10.5,0-19.25,8.75-19.25,19.25c0,2.8,0.7,5.25,1.75,7.7L117.1,173.1c-2.8,2.8-2.8,7,0,9.8s7,2.8,9.8,0l31.15-31.15
	c2.45,1.05,4.9,1.75,7.7,1.75c10.5,0,19.25-8.75,19.25-19.25c0-2.8-0.7-5.25-1.75-7.7L172.4,137.4z"/>
<g>
	<g>
		<ellipse id="XMLID_599_" cx="241.04" cy="194.542" rx="2.705" ry="2.666"/>
		<ellipse id="XMLID_598_" cx="228.035" cy="194.542" rx="2.342" ry="2.308"/>
		<ellipse id="XMLID_597_" cx="215.029" cy="194.538" rx="2.058" ry="2.028"/>
		<ellipse id="XMLID_596_" cx="202.024" cy="194.538" rx="1.765" ry="1.74"/>
		<ellipse id="XMLID_595_" cx="189.019" cy="194.538" rx="1.477" ry="1.456"/>
		<ellipse id="XMLID_594_" cx="176.014" cy="194.542" rx="1.228" ry="1.21"/>
		<ellipse id="XMLID_593_" cx="163.009" cy="194.538" rx="1.009" ry="0.995"/>
		<ellipse id="XMLID_592_" cx="150.004" cy="194.542" rx="0.791" ry="0.78"/>
		<ellipse id="XMLID_591_" cx="136.995" cy="194.542" rx="0.616" ry="0.607"/>
		<ellipse id="XMLID_575_" cx="247.544" cy="181.721" rx="2.596" ry="2.558"/>
		<ellipse id="XMLID_574_" cx="234.539" cy="181.721" rx="2.272" ry="2.239"/>
		<ellipse id="XMLID_573_" cx="221.534" cy="181.721" rx="1.949" ry="1.92"/>
		<ellipse id="XMLID_572_" cx="208.529" cy="181.721" rx="1.656" ry="1.632"/>
		<ellipse id="XMLID_571_" cx="195.524" cy="181.721" rx="1.407" ry="1.387"/>
		<ellipse id="XMLID_570_" cx="182.515" cy="181.721" rx="1.154" ry="1.137"/>
		<ellipse id="XMLID_569_" cx="169.509" cy="181.721" rx="0.9" ry="0.887"/>
		<ellipse id="XMLID_568_" cx="156.504" cy="181.721" rx="0.721" ry="0.711"/>
		<ellipse id="XMLID_567_" cx="143.499" cy="181.721" rx="0.542" ry="0.534"/>
		<ellipse id="XMLID_551_" cx="241.04" cy="168.904" rx="2.525" ry="2.489"/>
		<ellipse id="XMLID_550_" cx="228.035" cy="168.904" rx="2.202" ry="2.17"/>
		<ellipse id="XMLID_549_" cx="215.029" cy="168.904" rx="1.875" ry="1.847"/>
		<ellipse id="XMLID_548_" cx="202.024" cy="168.904" rx="1.586" ry="1.563"/>
		<ellipse id="XMLID_547_" cx="189.019" cy="168.904" rx="1.333" ry="1.314"/>
		<ellipse id="XMLID_546_" cx="176.014" cy="168.904" rx="1.083" ry="1.068"/>
		<ellipse id="XMLID_545_" cx="163.009" cy="168.904" rx="0.865" ry="0.853"/>
		<ellipse id="XMLID_544_" cx="150.004" cy="168.904" rx="0.651" ry="0.641"/>
		<ellipse id="XMLID_529_" cx="247.544" cy="156.086" rx="2.486" ry="2.451"/>
		<ellipse id="XMLID_528_" cx="234.539" cy="156.086" rx="2.163" ry="2.132"/>
		<ellipse id="XMLID_527_" cx="221.534" cy="156.086" rx="1.84" ry="1.813"/>
		<ellipse id="XMLID_526_" cx="208.529" cy="156.086" rx="1.551" ry="1.529"/>
		<ellipse id="XMLID_525_" cx="195.524" cy="156.086" rx="1.298" ry="1.279"/>
		<ellipse id="XMLID_524_" cx="182.515" cy="156.086" rx="1.044" ry="1.029"/>
		<ellipse id="XMLID_523_" cx="169.509" cy="156.086" rx="0.791" ry="0.78"/>
		<ellipse id="XMLID_522_" cx="156.504" cy="156.086" rx="0.616" ry="0.607"/>
		<ellipse id="XMLID_506_" cx="241.04" cy="143.269" rx="2.451" ry="2.416"/>
		<ellipse id="XMLID_505_" cx="228.035" cy="143.269" rx="2.128" ry="2.097"/>
		<ellipse id="XMLID_504_" cx="215.029" cy="143.269" rx="1.804" ry="1.778"/>
		<ellipse id="XMLID_503_" cx="202.024" cy="143.269" rx="1.516" ry="1.494"/>
		<ellipse id="XMLID_502_" cx="189.019" cy="143.269" rx="1.263" ry="1.244"/>
		<ellipse id="XMLID_501_" cx="176.014" cy="143.269" rx="1.009" ry="0.995"/>
		<ellipse id="XMLID_500_" cx="163.009" cy="143.269" rx="0.791" ry="0.78"/>
		<ellipse id="XMLID_499_" cx="150.004" cy="143.269" rx="0.577" ry="0.568"/>
		<ellipse id="XMLID_484_" cx="247.544" cy="130.452" rx="2.416" ry="2.381"/>
		<ellipse id="XMLID_483_" cx="234.539" cy="130.452" rx="2.093" ry="2.063"/>
		<ellipse id="XMLID_482_" cx="221.534" cy="130.452" rx="1.804" ry="1.778"/>
		<ellipse id="XMLID_481_" cx="208.529" cy="130.452" rx="1.516" ry="1.494"/>
		<ellipse id="XMLID_480_" cx="195.524" cy="130.452" rx="1.228" ry="1.21"/>
		<ellipse id="XMLID_479_" cx="182.515" cy="130.452" rx="0.974" ry="0.96"/>
		<ellipse id="XMLID_478_" cx="169.509" cy="130.452" rx="0.756" ry="0.745"/>
		<ellipse id="XMLID_477_" cx="156.504" cy="130.452" rx="0.542" ry="0.534"/>
		<ellipse id="XMLID_476_" cx="143.499" cy="130.452" rx="0.359" ry="0.353"/>
		<ellipse id="XMLID_461_" cx="241.04" cy="117.635" rx="2.416" ry="2.381"/>
		<ellipse id="XMLID_460_" cx="228.035" cy="117.635" rx="2.093" ry="2.063"/>
		<ellipse id="XMLID_459_" cx="215.029" cy="117.635" rx="1.804" ry="1.778"/>
		<ellipse id="XMLID_458_" cx="202.024" cy="117.635" rx="1.516" ry="1.494"/>
		<ellipse id="XMLID_457_" cx="189.019" cy="117.635" rx="1.228" ry="1.21"/>
		<ellipse id="XMLID_456_" cx="176.014" cy="117.635" rx="0.974" ry="0.96"/>
		<ellipse id="XMLID_455_" cx="163.009" cy="117.635" rx="0.756" ry="0.745"/>
		<ellipse id="XMLID_454_" cx="150.004" cy="117.635" rx="0.542" ry="0.534"/>
		<ellipse id="XMLID_453_" cx="136.995" cy="117.635" rx="0.359" ry="0.353"/>
		<ellipse id="XMLID_439_" cx="247.544" cy="104.818" rx="2.451" ry="2.416"/>
		<ellipse id="XMLID_438_" cx="234.539" cy="104.818" rx="2.128" ry="2.097"/>
		<ellipse id="XMLID_437_" cx="221.534" cy="104.818" rx="1.804" ry="1.778"/>
		<ellipse id="XMLID_436_" cx="208.529" cy="104.818" rx="1.516" ry="1.494"/>
		<ellipse id="XMLID_435_" cx="195.524" cy="104.818" rx="1.263" ry="1.244"/>
		<ellipse id="XMLID_434_" cx="182.515" cy="104.818" rx="1.009" ry="0.995"/>
		<ellipse id="XMLID_433_" cx="169.509" cy="104.818" rx="0.791" ry="0.78"/>
		<ellipse id="XMLID_432_" cx="156.504" cy="104.818" rx="0.577" ry="0.568"/>
		<ellipse id="XMLID_431_" cx="143.499" cy="104.818" rx="0.398" ry="0.392"/>
	</g>
	<g>
		<ellipse id="XMLID_70_" cx="58.96" cy="194.542" rx="2.705" ry="2.666"/>
		<ellipse id="XMLID_69_" cx="71.965" cy="194.542" rx="2.342" ry="2.308"/>
		<ellipse id="XMLID_68_" cx="84.971" cy="194.538" rx="2.058" ry="2.028"/>
		<ellipse id="XMLID_67_" cx="97.976" cy="194.538" rx="1.765" ry="1.74"/>
		<ellipse id="XMLID_66_" cx="110.981" cy="194.538" rx="1.477" ry="1.456"/>
		<ellipse id="XMLID_65_" cx="123.986" cy="194.542" rx="1.228" ry="1.21"/>
		<ellipse id="XMLID_64_" cx="136.991" cy="194.538" rx="1.009" ry="0.995"/>
		<ellipse id="XMLID_63_" cx="149.996" cy="194.542" rx="0.791" ry="0.78"/>
		<ellipse id="XMLID_62_" cx="163.005" cy="194.542" rx="0.616" ry="0.607"/>
		<ellipse id="XMLID_61_" cx="52.456" cy="181.721" rx="2.596" ry="2.558"/>
		<ellipse id="XMLID_60_" cx="65.461" cy="181.721" rx="2.272" ry="2.239"/>
		<ellipse id="XMLID_59_" cx="78.466" cy="181.721" rx="1.949" ry="1.92"/>
		<ellipse id="XMLID_58_" cx="91.471" cy="181.721" rx="1.656" ry="1.632"/>
		<ellipse id="XMLID_57_" cx="104.476" cy="181.721" rx="1.407" ry="1.387"/>
		<ellipse id="XMLID_56_" cx="117.485" cy="181.721" rx="1.154" ry="1.137"/>
		<ellipse id="XMLID_55_" cx="130.491" cy="181.721" rx="0.9" ry="0.887"/>
		<ellipse id="XMLID_54_" cx="143.496" cy="181.721" rx="0.721" ry="0.711"/>
		<ellipse id="XMLID_53_" cx="156.501" cy="181.721" rx="0.542" ry="0.534"/>
		<ellipse id="XMLID_52_" cx="58.96" cy="168.904" rx="2.525" ry="2.489"/>
		<ellipse id="XMLID_51_" cx="71.965" cy="168.904" rx="2.202" ry="2.17"/>
		<ellipse id="XMLID_50_" cx="84.971" cy="168.904" rx="1.875" ry="1.847"/>
		<ellipse id="XMLID_49_" cx="97.976" cy="168.904" rx="1.586" ry="1.563"/>
		<ellipse id="XMLID_48_" cx="110.981" cy="168.904" rx="1.333" ry="1.314"/>
		<ellipse id="XMLID_47_" cx="123.986" cy="168.904" rx="1.083" ry="1.068"/>
		<ellipse id="XMLID_46_" cx="136.991" cy="168.904" rx="0.865" ry="0.853"/>
		<ellipse id="XMLID_45_" cx="149.996" cy="168.904" rx="0.651" ry="0.641"/>
		<ellipse id="XMLID_44_" cx="52.456" cy="156.086" rx="2.486" ry="2.451"/>
		<ellipse id="XMLID_43_" cx="65.461" cy="156.086" rx="2.163" ry="2.132"/>
		<ellipse id="XMLID_42_" cx="78.466" cy="156.086" rx="1.84" ry="1.813"/>
		<ellipse id="XMLID_41_" cx="91.471" cy="156.086" rx="1.551" ry="1.529"/>
		<ellipse id="XMLID_40_" cx="104.476" cy="156.086" rx="1.298" ry="1.279"/>
		<ellipse id="XMLID_39_" cx="117.485" cy="156.086" rx="1.044" ry="1.029"/>
		<ellipse id="XMLID_38_" cx="130.491" cy="156.086" rx="0.791" ry="0.78"/>
		<ellipse id="XMLID_37_" cx="143.496" cy="156.086" rx="0.616" ry="0.607"/>
		<ellipse id="XMLID_36_" cx="58.96" cy="143.269" rx="2.451" ry="2.416"/>
		<ellipse id="XMLID_35_" cx="71.965" cy="143.269" rx="2.128" ry="2.097"/>
		<ellipse id="XMLID_34_" cx="84.971" cy="143.269" rx="1.804" ry="1.778"/>
		<ellipse id="XMLID_33_" cx="97.976" cy="143.269" rx="1.516" ry="1.494"/>
		<ellipse id="XMLID_32_" cx="110.981" cy="143.269" rx="1.263" ry="1.244"/>
		<ellipse id="XMLID_31_" cx="123.986" cy="143.269" rx="1.009" ry="0.995"/>
		<ellipse id="XMLID_30_" cx="136.991" cy="143.269" rx="0.791" ry="0.78"/>
		<ellipse id="XMLID_29_" cx="149.996" cy="143.269" rx="0.577" ry="0.568"/>
		<ellipse id="XMLID_28_" cx="52.456" cy="130.452" rx="2.416" ry="2.381"/>
		<ellipse id="XMLID_27_" cx="65.461" cy="130.452" rx="2.093" ry="2.063"/>
		<ellipse id="XMLID_26_" cx="78.466" cy="130.452" rx="1.804" ry="1.778"/>
		<ellipse id="XMLID_25_" cx="91.471" cy="130.452" rx="1.516" ry="1.494"/>
		<ellipse id="XMLID_24_" cx="104.476" cy="130.452" rx="1.228" ry="1.21"/>
		<ellipse id="XMLID_23_" cx="117.485" cy="130.452" rx="0.974" ry="0.96"/>
		<ellipse id="XMLID_22_" cx="130.491" cy="130.452" rx="0.756" ry="0.745"/>
		<ellipse id="XMLID_21_" cx="143.496" cy="130.452" rx="0.542" ry="0.534"/>
		<ellipse id="XMLID_20_" cx="156.501" cy="130.452" rx="0.359" ry="0.353"/>
		<ellipse id="XMLID_19_" cx="58.96" cy="117.635" rx="2.416" ry="2.381"/>
		<ellipse id="XMLID_18_" cx="71.965" cy="117.635" rx="2.093" ry="2.063"/>
		<ellipse id="XMLID_17_" cx="84.971" cy="117.635" rx="1.804" ry="1.778"/>
		<ellipse id="XMLID_16_" cx="97.976" cy="117.635" rx="1.516" ry="1.494"/>
		<ellipse id="XMLID_15_" cx="110.981" cy="117.635" rx="1.228" ry="1.21"/>
		<ellipse id="XMLID_14_" cx="123.986" cy="117.635" rx="0.974" ry="0.96"/>
		<ellipse id="XMLID_13_" cx="136.991" cy="117.635" rx="0.756" ry="0.745"/>
		<ellipse id="XMLID_12_" cx="149.996" cy="117.635" rx="0.542" ry="0.534"/>
		<ellipse id="XMLID_11_" cx="163.005" cy="117.635" rx="0.359" ry="0.353"/>
		<ellipse id="XMLID_10_" cx="52.456" cy="104.818" rx="2.451" ry="2.416"/>
		<ellipse id="XMLID_9_" cx="65.461" cy="104.818" rx="2.128" ry="2.097"/>
		<ellipse id="XMLID_8_" cx="78.466" cy="104.818" rx="1.804" ry="1.778"/>
		<ellipse id="XMLID_7_" cx="91.471" cy="104.818" rx="1.516" ry="1.494"/>
		<ellipse id="XMLID_6_" cx="104.476" cy="104.818" rx="1.263" ry="1.244"/>
		<ellipse id="XMLID_5_" cx="117.485" cy="104.818" rx="1.009" ry="0.995"/>
		<ellipse id="XMLID_4_" cx="130.491" cy="104.818" rx="0.791" ry="0.78"/>
		<ellipse id="XMLID_3_" cx="143.496" cy="104.818" rx="0.577" ry="0.568"/>
		<ellipse id="XMLID_2_" cx="156.501" cy="104.818" rx="0.398" ry="0.392"/>
	</g>
</g>
</svg>
