<?xml version="1.0" encoding="utf-8"?>
<!-- Generator: Adobe Illustrator 19.0.0, SVG Export Plug-In . SVG Version: 6.00 Build 0)  -->
<svg version="1.1" id="Layer_1" xmlns="http://www.w3.org/2000/svg" xmlns:xlink="http://www.w3.org/1999/xlink" x="0px" y="0px"
	 width="100px" height="100px" viewBox="0 0 100 100" enable-background="new 0 0 100 100" xml:space="preserve">
<circle id="XMLID_2_" fill="#FFFFFF" cx="50" cy="50" r="50"/>
<g id="XMLID_1_">
	<path id="XMLID_5_" fill="#009FFF" d="M63.438,63.388l-7.908-8.408c0.701-1.051,1.101-2.252,1.101-3.604
		c0-1.101-0.3-2.152-0.751-3.003l7.958-5.756c0.751,0.701,1.752,1.101,2.853,1.101c2.302,0,4.254-1.902,4.254-4.254
		s-1.902-4.254-4.254-4.254c-2.302,0-4.254,1.902-4.254,4.254c0,0.651,0.15,1.201,0.4,1.752l-7.908,5.756
		c-0.801-0.851-1.902-1.501-3.053-1.802l1.101-9.91c2.653-0.15,4.805-2.352,4.855-5.105c0-2.903-2.302-5.155-5.105-5.155
		c-2.803,0-5.155,2.252-5.155,5.105c0,2.302,1.552,4.254,3.704,4.905l-1.101,10.01c-1.351,0-2.603,0.4-3.604,1.151l-8.609-9.109
		c0.851-1.101,1.401-2.503,1.401-4.004c0.05-3.554-2.803-6.406-6.356-6.406s-6.406,2.803-6.406,6.356s2.853,6.406,6.356,6.406
		c1.401,0,2.653-0.45,3.704-1.201l8.659,9.209c-0.851,1.101-1.401,2.503-1.401,4.004c0,1.351,0.4,2.603,1.151,3.654l-7.858,7.257
		c-0.751-0.5-1.602-0.851-2.553-0.901c-2.302,0-4.254,1.902-4.254,4.254c0,2.352,1.902,4.254,4.254,4.254
		c2.352,0,4.254-1.902,4.254-4.254c0-0.801-0.25-1.502-0.601-2.152l7.858-7.257c1.101,0.951,2.503,1.451,4.054,1.451
		s3.003-0.551,4.104-1.501l7.758,8.308c-0.851,1.101-1.451,2.503-1.451,4.054c0,3.554,2.853,6.406,6.356,6.406
		s6.406-2.853,6.406-6.356c0-3.554-2.853-6.406-6.356-6.406C65.691,62.287,64.489,62.688,63.438,63.388z"/>
</g>
</svg>
