<?xml version="1.0" encoding="utf-8"?>
<!-- Generator: Adobe Illustrator 19.0.0, SVG Export Plug-In . SVG Version: 6.00 Build 0)  -->
<svg version="1.1" id="Layer_1" xmlns="http://www.w3.org/2000/svg" xmlns:xlink="http://www.w3.org/1999/xlink" x="0px" y="0px"
	 width="100px" height="100px" viewBox="0 100 100 100" style="enable-background:new 0 100 100 100;" xml:space="preserve">
<style type="text/css">
	.st0{fill:#FFFFFF;}
	.st1{fill:#009FFF;}
</style>
<circle id="XMLID_4_" class="st0" cx="50" cy="150" r="50"/>
<path id="XMLID_14_" class="st1" d="M62.5,140.3L62.5,140.3l-2.7-2.9l-0.1,0.1c-2.7-2.1-6-3.3-9.7-3.3c-8.7,0-15.8,7.1-15.8,15.8
	c0,3.7,1.3,7,3.3,9.7l-0.1,0.1l2.8,2.8l0.1-0.1c2.7,2.1,6,3.3,9.7,3.3c8.7,0,15.8-7.1,15.8-15.8C65.8,146.3,64.6,143,62.5,140.3z
	 M38.1,150c0-6.5,5.3-11.9,11.9-11.9c2.6,0,4.9,0.8,6.9,2.2l-16.5,16.5C39,154.9,38.1,152.6,38.1,150z M50,161.9
	c-2.6,0-4.9-0.8-6.9-2.2l16.5-16.5c1.4,1.9,2.2,4.3,2.2,6.9C61.9,156.5,56.5,161.9,50,161.9z"/>
</svg>
