<?xml version="1.0" encoding="utf-8"?>
<!-- Generator: Adobe Illustrator 19.0.0, SVG Export Plug-In . SVG Version: 6.00 Build 0)  -->
<svg version="1.1" id="Layer_1" xmlns="http://www.w3.org/2000/svg" xmlns:xlink="http://www.w3.org/1999/xlink" x="0px" y="0px"
	 width="100px" height="100px" viewBox="0 0 100 100" enable-background="new 0 0 100 100" xml:space="preserve">
<path id="XMLID_14_" fill="#009FFF" d="M62.495,40.303l0.099-0.096l-2.798-2.798l-0.099,0.096c-2.683-2.083-6.04-3.335-9.697-3.335
	c-8.743,0-15.83,7.088-15.83,15.83c0,3.655,1.251,7.014,3.333,9.697l-0.099,0.096l2.798,2.798l0.099-0.096
	c2.682,2.083,6.039,3.335,9.698,3.335c8.742,0,15.83-7.088,15.83-15.83C65.83,46.345,64.578,42.986,62.495,40.303z M38.128,50
	c0-6.547,5.324-11.872,11.872-11.872c2.559,0,4.926,0.823,6.867,2.207L40.333,56.867C38.95,54.927,38.128,52.56,38.128,50z
	 M50,61.872c-2.56,0-4.927-0.823-6.869-2.207l16.534-16.533c1.382,1.94,2.207,4.307,2.207,6.867
	C61.872,56.547,56.547,61.872,50,61.872z"/>
</svg>
