<?xml version="1.0" encoding="utf-8"?>
<!-- Generator: Adobe Illustrator 19.0.0, SVG Export Plug-In . SVG Version: 6.00 Build 0)  -->
<svg version="1.1" id="Layer_1" xmlns="http://www.w3.org/2000/svg" xmlns:xlink="http://www.w3.org/1999/xlink" x="0px" y="0px"
	 width="100px" height="100px" viewBox="0 0 100 100" enable-background="new 0 0 100 100" xml:space="preserve">
<g id="XMLID_1_">
	<path id="XMLID_6_" fill="#C94C4C" d="M25,10h38.273L83,30.281V82c0,4.418-3.582,8-8,8H25c-4.418,0-8-3.582-8-8V18
		C17,13.582,20.582,10,25,10z"/>
	<path id="XMLID_5_" fill="#C94C4C" d="M63.273,10l19.453,20H71c-4.418,0-8-3.582-8-8V10H63.273z"/>
	<path fill="#FFFFFF" fill-opacity="0.75" d="M59.972,43.649l0.075-0.073l-2.121-2.121l-0.075,0.073
		C55.817,39.949,53.272,39,50.5,39c-6.628,0-12,5.373-12,12c0,2.771,0.948,5.317,2.527,7.351l-0.075,0.073l2.121,2.121l0.075-0.073
		C45.181,62.051,47.726,63,50.5,63c6.627,0,12-5.373,12-12C62.5,48.229,61.551,45.683,59.972,43.649z M41.5,51c0-4.963,4.036-9,9-9
		c1.94,0,3.734,0.624,5.206,1.673L43.172,56.206C42.123,54.735,41.5,52.941,41.5,51z M50.5,60c-1.941,0-3.735-0.624-5.207-1.673
		l12.534-12.533C58.875,47.265,59.5,49.059,59.5,51C59.5,55.963,55.463,60,50.5,60z"/>
</g>
</svg>
