<?xml version="1.0" encoding="utf-8"?>
<!-- Generator: Adobe Illustrator 19.0.0, SVG Export Plug-In . SVG Version: 6.00 Build 0)  -->
<svg version="1.1" id="Layer_1" xmlns="http://www.w3.org/2000/svg" xmlns:xlink="http://www.w3.org/1999/xlink" x="0px" y="0px"
	 width="100px" height="100px" viewBox="0 0 100 100" enable-background="new 0 0 100 100" xml:space="preserve">
<circle id="XMLID_2_" fill="#FFFFFF" cx="50" cy="50" r="50"/>
<g id="XMLID_1_" transform="translate(0,-270.54165)">
	<g id="XMLID_5_" transform="matrix(0.33086845,0,0,-0.33086845,-22.109586,487.50717)">
		<g id="XMLID_6_" transform="matrix(1.0662176,0,0,1.0662176,-521.86252,-40.774361)">
			<g id="XMLID_7_">
				<path id="XMLID_8_" fill="#009FFF" d="M677.382,475.741c4.887,0,8.859,3.97,8.859,8.859c0,3.272-1.79,6.095-4.431,7.633v10.085
					c0,2.45-1.981,4.431-4.428,4.431c-2.45,0-4.431-1.981-4.431-4.431v-10.085c-2.64-1.538-4.428-4.361-4.428-7.633
					C668.523,479.71,672.493,475.741,677.382,475.741 M712.815,520.032c2.44,0,4.431-1.986,4.431-4.428v-53.15
					c0-2.44-1.991-4.428-4.431-4.428h-70.867c-2.44,0-4.428,1.989-4.428,4.428v53.15c0,2.442,1.989,4.428,4.428,4.428H712.815z
					 M734.963,590.902c-19.539,0-35.435-15.896-35.435-35.435v-26.576h-57.581c-7.326,0-13.287-5.958-13.287-13.287v-53.15
					c0-7.326,5.961-13.287,13.287-13.287h70.867c7.326,0,13.289,5.961,13.289,13.287v53.15c0,7.329-5.963,13.287-13.289,13.287
					h-4.428v26.576c0,14.655,11.922,26.576,26.576,26.576c14.652,0,26.571-11.922,26.571-26.576v-26.576
					c0-2.447,1.984-4.428,4.431-4.428c2.45,0,4.428,1.981,4.428,4.428v26.576C770.393,575.006,754.499,590.902,734.963,590.902"/>
			</g>
		</g>
	</g>
</g>
</svg>
