<?xml version="1.0" encoding="utf-8"?>
<!-- Generator: Adobe Illustrator 19.0.0, SVG Export Plug-In . SVG Version: 6.00 Build 0)  -->
<svg version="1.1" id="Layer_1" xmlns="http://www.w3.org/2000/svg" xmlns:xlink="http://www.w3.org/1999/xlink" x="0px" y="0px"
	 width="200px" height="100px" viewBox="50 0 200 100" enable-background="new 50 0 200 100" xml:space="preserve">
<circle fill="#0075FF" cx="200" cy="50" r="49"/>
<title>Send Mail</title>
<circle fill="#FFFFFF" cx="100" cy="50" r="49"/>
<g id="XMLID_1_">
	<path id="XMLID_40_" fill="#0075FF" d="M100,50.936c6.694,0,12.138-7.104,12.138-13.797C112.138,30.446,106.694,25,100,25
		c-6.693,0-12.138,5.446-12.138,12.139C87.863,43.832,93.308,50.936,100,50.936z"/>
	<path id="XMLID_39_" fill="#0075FF" d="M109.113,51.06c-2.355,1.794-5.292,2.862-8.474,2.862h-1.278
		c-3.182,0-6.119-1.068-8.474-2.862c-7.688,1.243-13.558,7.907-13.558,15.944C77.329,71.42,87.479,75,100,75
		s22.671-3.58,22.671-7.996C122.671,58.967,116.8,52.303,109.113,51.06z"/>
</g>
<g id="XMLID_2_">
	<path id="XMLID_4_" fill="#FFFFFF" d="M200,50.936c6.694,0,12.138-7.104,12.138-13.797C212.138,30.446,206.694,25,200,25
		c-6.693,0-12.138,5.446-12.138,12.139C187.863,43.832,193.308,50.936,200,50.936z"/>
	<path id="XMLID_3_" fill="#FFFFFF" d="M209.113,51.06c-2.355,1.794-5.292,2.862-8.474,2.862h-1.278
		c-3.182,0-6.119-1.068-8.474-2.862c-7.688,1.243-13.558,7.907-13.558,15.944C177.329,71.42,187.479,75,200,75
		s22.671-3.58,22.671-7.996C222.671,58.967,216.8,52.303,209.113,51.06z"/>
</g>
</svg>
