<?xml version="1.0" encoding="utf-8"?>
<!-- Generator: Adobe Illustrator 19.0.0, SVG Export Plug-In . SVG Version: 6.00 Build 0)  -->
<svg version="1.1" id="Layer_1" xmlns="http://www.w3.org/2000/svg" xmlns:xlink="http://www.w3.org/1999/xlink" x="0px" y="0px"
	 width="100px" height="100px" viewBox="50 100 100 100" enable-background="new 50 100 100 100" xml:space="preserve">
<title>Send Mail</title>
<g id="XMLID_1_">
	<path id="XMLID_40_" fill="#0075FF" d="M100,150.936c6.694,0,12.138-7.104,12.138-13.797c0-6.693-5.444-12.139-12.138-12.139
		c-6.693,0-12.138,5.446-12.138,12.139C87.863,143.832,93.308,150.936,100,150.936z"/>
	<path id="XMLID_39_" fill="#0075FF" d="M109.113,151.06c-2.355,1.794-5.292,2.862-8.474,2.862h-1.278
		c-3.182,0-6.119-1.068-8.474-2.862c-7.688,1.243-13.558,7.907-13.558,15.944c0,4.416,10.15,7.996,22.671,7.996
		s22.671-3.58,22.671-7.996C122.671,158.967,116.8,152.303,109.113,151.06z"/>
</g>
</svg>
