<?xml version="1.0" encoding="utf-8"?>
<!-- Generator: Adobe Illustrator 19.0.0, SVG Export Plug-In . SVG Version: 6.00 Build 0)  -->
<svg version="1.1" id="Layer_1" xmlns="http://www.w3.org/2000/svg" xmlns:xlink="http://www.w3.org/1999/xlink" x="0px" y="0px"
	 width="100px" height="100px" viewBox="0 0 100 100" enable-background="new 0 0 100 100" xml:space="preserve">
<path id="XMLID_2_" fill="none" stroke="#009FFF" stroke-width="4" stroke-miterlimit="10" d="M34.79,25.175v2.885
	c0,6.497,3.281,12.554,8.722,16.104c3.319,2.167,4.254,6.614,2.087,9.933c-0.544,0.833-1.254,1.544-2.087,2.087
	c-5.441,3.55-8.722,9.608-8.722,16.104v2.885H65.56V72.29c0-6.497-3.281-12.554-8.722-16.104c-3.319-2.167-4.254-6.614-2.087-9.933
	c0.544-0.833,1.254-1.544,2.087-2.087c5.441-3.55,8.722-9.608,8.722-16.104v-2.885H34.79z"/>
</svg>
