<?xml version="1.0" encoding="utf-8"?>
<!-- Generator: Adobe Illustrator 19.0.0, SVG Export Plug-In . SVG Version: 6.00 Build 0)  -->
<svg version="1.1" id="Layer_1" xmlns="http://www.w3.org/2000/svg" xmlns:xlink="http://www.w3.org/1999/xlink" x="0px" y="0px"
	 width="100px" height="100px" viewBox="0 100 100 100" enable-background="new 0 100 100 100" xml:space="preserve">
<g transform="translate(0,-952.36218)">
	<path fill="#0075FF" d="M33.985,1074.755c-0.153,0.015-0.302,0.047-0.448,0.095c-4.556,1.399-7.781,3.874-9.524,7.096
		c-1.742,3.222-1.962,6.998-1.215,10.834c1.496,7.673,6.804,15.919,13.52,22.788c6.714,6.869,14.81,12.366,22.532,13.966
		c3.861,0.801,7.704,0.589,11.027-1.15s5.965-4.982,7.607-9.621c0.311-0.895-0.032-1.886-0.832-2.398l-14.575-9.14l-0.032-0.032
		c-0.072-0.047-0.146-0.09-0.223-0.128c-0.214-0.139-0.454-0.236-0.704-0.288c-0.022,0-0.043,0-0.065,0
		c-0.052-0.013-0.106-0.023-0.16-0.032c-0.011,0-0.022,0-0.032,0c-0.34-0.02-0.682,0.047-0.99,0.193
		c-0.112,0.054-0.22,0.119-0.32,0.191c-0.067,0.04-0.13,0.081-0.193,0.128c-0.022,0.031-0.043,0.063-0.065,0.095
		c-0.081,0.068-0.155,0.144-0.223,0.223l-3.197,3.227c-5.794-2.916-10.251-7.807-14.254-14.414l2.941-2.909
		c0.056-0.05,0.11-0.104,0.16-0.16c0.045-0.041,0.086-0.083,0.128-0.128c0-0.011,0-0.022,0-0.032
		c0.045-0.041,0.086-0.083,0.128-0.128c0-0.011,0-0.021,0-0.032c0.022-0.031,0.043-0.063,0.065-0.095
		c0.022-0.02,0.043-0.041,0.065-0.063c0.023-0.052,0.045-0.106,0.065-0.16c0-0.011,0-0.022,0-0.032
		c0.011-0.021,0.022-0.041,0.032-0.063c0.023-0.041,0.045-0.085,0.065-0.128c0.013-0.052,0.023-0.106,0.032-0.16
		c0-0.011,0-0.022,0-0.032c0.014-0.063,0.025-0.128,0.032-0.193c0-0.011,0-0.022,0-0.032c0.002-0.054,0.002-0.106,0-0.16
		c0-0.011,0-0.022,0-0.032c0.002-0.054,0.002-0.106,0-0.16c0-0.021,0-0.043,0-0.063c-0.009-0.054-0.02-0.106-0.032-0.16
		c0-0.011,0-0.021,0-0.032c-0.032-0.121-0.074-0.238-0.128-0.351c0-0.011,0-0.021,0-0.032c-0.036-0.088-0.079-0.173-0.128-0.255
		l-0.032-0.063c-0.011-0.011-0.022-0.021-0.032-0.032l-9.108-14.958c-0.358-0.598-0.997-0.97-1.694-0.99
		c-0.063-0.004-0.128-0.004-0.193,0L33.985,1074.755L33.985,1074.755z M33.251,1079.263l7.447,12.305l-3.1,3.069
		c-0.648,0.655-0.779,1.661-0.32,2.46c4.73,8.194,10.336,14.566,18.185,18.025c0.77,0.342,1.67,0.177,2.27-0.416l3.292-3.292
		l12.017,7.511c-1.33,2.995-3.065,4.777-5.049,5.818c-2.299,1.204-5.107,1.431-8.311,0.767c-6.408-1.328-14.148-6.365-20.455-12.816
		s-11.189-14.297-12.433-20.678c-0.623-3.191-0.347-5.94,0.832-8.118C28.639,1082.02,30.364,1080.415,33.251,1079.263
		L33.251,1079.263z"/>
	<path fill="#0075FF" d="M50,1057.362c-24.822,0-45,20.167-45,45c0,9.023,2.675,17.458,7.389,24.694l-5.033,16.794
		c-0.324,1.082,0.29,2.223,1.373,2.547c0.41,0.122,0.85,0.113,1.253-0.025l16.438-5.674c6.845,4.225,14.938,6.664,23.58,6.664
		c24.833,0,45-20.167,45-45S74.833,1057.362,50,1057.362L50,1057.362z M50,1061.452c22.622,0,40.91,18.286,40.91,40.91
		s-18.288,40.91-40.91,40.91c-8.201,0-15.827-2.405-22.205-6.543c-0.529-0.342-1.184-0.423-1.78-0.218l-13.594,4.691l4.163-13.892
		c0.176-0.59,0.077-1.229-0.268-1.739c-4.621-6.781-7.223-14.679-7.223-23.209C9.09,1079.74,27.388,1061.452,50,1061.452
		L50,1061.452z"/>
</g>
</svg>
