<?xml version="1.0" encoding="utf-8"?>
<!-- Generator: Adobe Illustrator 19.0.0, SVG Export Plug-In . SVG Version: 6.00 Build 0)  -->
<svg version="1.1" id="Layer_1" xmlns="http://www.w3.org/2000/svg" xmlns:xlink="http://www.w3.org/1999/xlink" x="0px" y="0px"
	 width="200px" height="100px" viewBox="-255 459 200 100" enable-background="new -255 459 200 100" xml:space="preserve">
<circle fill="#FFFFFF" cx="-205" cy="509" r="50"/>
<title>phone icons - cleanup</title>
<circle fill="#0075FF" cx="-105" cy="509" r="50"/>
<g transform="translate(0,-952.36218)">
	<path fill="#0075FF" d="M-213.897,1446.025c-0.085,0.008-0.168,0.026-0.249,0.053c-2.531,0.777-4.323,2.152-5.291,3.942
		c-0.968,1.79-1.09,3.888-0.675,6.019c0.831,4.263,3.78,8.844,7.511,12.66c3.73,3.816,8.228,6.87,12.518,7.759
		c2.145,0.445,4.28,0.327,6.126-0.639c1.846-0.966,3.314-2.768,4.226-5.345c0.173-0.497-0.018-1.048-0.462-1.332l-8.097-5.078
		l-0.018-0.018c-0.04-0.026-0.081-0.05-0.124-0.071c-0.119-0.077-0.252-0.131-0.391-0.16c-0.012,0-0.024,0-0.036,0
		c-0.029-0.007-0.059-0.013-0.089-0.018c-0.006,0-0.012,0-0.018,0c-0.189-0.011-0.379,0.026-0.55,0.107
		c-0.062,0.03-0.122,0.066-0.178,0.106c-0.037,0.022-0.072,0.045-0.107,0.071c-0.012,0.017-0.024,0.035-0.036,0.053
		c-0.045,0.038-0.086,0.08-0.124,0.124l-1.776,1.793c-3.219-1.62-5.695-4.337-7.919-8.008l1.634-1.616
		c0.031-0.028,0.061-0.058,0.089-0.089c0.025-0.023,0.048-0.046,0.071-0.071c0-0.006,0-0.012,0-0.018
		c0.025-0.023,0.048-0.046,0.071-0.071c0-0.006,0-0.012,0-0.018c0.012-0.017,0.024-0.035,0.036-0.053
		c0.012-0.011,0.024-0.023,0.036-0.035c0.013-0.029,0.025-0.059,0.036-0.089c0-0.006,0-0.012,0-0.018
		c0.006-0.012,0.012-0.023,0.018-0.035c0.013-0.023,0.025-0.047,0.036-0.071c0.007-0.029,0.013-0.059,0.018-0.089
		c0-0.006,0-0.012,0-0.018c0.008-0.035,0.014-0.071,0.018-0.107c0-0.006,0-0.012,0-0.018c0.001-0.03,0.001-0.059,0-0.089
		c0-0.006,0-0.012,0-0.018c0.001-0.03,0.001-0.059,0-0.089c0-0.012,0-0.024,0-0.035c-0.005-0.03-0.011-0.059-0.018-0.089
		c0-0.006,0-0.012,0-0.018c-0.018-0.067-0.041-0.132-0.071-0.195c0-0.006,0-0.012,0-0.018c-0.02-0.049-0.044-0.096-0.071-0.142
		l-0.018-0.035c-0.006-0.006-0.012-0.012-0.018-0.018l-5.06-8.31c-0.199-0.332-0.554-0.539-0.941-0.55
		c-0.035-0.002-0.071-0.002-0.107,0V1446.025z M-214.305,1448.529l4.137,6.836l-1.722,1.705c-0.36,0.364-0.433,0.923-0.178,1.367
		c2.628,4.552,5.742,8.092,10.103,10.014c0.428,0.19,0.928,0.098,1.261-0.231l1.829-1.829l6.676,4.173
		c-0.739,1.664-1.703,2.654-2.805,3.232c-1.277,0.669-2.837,0.795-4.617,0.426c-3.56-0.738-7.86-3.536-11.364-7.12
		c-3.504-3.584-6.216-7.943-6.907-11.488c-0.346-1.773-0.193-3.3,0.462-4.51C-216.867,1450.061-215.909,1449.169-214.305,1448.529
		L-214.305,1448.529z"/>
	<path fill="#0075FF" d="M-205,1436.362c-13.79,0-25,11.204-25,25c0,5.013,1.486,9.699,4.105,13.719l-2.796,9.33
		c-0.18,0.601,0.161,1.235,0.763,1.415c0.228,0.068,0.472,0.063,0.696-0.014l9.132-3.152c3.803,2.347,8.299,3.702,13.1,3.702
		c13.796,0,25-11.204,25-25S-191.204,1436.362-205,1436.362L-205,1436.362z M-205,1438.634c12.568,0,22.728,10.159,22.728,22.728
		s-10.16,22.728-22.728,22.728c-4.556,0-8.793-1.336-12.336-3.635c-0.294-0.19-0.658-0.235-0.989-0.121l-7.552,2.606l2.313-7.718
		c0.098-0.328,0.043-0.683-0.149-0.966c-2.567-3.767-4.013-8.155-4.013-12.894C-227.728,1448.794-217.562,1438.634-205,1438.634
		L-205,1438.634z"/>
</g>
<g transform="translate(0,-952.36218)">
	<path fill="#FFFFFF" d="M-113.897,1446.025c-0.085,0.009-0.168,0.026-0.249,0.053c-2.531,0.777-4.323,2.152-5.291,3.942
		c-0.968,1.79-1.09,3.888-0.675,6.019c0.831,4.263,3.78,8.844,7.511,12.66s8.228,6.87,12.518,7.759
		c2.145,0.445,4.28,0.327,6.126-0.639c1.846-0.966,3.314-2.768,4.226-5.345c0.173-0.497-0.018-1.048-0.462-1.332l-8.097-5.078
		l-0.018-0.018c-0.04-0.026-0.081-0.05-0.124-0.071c-0.119-0.077-0.252-0.131-0.391-0.16c-0.012,0-0.024,0-0.036,0
		c-0.029-0.007-0.059-0.013-0.089-0.018c-0.006,0-0.012,0-0.018,0c-0.189-0.011-0.379,0.026-0.55,0.106
		c-0.062,0.03-0.122,0.066-0.178,0.107c-0.037,0.022-0.072,0.045-0.107,0.071c-0.012,0.017-0.024,0.035-0.036,0.053
		c-0.045,0.038-0.086,0.08-0.124,0.124l-1.776,1.793c-3.219-1.62-5.695-4.337-7.919-8.008l1.634-1.616
		c0.031-0.028,0.061-0.057,0.089-0.089c0.025-0.023,0.048-0.046,0.071-0.071c0-0.006,0-0.012,0-0.018
		c0.025-0.023,0.048-0.046,0.071-0.071c0-0.006,0-0.012,0-0.018c0.012-0.017,0.024-0.035,0.036-0.053
		c0.012-0.011,0.024-0.023,0.036-0.035c0.013-0.029,0.025-0.059,0.036-0.089c0-0.006,0-0.012,0-0.018
		c0.006-0.012,0.012-0.023,0.018-0.035c0.013-0.023,0.025-0.047,0.036-0.071c0.007-0.029,0.013-0.059,0.018-0.089
		c0-0.006,0-0.012,0-0.018c0.008-0.035,0.014-0.071,0.018-0.106c0-0.006,0-0.012,0-0.018c0.001-0.03,0.001-0.059,0-0.089
		c0-0.006,0-0.012,0-0.018c0.001-0.03,0.001-0.059,0-0.089c0-0.012,0-0.023,0-0.035c-0.005-0.03-0.011-0.059-0.018-0.089
		c0-0.006,0-0.012,0-0.018c-0.018-0.067-0.041-0.132-0.071-0.195c0-0.006,0-0.012,0-0.018c-0.02-0.049-0.044-0.096-0.071-0.142
		l-0.018-0.035c-0.006-0.006-0.012-0.012-0.018-0.018l-5.06-8.31c-0.199-0.332-0.554-0.539-0.941-0.55
		c-0.035-0.002-0.071-0.002-0.107,0V1446.025z M-114.305,1448.529l4.137,6.836l-1.722,1.705c-0.36,0.364-0.433,0.923-0.178,1.367
		c2.628,4.552,5.742,8.093,10.103,10.014c0.428,0.19,0.928,0.098,1.261-0.231l1.829-1.829l6.676,4.173
		c-0.739,1.664-1.703,2.654-2.805,3.231c-1.277,0.669-2.837,0.795-4.617,0.426c-3.56-0.738-7.86-3.536-11.364-7.12
		c-3.504-3.584-6.216-7.943-6.907-11.488c-0.346-1.773-0.193-3.3,0.462-4.51C-116.867,1450.061-115.909,1449.169-114.305,1448.529
		L-114.305,1448.529z"/>
	<path fill="#FFFFFF" d="M-105,1436.362c-13.79,0-25,11.204-25,25c0,5.013,1.486,9.699,4.105,13.719l-2.796,9.33
		c-0.18,0.601,0.161,1.235,0.763,1.415c0.228,0.068,0.472,0.063,0.696-0.014l9.132-3.152c3.803,2.347,8.299,3.703,13.1,3.703
		c13.796,0,25-11.204,25-25S-91.204,1436.362-105,1436.362L-105,1436.362z M-105,1438.635c12.568,0,22.728,10.16,22.728,22.728
		c0,12.568-10.16,22.728-22.728,22.728c-4.556,0-8.793-1.336-12.336-3.635c-0.294-0.19-0.658-0.235-0.989-0.121l-7.552,2.606
		l2.313-7.718c0.098-0.328,0.043-0.683-0.149-0.966c-2.567-3.767-4.013-8.155-4.013-12.894
		C-127.728,1448.794-117.562,1438.635-105,1438.635L-105,1438.635z"/>
</g>
</svg>
