<?xml version="1.0" encoding="utf-8"?>
<!-- Generator: Adobe Illustrator 19.0.0, SVG Export Plug-In . SVG Version: 6.00 Build 0)  -->
<svg version="1.1" id="Layer_1" xmlns="http://www.w3.org/2000/svg" xmlns:xlink="http://www.w3.org/1999/xlink" x="0px" y="0px"
	 width="100px" height="100px" viewBox="0 0 100 100" enable-background="new 0 0 100 100" xml:space="preserve">
<circle id="XMLID_3_" fill="#FFFFFF" cx="50" cy="50" r="50"/>
<path fill="#0075FF" stroke="#0075FF" stroke-miterlimit="10" d="M49.417,26.734c-0.771-0.774-1.811-1.221-2.903-1.25L29.09,25.002
	c-2.198-0.06-4.028,1.672-4.088,3.87c-0.002,0.073-0.002,0.146,0,0.219l0.482,17.423c0.028,1.092,0.476,2.132,1.25,2.903
	l24.333,24.333c1.67,1.666,4.373,1.666,6.042,0L73.751,57.11c1.666-1.67,1.666-4.373,0-6.042L49.417,26.734z M71.786,55.145
	L55.145,71.786c-0.584,0.583-1.53,0.583-2.114,0L28.698,47.453c-0.271-0.27-0.427-0.634-0.437-1.016l-0.482-17.423
	c-0.018-0.664,0.505-1.217,1.169-1.235c0.022-0.001,0.044-0.001,0.065,0l17.425,0.482c0.382,0.01,0.745,0.167,1.015,0.437
	l24.334,24.334C72.369,53.616,72.369,54.561,71.786,55.145z M33.541,33.539c-2.138,2.138-2.138,5.604,0,7.742s5.604,2.138,7.742,0
	c2.138-2.138,2.138-5.604,0-7.742c0,0,0,0,0,0C39.144,31.405,35.681,31.405,33.541,33.539L33.541,33.539z M39.712,39.71
	c-1.27,1.27-3.329,1.27-4.599,0c-1.27-1.27-1.27-3.329,0-4.599c1.27-1.27,3.329-1.27,4.599,0c0,0,0,0,0,0
	C40.98,36.381,40.98,38.439,39.712,39.71z M65.629,51.487c0.434,0.434,0.434,1.137,0,1.571L53.058,65.629
	c-0.436,0.432-1.139,0.429-1.571-0.007c-0.429-0.433-0.429-1.131,0-1.564l12.571-12.571C64.492,51.053,65.195,51.053,65.629,51.487z
	 M60.915,48.344L48.344,60.915c-0.432,0.436-1.136,0.439-1.571,0.007c-0.436-0.432-0.439-1.136-0.007-1.571
	c0.002-0.002,0.005-0.005,0.007-0.007l12.571-12.571c0.436-0.432,1.139-0.429,1.571,0.007
	C61.344,47.213,61.344,47.911,60.915,48.344z"/>
</svg>
