<?xml version="1.0" encoding="utf-8"?>
<!-- Generator: Adobe Illustrator 19.0.0, SVG Export Plug-In . SVG Version: 6.00 Build 0)  -->
<svg version="1.1" id="Layer_1" xmlns="http://www.w3.org/2000/svg" xmlns:xlink="http://www.w3.org/1999/xlink" x="0px" y="0px"
	 width="100px" height="100px" viewBox="0 0 100 100" enable-background="new 0 0 100 100" xml:space="preserve">
<circle fill="#FFFFFF" cx="50" cy="50" r="50"/>
<g>
	<path id="XMLID_11_" fill="#0075FF" stroke="#0075FF" stroke-miterlimit="10" d="M76.206,73.412L63.435,60.641
		c3.172-3.673,5.175-8.514,5.175-13.689C68.61,35.432,59.178,26,47.575,26S26.54,35.432,26.54,46.952s9.432,20.952,21.035,20.952
		c5.259,0,10.017-1.92,13.773-5.092l12.771,12.771C74.453,75.917,74.787,76,75.204,76s0.751-0.167,1.085-0.417
		C76.79,74.915,76.79,73.997,76.206,73.412z M29.545,46.952c0-9.933,8.097-17.947,18.03-17.947s18.03,8.013,18.03,17.947
		s-8.097,17.947-18.03,17.947S29.545,56.801,29.545,46.952z"/>
</g>
</svg>
