<?xml version="1.0" encoding="utf-8"?>
<!-- Generator: Adobe Illustrator 19.0.0, SVG Export Plug-In . SVG Version: 6.00 Build 0)  -->
<svg version="1.1" id="Layer_1" xmlns="http://www.w3.org/2000/svg" xmlns:xlink="http://www.w3.org/1999/xlink" x="0px" y="0px"
	 width="100px" height="100px" viewBox="0 0 100 100" enable-background="new 0 0 100 100" xml:space="preserve">
<circle id="XMLID_2_" fill="#FFFFFF" cx="50" cy="50" r="50"/>
<g transform="translate(0,-952.36218)">
	<path fill="#0075FF" stroke="#0075FF" stroke-width="2" stroke-miterlimit="10" d="M49.325,977.574L26.598,994.62
		c-0.287,0.212-0.464,0.566-0.462,0.923v30.683c0,0.595,0.541,1.136,1.136,1.136h15.341c0.595,0,1.136-0.541,1.136-1.136v-18.183
		h12.5v18.183c0,0.595,0.541,1.136,1.136,1.136h15.341c0.595,0,1.136-0.541,1.136-1.136v-30.683c0-0.357-0.174-0.711-0.462-0.923
		l-22.727-17.046C50.153,977.267,49.775,977.317,49.325,977.574z M50,979.917l21.591,16.194v28.978H58.523v-18.183
		c0-0.595-0.541-1.136-1.136-1.136H42.614c-0.595,0-1.136,0.541-1.136,1.136v18.183H28.409v-28.978L50,979.917z"/>
</g>
</svg>
