<?xml version="1.0" encoding="utf-8"?>
<!-- Generator: Adobe Illustrator 19.0.0, SVG Export Plug-In . SVG Version: 6.00 Build 0)  -->
<svg version="1.1" id="Layer_1" xmlns="http://www.w3.org/2000/svg" xmlns:xlink="http://www.w3.org/1999/xlink" x="0px" y="0px"
	 width="100px" height="100px" viewBox="0 0 100 100" enable-background="new 0 0 100 100" xml:space="preserve">
<circle id="XMLID_14_" fill="#FFFFFF" cx="50" cy="50" r="50"/>
<g>
	<path fill="#0075FF" stroke="#0075FF" stroke-width="2" stroke-miterlimit="10" d="M59.621,26.901
		c-6.205-2.535-12.974-2.535-19.179,0s-11,7.324-13.538,13.521s-2.538,12.958,0,19.155s7.333,10.986,13.538,13.521
		C43.545,74.366,46.788,75,50.032,75c0.141,0,0.282,0,0.494,0c0.071,0,0.141,0,0.141,0c0.212,0,0.353,0,0.494,0
		c2.82-0.141,5.711-0.775,8.391-1.901c12.763-5.282,18.827-19.93,13.538-32.606C70.621,34.296,65.756,29.507,59.621,26.901z
		 M70.269,39.718h-6.205c-0.705-2.394-1.622-4.718-2.679-6.69c-0.846-1.549-1.833-2.887-2.82-4.014c0.071,0,0.141,0.07,0.212,0.07
		C63.782,31.197,67.801,34.93,70.269,39.718z M63.076,50c0,2.535-0.353,5.282-1.058,7.958H51.865V42.113H62.23
		C62.724,44.577,63.076,47.254,63.076,50z M38.256,50c0-2.746,0.353-5.423,0.917-7.958h10.365v15.845H39.385
		C38.609,55.282,38.256,52.535,38.256,50z M49.468,27.465v12.254h-9.731C41.711,33.169,45.449,28.31,49.468,27.465z M49.468,60.282
		v12.254c-3.949-0.916-7.474-6.127-9.519-12.254C39.949,60.282,49.468,60.282,49.468,60.282z M51.865,72.535V60.282h9.519
		C59.339,66.409,55.743,71.62,51.865,72.535z M51.865,39.718V27.465c4.09,0.775,7.756,5.704,9.731,12.254h-9.731V39.718z
		 M41.359,29.084c0.705-0.282,1.41-0.563,2.115-0.775c-1.269,1.268-2.397,2.817-3.455,4.718c-1.128,2.042-2.045,4.296-2.679,6.69
		h-7.474C32.263,34.93,36.353,31.197,41.359,29.084z M28.878,41.972v0.141h7.897c-0.564,2.606-0.846,5.282-0.846,7.958
		c0,2.535,0.353,5.282,0.987,7.958h-8.038v0.141C26.833,52.817,26.833,47.183,28.878,41.972z M29.865,60.282h7.686
		c0.635,2.113,1.481,4.155,2.468,6.056c1.199,2.254,2.468,4.085,3.878,5.493c-0.846-0.211-1.692-0.563-2.538-0.845
		C36.282,68.803,32.263,65.07,29.865,60.282z M58.705,70.916c-0.212,0.07-0.494,0.211-0.705,0.282
		c1.199-1.338,2.327-2.958,3.314-4.859s1.833-3.944,2.468-6.056h6.417C67.801,65.07,63.782,68.803,58.705,70.916z M71.256,57.958
		h-6.84c0.635-2.676,0.987-5.352,0.987-7.958c0-2.676-0.282-5.352-0.846-7.958h6.699C73.23,47.183,73.23,52.817,71.256,57.958z"/>
</g>
</svg>
