<?xml version="1.0" encoding="utf-8"?>
<!-- Generator: Adobe Illustrator 19.0.0, SVG Export Plug-In . SVG Version: 6.00 Build 0)  -->
<svg version="1.1" id="Layer_1" xmlns="http://www.w3.org/2000/svg" xmlns:xlink="http://www.w3.org/1999/xlink" x="0px" y="0px"
	 width="100px" height="100px" viewBox="0 0 100 100" enable-background="new 0 0 100 100" xml:space="preserve">
<circle id="XMLID_3_" fill="#FFFFFF" cx="50" cy="50" r="50"/>
<g>
	<path fill="none" stroke="#0075FF" stroke-width="4" stroke-miterlimit="10" d="M69.5,50.2c-0.6,0-1.2-0.1-1.7-0.3l-4.4,14H50.2
		l0,0h-0.4l0,0H36.5l-4.4-14c-0.5,0.1-1,0.2-1.6,0.2c-3.1,0-5.6-2.5-5.6-5.6s2.5-5.6,5.6-5.6s5.6,2.5,5.6,5.6c0,2.1-1.1,3.8-2.7,4.8
		c2.1,2.2,5.4,4.5,9,3.2c3-1.1,5.8-7.3,6.7-10.7c-2.7-0.4-4.8-2.7-4.8-5.6c0-3.2,2.5-5.7,5.6-5.7s5.6,2.6,5.6,5.7
		c0,2.9-2.1,5.2-4.8,5.6c1,3.4,3.8,9.6,6.7,10.7c3.6,1.3,6.9-1,9.1-3.2c-1.5-1-2.6-2.8-2.6-4.8c0-3.1,2.5-5.6,5.5-5.6
		s5.5,2.5,5.5,5.6C75,47.7,72.5,50.2,69.5,50.2z"/>
	<path fill="none" stroke="#0075FF" stroke-width="4" stroke-miterlimit="10" d="M37.5,63.9h25c2.3,0,4.2,1.3,4.2,3.6
		c0,2.3-1.9,1.9-4.2,1.9c0,0-6.3,0-12.5,0s-12.5,0-12.5,0c-2.3,0-4.2,0.4-4.2-1.9C33.3,65.3,35.2,63.9,37.5,63.9z"/>
</g>
</svg>
