<?xml version="1.0" encoding="utf-8"?>
<!-- Generator: Adobe Illustrator 19.0.0, SVG Export Plug-In . SVG Version: 6.00 Build 0)  -->
<svg version="1.1" id="Layer_1" xmlns="http://www.w3.org/2000/svg" xmlns:xlink="http://www.w3.org/1999/xlink" x="0px" y="0px"
	 width="100px" height="100px" viewBox="0 0 100 100" enable-background="new 0 0 100 100" xml:space="preserve">
<circle id="XMLID_2_" fill="#FFFFFF" cx="50" cy="50" r="50"/>
<g id="XMLID_1_">
	<path id="XMLID_7_" fill="#0075FF" d="M50,75L35.452,48.106l-0.458-1.047c-0.205-0.514-0.387-1.058-0.542-1.616
		c-0.388-1.404-0.583-2.854-0.583-4.313C33.869,32.236,41.105,25,50,25s16.131,7.236,16.131,16.131c0,1.46-0.197,2.911-0.584,4.312
		c-0.155,0.559-0.346,1.124-0.567,1.681l-0.481,1.082L50,75z M38.703,46.597L50,67.471l11.313-20.906l0.362-0.824
		c0.149-0.377,0.298-0.819,0.418-1.254c0.302-1.09,0.455-2.219,0.455-3.356c0-6.919-5.629-12.548-12.548-12.548
		s-12.547,5.629-12.547,12.548c0,1.136,0.153,2.266,0.454,3.358c0.117,0.422,0.254,0.833,0.406,1.219L38.703,46.597z"/>
	<path id="XMLID_8_" fill="#0075FF" d="M50,49.137c-4.487,0-8.137-3.649-8.137-8.135c0-4.487,3.65-8.137,8.137-8.137
		s8.137,3.649,8.137,8.135C58.137,45.487,54.486,49.137,50,49.137z M50,36.448c-2.511,0-4.553,2.043-4.553,4.554
		c0,2.51,2.043,4.552,4.553,4.552c2.512,0,4.554-2.043,4.554-4.554C54.554,38.49,52.511,36.448,50,36.448z"/>
</g>
</svg>
