<?xml version="1.0" encoding="utf-8"?>
<!-- Generator: Adobe Illustrator 19.0.0, SVG Export Plug-In . SVG Version: 6.00 Build 0)  -->
<svg version="1.1" id="Layer_1" xmlns="http://www.w3.org/2000/svg" xmlns:xlink="http://www.w3.org/1999/xlink" x="0px" y="0px"
	 width="100px" height="100px" viewBox="0 0 100 100" enable-background="new 0 0 100 100" xml:space="preserve">
<circle id="XMLID_4_" fill="#FFFFFF" cx="50" cy="50" r="50"/>
<g id="XMLID_1_">
	<path id="XMLID_3_" fill="#0075FF" d="M24.526,62.5c-6.617,0-12-5.383-12-12s5.383-12,12-12s12,5.383,12,12
		S31.143,62.5,24.526,62.5z M24.526,42.5c-4.411,0-8,3.589-8,8s3.589,8,8,8s8-3.589,8-8S28.938,42.5,24.526,42.5z"/>
	<path id="XMLID_5_" fill="#0075FF" d="M75.113,62.5c-6.617,0-12-5.383-12-12s5.383-12,12-12s12,5.383,12,12S81.73,62.5,75.113,62.5
		z M75.113,42.5c-4.411,0-8,3.589-8,8s3.589,8,8,8s8-3.589,8-8S79.524,42.5,75.113,42.5z"/>
	<path id="XMLID_6_" fill="#0075FF" d="M55.729,50.5c0-1.66,1.34-3,3-3l0,0c1.65,0,3,1.34,3,3l0,0c0,1.66-1.35,3-3,3l0,0
		C57.069,53.5,55.729,52.16,55.729,50.5z M46.73,50.5c0-1.66,1.34-3,3-3l0,0c1.65,0,3,1.34,3,3l0,0c0,1.66-1.35,3-3,3l0,0
		C48.07,53.5,46.73,52.16,46.73,50.5z M37.73,50.5c0-1.66,1.34-3,3-3l0,0c1.65,0,3,1.34,3,3l0,0c0,1.66-1.35,3-3,3l0,0
		C39.07,53.5,37.73,52.16,37.73,50.5z"/>
</g>
</svg>
