<?xml version="1.0" encoding="utf-8"?>
<!-- Generator: Adobe Illustrator 19.0.0, SVG Export Plug-In . SVG Version: 6.00 Build 0)  -->
<svg version="1.1" id="Layer_1" xmlns="http://www.w3.org/2000/svg" xmlns:xlink="http://www.w3.org/1999/xlink" x="0px" y="0px"
	 width="100px" height="100px" viewBox="0 0 100 100" enable-background="new 0 0 100 100" xml:space="preserve">
<circle id="XMLID_1_" fill="none" stroke="#000000" stroke-width="5" stroke-miterlimit="10" cx="50" cy="50" r="47"/>
<g>
	<path fill="none" stroke="#000000" stroke-miterlimit="10" d="M26.539,68.171l-0.135-0.337v-0.202l-0.067-0.269l-0.269-0.74v-0.269
		l-0.135-0.202l-0.202-0.404l-0.135-0.269l-0.135-0.269l-0.067-0.404l0.067-0.337l0.202-0.134l0.067-0.202L26,64.065
		c0.067,0,0.202,0,0.269,0l-0.067-0.269l0.135-0.202l-0.135-0.471v-0.606L26,61.911v-0.202c-0.135-0.337-0.202-0.673-0.269-1.01
		l-0.269-0.875v-0.337h0.067l0.135-0.404l-0.067-0.673l0.269-0.673l0.067-0.404v-0.808c-0.067-0.269-0.135-0.606-0.269-0.875
		l-0.135-0.202h-0.27l-0.269-0.135l-0.337-0.538l-0.472-0.404h-0.472l-0.539-0.269l-0.27,0.269v-0.269l-0.135-0.269l-0.404-0.269
		l-0.202-0.202l-0.135,0.269l-0.067-0.538l-0.337-0.067l-0.134-0.202l0.135-0.404v-0.337H21.55
		c-0.067-0.404-0.135-0.808-0.202-1.211h-0.135l-0.067-0.269l-0.135-0.471c-0.067-0.067-0.135-0.134-0.135-0.202l-0.202-0.202
		l-0.135,0.067v0.134l-0.202-0.134c-0.067-0.067-0.067-0.269-0.067-0.538v-0.269v-0.337c-0.067-0.067-0.067-0.134-0.135-0.269
		h-0.067c0,0.539-0.067,1.077-0.067,1.616c0,7.135,2.494,13.732,6.674,18.847h0.067v-0.202l-0.135-0.269L26.539,68.171z
		 M40.696,29.131l0.404-0.269l0.067-0.202l0.269-0.269l-0.202-0.269v0.067h-0.404c-0.269,0.134-0.607,0.269-0.944,0.404v0.337
		l-0.404,0.337l0.472,0.067L40.696,29.131z M39.348,25.429c0.337-0.067,0.809-0.202,1.146-0.269l0.404-0.134l-0.135-0.202
		l0.202-0.202h-0.404l-0.539,0.134l-0.269-0.067l-0.539,0.134l-0.202-0.202l-0.337,0.067l-0.269,0.202l0.472,0.067l-0.067,0.067
		l-0.406,0.068l0.404,0.067l-0.337,0.134C38.674,25.294,39.079,25.361,39.348,25.429z M58.427,23.746l0.404,0.067l0.202,0.134
		l0.674,0.067h0.135l-0.607-0.202l-0.269-0.202l0.067-0.269v-0.268l0.269-0.269c0.269-0.067,0.472-0.134,0.742-0.202v-0.067
		l-0.269-0.067h-0.338l-0.135,0.067h-0.472c-0.202,0.067-0.404,0.134-0.607,0.269l0.269,0.202l-0.269,0.202h0.202l-0.202,0.202
		l0.135,0.134l-0.202,0.067L58.427,23.746z M28.427,29.265l-0.135,0.067c-0.404,0.404-0.809,0.808-1.146,1.279h0.067h0.135
		l0.067,0.067l-0.269,0.202h0.067l0.404-0.269v0.067l-0.269,0.269v0.067h0.067l0.269-0.269l0.135-0.269l0.135-0.134l-0.135,0.067
		l0.269-0.269v-0.134l-0.135,0.067v-0.134l0.135-0.134v-0.068l-0.202,0.134c0.202-0.202,0.404-0.337,0.607-0.538l0.135-0.202h-0.067
		L28.427,29.265z M43.933,28.929l-0.404-0.067l-0.067-0.134l-0.135-0.404l-0.269-0.067l-0.202-0.404h-0.271l0.404-0.269l0.202-0.269
		h-0.337l-0.337,0.067l0.404-0.471h-0.404h-0.269l-0.337,0.269l-0.269,0.337l0.135,0.269l-0.135,0.269l0.269-0.202l0.067,0.134
		l-0.202,0.134v0.134l0.404,0.067l0.202,0.269l-0.135,0.202l-0.539-0.067l-0.269,0.269l0.135,0.202l-0.404,0.134l0.067,0.134
		l0.539,0.134l-0.337,0.067l-0.674,0.337l0.202,0.067l0.269-0.202l0.337,0.067l0.269-0.202l0.202,0.067h0.742h0.472l0.404-0.202
		l-0.135-0.202l0.269-0.134L43.933,28.929z M32.809,26.573h0.269c0.337-0.202,0.539-0.337,0.809-0.538l0.202-0.269l0.539-0.269
		l0.269-0.202l0.269-0.202l0.404-0.134c0.202-0.067,0.404-0.067,0.607-0.134h0.135l0.607-0.202l0.607-0.269l0.269-0.134H38
		l0.674-0.067c0.539-0.067,1.011-0.202,1.483-0.337c-0.269-0.067-0.472-0.067-0.809-0.067l0.337-0.134l0.135-0.202
		c0.067,0.067,0.135,0.202,0.135,0.269l0.404-0.067l0.135-0.202l-0.067-0.134l-0.202-0.067l0.202-0.067l0.269,0.337l0.135-0.134
		V23.14h0.269h0.269l0.202-0.067l-0.136-0.134l0.472-0.134v-0.202h0.269l0.202-0.202l-0.202-0.134l0.337-0.067h0.202v-0.135
		l0.269-0.202c0.269-0.067,0.472-0.202,0.742-0.269h0.202h0.135l0.877-0.134V21.39l-0.404-0.067
		c-0.404,0.067-0.877,0.067-1.281,0.134l0.337-0.134v-0.068l-0.337,0.067l-0.337-0.067c0.202,0,0.472,0,0.674,0h0.067l0.269-0.067
		c-0.135,0-0.269-0.067-0.472-0.134c-0.337,0-0.809,0-1.146,0c-0.067,0-0.067,0-0.135,0.067h-0.067l0,0
		c-2.158,0.606-4.18,1.414-6.067,2.423v0.067h-0.067c-0.135,0.067-0.269,0.134-0.404,0.202c0.067,0,0.135,0,0.202-0.067
		c-0.202,0.067-0.337,0.202-0.539,0.269h-0.067c-0.269,0.134-0.539,0.337-0.809,0.471v0.067l-0.269,0.202l-0.269,0.269l-0.269,0.269
		l-0.406,0.201l-0.269,0.337l-0.269,0.269l-0.067,0.202h0.269L32.809,26.573L32.809,26.573z M65.169,60.026l-0.067-0.202
		l-0.135-0.202l-0.135,0.202l-0.067,0.269l-0.269,0.269l-0.202-0.067v0.202l-0.202,0.269l-0.404,0.269l-0.269,0.269h-0.202
		l-0.202,0.067l-0.269,0.134h-0.269l-0.135,0.269l-0.202,0.269l-0.067,0.404v0.269l0.067,0.404L62,63.392l-0.269,0.337l-0.067,0.134
		l-0.202,0.067L61.326,64.2l-0.067,0.269l0.067,0.337l-0.067,0.337l0.067,0.269c0.202,0.067,0.269,0.202,0.472,0.269l0.337-0.202
		l0.337-0.134l0.269-0.471c0.539-0.875,1.011-1.683,1.483-2.558l0.135-0.337l0.135-0.202l0.067-0.202v-0.337l0.135-0.134
		l0.067,0.269l0.135-0.134l0.202-0.202l-0.067-0.269l0.202-0.471L65.169,60.026z M48.315,34.852l-0.539-0.067l-0.135,0.202
		l0.674,0.269l0.269,0.067l0.337,0.202l0.135-0.202l-0.067-0.134l0.135-0.269c0-0.067,0-0.067,0-0.134
		C48.787,34.785,48.517,34.852,48.315,34.852z M62.472,23.746h0.202l-0.269-0.269l-0.269-0.134h-0.067l0.269,0.202v0.134h0.067
		L62.472,23.746z M63.079,23.073L63.079,23.073h-0.269l-0.202,0.067l0.404,0.269l0.404,0.202l-0.404-0.134h-0.269l-0.067,0.134
		l0.269,0.202l-0.202-0.067l0.269,0.269l0.269,0.134h0.202l0.202,0.202l0.269,0.202v0.134l0.135,0.134l-0.135,0.067l0.067,0.134
		l-0.269-0.067l-0.135-0.337l-0.269-0.202l-0.337-0.202l-0.404-0.337l-0.135-0.134h-0.135v-0.067l-0.202-0.067L62,23.409
		l-0.269-0.134l-0.472-0.067l-0.067,0.067l0.202,0.202v0.269l0.134,0.134l0.337,0.202l0.067,0.134h0.269l0.067,0.067l0.269,0.067
		c0.067,0,0.135,0,0.202,0.067h-0.135l-0.067-0.067c-0.404-0.067-0.809-0.202-1.213-0.269l-0.674-0.067v0.067l0.337,0.202
		l-0.067,0.202l-0.404-0.202l-0.202,0.134H59.91l-0.067,0.068l-0.269-0.067l0.135-0.269h-0.202
		c-0.337,0.067-0.674,0.202-1.011,0.337l0.067,0.202l-0.337,0.067l-0.269-0.134l-0.136-0.135h0.269l-0.269-0.134l-0.742-0.134
		l0.337,0.202v0.202l0.269,0.202v0.202l-0.269-0.136h-0.27l-0.472,0.269l0.337,0.202l-0.269,0.067l-0.809-0.202l-0.202,0.134
		L56,25.496v0.134c-0.269-0.067-0.404-0.134-0.674-0.202l-0.202-0.404l-0.539-0.202h0.202c0.472,0.067,0.944,0.202,1.348,0.269
		l0.404-0.067l0.202-0.134l-0.135-0.202l-0.269-0.134l-1.146-0.269l-0.742-0.067l-0.404-0.202l-0.202,0.067l-0.337-0.202
		l0.269-0.067l-0.877-0.202l-0.404-0.067h-0.472l-0.337,0.202H51.28l-0.674,0.067c-0.404,0.202-0.877,0.269-1.281,0.471
		c-0.539,0.269-0.944,0.606-1.416,0.875l-0.674,0.269l-0.877,0.269L45.954,25.9l-0.133,0.74l0.067,0.337l0.404,0.202l0.472-0.067
		l0.877-0.337l0.202,0.202l0.135,0.471l0.269,0.404l0.067,0.269h0.404l0.269-0.269l0.404,0.067l0.269-0.269l0.202-0.538h0.337
		l0.269-0.337l-0.269-0.202L50,26.304l0.269-0.404c0.337-0.202,0.742-0.269,1.079-0.471l-0.067-0.202l0.269-0.134l0.539-0.134
		l0.404,0.134l0.135,0.134l-0.202,0.067l-0.674,0.202l-0.269,0.202L51.348,25.9l0.202,0.269l-0.067,0.269l0.337,0.134l0.269,0.202
		l0.539-0.067l0.472-0.202h0.607l0.337,0.202l-0.337,0.202h-0.337l-0.337-0.067l-0.404,0.067l-0.404,0.067l-0.067,0.134l0.067,0.134
		l0.135-0.067c0,0.134-0.067,0.269-0.067,0.404h-0.269l-0.269-0.269l-0.269,0.134l-0.202,0.202v0.269l0.135,0.269l-0.472,0.134
		l-0.135,0.134h-0.337v-0.067l-0.337-0.067c-0.337,0.067-0.742,0.202-1.079,0.269l-0.269,0.134l-0.135-0.134l-0.472-0.134
		l-0.202,0.134l-0.337,0.067v-0.134l-0.337-0.067v-0.134l-0.067-0.202l0.269-0.269l0.135,0.067l0.135-0.134l-0.202-0.067
		l-0.067-0.134h0.067l0.067-0.202l-0.337,0.067l-0.135,0.067h-0.337h-0.067l-0.067,0.067L46.63,27.92l0.135,0.202v0.202l0.067,0.134
		l-0.202,0.202l-0.067-0.067h-0.404l-0.067,0.067h-0.269l-0.539,0.134l-0.472,0.538l-0.269,0.134
		c-0.269,0.067-0.472,0.067-0.742,0.134l-0.202,0.269l-1.011,0.269l-0.269-0.202v0.404l-0.674-0.134l-0.539,0.067l-0.067,0.269
		l0.539,0.202l0.269,0.202l0.269,0.404l-0.269,0.808l-0.269,0.269H40.9h-0.338l-0.404-0.067h-0.539l-0.472-0.067l-0.674,0.269
		l0.135,0.202l-0.135,0.269v0.134v0.134l-0.067,0.202l-0.202,0.269l-0.067,0.202l-0.269,0.134l-0.135,0.269l0.202,0.337l0.202,0.067
		l-0.067,0.269l-0.202,0.269l0.269-0.067l0.202,0.067l0.202-0.134h0.337l0.067,0.269l0.135,0.134l0.337,0.067l0.202-0.202
		l0.269-0.134c0.337,0,0.674,0,1.011,0l0.337-0.269l0.337-0.067l0.202-0.269l0.269-0.202l-0.135-0.269l0.269-0.337l0.269-0.269
		v-0.134l0.607-0.067l0.472-0.269v-0.202l0.135-0.269l0.674-0.134l0.877,0.134l0.404-0.269h0.202l0.269-0.269l0.202-0.067
		l0.337,0.134l0.269,0.067l0.067,0.404l0.269,0.269l0.337,0.269l0.337,0.202h0.269l0.202,0.202l0.337,0.067l0.135,0.202l0.202,0.067
		c0.067,0.202,0.135,0.337,0.269,0.471l-0.135,0.067l-0.135,0.269l0,0h0.067l-0.067,0.134l0,0h0.269l0.269-0.269h0.202l0.067-0.269
		l-0.269-0.202l0.202-0.269l0.337,0.067l0.269,0.202l0.067-0.134l-0.067-0.067L50,33.708c-0.269-0.067-0.472-0.134-0.742-0.269
		l0.202-0.134l-0.135-0.134h-0.337L48.516,32.9l-0.202-0.337l-0.337-0.202l-0.135-0.202l0.067-0.134v-0.202l0.269-0.134l0.337,0.067
		l-0.202,0.067v0.067l0.135,0.134l0.202-0.202l0.269,0.067v0.134l0.202,0.202h-0.067l0.269,0.269l0.404,0.134L50,32.766
		c0.202,0.067,0.404,0.202,0.607,0.269l0.135,0.134l0.067,0.067l0.067,0.067l-0.067,0.134l-0.067,0.269l0.067,0.202l0.269,0.134
		v0.134h0.067l0.067,0.134c0.135,0.134,0.269,0.269,0.404,0.404l0.067,0.269l0.202,0.337l0.404,0.202h0.269l-0.202-0.337
		l0.337-0.067l-0.135-0.269l0.472,0.269v-0.269l-0.269-0.134l-0.202-0.202l0.202-0.067l-0.269-0.202l-0.135-0.269v-0.134
		l0.135,0.269c0.067,0,0.202,0,0.269,0l0.269-0.067l-0.337-0.269l0.539-0.134l0.269,0.134h0.269v0.067l0.135,0.202l0.404-0.202
		l0.202-0.134h0.472l0.067-0.067l-0.337-0.134v-0.202l-0.202-0.269l0.135-0.269l0.202-0.202l0.067-0.471l0.135,0.067l0.202-0.067
		v-0.134l0.269-0.269l0.135-0.202L56,31.419l0.067,0.134l0.674,0.134l0.135,0.134l-0.337,0.134l-0.067,0.067l0.472,0.134
		l-0.067,0.202l0.269,0.067l0.472-0.269l0.404-0.067v-0.067l0,0h0.067v-0.067h-0.404l-0.269-0.134l-0.067-0.269l0.269-0.134h0.337
		l0.269-0.134h0.269l0.337-0.067v0.134l-0.539,0.134l0.269,0.202l-0.269,0.269l-0.202,0.067l0,0l0.337,0.202l0.404,0.134
		l0.607,0.337l0.202,0.134h0.269l0.269,0.202l0.269,0.471v0.202l-0.404,0.202l-0.472-0.067L59.1,33.91l-0.607-0.202l-0.809-0.269
		H57.01l-0.472,0.134l-0.472,0.269l-0.877-0.067l-0.135,0.269H54.38l-0.472,0.337l0.472,0.202l-0.202,0.269l0.337,0.269l0.269,0.404
		h0.472l0.472,0.269L56,35.727l0.067-0.202h0.472l0.337,0.269l0.674-0.067l0.269-0.269l0.337,0.134l0.269-0.067l-0.135,0.202
		l0.202,0.202l-0.067,0.202l0.135,0.471l-0.202,0.269l-0.135,0.337l-0.067,0.134L58.09,37.68l-0.135,0.202h0.135l-0.135,0.134
		l-0.202,0.134l-0.337-0.067l-0.337-0.134l-0.135,0.134l-0.202-0.269l-0.337-0.067l-0.337,0.067l-0.202,0.134l-0.337,0.134
		c-0.337-0.134-0.809-0.202-1.146-0.337h-0.607l-0.135-0.202l-0.472-0.067l-0.202-0.067h-0.269l-0.135-0.202l-0.674-0.134
		l-0.269,0.067l-0.337,0.202l-0.135,0.269l0.135,0.269l-0.135,0.337l-0.269,0.134l-0.539-0.269l-0.674-0.202l-0.404-0.134
		l-0.269-0.404l-0.674-0.202l-0.404-0.067l-0.202,0.067l-0.539-0.202l-0.202-0.067l-0.135-0.202h-0.269l-0.067-0.269l0.269-0.269
		l0.135-0.337l-0.269-0.134v-0.202l0.269-0.202v-0.067l-0.404,0.202l-0.067-0.269l-0.269-0.067l-0.539,0.202h-0.269l-0.202-0.134
		h-0.472l-0.472,0.202l-0.269-0.067c-0.539,0-1.011,0-1.55,0.067l-0.472,0.134l-0.269,0.202l-0.539,0.067l-0.472,0.269h-0.202
		l-0.404-0.134h-0.404l-0.269-0.202H39.08l-0.202,0.269l-0.404,0.404c-0.337,0.067-0.607,0.202-0.877,0.337l-0.404,0.269
		l-0.135,0.269l-0.269,0.404v0.538l-0.404,0.337l-0.269,0.134L35.71,38.89l-0.404,0.067l-0.269,0.202l-0.337,0.471l-0.202,0.202
		l-0.269,0.269l-0.067,0.269l-0.202,0.269l-0.202,0.067l-0.269,0.269l-0.202,0.337v0.202l-0.202,0.269l-0.269,0.134
		c-0.067,0.134-0.067,0.269-0.135,0.404l0.202,0.269h0.067l-0.067,0.269v0.269v0.471l-0.135,0.471l-0.135,0.269v0.269l-0.135,0.269
		l-0.269,0.337L32,45.352l0.202,0.202v0.404l-0.067,0.269c0,0.134,0.067,0.269,0.067,0.471l0.135,0.134V46.9l0.135,0.134
		l0.202,0.067l0.269,0.269l0.135,0.067l0.067,0.134l0.067,0.269l0.135,0.134l0.067,0.134l0.202,0.202l0.202,0.269l0.067,0.337
		l0.067,0.202l0.269,0.269l0.337,0.202l0.135,0.067l0.269,0.337l0.404,0.269l0.404,0.269l0.472,0.269h0.135h0.135
		c0.337,0,0.607-0.134,0.877-0.269L38,50.468h0.269l0.337,0.134h0.269l0.472,0.202l0.539-0.134l0.269-0.202l0.877-0.269l0.404-0.134
		l0.472-0.067c0.269,0,0.607,0,0.877,0l0.337,0.404l0.202,0.337l0.269,0.269h0.337l0.202-0.134l0.202,0.067l0.539-0.202v0.134
		l0.135,0.067l0.135,0.269l0.269,0.134l0.202,0.337l-0.067,0.404l-0.135,0.606l0.202,0.067c-0.067,0.269-0.202,0.471-0.269,0.74
		l-0.135,0.202v0.202l0.269,0.538l0.337,0.404l0.809,0.538l0.337,0.471l0.135,0.337l0.067,0.202l-0.067,0.134l0.269,0.269
		c0.067,0.269,0.135,0.538,0.269,0.808l-0.202,0.202v0.134c0.067,0.269,0.135,0.404,0.269,0.606l0.202,0.202v0.337l-0.067,0.337
		l-0.202,0.202l-0.337,0.269l-0.135,0.202l-0.202,0.404V60.7l-0.202,0.404l-0.067,0.404v0.269l0.067,0.337l0.404,0.471l0.135,0.269
		l0.269,0.538l0.269,0.337l0.135,0.134l0.067,0.269v0.606l0.202,0.673l0.135,0.269l0.135,0.404l0.202,0.337l0.337,0.269
		c0.269,0.404,0.539,0.875,0.809,1.279v0.269l-0.135,0.067l0.135,0.269v0.269l0.202,0.202h0.135l0.202,0.134h0.269l0.269-0.134
		l0.337-0.067l0.404-0.067h0.202l0.269-0.067l0.337,0.067l0.202-0.067l0.202,0.202l0.067-0.134h0.269l0.404-0.134l0.337-0.202
		c0.337-0.202,0.607-0.337,0.877-0.606l0.269-0.269l0.135-0.269l0.269-0.202c0.135-0.067,0.269-0.202,0.404-0.269l0.135-0.202
		l0.135-0.337l0.202-0.269l0.067-0.269h-0.135v-0.202l0.269-0.202c0.337-0.067,0.674-0.202,0.944-0.337l0.202-0.134l0.067-0.202
		l-0.067-0.067l0.202-0.269l0.067-0.538h-0.067v-0.134l-0.067-0.269l-0.202-0.337l0.067-0.269l0.337-0.134l0.337-0.269l0.202-0.067
		l0.607-0.471c0.269-0.067,0.674-0.202,0.944-0.337l0.269-0.269l0.269-0.269l0.202-0.269l-0.135-0.269l0.067-0.74v-0.404
		l0.067-0.471l-0.064-0.27l-0.202-0.134l-0.068-0.472l-0.135-0.269l0.067-0.269v-0.134l0.202-0.337V56.93l-0.269-0.202v-0.269
		l0.269-0.606l0.202-0.202l0.135-0.269l0.135-0.134l0.135-0.337l0.135-0.067l0.135-0.202l0.337-0.202l0.135-0.134l0.135-0.337
		l0.539-0.606l0.607-0.337l0.742-0.471l0.472-0.404c0.337-0.404,0.674-0.875,0.944-1.279l0.337-0.808
		c0.202-0.404,0.337-0.875,0.472-1.279l0.269-0.606l0.067-0.202v-0.269l0.067-0.269v-0.134h-0.202l-0.202,0.202l-0.269,0.067
		l-0.202,0.067c-0.135,0-0.269,0-0.404,0l-0.202,0.134l-0.269,0.067l-0.404,0.202l-0.472,0.067l-0.404,0.134h-0.271l-0.269-0.269
		l-0.135-0.269c-0.067-0.067-0.202-0.202-0.337-0.269l0.269-0.134V47.1l-0.135-0.202l-0.269-0.202
		c-0.202-0.337-0.404-0.538-0.674-0.808l-0.674-0.471l-0.269-0.269l-0.202-0.471L60.45,44.07c-0.202-0.067-0.269-0.134-0.472-0.269
		l-0.202-0.606l-0.135-0.471l0.135-0.067l-0.202-0.471l-0.135-0.131l-0.674-0.404v-0.269l0.067-0.067l-0.472-0.538l-0.269-0.269
		l-0.202-0.269l-0.404-0.74l-0.269-0.471l-0.269-0.471h0.067l0.404,0.673c0.135,0.067,0.269,0.202,0.404,0.337l0.135-0.067
		l0.135-0.269l0.067-0.404l0.135-0.202v0.067l-0.067,0.202v0.202l-0.067,0.269h0.269c0.202,0.269,0.404,0.471,0.607,0.74
		l0.269,0.337l0.135,0.134l0.135,0.202v0.134l0.135,0.202l0.269,0.134l0.269,0.134l0.269,0.538v0.337l0.067,0.337l0.337,0.538
		l0.269,0.067l0.337,0.337l0.202,0.404l0.337,0.404l0.135,0.202l0.135,0.134l0.135,0.202l0.067,0.269l0.067,0.269l-0.067,0.134
		l0.067,0.269h-0.135l0.135,0.202l0.202,0.337l0.067,0.202v0.269l0.135,0.269h0.269l0.135-0.067h0.269l0.067-0.134l0.135-0.067
		l0.135-0.202h0.135h0.337l0.269-0.134l0.269-0.134l0.135,0.067h0.202l0.337-0.337l0.674-0.269l0.404-0.202v-0.202l-0.067-0.134
		l0.269-0.202h0.202l0.269-0.202l0.269,0.067l0.202-0.134v-0.202l0.202-0.134h0.269l0.067-0.134v-0.269l0.269-0.202
		c0.067,0,0.135,0,0.202,0v-0.067l-0.135-0.269v-0.269l0.202,0.134h0.202l0.135-0.269l0.135-0.202
		c0.067-0.134,0.067-0.269,0.135-0.404c0-0.067,0-0.067,0-0.134l-0.135-0.067c-0.067-0.134-0.202-0.269-0.337-0.404l-0.269-0.067
		l-0.269-0.067l-0.269-0.202l-0.269-0.269l-0.135-0.337L68,40.91v-0.202l-0.067-0.067l-0.067,0.202l-0.202,0.269l-0.269,0.269
		l-0.269,0.269c-0.269-0.067-0.404-0.067-0.607-0.067l-0.337,0.067l-0.067-0.134h-0.067l-0.135-0.202l0.067-0.269l-0.067-0.269
		l-0.135-0.134l-0.135,0.067l-0.067,0.269l0.067,0.337l-0.067-0.134l-0.067-0.202l-0.135-0.134l-0.067-0.202v-0.202l-0.067-0.202
		l-0.269-0.202l-0.135-0.202l-0.269-0.134c-0.135-0.269-0.269-0.471-0.404-0.74v-0.134l-0.135-0.202h0.269l0.135-0.202l0.269,0.202
		l0.135-0.067l0.472,0.606l0.337,0.404l0.404,0.134l0.607,0.337l0.539,0.202l0.337-0.269l0.268-0.067L68,39.967l0.269,0.606
		l0.404,0.067c0.337,0.067,0.809,0.202,1.146,0.269l0.472-0.067h0.607l0.607-0.067l0.337,0.404l0.202,0.337l0.269,0.067l0.472,0.404
		l0.135,0.202l-0.135,0.202l0.539,0.606l0.269,0.067l0.337-0.269l0.135,0.471l0.135,0.606c0.135,0.538,0.269,1.077,0.404,1.615
		l0.337,0.673c0.135,0.269,0.202,0.673,0.269,0.943l0.202,0.471l0.067,0.202c0.067,0.404,0.135,0.875,0.269,1.279l0.269,0.471
		l0.135-0.134l0.067-0.337l0.202-0.134l-0.135-0.202l0.135-0.404h0.135l-0.067-0.875l0.135-0.538
		c-0.067-0.337-0.135-0.74-0.202-1.077v-0.337h0.135l0.202-0.202l0.135-0.134c-0.067-0.067-0.067-0.202-0.067-0.269l0.202-0.269
		l0.067-0.337l0.135-0.606l0.269-0.269v-0.337l-0.135-0.337l0.269-0.134h0.135v-0.067h0.067l0.067,0.067v-0.067l0.135,0.134v-0.269
		l-0.067-0.202h0.135l0.135,0.269v0.269l0.067,0.269c0.067,0.269,0.135,0.404,0.269,0.673l0.135,0.067v0.202l0.269,0.538
		l0.067,0.404l0.067,0.606l0.135,0.134l0.067,0.067l0.067-0.337v-0.269l0.135,0.404c0.067,0.471,0.135,1.01,0.269,1.481l0.067,0.538
		l0.067,0.269v0.404L80,48.516C79.393,37.275,72.652,27.717,63.079,23.073z M65.64,35.458l-0.539,0.134l-0.539-0.067l-0.269-0.269
		l-0.337-0.134l-0.269-0.269l-0.067-0.202l0.135-0.134v-0.134l-0.067-0.269l0.269-0.067L63.82,33.91h-0.202l-0.269-0.269
		c-0.337-0.269-0.607-0.471-0.877-0.74l-0.067-0.269l-0.472-0.337l0.269-0.404l0.269-0.067l0.202-0.202l0.269-0.067l0.269-0.202
		l0.269,0.134h0.269l0.202,0.269l0.135,0.337l-0.472-0.134l-0.269,0.067l0.135,0.269l-0.337-0.067l0.067,0.134l0.269,0.134
		l0.269,0.337l0.472,0.134l0.067,0.202v0.202l0.067,0.134l0.202,0.269l-0.067-0.269l0.269-0.134l0.269,0.202l0.337,0.269
		l-0.269,0.134l-0.404-0.134v0.404h0.269v0.269l0.269,0.134l0.135,0.404l0.202,0.269v0.134L65.64,35.458L65.64,35.458z M80,48.651
		c0,0.269,0,0.471,0,0.673v0.067C80,49.189,80,48.92,80,48.651z M76.966,48.853l-0.202-0.269l-0.135,0.875l0.067,0.74l0.135,0.404
		l0.202-0.134l0.135-0.134l0.067-0.606l-0.135-0.538L76.966,48.853z M79.798,52.353L79.798,52.353c0,0.134,0,0.202,0,0.337h-0.067
		v-0.606c-0.067-0.337-0.067-0.74-0.067-1.077l-0.202-0.134h-0.067v0.269c0.067,0.269,0.135,0.606,0.202,0.875v0.404l0.067,0.269
		c0,0.337,0,0.606,0,0.875v0.404c0,0.404-0.067,0.808-0.067,1.144c0.202-1.01,0.269-2.087,0.337-3.164l-0.135,0.134
		C79.798,52.084,79.798,52.353,79.798,52.353z M57.955,78.537c-0.067-0.067-0.135-0.067-0.202-0.067l-0.067-0.067l-0.269,0.067
		l-0.202,0.067h-0.135v-0.067v-0.067h-0.135v-0.067l-0.067-0.067l0.135-0.067l-0.067-0.067c-0.067-0.067-0.202-0.067-0.269-0.067
		c-0.269,0-0.539,0.067-0.809,0.134l-0.135,0.067l-0.202,0.067h-0.135c-0.135,0.067-0.269,0.067-0.404,0.134h-0.136
		c-0.269,0.067-0.674,0.134-0.944,0.202l-0.269,0.067h-0.203l-0.067,0.067l-0.202,0.067l-0.067-0.067l-0.067-0.067h-0.202
		l-0.135-0.067v-0.067h-0.202l-0.135,0.067l-0.202,0.067l-0.202,0.067h-0.202h-0.202l-0.202,0.067
		c-0.135,0.067-0.202,0.067-0.337,0.067c-0.202,0-0.337,0-0.539,0H50.27l-0.135-0.067L50,78.806
		c-0.067-0.067-0.202-0.067-0.337-0.067c-0.269,0-0.404,0-0.607,0l-0.135,0.067l-0.067-0.067h-0.202l-0.202,0.067l-0.067,0.067
		H48.18c-0.067-0.067-0.202-0.067-0.269-0.134h-0.067l-0.135-0.067l-0.067,0.067l-0.135,0.067h-0.202l-0.135,0.067
		c-0.202,0-0.269,0-0.472,0.067l-0.135,0.067l-0.135-0.067h-0.202c-0.067,0-0.202,0.067-0.337,0.067H45.82l-0.202-0.067h-0.202
		v0.067l0.067,0.067h-0.202l-0.135-0.067h-0.202l-0.067,0.067l0.067,0.067v0.067l-0.067,0.067c-0.067,0-0.135,0.067-0.202,0.067
		v0.067l0.067,0.067l0.202,0.067l0,0c1.618,0.269,3.304,0.404,4.989,0.404c2.494,0,4.921-0.337,7.281-0.875l0,0h-0.135l0.135-0.067
		c0.135-0.067,0.269-0.134,0.404-0.134c0.067-0.067,0.135-0.067,0.269-0.134l0.269-0.202c-0.067,0-0.067,0-0.135,0L57.955,78.537
		L57.955,78.537z M28.427,29.198L28.427,29.198l0.269-0.134h0.067v0.067l0.135-0.134l0.337-0.337l0.067-0.134l-0.067-0.067
		l0.135-0.134C29.034,28.592,28.696,28.861,28.427,29.198z"/>
	<circle id="XMLID_2_" fill="none" stroke="#000000" stroke-miterlimit="10" cx="50" cy="50" r="30"/>
</g>
</svg>
